%TF.GenerationSoftware,KiCad,Pcbnew,8.0.4*%
%TF.CreationDate,2024-08-11T23:54:30+05:30*%
%TF.ProjectId,kalam,6b616c61-6d2e-46b6-9963-61645f706362,rev?*%
%TF.SameCoordinates,Original*%
%TF.FileFunction,Paste,Bot*%
%TF.FilePolarity,Positive*%
%FSLAX46Y46*%
G04 Gerber Fmt 4.6, Leading zero omitted, Abs format (unit mm)*
G04 Created by KiCad (PCBNEW 8.0.4) date 2024-08-11 23:54:30*
%MOMM*%
%LPD*%
G01*
G04 APERTURE LIST*
G04 Aperture macros list*
%AMRoundRect*
0 Rectangle with rounded corners*
0 $1 Rounding radius*
0 $2 $3 $4 $5 $6 $7 $8 $9 X,Y pos of 4 corners*
0 Add a 4 corners polygon primitive as box body*
4,1,4,$2,$3,$4,$5,$6,$7,$8,$9,$2,$3,0*
0 Add four circle primitives for the rounded corners*
1,1,$1+$1,$2,$3*
1,1,$1+$1,$4,$5*
1,1,$1+$1,$6,$7*
1,1,$1+$1,$8,$9*
0 Add four rect primitives between the rounded corners*
20,1,$1+$1,$2,$3,$4,$5,0*
20,1,$1+$1,$4,$5,$6,$7,0*
20,1,$1+$1,$6,$7,$8,$9,0*
20,1,$1+$1,$8,$9,$2,$3,0*%
G04 Aperture macros list end*
%ADD10RoundRect,0.140000X0.140000X0.170000X-0.140000X0.170000X-0.140000X-0.170000X0.140000X-0.170000X0*%
%ADD11RoundRect,0.225000X0.375000X-0.225000X0.375000X0.225000X-0.375000X0.225000X-0.375000X-0.225000X0*%
%ADD12R,1.000000X0.750000*%
%ADD13RoundRect,0.225000X-0.225000X-0.250000X0.225000X-0.250000X0.225000X0.250000X-0.225000X0.250000X0*%
%ADD14RoundRect,0.200000X0.275000X-0.200000X0.275000X0.200000X-0.275000X0.200000X-0.275000X-0.200000X0*%
%ADD15RoundRect,0.140000X-0.170000X0.140000X-0.170000X-0.140000X0.170000X-0.140000X0.170000X0.140000X0*%
%ADD16RoundRect,0.140000X-0.140000X-0.170000X0.140000X-0.170000X0.140000X0.170000X-0.140000X0.170000X0*%
%ADD17RoundRect,0.225000X-0.225000X-0.375000X0.225000X-0.375000X0.225000X0.375000X-0.225000X0.375000X0*%
%ADD18RoundRect,0.140000X0.170000X-0.140000X0.170000X0.140000X-0.170000X0.140000X-0.170000X-0.140000X0*%
%ADD19RoundRect,0.225000X-0.250000X0.225000X-0.250000X-0.225000X0.250000X-0.225000X0.250000X0.225000X0*%
%ADD20RoundRect,0.150000X-0.625000X0.150000X-0.625000X-0.150000X0.625000X-0.150000X0.625000X0.150000X0*%
%ADD21RoundRect,0.250000X-0.650000X0.350000X-0.650000X-0.350000X0.650000X-0.350000X0.650000X0.350000X0*%
%ADD22RoundRect,0.225000X0.225000X0.250000X-0.225000X0.250000X-0.225000X-0.250000X0.225000X-0.250000X0*%
%ADD23RoundRect,0.075000X0.075000X-0.662500X0.075000X0.662500X-0.075000X0.662500X-0.075000X-0.662500X0*%
%ADD24RoundRect,0.075000X0.662500X-0.075000X0.662500X0.075000X-0.662500X0.075000X-0.662500X-0.075000X0*%
%ADD25RoundRect,0.150000X0.150000X-0.512500X0.150000X0.512500X-0.150000X0.512500X-0.150000X-0.512500X0*%
G04 APERTURE END LIST*
D10*
%TO.C,C6*%
X61014388Y-65300883D03*
X60054388Y-65300883D03*
%TD*%
D11*
%TO.C,D5*%
X99615638Y-25003134D03*
X99615638Y-21703134D03*
%TD*%
%TO.C,D4*%
X80565638Y-25003134D03*
X80565638Y-21703134D03*
%TD*%
D12*
%TO.C,BOOT*%
X79153138Y-51196884D03*
X85153138Y-51196884D03*
X79153138Y-47446884D03*
X85153138Y-47446884D03*
%TD*%
%TO.C,RESET*%
X43434388Y-86915634D03*
X49434388Y-86915634D03*
X43434388Y-83165634D03*
X49434388Y-83165634D03*
%TD*%
D11*
%TO.C,D19*%
X123428138Y-44053134D03*
X123428138Y-40753134D03*
%TD*%
D13*
%TO.C,C9*%
X63121888Y-39290634D03*
X64671888Y-39290634D03*
%TD*%
D14*
%TO.C,R1*%
X88503138Y-51196884D03*
X88503138Y-49546884D03*
%TD*%
D15*
%TO.C,C4*%
X51509388Y-67543244D03*
X51509388Y-68503244D03*
%TD*%
D11*
%TO.C,D47*%
X225821888Y-82153134D03*
X225821888Y-78853134D03*
%TD*%
%TO.C,D15*%
X47228138Y-44053134D03*
X47228138Y-40753134D03*
%TD*%
D16*
%TO.C,C1*%
X62154388Y-74809384D03*
X63114388Y-74809384D03*
%TD*%
D17*
%TO.C,D13*%
X257509388Y-25003134D03*
X260809388Y-25003134D03*
%TD*%
D11*
%TO.C,D48*%
X232965638Y-82153134D03*
X232965638Y-78853134D03*
%TD*%
%TO.C,D12*%
X232965638Y-25003134D03*
X232965638Y-21703134D03*
%TD*%
%TO.C,D18*%
X104378138Y-44053134D03*
X104378138Y-40753134D03*
%TD*%
D18*
%TO.C,C10*%
X57864388Y-77839384D03*
X57864388Y-76879384D03*
%TD*%
D19*
%TO.C,C5*%
X50175062Y-66682559D03*
X50175062Y-68232559D03*
%TD*%
D11*
%TO.C,D23*%
X199628138Y-44053134D03*
X199628138Y-40753134D03*
%TD*%
%TO.C,D41*%
X78184388Y-82215634D03*
X78184388Y-78915634D03*
%TD*%
D13*
%TO.C,C3*%
X61284388Y-76134384D03*
X62834388Y-76134384D03*
%TD*%
D11*
%TO.C,D39*%
X254396888Y-63103134D03*
X254396888Y-59803134D03*
%TD*%
%TO.C,D24*%
X218678138Y-44053134D03*
X218678138Y-40753134D03*
%TD*%
%TO.C,D8*%
X156765638Y-25003134D03*
X156765638Y-21703134D03*
%TD*%
%TO.C,D9*%
X175815638Y-25003134D03*
X175815638Y-21703134D03*
%TD*%
%TO.C,D37*%
X225821888Y-63103134D03*
X225821888Y-59803134D03*
%TD*%
%TO.C,D46*%
X185340638Y-82215634D03*
X185340638Y-78915634D03*
%TD*%
%TO.C,D3*%
X61515638Y-25003134D03*
X61515638Y-21703134D03*
%TD*%
%TO.C,D40*%
X54371888Y-82215634D03*
X54371888Y-78915634D03*
%TD*%
%TO.C,D36*%
X206771888Y-63103134D03*
X206771888Y-59803134D03*
%TD*%
%TO.C,D27*%
X33734388Y-66278134D03*
X33734388Y-62978134D03*
%TD*%
%TO.C,D10*%
X194865638Y-25003134D03*
X194865638Y-21703134D03*
%TD*%
%TO.C,D1*%
X35321888Y-25003134D03*
X35321888Y-21703134D03*
%TD*%
%TO.C,D45*%
X154384388Y-82215684D03*
X154384388Y-78915684D03*
%TD*%
%TO.C,D25*%
X237728138Y-44053134D03*
X237728138Y-40753134D03*
%TD*%
%TO.C,D28*%
X37703138Y-66278134D03*
X37703138Y-62978134D03*
%TD*%
%TO.C,D34*%
X168671888Y-63103134D03*
X168671888Y-59803134D03*
%TD*%
%TO.C,D20*%
X142478138Y-44053134D03*
X142478138Y-40753134D03*
%TD*%
%TO.C,D43*%
X113903138Y-82153134D03*
X113903138Y-78853134D03*
%TD*%
D20*
%TO.C,J1*%
X48403138Y-29853134D03*
X48403138Y-30853134D03*
X48403138Y-31853134D03*
X48403138Y-32853134D03*
D21*
X52278138Y-28553134D03*
X52278138Y-34153134D03*
%TD*%
D11*
%TO.C,D33*%
X149621888Y-63103134D03*
X149621888Y-59803134D03*
%TD*%
D16*
%TO.C,C2*%
X55379388Y-76909384D03*
X56339388Y-76909384D03*
%TD*%
D11*
%TO.C,D22*%
X180578138Y-44053134D03*
X180578138Y-40753134D03*
%TD*%
%TO.C,D2*%
X42465638Y-25003134D03*
X42465638Y-21703134D03*
%TD*%
%TO.C,D30*%
X92471888Y-63103134D03*
X92471888Y-59803134D03*
%TD*%
%TO.C,D21*%
X161528138Y-44053134D03*
X161528138Y-40753134D03*
%TD*%
%TO.C,D29*%
X73421888Y-63103134D03*
X73421888Y-59803134D03*
%TD*%
%TO.C,D35*%
X187721888Y-63103134D03*
X187721888Y-59803134D03*
%TD*%
D22*
%TO.C,C7*%
X61859388Y-63984384D03*
X60309388Y-63984384D03*
%TD*%
D11*
%TO.C,D42*%
X101996888Y-82153134D03*
X101996888Y-78853134D03*
%TD*%
%TO.C,D14*%
X37703138Y-44053134D03*
X37703138Y-40753134D03*
%TD*%
%TO.C,D17*%
X85328138Y-44053134D03*
X85328138Y-40753134D03*
%TD*%
%TO.C,D6*%
X118665638Y-25003134D03*
X118665638Y-21703134D03*
%TD*%
%TO.C,D7*%
X137715638Y-25003134D03*
X137715638Y-21703134D03*
%TD*%
D17*
%TO.C,D26*%
X251890638Y-44053134D03*
X255190638Y-44053134D03*
%TD*%
D11*
%TO.C,D38*%
X244871888Y-63103134D03*
X244871888Y-59803134D03*
%TD*%
D23*
%TO.C,U2*%
X60009388Y-75221884D03*
X59509388Y-75221884D03*
X59009388Y-75221884D03*
X58509388Y-75221884D03*
X58009388Y-75221884D03*
X57509388Y-75221884D03*
X57009388Y-75221884D03*
X56509388Y-75221884D03*
X56009388Y-75221884D03*
X55509388Y-75221884D03*
X55009388Y-75221884D03*
X54509388Y-75221884D03*
D24*
X53096888Y-73809384D03*
X53096888Y-73309384D03*
X53096888Y-72809384D03*
X53096888Y-72309384D03*
X53096888Y-71809384D03*
X53096888Y-71309384D03*
X53096888Y-70809384D03*
X53096888Y-70309384D03*
X53096888Y-69809384D03*
X53096888Y-69309384D03*
X53096888Y-68809384D03*
X53096888Y-68309384D03*
D23*
X54509388Y-66896884D03*
X55009388Y-66896884D03*
X55509388Y-66896884D03*
X56009388Y-66896884D03*
X56509388Y-66896884D03*
X57009388Y-66896884D03*
X57509388Y-66896884D03*
X58009388Y-66896884D03*
X58509388Y-66896884D03*
X59009388Y-66896884D03*
X59509388Y-66896884D03*
X60009388Y-66896884D03*
D24*
X61421888Y-68309384D03*
X61421888Y-68809384D03*
X61421888Y-69309384D03*
X61421888Y-69809384D03*
X61421888Y-70309384D03*
X61421888Y-70809384D03*
X61421888Y-71309384D03*
X61421888Y-71809384D03*
X61421888Y-72309384D03*
X61421888Y-72809384D03*
X61421888Y-73309384D03*
X61421888Y-73809384D03*
%TD*%
D11*
%TO.C,D31*%
X111521888Y-63103134D03*
X111521888Y-59803134D03*
%TD*%
%TO.C,D11*%
X213915638Y-25003134D03*
X213915638Y-21703134D03*
%TD*%
D13*
%TO.C,C8*%
X63896888Y-32940634D03*
X65446888Y-32940634D03*
%TD*%
D11*
%TO.C,D16*%
X66278138Y-44053134D03*
X66278138Y-40753134D03*
%TD*%
%TO.C,D32*%
X130571888Y-63103134D03*
X130571888Y-59803134D03*
%TD*%
D25*
%TO.C,U1*%
X64846888Y-37253134D03*
X62946888Y-37253134D03*
X63896888Y-34978134D03*
%TD*%
D11*
%TO.C,D44*%
X135334388Y-82215634D03*
X135334388Y-78915634D03*
%TD*%
M02*
