%TF.GenerationSoftware,KiCad,Pcbnew,8.0.5*%
%TF.CreationDate,2024-09-21T22:15:35+05:30*%
%TF.ProjectId,kalam,6b616c61-6d2e-46b6-9963-61645f706362,rev?*%
%TF.SameCoordinates,Original*%
%TF.FileFunction,Legend,Bot*%
%TF.FilePolarity,Positive*%
%FSLAX46Y46*%
G04 Gerber Fmt 4.6, Leading zero omitted, Abs format (unit mm)*
G04 Created by KiCad (PCBNEW 8.0.5) date 2024-09-21 22:15:35*
%MOMM*%
%LPD*%
G01*
G04 APERTURE LIST*
G04 Aperture macros list*
%AMRoundRect*
0 Rectangle with rounded corners*
0 $1 Rounding radius*
0 $2 $3 $4 $5 $6 $7 $8 $9 X,Y pos of 4 corners*
0 Add a 4 corners polygon primitive as box body*
4,1,4,$2,$3,$4,$5,$6,$7,$8,$9,$2,$3,0*
0 Add four circle primitives for the rounded corners*
1,1,$1+$1,$2,$3*
1,1,$1+$1,$4,$5*
1,1,$1+$1,$6,$7*
1,1,$1+$1,$8,$9*
0 Add four rect primitives between the rounded corners*
20,1,$1+$1,$2,$3,$4,$5,0*
20,1,$1+$1,$4,$5,$6,$7,0*
20,1,$1+$1,$6,$7,$8,$9,0*
20,1,$1+$1,$8,$9,$2,$3,0*%
G04 Aperture macros list end*
%ADD10C,0.000000*%
%ADD11C,0.150000*%
%ADD12C,0.200000*%
%ADD13C,0.220000*%
%ADD14C,0.120000*%
%ADD15C,1.750000*%
%ADD16C,3.987800*%
%ADD17C,2.300000*%
%ADD18C,4.000000*%
%ADD19RoundRect,0.140000X0.140000X0.170000X-0.140000X0.170000X-0.140000X-0.170000X0.140000X-0.170000X0*%
%ADD20RoundRect,0.225000X0.375000X-0.225000X0.375000X0.225000X-0.375000X0.225000X-0.375000X-0.225000X0*%
%ADD21R,1.000000X0.750000*%
%ADD22RoundRect,0.225000X-0.225000X-0.250000X0.225000X-0.250000X0.225000X0.250000X-0.225000X0.250000X0*%
%ADD23RoundRect,0.200000X0.275000X-0.200000X0.275000X0.200000X-0.275000X0.200000X-0.275000X-0.200000X0*%
%ADD24RoundRect,0.140000X-0.170000X0.140000X-0.170000X-0.140000X0.170000X-0.140000X0.170000X0.140000X0*%
%ADD25RoundRect,0.140000X-0.140000X-0.170000X0.140000X-0.170000X0.140000X0.170000X-0.140000X0.170000X0*%
%ADD26RoundRect,0.225000X-0.250000X0.225000X-0.250000X-0.225000X0.250000X-0.225000X0.250000X0.225000X0*%
%ADD27RoundRect,0.150000X-0.625000X0.150000X-0.625000X-0.150000X0.625000X-0.150000X0.625000X0.150000X0*%
%ADD28RoundRect,0.250000X-0.650000X0.350000X-0.650000X-0.350000X0.650000X-0.350000X0.650000X0.350000X0*%
%ADD29RoundRect,0.225000X0.225000X0.250000X-0.225000X0.250000X-0.225000X-0.250000X0.225000X-0.250000X0*%
%ADD30RoundRect,0.075000X0.075000X-0.662500X0.075000X0.662500X-0.075000X0.662500X-0.075000X-0.662500X0*%
%ADD31RoundRect,0.075000X0.662500X-0.075000X0.662500X0.075000X-0.662500X0.075000X-0.662500X-0.075000X0*%
%ADD32R,1.700000X1.700000*%
%ADD33O,1.700000X1.700000*%
%ADD34RoundRect,0.150000X0.150000X-0.512500X0.150000X0.512500X-0.150000X0.512500X-0.150000X-0.512500X0*%
%ADD35RoundRect,0.140000X0.170000X-0.140000X0.170000X0.140000X-0.170000X0.140000X-0.170000X-0.140000X0*%
G04 APERTURE END LIST*
D10*
G36*
X238252819Y-86023184D02*
G01*
X238253759Y-86025607D01*
X238254582Y-86028073D01*
X238255284Y-86030580D01*
X238255865Y-86033122D01*
X238256322Y-86035696D01*
X238256653Y-86038296D01*
X238256857Y-86040919D01*
X238256932Y-86043561D01*
X238256957Y-86043561D01*
X238256957Y-86105211D01*
X238256856Y-86109311D01*
X238256553Y-86113383D01*
X238256051Y-86117420D01*
X238255354Y-86121417D01*
X238254464Y-86125365D01*
X238253383Y-86129258D01*
X238252116Y-86133089D01*
X238250664Y-86136852D01*
X238249030Y-86140539D01*
X238247217Y-86144145D01*
X238245228Y-86147662D01*
X238243066Y-86151083D01*
X238240733Y-86154402D01*
X238238233Y-86157611D01*
X238235568Y-86160705D01*
X238232740Y-86163676D01*
X238229769Y-86166503D01*
X238226676Y-86169168D01*
X238223466Y-86171669D01*
X238220147Y-86174001D01*
X238216726Y-86176164D01*
X238213209Y-86178153D01*
X238209604Y-86179965D01*
X238205916Y-86181599D01*
X238202153Y-86183051D01*
X238198322Y-86184319D01*
X238194429Y-86185400D01*
X238190481Y-86186290D01*
X238186485Y-86186987D01*
X238182447Y-86187489D01*
X238178375Y-86187792D01*
X238174275Y-86187893D01*
X235611124Y-86187893D01*
X235594724Y-86187487D01*
X235578436Y-86186275D01*
X235562285Y-86184269D01*
X235546301Y-86181480D01*
X235530509Y-86177919D01*
X235514936Y-86173597D01*
X235499611Y-86168527D01*
X235484560Y-86162718D01*
X235469809Y-86156182D01*
X235455387Y-86148931D01*
X235441320Y-86140975D01*
X235427635Y-86132327D01*
X235414360Y-86122996D01*
X235401522Y-86112995D01*
X235389147Y-86102334D01*
X235377263Y-86091025D01*
X235365954Y-86079141D01*
X235355293Y-86066766D01*
X235345292Y-86053928D01*
X235335961Y-86040653D01*
X235327313Y-86026968D01*
X235319357Y-86012901D01*
X235312106Y-85998479D01*
X235305570Y-85983728D01*
X235299761Y-85968677D01*
X235294691Y-85953352D01*
X235290369Y-85937779D01*
X235286808Y-85921987D01*
X235284019Y-85906003D01*
X235282013Y-85889852D01*
X235280801Y-85873564D01*
X235280395Y-85857164D01*
X235280395Y-83289323D01*
X235445760Y-83289323D01*
X235445760Y-85857164D01*
X235445963Y-85865364D01*
X235446569Y-85873508D01*
X235447572Y-85881583D01*
X235448966Y-85889575D01*
X235450747Y-85897472D01*
X235452907Y-85905258D01*
X235455443Y-85912920D01*
X235458347Y-85920446D01*
X235461615Y-85927821D01*
X235465241Y-85935032D01*
X235469218Y-85942066D01*
X235473543Y-85948908D01*
X235478208Y-85955546D01*
X235483209Y-85961965D01*
X235488539Y-85968152D01*
X235494194Y-85974094D01*
X235500136Y-85979749D01*
X235506323Y-85985079D01*
X235512742Y-85990080D01*
X235519380Y-85994745D01*
X235526222Y-85999070D01*
X235533256Y-86003047D01*
X235540467Y-86006673D01*
X235547842Y-86009941D01*
X235555368Y-86012845D01*
X235563030Y-86015381D01*
X235570816Y-86017541D01*
X235578713Y-86019322D01*
X235586705Y-86020716D01*
X235594780Y-86021719D01*
X235602924Y-86022325D01*
X235611124Y-86022528D01*
X238029930Y-86022528D01*
X235445760Y-83289323D01*
X235280395Y-83289323D01*
X235280395Y-82880601D01*
X235363077Y-82880601D01*
X235367177Y-82880703D01*
X235371249Y-82881006D01*
X235375287Y-82881508D01*
X235379283Y-82882205D01*
X235383231Y-82883095D01*
X235387124Y-82884175D01*
X235390956Y-82885443D01*
X235394718Y-82886895D01*
X235398406Y-82888529D01*
X235402012Y-82890342D01*
X235405528Y-82892331D01*
X235408949Y-82894493D01*
X235412268Y-82896826D01*
X235415478Y-82899326D01*
X235418571Y-82901991D01*
X235421542Y-82904819D01*
X235424370Y-82907790D01*
X235427035Y-82910883D01*
X235429535Y-82914093D01*
X235431868Y-82917412D01*
X235434030Y-82920833D01*
X235436019Y-82924349D01*
X235437832Y-82927955D01*
X235439466Y-82931643D01*
X235440918Y-82935406D01*
X235442186Y-82939237D01*
X235443266Y-82943130D01*
X235444156Y-82947078D01*
X235444853Y-82951074D01*
X235445355Y-82955112D01*
X235445658Y-82959184D01*
X235445760Y-82963284D01*
X235445760Y-83027905D01*
X235445845Y-83030530D01*
X235446058Y-83033136D01*
X235446396Y-83035720D01*
X235446859Y-83038276D01*
X235447444Y-83040802D01*
X235448149Y-83043292D01*
X235448972Y-83045742D01*
X235449913Y-83048148D01*
X235450969Y-83050506D01*
X235452138Y-83052812D01*
X235453418Y-83055061D01*
X235454808Y-83057248D01*
X235456306Y-83059371D01*
X235457910Y-83061424D01*
X235459619Y-83063404D01*
X235461430Y-83065306D01*
X238241248Y-86005915D01*
X238243070Y-86007828D01*
X238244789Y-86009819D01*
X238246402Y-86011886D01*
X238247908Y-86014022D01*
X238249304Y-86016225D01*
X238250589Y-86018489D01*
X238251761Y-86020810D01*
X238252527Y-86022528D01*
X238252819Y-86023184D01*
G37*
G36*
X238273357Y-82881008D02*
G01*
X238289646Y-82882220D01*
X238305796Y-82884226D01*
X238321781Y-82887015D01*
X238337573Y-82890576D01*
X238353145Y-82894897D01*
X238368470Y-82899968D01*
X238383522Y-82905777D01*
X238398272Y-82912312D01*
X238412695Y-82919564D01*
X238426762Y-82927519D01*
X238440446Y-82936168D01*
X238453721Y-82945499D01*
X238466560Y-82955500D01*
X238478934Y-82966161D01*
X238490818Y-82977470D01*
X238502127Y-82989354D01*
X238512788Y-83001728D01*
X238522789Y-83014567D01*
X238532120Y-83027842D01*
X238540769Y-83041527D01*
X238548724Y-83055593D01*
X238555976Y-83070016D01*
X238562511Y-83084766D01*
X238568320Y-83099818D01*
X238573391Y-83115143D01*
X238577712Y-83130715D01*
X238581273Y-83146507D01*
X238584062Y-83162492D01*
X238586068Y-83178642D01*
X238587280Y-83194931D01*
X238587687Y-83211331D01*
X238587687Y-86187893D01*
X238505004Y-86187893D01*
X238500904Y-86187792D01*
X238496832Y-86187489D01*
X238492795Y-86186987D01*
X238488798Y-86186290D01*
X238484850Y-86185400D01*
X238480957Y-86184319D01*
X238477126Y-86183051D01*
X238473363Y-86181599D01*
X238469675Y-86179965D01*
X238466070Y-86178153D01*
X238462553Y-86176164D01*
X238459132Y-86174001D01*
X238455813Y-86171669D01*
X238452604Y-86169168D01*
X238449510Y-86166503D01*
X238446539Y-86163676D01*
X238443712Y-86160705D01*
X238441047Y-86157611D01*
X238438546Y-86154402D01*
X238436214Y-86151083D01*
X238434051Y-86147662D01*
X238432062Y-86144145D01*
X238430250Y-86140539D01*
X238428616Y-86136852D01*
X238427164Y-86133089D01*
X238425896Y-86129258D01*
X238424816Y-86125365D01*
X238423925Y-86121417D01*
X238423228Y-86117420D01*
X238422727Y-86113383D01*
X238422424Y-86109311D01*
X238422322Y-86105211D01*
X238422322Y-85875431D01*
X238422247Y-85872845D01*
X238422049Y-85870276D01*
X238421728Y-85867728D01*
X238421287Y-85865205D01*
X238420727Y-85862712D01*
X238420049Y-85860253D01*
X238419256Y-85857831D01*
X238418349Y-85855451D01*
X238417330Y-85853117D01*
X238416200Y-85850833D01*
X238414962Y-85848603D01*
X238413616Y-85846431D01*
X238412165Y-85844321D01*
X238410609Y-85842278D01*
X238408952Y-85840304D01*
X238407194Y-85838405D01*
X238264593Y-85687549D01*
X238264812Y-85687549D01*
X238262990Y-85685636D01*
X238261271Y-85683644D01*
X238259658Y-85681578D01*
X238258152Y-85679441D01*
X238256756Y-85677239D01*
X238255471Y-85674975D01*
X238254299Y-85672653D01*
X238253241Y-85670279D01*
X238252300Y-85667857D01*
X238251478Y-85665390D01*
X238250775Y-85662883D01*
X238250195Y-85660341D01*
X238249738Y-85657767D01*
X238249407Y-85655167D01*
X238249203Y-85652544D01*
X238249128Y-85649903D01*
X238249128Y-83484208D01*
X238248814Y-83471540D01*
X238247878Y-83458957D01*
X238246328Y-83446481D01*
X238244174Y-83434133D01*
X238241423Y-83421934D01*
X238238084Y-83409904D01*
X238234167Y-83398066D01*
X238229680Y-83386438D01*
X238224631Y-83375043D01*
X238219029Y-83363902D01*
X238212883Y-83353035D01*
X238206202Y-83342464D01*
X238198994Y-83332209D01*
X238191267Y-83322291D01*
X238183031Y-83312731D01*
X238174295Y-83303550D01*
X238165114Y-83294814D01*
X238155554Y-83286578D01*
X238145636Y-83278852D01*
X238135381Y-83271644D01*
X238124809Y-83264963D01*
X238113942Y-83258817D01*
X238102801Y-83253216D01*
X238091406Y-83248167D01*
X238079778Y-83243680D01*
X238067939Y-83239763D01*
X238055909Y-83236424D01*
X238043709Y-83233674D01*
X238031361Y-83231519D01*
X238018884Y-83229970D01*
X238006301Y-83229034D01*
X237993632Y-83228720D01*
X235962963Y-83228720D01*
X235962963Y-83228655D01*
X235960323Y-83228581D01*
X235957701Y-83228377D01*
X235955102Y-83228046D01*
X235952529Y-83227590D01*
X235949988Y-83227010D01*
X235947482Y-83226308D01*
X235945017Y-83225486D01*
X235942595Y-83224546D01*
X235940222Y-83223489D01*
X235937901Y-83222318D01*
X235935638Y-83221034D01*
X235933436Y-83219639D01*
X235931300Y-83218135D01*
X235929234Y-83216523D01*
X235927242Y-83214805D01*
X235925330Y-83212984D01*
X235925317Y-83212971D01*
X235782251Y-83061624D01*
X235782251Y-83061650D01*
X235780338Y-83059827D01*
X235778346Y-83058108D01*
X235776279Y-83056495D01*
X235774143Y-83054990D01*
X235771940Y-83053594D01*
X235769676Y-83052309D01*
X235767355Y-83051136D01*
X235764981Y-83050079D01*
X235762558Y-83049138D01*
X235760092Y-83048316D01*
X235757585Y-83047613D01*
X235755043Y-83047033D01*
X235752469Y-83046576D01*
X235749869Y-83046245D01*
X235747246Y-83046041D01*
X235744604Y-83045966D01*
X235693806Y-83045966D01*
X235689706Y-83045864D01*
X235685634Y-83045561D01*
X235681597Y-83045060D01*
X235677601Y-83044363D01*
X235673653Y-83043472D01*
X235669759Y-83042392D01*
X235665928Y-83041124D01*
X235662165Y-83039672D01*
X235658478Y-83038038D01*
X235654872Y-83036226D01*
X235651355Y-83034237D01*
X235647934Y-83032074D01*
X235644615Y-83029742D01*
X235641406Y-83027241D01*
X235638312Y-83024576D01*
X235635341Y-83021749D01*
X235632514Y-83018778D01*
X235629849Y-83015684D01*
X235627348Y-83012475D01*
X235625016Y-83009156D01*
X235622854Y-83005735D01*
X235620865Y-83002218D01*
X235619052Y-82998613D01*
X235617418Y-82994925D01*
X235615966Y-82991162D01*
X235614698Y-82987331D01*
X235613618Y-82983438D01*
X235612728Y-82979490D01*
X235612030Y-82975493D01*
X235611529Y-82971456D01*
X235611226Y-82967384D01*
X235611124Y-82963284D01*
X235611124Y-82880601D01*
X238256957Y-82880601D01*
X238273357Y-82881008D01*
G37*
G36*
X238121371Y-85536046D02*
G01*
X236347441Y-83659507D01*
X236574580Y-83659507D01*
X237808781Y-84964880D01*
X237808781Y-83742190D01*
X237808679Y-83738090D01*
X237808376Y-83734018D01*
X237807874Y-83729980D01*
X237807177Y-83725984D01*
X237806287Y-83722036D01*
X237805207Y-83718143D01*
X237803939Y-83714311D01*
X237802487Y-83710549D01*
X237800853Y-83706861D01*
X237799040Y-83703255D01*
X237797051Y-83699739D01*
X237794889Y-83696318D01*
X237792556Y-83692999D01*
X237790056Y-83689789D01*
X237787391Y-83686695D01*
X237784564Y-83683724D01*
X237781593Y-83680897D01*
X237778499Y-83678232D01*
X237775289Y-83675732D01*
X237771970Y-83673399D01*
X237768549Y-83671237D01*
X237765033Y-83669248D01*
X237761427Y-83667435D01*
X237757739Y-83665801D01*
X237753977Y-83664349D01*
X237750145Y-83663081D01*
X237746252Y-83662001D01*
X237742304Y-83661111D01*
X237738308Y-83660414D01*
X237734270Y-83659912D01*
X237730198Y-83659609D01*
X237726098Y-83659507D01*
X236574580Y-83659507D01*
X236347441Y-83659507D01*
X236060968Y-83356464D01*
X237993627Y-83356464D01*
X238000201Y-83356630D01*
X238006688Y-83357124D01*
X238013081Y-83357936D01*
X238019372Y-83359060D01*
X238025552Y-83360486D01*
X238031614Y-83362208D01*
X238037550Y-83364216D01*
X238043351Y-83366503D01*
X238049009Y-83369061D01*
X238054517Y-83371883D01*
X238059867Y-83374959D01*
X238065050Y-83378281D01*
X238070058Y-83381843D01*
X238074884Y-83385635D01*
X238079519Y-83389650D01*
X238083955Y-83393880D01*
X238088185Y-83398316D01*
X238092200Y-83402952D01*
X238095992Y-83407777D01*
X238099554Y-83412786D01*
X238102877Y-83417969D01*
X238105953Y-83423318D01*
X238108774Y-83428826D01*
X238111332Y-83434485D01*
X238113619Y-83440286D01*
X238115628Y-83446221D01*
X238117349Y-83452283D01*
X238118776Y-83458463D01*
X238119899Y-83464754D01*
X238120712Y-83471147D01*
X238121205Y-83477634D01*
X238121371Y-83484208D01*
X238121371Y-83742190D01*
X238121371Y-85536046D01*
G37*
D11*
X46641295Y-29181061D02*
X46031772Y-29181061D01*
X46336533Y-29485823D02*
X46336533Y-28876299D01*
X45269867Y-28685823D02*
X45650819Y-28685823D01*
X45650819Y-28685823D02*
X45688915Y-29066775D01*
X45688915Y-29066775D02*
X45650819Y-29028680D01*
X45650819Y-29028680D02*
X45574629Y-28990585D01*
X45574629Y-28990585D02*
X45384153Y-28990585D01*
X45384153Y-28990585D02*
X45307962Y-29028680D01*
X45307962Y-29028680D02*
X45269867Y-29066775D01*
X45269867Y-29066775D02*
X45231772Y-29142966D01*
X45231772Y-29142966D02*
X45231772Y-29333442D01*
X45231772Y-29333442D02*
X45269867Y-29409632D01*
X45269867Y-29409632D02*
X45307962Y-29447728D01*
X45307962Y-29447728D02*
X45384153Y-29485823D01*
X45384153Y-29485823D02*
X45574629Y-29485823D01*
X45574629Y-29485823D02*
X45650819Y-29447728D01*
X45650819Y-29447728D02*
X45688915Y-29409632D01*
X45003200Y-28685823D02*
X44736533Y-29485823D01*
X44736533Y-29485823D02*
X44469867Y-28685823D01*
X46641295Y-30773778D02*
X46641295Y-29973778D01*
X46641295Y-29973778D02*
X46450819Y-29973778D01*
X46450819Y-29973778D02*
X46336533Y-30011873D01*
X46336533Y-30011873D02*
X46260343Y-30088063D01*
X46260343Y-30088063D02*
X46222248Y-30164254D01*
X46222248Y-30164254D02*
X46184152Y-30316635D01*
X46184152Y-30316635D02*
X46184152Y-30430921D01*
X46184152Y-30430921D02*
X46222248Y-30583302D01*
X46222248Y-30583302D02*
X46260343Y-30659492D01*
X46260343Y-30659492D02*
X46336533Y-30735683D01*
X46336533Y-30735683D02*
X46450819Y-30773778D01*
X46450819Y-30773778D02*
X46641295Y-30773778D01*
X45841295Y-30469016D02*
X45231772Y-30469016D01*
X46641295Y-32061733D02*
X46641295Y-31261733D01*
X46641295Y-31261733D02*
X46450819Y-31261733D01*
X46450819Y-31261733D02*
X46336533Y-31299828D01*
X46336533Y-31299828D02*
X46260343Y-31376018D01*
X46260343Y-31376018D02*
X46222248Y-31452209D01*
X46222248Y-31452209D02*
X46184152Y-31604590D01*
X46184152Y-31604590D02*
X46184152Y-31718876D01*
X46184152Y-31718876D02*
X46222248Y-31871257D01*
X46222248Y-31871257D02*
X46260343Y-31947447D01*
X46260343Y-31947447D02*
X46336533Y-32023638D01*
X46336533Y-32023638D02*
X46450819Y-32061733D01*
X46450819Y-32061733D02*
X46641295Y-32061733D01*
X45841295Y-31756971D02*
X45231772Y-31756971D01*
X45536533Y-32061733D02*
X45536533Y-31452209D01*
X46222248Y-32587783D02*
X46298438Y-32549688D01*
X46298438Y-32549688D02*
X46412724Y-32549688D01*
X46412724Y-32549688D02*
X46527010Y-32587783D01*
X46527010Y-32587783D02*
X46603200Y-32663973D01*
X46603200Y-32663973D02*
X46641295Y-32740164D01*
X46641295Y-32740164D02*
X46679391Y-32892545D01*
X46679391Y-32892545D02*
X46679391Y-33006831D01*
X46679391Y-33006831D02*
X46641295Y-33159212D01*
X46641295Y-33159212D02*
X46603200Y-33235402D01*
X46603200Y-33235402D02*
X46527010Y-33311593D01*
X46527010Y-33311593D02*
X46412724Y-33349688D01*
X46412724Y-33349688D02*
X46336533Y-33349688D01*
X46336533Y-33349688D02*
X46222248Y-33311593D01*
X46222248Y-33311593D02*
X46184152Y-33273497D01*
X46184152Y-33273497D02*
X46184152Y-33006831D01*
X46184152Y-33006831D02*
X46336533Y-33006831D01*
X45841295Y-33349688D02*
X45841295Y-32549688D01*
X45841295Y-32549688D02*
X45384152Y-33349688D01*
X45384152Y-33349688D02*
X45384152Y-32549688D01*
X45003200Y-33349688D02*
X45003200Y-32549688D01*
X45003200Y-32549688D02*
X44812724Y-32549688D01*
X44812724Y-32549688D02*
X44698438Y-32587783D01*
X44698438Y-32587783D02*
X44622248Y-32663973D01*
X44622248Y-32663973D02*
X44584153Y-32740164D01*
X44584153Y-32740164D02*
X44546057Y-32892545D01*
X44546057Y-32892545D02*
X44546057Y-33006831D01*
X44546057Y-33006831D02*
X44584153Y-33159212D01*
X44584153Y-33159212D02*
X44622248Y-33235402D01*
X44622248Y-33235402D02*
X44698438Y-33311593D01*
X44698438Y-33311593D02*
X44812724Y-33349688D01*
X44812724Y-33349688D02*
X45003200Y-33349688D01*
D12*
X85593836Y-52613531D02*
X85450979Y-52661150D01*
X85450979Y-52661150D02*
X85403360Y-52708769D01*
X85403360Y-52708769D02*
X85355741Y-52804007D01*
X85355741Y-52804007D02*
X85355741Y-52946864D01*
X85355741Y-52946864D02*
X85403360Y-53042102D01*
X85403360Y-53042102D02*
X85450979Y-53089722D01*
X85450979Y-53089722D02*
X85546217Y-53137341D01*
X85546217Y-53137341D02*
X85927169Y-53137341D01*
X85927169Y-53137341D02*
X85927169Y-52137341D01*
X85927169Y-52137341D02*
X85593836Y-52137341D01*
X85593836Y-52137341D02*
X85498598Y-52184960D01*
X85498598Y-52184960D02*
X85450979Y-52232579D01*
X85450979Y-52232579D02*
X85403360Y-52327817D01*
X85403360Y-52327817D02*
X85403360Y-52423055D01*
X85403360Y-52423055D02*
X85450979Y-52518293D01*
X85450979Y-52518293D02*
X85498598Y-52565912D01*
X85498598Y-52565912D02*
X85593836Y-52613531D01*
X85593836Y-52613531D02*
X85927169Y-52613531D01*
X84736693Y-52137341D02*
X84546217Y-52137341D01*
X84546217Y-52137341D02*
X84450979Y-52184960D01*
X84450979Y-52184960D02*
X84355741Y-52280198D01*
X84355741Y-52280198D02*
X84308122Y-52470674D01*
X84308122Y-52470674D02*
X84308122Y-52804007D01*
X84308122Y-52804007D02*
X84355741Y-52994483D01*
X84355741Y-52994483D02*
X84450979Y-53089722D01*
X84450979Y-53089722D02*
X84546217Y-53137341D01*
X84546217Y-53137341D02*
X84736693Y-53137341D01*
X84736693Y-53137341D02*
X84831931Y-53089722D01*
X84831931Y-53089722D02*
X84927169Y-52994483D01*
X84927169Y-52994483D02*
X84974788Y-52804007D01*
X84974788Y-52804007D02*
X84974788Y-52470674D01*
X84974788Y-52470674D02*
X84927169Y-52280198D01*
X84927169Y-52280198D02*
X84831931Y-52184960D01*
X84831931Y-52184960D02*
X84736693Y-52137341D01*
X83689074Y-52137341D02*
X83498598Y-52137341D01*
X83498598Y-52137341D02*
X83403360Y-52184960D01*
X83403360Y-52184960D02*
X83308122Y-52280198D01*
X83308122Y-52280198D02*
X83260503Y-52470674D01*
X83260503Y-52470674D02*
X83260503Y-52804007D01*
X83260503Y-52804007D02*
X83308122Y-52994483D01*
X83308122Y-52994483D02*
X83403360Y-53089722D01*
X83403360Y-53089722D02*
X83498598Y-53137341D01*
X83498598Y-53137341D02*
X83689074Y-53137341D01*
X83689074Y-53137341D02*
X83784312Y-53089722D01*
X83784312Y-53089722D02*
X83879550Y-52994483D01*
X83879550Y-52994483D02*
X83927169Y-52804007D01*
X83927169Y-52804007D02*
X83927169Y-52470674D01*
X83927169Y-52470674D02*
X83879550Y-52280198D01*
X83879550Y-52280198D02*
X83784312Y-52184960D01*
X83784312Y-52184960D02*
X83689074Y-52137341D01*
X82974788Y-52137341D02*
X82403360Y-52137341D01*
X82689074Y-53137341D02*
X82689074Y-52137341D01*
D11*
X20999502Y-65435160D02*
X20856645Y-65482779D01*
X20856645Y-65482779D02*
X20618550Y-65482779D01*
X20618550Y-65482779D02*
X20523312Y-65435160D01*
X20523312Y-65435160D02*
X20475693Y-65387540D01*
X20475693Y-65387540D02*
X20428074Y-65292302D01*
X20428074Y-65292302D02*
X20428074Y-65197064D01*
X20428074Y-65197064D02*
X20475693Y-65101826D01*
X20475693Y-65101826D02*
X20523312Y-65054207D01*
X20523312Y-65054207D02*
X20618550Y-65006588D01*
X20618550Y-65006588D02*
X20809026Y-64958969D01*
X20809026Y-64958969D02*
X20904264Y-64911350D01*
X20904264Y-64911350D02*
X20951883Y-64863731D01*
X20951883Y-64863731D02*
X20999502Y-64768493D01*
X20999502Y-64768493D02*
X20999502Y-64673255D01*
X20999502Y-64673255D02*
X20951883Y-64578017D01*
X20951883Y-64578017D02*
X20904264Y-64530398D01*
X20904264Y-64530398D02*
X20809026Y-64482779D01*
X20809026Y-64482779D02*
X20570931Y-64482779D01*
X20570931Y-64482779D02*
X20428074Y-64530398D01*
X20094740Y-64482779D02*
X19856645Y-65482779D01*
X19856645Y-65482779D02*
X19666169Y-64768493D01*
X19666169Y-64768493D02*
X19475693Y-65482779D01*
X19475693Y-65482779D02*
X19237598Y-64482779D01*
X18856645Y-65482779D02*
X18856645Y-64482779D01*
X18856645Y-64482779D02*
X18618550Y-64482779D01*
X18618550Y-64482779D02*
X18475693Y-64530398D01*
X18475693Y-64530398D02*
X18380455Y-64625636D01*
X18380455Y-64625636D02*
X18332836Y-64720874D01*
X18332836Y-64720874D02*
X18285217Y-64911350D01*
X18285217Y-64911350D02*
X18285217Y-65054207D01*
X18285217Y-65054207D02*
X18332836Y-65244683D01*
X18332836Y-65244683D02*
X18380455Y-65339921D01*
X18380455Y-65339921D02*
X18475693Y-65435160D01*
X18475693Y-65435160D02*
X18618550Y-65482779D01*
X18618550Y-65482779D02*
X18856645Y-65482779D01*
X17856645Y-65482779D02*
X17856645Y-64482779D01*
X17189979Y-64482779D02*
X16999503Y-64482779D01*
X16999503Y-64482779D02*
X16904265Y-64530398D01*
X16904265Y-64530398D02*
X16809027Y-64625636D01*
X16809027Y-64625636D02*
X16761408Y-64816112D01*
X16761408Y-64816112D02*
X16761408Y-65149445D01*
X16761408Y-65149445D02*
X16809027Y-65339921D01*
X16809027Y-65339921D02*
X16904265Y-65435160D01*
X16904265Y-65435160D02*
X16999503Y-65482779D01*
X16999503Y-65482779D02*
X17189979Y-65482779D01*
X17189979Y-65482779D02*
X17285217Y-65435160D01*
X17285217Y-65435160D02*
X17380455Y-65339921D01*
X17380455Y-65339921D02*
X17428074Y-65149445D01*
X17428074Y-65149445D02*
X17428074Y-64816112D01*
X17428074Y-64816112D02*
X17380455Y-64625636D01*
X17380455Y-64625636D02*
X17285217Y-64530398D01*
X17285217Y-64530398D02*
X17189979Y-64482779D01*
X20483598Y-62895160D02*
X20340741Y-62942779D01*
X20340741Y-62942779D02*
X20102646Y-62942779D01*
X20102646Y-62942779D02*
X20007408Y-62895160D01*
X20007408Y-62895160D02*
X19959789Y-62847540D01*
X19959789Y-62847540D02*
X19912170Y-62752302D01*
X19912170Y-62752302D02*
X19912170Y-62657064D01*
X19912170Y-62657064D02*
X19959789Y-62561826D01*
X19959789Y-62561826D02*
X20007408Y-62514207D01*
X20007408Y-62514207D02*
X20102646Y-62466588D01*
X20102646Y-62466588D02*
X20293122Y-62418969D01*
X20293122Y-62418969D02*
X20388360Y-62371350D01*
X20388360Y-62371350D02*
X20435979Y-62323731D01*
X20435979Y-62323731D02*
X20483598Y-62228493D01*
X20483598Y-62228493D02*
X20483598Y-62133255D01*
X20483598Y-62133255D02*
X20435979Y-62038017D01*
X20435979Y-62038017D02*
X20388360Y-61990398D01*
X20388360Y-61990398D02*
X20293122Y-61942779D01*
X20293122Y-61942779D02*
X20055027Y-61942779D01*
X20055027Y-61942779D02*
X19912170Y-61990398D01*
X19578836Y-61942779D02*
X19340741Y-62942779D01*
X19340741Y-62942779D02*
X19150265Y-62228493D01*
X19150265Y-62228493D02*
X18959789Y-62942779D01*
X18959789Y-62942779D02*
X18721694Y-61942779D01*
X18340741Y-62942779D02*
X18340741Y-61942779D01*
X18340741Y-61942779D02*
X18102646Y-61942779D01*
X18102646Y-61942779D02*
X17959789Y-61990398D01*
X17959789Y-61990398D02*
X17864551Y-62085636D01*
X17864551Y-62085636D02*
X17816932Y-62180874D01*
X17816932Y-62180874D02*
X17769313Y-62371350D01*
X17769313Y-62371350D02*
X17769313Y-62514207D01*
X17769313Y-62514207D02*
X17816932Y-62704683D01*
X17816932Y-62704683D02*
X17864551Y-62799921D01*
X17864551Y-62799921D02*
X17959789Y-62895160D01*
X17959789Y-62895160D02*
X18102646Y-62942779D01*
X18102646Y-62942779D02*
X18340741Y-62942779D01*
X16769313Y-62847540D02*
X16816932Y-62895160D01*
X16816932Y-62895160D02*
X16959789Y-62942779D01*
X16959789Y-62942779D02*
X17055027Y-62942779D01*
X17055027Y-62942779D02*
X17197884Y-62895160D01*
X17197884Y-62895160D02*
X17293122Y-62799921D01*
X17293122Y-62799921D02*
X17340741Y-62704683D01*
X17340741Y-62704683D02*
X17388360Y-62514207D01*
X17388360Y-62514207D02*
X17388360Y-62371350D01*
X17388360Y-62371350D02*
X17340741Y-62180874D01*
X17340741Y-62180874D02*
X17293122Y-62085636D01*
X17293122Y-62085636D02*
X17197884Y-61990398D01*
X17197884Y-61990398D02*
X17055027Y-61942779D01*
X17055027Y-61942779D02*
X16959789Y-61942779D01*
X16959789Y-61942779D02*
X16816932Y-61990398D01*
X16816932Y-61990398D02*
X16769313Y-62038017D01*
X18880360Y-59450398D02*
X18975598Y-59402779D01*
X18975598Y-59402779D02*
X19118455Y-59402779D01*
X19118455Y-59402779D02*
X19261312Y-59450398D01*
X19261312Y-59450398D02*
X19356550Y-59545636D01*
X19356550Y-59545636D02*
X19404169Y-59640874D01*
X19404169Y-59640874D02*
X19451788Y-59831350D01*
X19451788Y-59831350D02*
X19451788Y-59974207D01*
X19451788Y-59974207D02*
X19404169Y-60164683D01*
X19404169Y-60164683D02*
X19356550Y-60259921D01*
X19356550Y-60259921D02*
X19261312Y-60355160D01*
X19261312Y-60355160D02*
X19118455Y-60402779D01*
X19118455Y-60402779D02*
X19023217Y-60402779D01*
X19023217Y-60402779D02*
X18880360Y-60355160D01*
X18880360Y-60355160D02*
X18832741Y-60307540D01*
X18832741Y-60307540D02*
X18832741Y-59974207D01*
X18832741Y-59974207D02*
X19023217Y-59974207D01*
X18404169Y-60402779D02*
X18404169Y-59402779D01*
X18404169Y-59402779D02*
X17832741Y-60402779D01*
X17832741Y-60402779D02*
X17832741Y-59402779D01*
X17356550Y-60402779D02*
X17356550Y-59402779D01*
X17356550Y-59402779D02*
X17118455Y-59402779D01*
X17118455Y-59402779D02*
X16975598Y-59450398D01*
X16975598Y-59450398D02*
X16880360Y-59545636D01*
X16880360Y-59545636D02*
X16832741Y-59640874D01*
X16832741Y-59640874D02*
X16785122Y-59831350D01*
X16785122Y-59831350D02*
X16785122Y-59974207D01*
X16785122Y-59974207D02*
X16832741Y-60164683D01*
X16832741Y-60164683D02*
X16880360Y-60259921D01*
X16880360Y-60259921D02*
X16975598Y-60355160D01*
X16975598Y-60355160D02*
X17118455Y-60402779D01*
X17118455Y-60402779D02*
X17356550Y-60402779D01*
X19356550Y-67022779D02*
X18737503Y-67022779D01*
X18737503Y-67022779D02*
X19070836Y-67403731D01*
X19070836Y-67403731D02*
X18927979Y-67403731D01*
X18927979Y-67403731D02*
X18832741Y-67451350D01*
X18832741Y-67451350D02*
X18785122Y-67498969D01*
X18785122Y-67498969D02*
X18737503Y-67594207D01*
X18737503Y-67594207D02*
X18737503Y-67832302D01*
X18737503Y-67832302D02*
X18785122Y-67927540D01*
X18785122Y-67927540D02*
X18832741Y-67975160D01*
X18832741Y-67975160D02*
X18927979Y-68022779D01*
X18927979Y-68022779D02*
X19213693Y-68022779D01*
X19213693Y-68022779D02*
X19308931Y-67975160D01*
X19308931Y-67975160D02*
X19356550Y-67927540D01*
X18451788Y-67022779D02*
X18118455Y-68022779D01*
X18118455Y-68022779D02*
X17785122Y-67022779D01*
X17547026Y-67022779D02*
X16927979Y-67022779D01*
X16927979Y-67022779D02*
X17261312Y-67403731D01*
X17261312Y-67403731D02*
X17118455Y-67403731D01*
X17118455Y-67403731D02*
X17023217Y-67451350D01*
X17023217Y-67451350D02*
X16975598Y-67498969D01*
X16975598Y-67498969D02*
X16927979Y-67594207D01*
X16927979Y-67594207D02*
X16927979Y-67832302D01*
X16927979Y-67832302D02*
X16975598Y-67927540D01*
X16975598Y-67927540D02*
X17023217Y-67975160D01*
X17023217Y-67975160D02*
X17118455Y-68022779D01*
X17118455Y-68022779D02*
X17404169Y-68022779D01*
X17404169Y-68022779D02*
X17499407Y-67975160D01*
X17499407Y-67975160D02*
X17547026Y-67927540D01*
D13*
X233705858Y-85827582D02*
X233705858Y-84327582D01*
X233705858Y-85756154D02*
X233848715Y-85827582D01*
X233848715Y-85827582D02*
X234134429Y-85827582D01*
X234134429Y-85827582D02*
X234277286Y-85756154D01*
X234277286Y-85756154D02*
X234348715Y-85684725D01*
X234348715Y-85684725D02*
X234420143Y-85541868D01*
X234420143Y-85541868D02*
X234420143Y-85113296D01*
X234420143Y-85113296D02*
X234348715Y-84970439D01*
X234348715Y-84970439D02*
X234277286Y-84899011D01*
X234277286Y-84899011D02*
X234134429Y-84827582D01*
X234134429Y-84827582D02*
X233848715Y-84827582D01*
X233848715Y-84827582D02*
X233705858Y-84899011D01*
X232420143Y-85756154D02*
X232563000Y-85827582D01*
X232563000Y-85827582D02*
X232848715Y-85827582D01*
X232848715Y-85827582D02*
X232991572Y-85756154D01*
X232991572Y-85756154D02*
X233063000Y-85613296D01*
X233063000Y-85613296D02*
X233063000Y-85041868D01*
X233063000Y-85041868D02*
X232991572Y-84899011D01*
X232991572Y-84899011D02*
X232848715Y-84827582D01*
X232848715Y-84827582D02*
X232563000Y-84827582D01*
X232563000Y-84827582D02*
X232420143Y-84899011D01*
X232420143Y-84899011D02*
X232348715Y-85041868D01*
X232348715Y-85041868D02*
X232348715Y-85184725D01*
X232348715Y-85184725D02*
X233063000Y-85327582D01*
X231777286Y-85756154D02*
X231634429Y-85827582D01*
X231634429Y-85827582D02*
X231348715Y-85827582D01*
X231348715Y-85827582D02*
X231205858Y-85756154D01*
X231205858Y-85756154D02*
X231134429Y-85613296D01*
X231134429Y-85613296D02*
X231134429Y-85541868D01*
X231134429Y-85541868D02*
X231205858Y-85399011D01*
X231205858Y-85399011D02*
X231348715Y-85327582D01*
X231348715Y-85327582D02*
X231563001Y-85327582D01*
X231563001Y-85327582D02*
X231705858Y-85256154D01*
X231705858Y-85256154D02*
X231777286Y-85113296D01*
X231777286Y-85113296D02*
X231777286Y-85041868D01*
X231777286Y-85041868D02*
X231705858Y-84899011D01*
X231705858Y-84899011D02*
X231563001Y-84827582D01*
X231563001Y-84827582D02*
X231348715Y-84827582D01*
X231348715Y-84827582D02*
X231205858Y-84899011D01*
X230491572Y-85827582D02*
X230491572Y-84827582D01*
X230491572Y-84327582D02*
X230563000Y-84399011D01*
X230563000Y-84399011D02*
X230491572Y-84470439D01*
X230491572Y-84470439D02*
X230420143Y-84399011D01*
X230420143Y-84399011D02*
X230491572Y-84327582D01*
X230491572Y-84327582D02*
X230491572Y-84470439D01*
X229134429Y-84827582D02*
X229134429Y-86041868D01*
X229134429Y-86041868D02*
X229205857Y-86184725D01*
X229205857Y-86184725D02*
X229277286Y-86256154D01*
X229277286Y-86256154D02*
X229420143Y-86327582D01*
X229420143Y-86327582D02*
X229634429Y-86327582D01*
X229634429Y-86327582D02*
X229777286Y-86256154D01*
X229134429Y-85756154D02*
X229277286Y-85827582D01*
X229277286Y-85827582D02*
X229563000Y-85827582D01*
X229563000Y-85827582D02*
X229705857Y-85756154D01*
X229705857Y-85756154D02*
X229777286Y-85684725D01*
X229777286Y-85684725D02*
X229848714Y-85541868D01*
X229848714Y-85541868D02*
X229848714Y-85113296D01*
X229848714Y-85113296D02*
X229777286Y-84970439D01*
X229777286Y-84970439D02*
X229705857Y-84899011D01*
X229705857Y-84899011D02*
X229563000Y-84827582D01*
X229563000Y-84827582D02*
X229277286Y-84827582D01*
X229277286Y-84827582D02*
X229134429Y-84899011D01*
X228420143Y-84827582D02*
X228420143Y-85827582D01*
X228420143Y-84970439D02*
X228348714Y-84899011D01*
X228348714Y-84899011D02*
X228205857Y-84827582D01*
X228205857Y-84827582D02*
X227991571Y-84827582D01*
X227991571Y-84827582D02*
X227848714Y-84899011D01*
X227848714Y-84899011D02*
X227777286Y-85041868D01*
X227777286Y-85041868D02*
X227777286Y-85827582D01*
X226491571Y-85756154D02*
X226634428Y-85827582D01*
X226634428Y-85827582D02*
X226920143Y-85827582D01*
X226920143Y-85827582D02*
X227063000Y-85756154D01*
X227063000Y-85756154D02*
X227134428Y-85613296D01*
X227134428Y-85613296D02*
X227134428Y-85041868D01*
X227134428Y-85041868D02*
X227063000Y-84899011D01*
X227063000Y-84899011D02*
X226920143Y-84827582D01*
X226920143Y-84827582D02*
X226634428Y-84827582D01*
X226634428Y-84827582D02*
X226491571Y-84899011D01*
X226491571Y-84899011D02*
X226420143Y-85041868D01*
X226420143Y-85041868D02*
X226420143Y-85184725D01*
X226420143Y-85184725D02*
X227134428Y-85327582D01*
X225134429Y-85827582D02*
X225134429Y-84327582D01*
X225134429Y-85756154D02*
X225277286Y-85827582D01*
X225277286Y-85827582D02*
X225563000Y-85827582D01*
X225563000Y-85827582D02*
X225705857Y-85756154D01*
X225705857Y-85756154D02*
X225777286Y-85684725D01*
X225777286Y-85684725D02*
X225848714Y-85541868D01*
X225848714Y-85541868D02*
X225848714Y-85113296D01*
X225848714Y-85113296D02*
X225777286Y-84970439D01*
X225777286Y-84970439D02*
X225705857Y-84899011D01*
X225705857Y-84899011D02*
X225563000Y-84827582D01*
X225563000Y-84827582D02*
X225277286Y-84827582D01*
X225277286Y-84827582D02*
X225134429Y-84899011D01*
X223277286Y-85827582D02*
X223277286Y-84327582D01*
X223277286Y-84899011D02*
X223134429Y-84827582D01*
X223134429Y-84827582D02*
X222848714Y-84827582D01*
X222848714Y-84827582D02*
X222705857Y-84899011D01*
X222705857Y-84899011D02*
X222634429Y-84970439D01*
X222634429Y-84970439D02*
X222563000Y-85113296D01*
X222563000Y-85113296D02*
X222563000Y-85541868D01*
X222563000Y-85541868D02*
X222634429Y-85684725D01*
X222634429Y-85684725D02*
X222705857Y-85756154D01*
X222705857Y-85756154D02*
X222848714Y-85827582D01*
X222848714Y-85827582D02*
X223134429Y-85827582D01*
X223134429Y-85827582D02*
X223277286Y-85756154D01*
X222063000Y-84827582D02*
X221705857Y-85827582D01*
X221348714Y-84827582D02*
X221705857Y-85827582D01*
X221705857Y-85827582D02*
X221848714Y-86184725D01*
X221848714Y-86184725D02*
X221920143Y-86256154D01*
X221920143Y-86256154D02*
X222063000Y-86327582D01*
X218991572Y-85827582D02*
X218991572Y-85041868D01*
X218991572Y-85041868D02*
X219063000Y-84899011D01*
X219063000Y-84899011D02*
X219205857Y-84827582D01*
X219205857Y-84827582D02*
X219491572Y-84827582D01*
X219491572Y-84827582D02*
X219634429Y-84899011D01*
X218991572Y-85756154D02*
X219134429Y-85827582D01*
X219134429Y-85827582D02*
X219491572Y-85827582D01*
X219491572Y-85827582D02*
X219634429Y-85756154D01*
X219634429Y-85756154D02*
X219705857Y-85613296D01*
X219705857Y-85613296D02*
X219705857Y-85470439D01*
X219705857Y-85470439D02*
X219634429Y-85327582D01*
X219634429Y-85327582D02*
X219491572Y-85256154D01*
X219491572Y-85256154D02*
X219134429Y-85256154D01*
X219134429Y-85256154D02*
X218991572Y-85184725D01*
X218277286Y-85827582D02*
X218277286Y-84827582D01*
X218277286Y-85113296D02*
X218205857Y-84970439D01*
X218205857Y-84970439D02*
X218134429Y-84899011D01*
X218134429Y-84899011D02*
X217991571Y-84827582D01*
X217991571Y-84827582D02*
X217848714Y-84827582D01*
X217348715Y-85827582D02*
X217348715Y-84327582D01*
X217205858Y-85256154D02*
X216777286Y-85827582D01*
X216777286Y-84827582D02*
X217348715Y-85399011D01*
X215920143Y-85827582D02*
X216063000Y-85756154D01*
X216063000Y-85756154D02*
X216134429Y-85684725D01*
X216134429Y-85684725D02*
X216205857Y-85541868D01*
X216205857Y-85541868D02*
X216205857Y-85113296D01*
X216205857Y-85113296D02*
X216134429Y-84970439D01*
X216134429Y-84970439D02*
X216063000Y-84899011D01*
X216063000Y-84899011D02*
X215920143Y-84827582D01*
X215920143Y-84827582D02*
X215705857Y-84827582D01*
X215705857Y-84827582D02*
X215563000Y-84899011D01*
X215563000Y-84899011D02*
X215491572Y-84970439D01*
X215491572Y-84970439D02*
X215420143Y-85113296D01*
X215420143Y-85113296D02*
X215420143Y-85541868D01*
X215420143Y-85541868D02*
X215491572Y-85684725D01*
X215491572Y-85684725D02*
X215563000Y-85756154D01*
X215563000Y-85756154D02*
X215705857Y-85827582D01*
X215705857Y-85827582D02*
X215920143Y-85827582D01*
D11*
X62203372Y-64558750D02*
X62250991Y-64606370D01*
X62250991Y-64606370D02*
X62393848Y-64653989D01*
X62393848Y-64653989D02*
X62489086Y-64653989D01*
X62489086Y-64653989D02*
X62631943Y-64606370D01*
X62631943Y-64606370D02*
X62727181Y-64511131D01*
X62727181Y-64511131D02*
X62774800Y-64415893D01*
X62774800Y-64415893D02*
X62822419Y-64225417D01*
X62822419Y-64225417D02*
X62822419Y-64082560D01*
X62822419Y-64082560D02*
X62774800Y-63892084D01*
X62774800Y-63892084D02*
X62727181Y-63796846D01*
X62727181Y-63796846D02*
X62631943Y-63701608D01*
X62631943Y-63701608D02*
X62489086Y-63653989D01*
X62489086Y-63653989D02*
X62393848Y-63653989D01*
X62393848Y-63653989D02*
X62250991Y-63701608D01*
X62250991Y-63701608D02*
X62203372Y-63749227D01*
X61346229Y-63653989D02*
X61536705Y-63653989D01*
X61536705Y-63653989D02*
X61631943Y-63701608D01*
X61631943Y-63701608D02*
X61679562Y-63749227D01*
X61679562Y-63749227D02*
X61774800Y-63892084D01*
X61774800Y-63892084D02*
X61822419Y-64082560D01*
X61822419Y-64082560D02*
X61822419Y-64463512D01*
X61822419Y-64463512D02*
X61774800Y-64558750D01*
X61774800Y-64558750D02*
X61727181Y-64606370D01*
X61727181Y-64606370D02*
X61631943Y-64653989D01*
X61631943Y-64653989D02*
X61441467Y-64653989D01*
X61441467Y-64653989D02*
X61346229Y-64606370D01*
X61346229Y-64606370D02*
X61298610Y-64558750D01*
X61298610Y-64558750D02*
X61250991Y-64463512D01*
X61250991Y-64463512D02*
X61250991Y-64225417D01*
X61250991Y-64225417D02*
X61298610Y-64130179D01*
X61298610Y-64130179D02*
X61346229Y-64082560D01*
X61346229Y-64082560D02*
X61441467Y-64034941D01*
X61441467Y-64034941D02*
X61631943Y-64034941D01*
X61631943Y-64034941D02*
X61727181Y-64082560D01*
X61727181Y-64082560D02*
X61774800Y-64130179D01*
X61774800Y-64130179D02*
X61822419Y-64225417D01*
X101772775Y-22317365D02*
X100772775Y-22317365D01*
X100772775Y-22317365D02*
X100772775Y-22555460D01*
X100772775Y-22555460D02*
X100820394Y-22698317D01*
X100820394Y-22698317D02*
X100915632Y-22793555D01*
X100915632Y-22793555D02*
X101010870Y-22841174D01*
X101010870Y-22841174D02*
X101201346Y-22888793D01*
X101201346Y-22888793D02*
X101344203Y-22888793D01*
X101344203Y-22888793D02*
X101534679Y-22841174D01*
X101534679Y-22841174D02*
X101629917Y-22793555D01*
X101629917Y-22793555D02*
X101725156Y-22698317D01*
X101725156Y-22698317D02*
X101772775Y-22555460D01*
X101772775Y-22555460D02*
X101772775Y-22317365D01*
X100772775Y-23793555D02*
X100772775Y-23317365D01*
X100772775Y-23317365D02*
X101248965Y-23269746D01*
X101248965Y-23269746D02*
X101201346Y-23317365D01*
X101201346Y-23317365D02*
X101153727Y-23412603D01*
X101153727Y-23412603D02*
X101153727Y-23650698D01*
X101153727Y-23650698D02*
X101201346Y-23745936D01*
X101201346Y-23745936D02*
X101248965Y-23793555D01*
X101248965Y-23793555D02*
X101344203Y-23841174D01*
X101344203Y-23841174D02*
X101582298Y-23841174D01*
X101582298Y-23841174D02*
X101677536Y-23793555D01*
X101677536Y-23793555D02*
X101725156Y-23745936D01*
X101725156Y-23745936D02*
X101772775Y-23650698D01*
X101772775Y-23650698D02*
X101772775Y-23412603D01*
X101772775Y-23412603D02*
X101725156Y-23317365D01*
X101725156Y-23317365D02*
X101677536Y-23269746D01*
X82722775Y-22317365D02*
X81722775Y-22317365D01*
X81722775Y-22317365D02*
X81722775Y-22555460D01*
X81722775Y-22555460D02*
X81770394Y-22698317D01*
X81770394Y-22698317D02*
X81865632Y-22793555D01*
X81865632Y-22793555D02*
X81960870Y-22841174D01*
X81960870Y-22841174D02*
X82151346Y-22888793D01*
X82151346Y-22888793D02*
X82294203Y-22888793D01*
X82294203Y-22888793D02*
X82484679Y-22841174D01*
X82484679Y-22841174D02*
X82579917Y-22793555D01*
X82579917Y-22793555D02*
X82675156Y-22698317D01*
X82675156Y-22698317D02*
X82722775Y-22555460D01*
X82722775Y-22555460D02*
X82722775Y-22317365D01*
X82056108Y-23745936D02*
X82722775Y-23745936D01*
X81675156Y-23507841D02*
X82389441Y-23269746D01*
X82389441Y-23269746D02*
X82389441Y-23888793D01*
X125585275Y-40891174D02*
X124585275Y-40891174D01*
X124585275Y-40891174D02*
X124585275Y-41129269D01*
X124585275Y-41129269D02*
X124632894Y-41272126D01*
X124632894Y-41272126D02*
X124728132Y-41367364D01*
X124728132Y-41367364D02*
X124823370Y-41414983D01*
X124823370Y-41414983D02*
X125013846Y-41462602D01*
X125013846Y-41462602D02*
X125156703Y-41462602D01*
X125156703Y-41462602D02*
X125347179Y-41414983D01*
X125347179Y-41414983D02*
X125442417Y-41367364D01*
X125442417Y-41367364D02*
X125537656Y-41272126D01*
X125537656Y-41272126D02*
X125585275Y-41129269D01*
X125585275Y-41129269D02*
X125585275Y-40891174D01*
X125585275Y-42414983D02*
X125585275Y-41843555D01*
X125585275Y-42129269D02*
X124585275Y-42129269D01*
X124585275Y-42129269D02*
X124728132Y-42034031D01*
X124728132Y-42034031D02*
X124823370Y-41938793D01*
X124823370Y-41938793D02*
X124870989Y-41843555D01*
X125013846Y-42986412D02*
X124966227Y-42891174D01*
X124966227Y-42891174D02*
X124918608Y-42843555D01*
X124918608Y-42843555D02*
X124823370Y-42795936D01*
X124823370Y-42795936D02*
X124775751Y-42795936D01*
X124775751Y-42795936D02*
X124680513Y-42843555D01*
X124680513Y-42843555D02*
X124632894Y-42891174D01*
X124632894Y-42891174D02*
X124585275Y-42986412D01*
X124585275Y-42986412D02*
X124585275Y-43176888D01*
X124585275Y-43176888D02*
X124632894Y-43272126D01*
X124632894Y-43272126D02*
X124680513Y-43319745D01*
X124680513Y-43319745D02*
X124775751Y-43367364D01*
X124775751Y-43367364D02*
X124823370Y-43367364D01*
X124823370Y-43367364D02*
X124918608Y-43319745D01*
X124918608Y-43319745D02*
X124966227Y-43272126D01*
X124966227Y-43272126D02*
X125013846Y-43176888D01*
X125013846Y-43176888D02*
X125013846Y-42986412D01*
X125013846Y-42986412D02*
X125061465Y-42891174D01*
X125061465Y-42891174D02*
X125109084Y-42843555D01*
X125109084Y-42843555D02*
X125204322Y-42795936D01*
X125204322Y-42795936D02*
X125394798Y-42795936D01*
X125394798Y-42795936D02*
X125490036Y-42843555D01*
X125490036Y-42843555D02*
X125537656Y-42891174D01*
X125537656Y-42891174D02*
X125585275Y-42986412D01*
X125585275Y-42986412D02*
X125585275Y-43176888D01*
X125585275Y-43176888D02*
X125537656Y-43272126D01*
X125537656Y-43272126D02*
X125490036Y-43319745D01*
X125490036Y-43319745D02*
X125394798Y-43367364D01*
X125394798Y-43367364D02*
X125204322Y-43367364D01*
X125204322Y-43367364D02*
X125109084Y-43319745D01*
X125109084Y-43319745D02*
X125061465Y-43272126D01*
X125061465Y-43272126D02*
X125013846Y-43176888D01*
X63765872Y-40782540D02*
X63813491Y-40830160D01*
X63813491Y-40830160D02*
X63956348Y-40877779D01*
X63956348Y-40877779D02*
X64051586Y-40877779D01*
X64051586Y-40877779D02*
X64194443Y-40830160D01*
X64194443Y-40830160D02*
X64289681Y-40734921D01*
X64289681Y-40734921D02*
X64337300Y-40639683D01*
X64337300Y-40639683D02*
X64384919Y-40449207D01*
X64384919Y-40449207D02*
X64384919Y-40306350D01*
X64384919Y-40306350D02*
X64337300Y-40115874D01*
X64337300Y-40115874D02*
X64289681Y-40020636D01*
X64289681Y-40020636D02*
X64194443Y-39925398D01*
X64194443Y-39925398D02*
X64051586Y-39877779D01*
X64051586Y-39877779D02*
X63956348Y-39877779D01*
X63956348Y-39877779D02*
X63813491Y-39925398D01*
X63813491Y-39925398D02*
X63765872Y-39973017D01*
X63289681Y-40877779D02*
X63099205Y-40877779D01*
X63099205Y-40877779D02*
X63003967Y-40830160D01*
X63003967Y-40830160D02*
X62956348Y-40782540D01*
X62956348Y-40782540D02*
X62861110Y-40639683D01*
X62861110Y-40639683D02*
X62813491Y-40449207D01*
X62813491Y-40449207D02*
X62813491Y-40068255D01*
X62813491Y-40068255D02*
X62861110Y-39973017D01*
X62861110Y-39973017D02*
X62908729Y-39925398D01*
X62908729Y-39925398D02*
X63003967Y-39877779D01*
X63003967Y-39877779D02*
X63194443Y-39877779D01*
X63194443Y-39877779D02*
X63289681Y-39925398D01*
X63289681Y-39925398D02*
X63337300Y-39973017D01*
X63337300Y-39973017D02*
X63384919Y-40068255D01*
X63384919Y-40068255D02*
X63384919Y-40306350D01*
X63384919Y-40306350D02*
X63337300Y-40401588D01*
X63337300Y-40401588D02*
X63289681Y-40449207D01*
X63289681Y-40449207D02*
X63194443Y-40496826D01*
X63194443Y-40496826D02*
X63003967Y-40496826D01*
X63003967Y-40496826D02*
X62908729Y-40449207D01*
X62908729Y-40449207D02*
X62861110Y-40401588D01*
X62861110Y-40401588D02*
X62813491Y-40306350D01*
X90884077Y-49907543D02*
X90407886Y-49574210D01*
X90884077Y-49336115D02*
X89884077Y-49336115D01*
X89884077Y-49336115D02*
X89884077Y-49717067D01*
X89884077Y-49717067D02*
X89931696Y-49812305D01*
X89931696Y-49812305D02*
X89979315Y-49859924D01*
X89979315Y-49859924D02*
X90074553Y-49907543D01*
X90074553Y-49907543D02*
X90217410Y-49907543D01*
X90217410Y-49907543D02*
X90312648Y-49859924D01*
X90312648Y-49859924D02*
X90360267Y-49812305D01*
X90360267Y-49812305D02*
X90407886Y-49717067D01*
X90407886Y-49717067D02*
X90407886Y-49336115D01*
X90884077Y-50859924D02*
X90884077Y-50288496D01*
X90884077Y-50574210D02*
X89884077Y-50574210D01*
X89884077Y-50574210D02*
X90026934Y-50478972D01*
X90026934Y-50478972D02*
X90122172Y-50383734D01*
X90122172Y-50383734D02*
X90169791Y-50288496D01*
X52256476Y-65808750D02*
X52304095Y-65856370D01*
X52304095Y-65856370D02*
X52446952Y-65903989D01*
X52446952Y-65903989D02*
X52542190Y-65903989D01*
X52542190Y-65903989D02*
X52685047Y-65856370D01*
X52685047Y-65856370D02*
X52780285Y-65761131D01*
X52780285Y-65761131D02*
X52827904Y-65665893D01*
X52827904Y-65665893D02*
X52875523Y-65475417D01*
X52875523Y-65475417D02*
X52875523Y-65332560D01*
X52875523Y-65332560D02*
X52827904Y-65142084D01*
X52827904Y-65142084D02*
X52780285Y-65046846D01*
X52780285Y-65046846D02*
X52685047Y-64951608D01*
X52685047Y-64951608D02*
X52542190Y-64903989D01*
X52542190Y-64903989D02*
X52446952Y-64903989D01*
X52446952Y-64903989D02*
X52304095Y-64951608D01*
X52304095Y-64951608D02*
X52256476Y-64999227D01*
X51399333Y-65237322D02*
X51399333Y-65903989D01*
X51637428Y-64856370D02*
X51875523Y-65570655D01*
X51875523Y-65570655D02*
X51256476Y-65570655D01*
X220835157Y-78991126D02*
X219835157Y-78991126D01*
X219835157Y-78991126D02*
X219835157Y-79229221D01*
X219835157Y-79229221D02*
X219882776Y-79372078D01*
X219882776Y-79372078D02*
X219978014Y-79467316D01*
X219978014Y-79467316D02*
X220073252Y-79514935D01*
X220073252Y-79514935D02*
X220263728Y-79562554D01*
X220263728Y-79562554D02*
X220406585Y-79562554D01*
X220406585Y-79562554D02*
X220597061Y-79514935D01*
X220597061Y-79514935D02*
X220692299Y-79467316D01*
X220692299Y-79467316D02*
X220787538Y-79372078D01*
X220787538Y-79372078D02*
X220835157Y-79229221D01*
X220835157Y-79229221D02*
X220835157Y-78991126D01*
X219835157Y-79895888D02*
X219835157Y-80514935D01*
X219835157Y-80514935D02*
X220216109Y-80181602D01*
X220216109Y-80181602D02*
X220216109Y-80324459D01*
X220216109Y-80324459D02*
X220263728Y-80419697D01*
X220263728Y-80419697D02*
X220311347Y-80467316D01*
X220311347Y-80467316D02*
X220406585Y-80514935D01*
X220406585Y-80514935D02*
X220644680Y-80514935D01*
X220644680Y-80514935D02*
X220739918Y-80467316D01*
X220739918Y-80467316D02*
X220787538Y-80419697D01*
X220787538Y-80419697D02*
X220835157Y-80324459D01*
X220835157Y-80324459D02*
X220835157Y-80038745D01*
X220835157Y-80038745D02*
X220787538Y-79943507D01*
X220787538Y-79943507D02*
X220739918Y-79895888D01*
X220263728Y-81086364D02*
X220216109Y-80991126D01*
X220216109Y-80991126D02*
X220168490Y-80943507D01*
X220168490Y-80943507D02*
X220073252Y-80895888D01*
X220073252Y-80895888D02*
X220025633Y-80895888D01*
X220025633Y-80895888D02*
X219930395Y-80943507D01*
X219930395Y-80943507D02*
X219882776Y-80991126D01*
X219882776Y-80991126D02*
X219835157Y-81086364D01*
X219835157Y-81086364D02*
X219835157Y-81276840D01*
X219835157Y-81276840D02*
X219882776Y-81372078D01*
X219882776Y-81372078D02*
X219930395Y-81419697D01*
X219930395Y-81419697D02*
X220025633Y-81467316D01*
X220025633Y-81467316D02*
X220073252Y-81467316D01*
X220073252Y-81467316D02*
X220168490Y-81419697D01*
X220168490Y-81419697D02*
X220216109Y-81372078D01*
X220216109Y-81372078D02*
X220263728Y-81276840D01*
X220263728Y-81276840D02*
X220263728Y-81086364D01*
X220263728Y-81086364D02*
X220311347Y-80991126D01*
X220311347Y-80991126D02*
X220358966Y-80943507D01*
X220358966Y-80943507D02*
X220454204Y-80895888D01*
X220454204Y-80895888D02*
X220644680Y-80895888D01*
X220644680Y-80895888D02*
X220739918Y-80943507D01*
X220739918Y-80943507D02*
X220787538Y-80991126D01*
X220787538Y-80991126D02*
X220835157Y-81086364D01*
X220835157Y-81086364D02*
X220835157Y-81276840D01*
X220835157Y-81276840D02*
X220787538Y-81372078D01*
X220787538Y-81372078D02*
X220739918Y-81419697D01*
X220739918Y-81419697D02*
X220644680Y-81467316D01*
X220644680Y-81467316D02*
X220454204Y-81467316D01*
X220454204Y-81467316D02*
X220358966Y-81419697D01*
X220358966Y-81419697D02*
X220311347Y-81372078D01*
X220311347Y-81372078D02*
X220263728Y-81276840D01*
X49385275Y-40891174D02*
X48385275Y-40891174D01*
X48385275Y-40891174D02*
X48385275Y-41129269D01*
X48385275Y-41129269D02*
X48432894Y-41272126D01*
X48432894Y-41272126D02*
X48528132Y-41367364D01*
X48528132Y-41367364D02*
X48623370Y-41414983D01*
X48623370Y-41414983D02*
X48813846Y-41462602D01*
X48813846Y-41462602D02*
X48956703Y-41462602D01*
X48956703Y-41462602D02*
X49147179Y-41414983D01*
X49147179Y-41414983D02*
X49242417Y-41367364D01*
X49242417Y-41367364D02*
X49337656Y-41272126D01*
X49337656Y-41272126D02*
X49385275Y-41129269D01*
X49385275Y-41129269D02*
X49385275Y-40891174D01*
X49385275Y-42414983D02*
X49385275Y-41843555D01*
X49385275Y-42129269D02*
X48385275Y-42129269D01*
X48385275Y-42129269D02*
X48528132Y-42034031D01*
X48528132Y-42034031D02*
X48623370Y-41938793D01*
X48623370Y-41938793D02*
X48670989Y-41843555D01*
X48718608Y-43272126D02*
X49385275Y-43272126D01*
X48337656Y-43034031D02*
X49051941Y-42795936D01*
X49051941Y-42795936D02*
X49051941Y-43414983D01*
X65069748Y-73582966D02*
X65117367Y-73630586D01*
X65117367Y-73630586D02*
X65260224Y-73678205D01*
X65260224Y-73678205D02*
X65355462Y-73678205D01*
X65355462Y-73678205D02*
X65498319Y-73630586D01*
X65498319Y-73630586D02*
X65593557Y-73535347D01*
X65593557Y-73535347D02*
X65641176Y-73440109D01*
X65641176Y-73440109D02*
X65688795Y-73249633D01*
X65688795Y-73249633D02*
X65688795Y-73106776D01*
X65688795Y-73106776D02*
X65641176Y-72916300D01*
X65641176Y-72916300D02*
X65593557Y-72821062D01*
X65593557Y-72821062D02*
X65498319Y-72725824D01*
X65498319Y-72725824D02*
X65355462Y-72678205D01*
X65355462Y-72678205D02*
X65260224Y-72678205D01*
X65260224Y-72678205D02*
X65117367Y-72725824D01*
X65117367Y-72725824D02*
X65069748Y-72773443D01*
X64117367Y-73678205D02*
X64688795Y-73678205D01*
X64403081Y-73678205D02*
X64403081Y-72678205D01*
X64403081Y-72678205D02*
X64498319Y-72821062D01*
X64498319Y-72821062D02*
X64593557Y-72916300D01*
X64593557Y-72916300D02*
X64688795Y-72963919D01*
X239984354Y-22002874D02*
X238984354Y-22002874D01*
X238984354Y-22002874D02*
X238984354Y-22240969D01*
X238984354Y-22240969D02*
X239031973Y-22383826D01*
X239031973Y-22383826D02*
X239127211Y-22479064D01*
X239127211Y-22479064D02*
X239222449Y-22526683D01*
X239222449Y-22526683D02*
X239412925Y-22574302D01*
X239412925Y-22574302D02*
X239555782Y-22574302D01*
X239555782Y-22574302D02*
X239746258Y-22526683D01*
X239746258Y-22526683D02*
X239841496Y-22479064D01*
X239841496Y-22479064D02*
X239936735Y-22383826D01*
X239936735Y-22383826D02*
X239984354Y-22240969D01*
X239984354Y-22240969D02*
X239984354Y-22002874D01*
X239984354Y-23526683D02*
X239984354Y-22955255D01*
X239984354Y-23240969D02*
X238984354Y-23240969D01*
X238984354Y-23240969D02*
X239127211Y-23145731D01*
X239127211Y-23145731D02*
X239222449Y-23050493D01*
X239222449Y-23050493D02*
X239270068Y-22955255D01*
X239079592Y-23907636D02*
X239031973Y-23955255D01*
X239031973Y-23955255D02*
X238984354Y-24050493D01*
X238984354Y-24050493D02*
X238984354Y-24288588D01*
X238984354Y-24288588D02*
X239031973Y-24383826D01*
X239031973Y-24383826D02*
X239079592Y-24431445D01*
X239079592Y-24431445D02*
X239174830Y-24479064D01*
X239174830Y-24479064D02*
X239270068Y-24479064D01*
X239270068Y-24479064D02*
X239412925Y-24431445D01*
X239412925Y-24431445D02*
X239984354Y-23860017D01*
X239984354Y-23860017D02*
X239984354Y-24479064D01*
X225597639Y-78991126D02*
X224597639Y-78991126D01*
X224597639Y-78991126D02*
X224597639Y-79229221D01*
X224597639Y-79229221D02*
X224645258Y-79372078D01*
X224645258Y-79372078D02*
X224740496Y-79467316D01*
X224740496Y-79467316D02*
X224835734Y-79514935D01*
X224835734Y-79514935D02*
X225026210Y-79562554D01*
X225026210Y-79562554D02*
X225169067Y-79562554D01*
X225169067Y-79562554D02*
X225359543Y-79514935D01*
X225359543Y-79514935D02*
X225454781Y-79467316D01*
X225454781Y-79467316D02*
X225550020Y-79372078D01*
X225550020Y-79372078D02*
X225597639Y-79229221D01*
X225597639Y-79229221D02*
X225597639Y-78991126D01*
X224597639Y-79895888D02*
X224597639Y-80514935D01*
X224597639Y-80514935D02*
X224978591Y-80181602D01*
X224978591Y-80181602D02*
X224978591Y-80324459D01*
X224978591Y-80324459D02*
X225026210Y-80419697D01*
X225026210Y-80419697D02*
X225073829Y-80467316D01*
X225073829Y-80467316D02*
X225169067Y-80514935D01*
X225169067Y-80514935D02*
X225407162Y-80514935D01*
X225407162Y-80514935D02*
X225502400Y-80467316D01*
X225502400Y-80467316D02*
X225550020Y-80419697D01*
X225550020Y-80419697D02*
X225597639Y-80324459D01*
X225597639Y-80324459D02*
X225597639Y-80038745D01*
X225597639Y-80038745D02*
X225550020Y-79943507D01*
X225550020Y-79943507D02*
X225502400Y-79895888D01*
X225597639Y-80991126D02*
X225597639Y-81181602D01*
X225597639Y-81181602D02*
X225550020Y-81276840D01*
X225550020Y-81276840D02*
X225502400Y-81324459D01*
X225502400Y-81324459D02*
X225359543Y-81419697D01*
X225359543Y-81419697D02*
X225169067Y-81467316D01*
X225169067Y-81467316D02*
X224788115Y-81467316D01*
X224788115Y-81467316D02*
X224692877Y-81419697D01*
X224692877Y-81419697D02*
X224645258Y-81372078D01*
X224645258Y-81372078D02*
X224597639Y-81276840D01*
X224597639Y-81276840D02*
X224597639Y-81086364D01*
X224597639Y-81086364D02*
X224645258Y-80991126D01*
X224645258Y-80991126D02*
X224692877Y-80943507D01*
X224692877Y-80943507D02*
X224788115Y-80895888D01*
X224788115Y-80895888D02*
X225026210Y-80895888D01*
X225026210Y-80895888D02*
X225121448Y-80943507D01*
X225121448Y-80943507D02*
X225169067Y-80991126D01*
X225169067Y-80991126D02*
X225216686Y-81086364D01*
X225216686Y-81086364D02*
X225216686Y-81276840D01*
X225216686Y-81276840D02*
X225169067Y-81372078D01*
X225169067Y-81372078D02*
X225121448Y-81419697D01*
X225121448Y-81419697D02*
X225026210Y-81467316D01*
X106535275Y-40891174D02*
X105535275Y-40891174D01*
X105535275Y-40891174D02*
X105535275Y-41129269D01*
X105535275Y-41129269D02*
X105582894Y-41272126D01*
X105582894Y-41272126D02*
X105678132Y-41367364D01*
X105678132Y-41367364D02*
X105773370Y-41414983D01*
X105773370Y-41414983D02*
X105963846Y-41462602D01*
X105963846Y-41462602D02*
X106106703Y-41462602D01*
X106106703Y-41462602D02*
X106297179Y-41414983D01*
X106297179Y-41414983D02*
X106392417Y-41367364D01*
X106392417Y-41367364D02*
X106487656Y-41272126D01*
X106487656Y-41272126D02*
X106535275Y-41129269D01*
X106535275Y-41129269D02*
X106535275Y-40891174D01*
X106535275Y-42414983D02*
X106535275Y-41843555D01*
X106535275Y-42129269D02*
X105535275Y-42129269D01*
X105535275Y-42129269D02*
X105678132Y-42034031D01*
X105678132Y-42034031D02*
X105773370Y-41938793D01*
X105773370Y-41938793D02*
X105820989Y-41843555D01*
X105535275Y-42748317D02*
X105535275Y-43414983D01*
X105535275Y-43414983D02*
X106535275Y-42986412D01*
X50028372Y-64683750D02*
X50075991Y-64731370D01*
X50075991Y-64731370D02*
X50218848Y-64778989D01*
X50218848Y-64778989D02*
X50314086Y-64778989D01*
X50314086Y-64778989D02*
X50456943Y-64731370D01*
X50456943Y-64731370D02*
X50552181Y-64636131D01*
X50552181Y-64636131D02*
X50599800Y-64540893D01*
X50599800Y-64540893D02*
X50647419Y-64350417D01*
X50647419Y-64350417D02*
X50647419Y-64207560D01*
X50647419Y-64207560D02*
X50599800Y-64017084D01*
X50599800Y-64017084D02*
X50552181Y-63921846D01*
X50552181Y-63921846D02*
X50456943Y-63826608D01*
X50456943Y-63826608D02*
X50314086Y-63778989D01*
X50314086Y-63778989D02*
X50218848Y-63778989D01*
X50218848Y-63778989D02*
X50075991Y-63826608D01*
X50075991Y-63826608D02*
X50028372Y-63874227D01*
X49123610Y-63778989D02*
X49599800Y-63778989D01*
X49599800Y-63778989D02*
X49647419Y-64255179D01*
X49647419Y-64255179D02*
X49599800Y-64207560D01*
X49599800Y-64207560D02*
X49504562Y-64159941D01*
X49504562Y-64159941D02*
X49266467Y-64159941D01*
X49266467Y-64159941D02*
X49171229Y-64207560D01*
X49171229Y-64207560D02*
X49123610Y-64255179D01*
X49123610Y-64255179D02*
X49075991Y-64350417D01*
X49075991Y-64350417D02*
X49075991Y-64588512D01*
X49075991Y-64588512D02*
X49123610Y-64683750D01*
X49123610Y-64683750D02*
X49171229Y-64731370D01*
X49171229Y-64731370D02*
X49266467Y-64778989D01*
X49266467Y-64778989D02*
X49504562Y-64778989D01*
X49504562Y-64778989D02*
X49599800Y-64731370D01*
X49599800Y-64731370D02*
X49647419Y-64683750D01*
X201785275Y-40891174D02*
X200785275Y-40891174D01*
X200785275Y-40891174D02*
X200785275Y-41129269D01*
X200785275Y-41129269D02*
X200832894Y-41272126D01*
X200832894Y-41272126D02*
X200928132Y-41367364D01*
X200928132Y-41367364D02*
X201023370Y-41414983D01*
X201023370Y-41414983D02*
X201213846Y-41462602D01*
X201213846Y-41462602D02*
X201356703Y-41462602D01*
X201356703Y-41462602D02*
X201547179Y-41414983D01*
X201547179Y-41414983D02*
X201642417Y-41367364D01*
X201642417Y-41367364D02*
X201737656Y-41272126D01*
X201737656Y-41272126D02*
X201785275Y-41129269D01*
X201785275Y-41129269D02*
X201785275Y-40891174D01*
X200880513Y-41843555D02*
X200832894Y-41891174D01*
X200832894Y-41891174D02*
X200785275Y-41986412D01*
X200785275Y-41986412D02*
X200785275Y-42224507D01*
X200785275Y-42224507D02*
X200832894Y-42319745D01*
X200832894Y-42319745D02*
X200880513Y-42367364D01*
X200880513Y-42367364D02*
X200975751Y-42414983D01*
X200975751Y-42414983D02*
X201070989Y-42414983D01*
X201070989Y-42414983D02*
X201213846Y-42367364D01*
X201213846Y-42367364D02*
X201785275Y-41795936D01*
X201785275Y-41795936D02*
X201785275Y-42414983D01*
X200880513Y-42795936D02*
X200832894Y-42843555D01*
X200832894Y-42843555D02*
X200785275Y-42938793D01*
X200785275Y-42938793D02*
X200785275Y-43176888D01*
X200785275Y-43176888D02*
X200832894Y-43272126D01*
X200832894Y-43272126D02*
X200880513Y-43319745D01*
X200880513Y-43319745D02*
X200975751Y-43367364D01*
X200975751Y-43367364D02*
X201070989Y-43367364D01*
X201070989Y-43367364D02*
X201213846Y-43319745D01*
X201213846Y-43319745D02*
X201785275Y-42748317D01*
X201785275Y-42748317D02*
X201785275Y-43367364D01*
X77761833Y-79784924D02*
X76761833Y-79784924D01*
X76761833Y-79784924D02*
X76761833Y-80023019D01*
X76761833Y-80023019D02*
X76809452Y-80165876D01*
X76809452Y-80165876D02*
X76904690Y-80261114D01*
X76904690Y-80261114D02*
X76999928Y-80308733D01*
X76999928Y-80308733D02*
X77190404Y-80356352D01*
X77190404Y-80356352D02*
X77333261Y-80356352D01*
X77333261Y-80356352D02*
X77523737Y-80308733D01*
X77523737Y-80308733D02*
X77618975Y-80261114D01*
X77618975Y-80261114D02*
X77714214Y-80165876D01*
X77714214Y-80165876D02*
X77761833Y-80023019D01*
X77761833Y-80023019D02*
X77761833Y-79784924D01*
X76761833Y-80689686D02*
X76761833Y-81308733D01*
X76761833Y-81308733D02*
X77142785Y-80975400D01*
X77142785Y-80975400D02*
X77142785Y-81118257D01*
X77142785Y-81118257D02*
X77190404Y-81213495D01*
X77190404Y-81213495D02*
X77238023Y-81261114D01*
X77238023Y-81261114D02*
X77333261Y-81308733D01*
X77333261Y-81308733D02*
X77571356Y-81308733D01*
X77571356Y-81308733D02*
X77666594Y-81261114D01*
X77666594Y-81261114D02*
X77714214Y-81213495D01*
X77714214Y-81213495D02*
X77761833Y-81118257D01*
X77761833Y-81118257D02*
X77761833Y-80832543D01*
X77761833Y-80832543D02*
X77714214Y-80737305D01*
X77714214Y-80737305D02*
X77666594Y-80689686D01*
X76761833Y-82165876D02*
X76761833Y-81975400D01*
X76761833Y-81975400D02*
X76809452Y-81880162D01*
X76809452Y-81880162D02*
X76857071Y-81832543D01*
X76857071Y-81832543D02*
X76999928Y-81737305D01*
X76999928Y-81737305D02*
X77190404Y-81689686D01*
X77190404Y-81689686D02*
X77571356Y-81689686D01*
X77571356Y-81689686D02*
X77666594Y-81737305D01*
X77666594Y-81737305D02*
X77714214Y-81784924D01*
X77714214Y-81784924D02*
X77761833Y-81880162D01*
X77761833Y-81880162D02*
X77761833Y-82070638D01*
X77761833Y-82070638D02*
X77714214Y-82165876D01*
X77714214Y-82165876D02*
X77666594Y-82213495D01*
X77666594Y-82213495D02*
X77571356Y-82261114D01*
X77571356Y-82261114D02*
X77333261Y-82261114D01*
X77333261Y-82261114D02*
X77238023Y-82213495D01*
X77238023Y-82213495D02*
X77190404Y-82165876D01*
X77190404Y-82165876D02*
X77142785Y-82070638D01*
X77142785Y-82070638D02*
X77142785Y-81880162D01*
X77142785Y-81880162D02*
X77190404Y-81784924D01*
X77190404Y-81784924D02*
X77238023Y-81737305D01*
X77238023Y-81737305D02*
X77333261Y-81689686D01*
X61928372Y-76381765D02*
X61975991Y-76429385D01*
X61975991Y-76429385D02*
X62118848Y-76477004D01*
X62118848Y-76477004D02*
X62214086Y-76477004D01*
X62214086Y-76477004D02*
X62356943Y-76429385D01*
X62356943Y-76429385D02*
X62452181Y-76334146D01*
X62452181Y-76334146D02*
X62499800Y-76238908D01*
X62499800Y-76238908D02*
X62547419Y-76048432D01*
X62547419Y-76048432D02*
X62547419Y-75905575D01*
X62547419Y-75905575D02*
X62499800Y-75715099D01*
X62499800Y-75715099D02*
X62452181Y-75619861D01*
X62452181Y-75619861D02*
X62356943Y-75524623D01*
X62356943Y-75524623D02*
X62214086Y-75477004D01*
X62214086Y-75477004D02*
X62118848Y-75477004D01*
X62118848Y-75477004D02*
X61975991Y-75524623D01*
X61975991Y-75524623D02*
X61928372Y-75572242D01*
X61595038Y-75477004D02*
X60975991Y-75477004D01*
X60975991Y-75477004D02*
X61309324Y-75857956D01*
X61309324Y-75857956D02*
X61166467Y-75857956D01*
X61166467Y-75857956D02*
X61071229Y-75905575D01*
X61071229Y-75905575D02*
X61023610Y-75953194D01*
X61023610Y-75953194D02*
X60975991Y-76048432D01*
X60975991Y-76048432D02*
X60975991Y-76286527D01*
X60975991Y-76286527D02*
X61023610Y-76381765D01*
X61023610Y-76381765D02*
X61071229Y-76429385D01*
X61071229Y-76429385D02*
X61166467Y-76477004D01*
X61166467Y-76477004D02*
X61452181Y-76477004D01*
X61452181Y-76477004D02*
X61547419Y-76429385D01*
X61547419Y-76429385D02*
X61595038Y-76381765D01*
X244647623Y-59941174D02*
X243647623Y-59941174D01*
X243647623Y-59941174D02*
X243647623Y-60179269D01*
X243647623Y-60179269D02*
X243695242Y-60322126D01*
X243695242Y-60322126D02*
X243790480Y-60417364D01*
X243790480Y-60417364D02*
X243885718Y-60464983D01*
X243885718Y-60464983D02*
X244076194Y-60512602D01*
X244076194Y-60512602D02*
X244219051Y-60512602D01*
X244219051Y-60512602D02*
X244409527Y-60464983D01*
X244409527Y-60464983D02*
X244504765Y-60417364D01*
X244504765Y-60417364D02*
X244600004Y-60322126D01*
X244600004Y-60322126D02*
X244647623Y-60179269D01*
X244647623Y-60179269D02*
X244647623Y-59941174D01*
X243647623Y-60845936D02*
X243647623Y-61464983D01*
X243647623Y-61464983D02*
X244028575Y-61131650D01*
X244028575Y-61131650D02*
X244028575Y-61274507D01*
X244028575Y-61274507D02*
X244076194Y-61369745D01*
X244076194Y-61369745D02*
X244123813Y-61417364D01*
X244123813Y-61417364D02*
X244219051Y-61464983D01*
X244219051Y-61464983D02*
X244457146Y-61464983D01*
X244457146Y-61464983D02*
X244552384Y-61417364D01*
X244552384Y-61417364D02*
X244600004Y-61369745D01*
X244600004Y-61369745D02*
X244647623Y-61274507D01*
X244647623Y-61274507D02*
X244647623Y-60988793D01*
X244647623Y-60988793D02*
X244600004Y-60893555D01*
X244600004Y-60893555D02*
X244552384Y-60845936D01*
X243980956Y-62322126D02*
X244647623Y-62322126D01*
X243600004Y-62084031D02*
X244314289Y-61845936D01*
X244314289Y-61845936D02*
X244314289Y-62464983D01*
X158922775Y-22317365D02*
X157922775Y-22317365D01*
X157922775Y-22317365D02*
X157922775Y-22555460D01*
X157922775Y-22555460D02*
X157970394Y-22698317D01*
X157970394Y-22698317D02*
X158065632Y-22793555D01*
X158065632Y-22793555D02*
X158160870Y-22841174D01*
X158160870Y-22841174D02*
X158351346Y-22888793D01*
X158351346Y-22888793D02*
X158494203Y-22888793D01*
X158494203Y-22888793D02*
X158684679Y-22841174D01*
X158684679Y-22841174D02*
X158779917Y-22793555D01*
X158779917Y-22793555D02*
X158875156Y-22698317D01*
X158875156Y-22698317D02*
X158922775Y-22555460D01*
X158922775Y-22555460D02*
X158922775Y-22317365D01*
X158351346Y-23460222D02*
X158303727Y-23364984D01*
X158303727Y-23364984D02*
X158256108Y-23317365D01*
X158256108Y-23317365D02*
X158160870Y-23269746D01*
X158160870Y-23269746D02*
X158113251Y-23269746D01*
X158113251Y-23269746D02*
X158018013Y-23317365D01*
X158018013Y-23317365D02*
X157970394Y-23364984D01*
X157970394Y-23364984D02*
X157922775Y-23460222D01*
X157922775Y-23460222D02*
X157922775Y-23650698D01*
X157922775Y-23650698D02*
X157970394Y-23745936D01*
X157970394Y-23745936D02*
X158018013Y-23793555D01*
X158018013Y-23793555D02*
X158113251Y-23841174D01*
X158113251Y-23841174D02*
X158160870Y-23841174D01*
X158160870Y-23841174D02*
X158256108Y-23793555D01*
X158256108Y-23793555D02*
X158303727Y-23745936D01*
X158303727Y-23745936D02*
X158351346Y-23650698D01*
X158351346Y-23650698D02*
X158351346Y-23460222D01*
X158351346Y-23460222D02*
X158398965Y-23364984D01*
X158398965Y-23364984D02*
X158446584Y-23317365D01*
X158446584Y-23317365D02*
X158541822Y-23269746D01*
X158541822Y-23269746D02*
X158732298Y-23269746D01*
X158732298Y-23269746D02*
X158827536Y-23317365D01*
X158827536Y-23317365D02*
X158875156Y-23364984D01*
X158875156Y-23364984D02*
X158922775Y-23460222D01*
X158922775Y-23460222D02*
X158922775Y-23650698D01*
X158922775Y-23650698D02*
X158875156Y-23745936D01*
X158875156Y-23745936D02*
X158827536Y-23793555D01*
X158827536Y-23793555D02*
X158732298Y-23841174D01*
X158732298Y-23841174D02*
X158541822Y-23841174D01*
X158541822Y-23841174D02*
X158446584Y-23793555D01*
X158446584Y-23793555D02*
X158398965Y-23745936D01*
X158398965Y-23745936D02*
X158351346Y-23650698D01*
X177972775Y-22317365D02*
X176972775Y-22317365D01*
X176972775Y-22317365D02*
X176972775Y-22555460D01*
X176972775Y-22555460D02*
X177020394Y-22698317D01*
X177020394Y-22698317D02*
X177115632Y-22793555D01*
X177115632Y-22793555D02*
X177210870Y-22841174D01*
X177210870Y-22841174D02*
X177401346Y-22888793D01*
X177401346Y-22888793D02*
X177544203Y-22888793D01*
X177544203Y-22888793D02*
X177734679Y-22841174D01*
X177734679Y-22841174D02*
X177829917Y-22793555D01*
X177829917Y-22793555D02*
X177925156Y-22698317D01*
X177925156Y-22698317D02*
X177972775Y-22555460D01*
X177972775Y-22555460D02*
X177972775Y-22317365D01*
X177972775Y-23364984D02*
X177972775Y-23555460D01*
X177972775Y-23555460D02*
X177925156Y-23650698D01*
X177925156Y-23650698D02*
X177877536Y-23698317D01*
X177877536Y-23698317D02*
X177734679Y-23793555D01*
X177734679Y-23793555D02*
X177544203Y-23841174D01*
X177544203Y-23841174D02*
X177163251Y-23841174D01*
X177163251Y-23841174D02*
X177068013Y-23793555D01*
X177068013Y-23793555D02*
X177020394Y-23745936D01*
X177020394Y-23745936D02*
X176972775Y-23650698D01*
X176972775Y-23650698D02*
X176972775Y-23460222D01*
X176972775Y-23460222D02*
X177020394Y-23364984D01*
X177020394Y-23364984D02*
X177068013Y-23317365D01*
X177068013Y-23317365D02*
X177163251Y-23269746D01*
X177163251Y-23269746D02*
X177401346Y-23269746D01*
X177401346Y-23269746D02*
X177496584Y-23317365D01*
X177496584Y-23317365D02*
X177544203Y-23364984D01*
X177544203Y-23364984D02*
X177591822Y-23460222D01*
X177591822Y-23460222D02*
X177591822Y-23650698D01*
X177591822Y-23650698D02*
X177544203Y-23745936D01*
X177544203Y-23745936D02*
X177496584Y-23793555D01*
X177496584Y-23793555D02*
X177401346Y-23841174D01*
X63672775Y-22317365D02*
X62672775Y-22317365D01*
X62672775Y-22317365D02*
X62672775Y-22555460D01*
X62672775Y-22555460D02*
X62720394Y-22698317D01*
X62720394Y-22698317D02*
X62815632Y-22793555D01*
X62815632Y-22793555D02*
X62910870Y-22841174D01*
X62910870Y-22841174D02*
X63101346Y-22888793D01*
X63101346Y-22888793D02*
X63244203Y-22888793D01*
X63244203Y-22888793D02*
X63434679Y-22841174D01*
X63434679Y-22841174D02*
X63529917Y-22793555D01*
X63529917Y-22793555D02*
X63625156Y-22698317D01*
X63625156Y-22698317D02*
X63672775Y-22555460D01*
X63672775Y-22555460D02*
X63672775Y-22317365D01*
X62672775Y-23222127D02*
X62672775Y-23841174D01*
X62672775Y-23841174D02*
X63053727Y-23507841D01*
X63053727Y-23507841D02*
X63053727Y-23650698D01*
X63053727Y-23650698D02*
X63101346Y-23745936D01*
X63101346Y-23745936D02*
X63148965Y-23793555D01*
X63148965Y-23793555D02*
X63244203Y-23841174D01*
X63244203Y-23841174D02*
X63482298Y-23841174D01*
X63482298Y-23841174D02*
X63577536Y-23793555D01*
X63577536Y-23793555D02*
X63625156Y-23745936D01*
X63625156Y-23745936D02*
X63672775Y-23650698D01*
X63672775Y-23650698D02*
X63672775Y-23364984D01*
X63672775Y-23364984D02*
X63625156Y-23269746D01*
X63625156Y-23269746D02*
X63577536Y-23222127D01*
X56529025Y-79053674D02*
X55529025Y-79053674D01*
X55529025Y-79053674D02*
X55529025Y-79291769D01*
X55529025Y-79291769D02*
X55576644Y-79434626D01*
X55576644Y-79434626D02*
X55671882Y-79529864D01*
X55671882Y-79529864D02*
X55767120Y-79577483D01*
X55767120Y-79577483D02*
X55957596Y-79625102D01*
X55957596Y-79625102D02*
X56100453Y-79625102D01*
X56100453Y-79625102D02*
X56290929Y-79577483D01*
X56290929Y-79577483D02*
X56386167Y-79529864D01*
X56386167Y-79529864D02*
X56481406Y-79434626D01*
X56481406Y-79434626D02*
X56529025Y-79291769D01*
X56529025Y-79291769D02*
X56529025Y-79053674D01*
X55529025Y-79958436D02*
X55529025Y-80577483D01*
X55529025Y-80577483D02*
X55909977Y-80244150D01*
X55909977Y-80244150D02*
X55909977Y-80387007D01*
X55909977Y-80387007D02*
X55957596Y-80482245D01*
X55957596Y-80482245D02*
X56005215Y-80529864D01*
X56005215Y-80529864D02*
X56100453Y-80577483D01*
X56100453Y-80577483D02*
X56338548Y-80577483D01*
X56338548Y-80577483D02*
X56433786Y-80529864D01*
X56433786Y-80529864D02*
X56481406Y-80482245D01*
X56481406Y-80482245D02*
X56529025Y-80387007D01*
X56529025Y-80387007D02*
X56529025Y-80101293D01*
X56529025Y-80101293D02*
X56481406Y-80006055D01*
X56481406Y-80006055D02*
X56433786Y-79958436D01*
X55529025Y-81482245D02*
X55529025Y-81006055D01*
X55529025Y-81006055D02*
X56005215Y-80958436D01*
X56005215Y-80958436D02*
X55957596Y-81006055D01*
X55957596Y-81006055D02*
X55909977Y-81101293D01*
X55909977Y-81101293D02*
X55909977Y-81339388D01*
X55909977Y-81339388D02*
X55957596Y-81434626D01*
X55957596Y-81434626D02*
X56005215Y-81482245D01*
X56005215Y-81482245D02*
X56100453Y-81529864D01*
X56100453Y-81529864D02*
X56338548Y-81529864D01*
X56338548Y-81529864D02*
X56433786Y-81482245D01*
X56433786Y-81482245D02*
X56481406Y-81434626D01*
X56481406Y-81434626D02*
X56529025Y-81339388D01*
X56529025Y-81339388D02*
X56529025Y-81101293D01*
X56529025Y-81101293D02*
X56481406Y-81006055D01*
X56481406Y-81006055D02*
X56433786Y-80958436D01*
X208929025Y-59941174D02*
X207929025Y-59941174D01*
X207929025Y-59941174D02*
X207929025Y-60179269D01*
X207929025Y-60179269D02*
X207976644Y-60322126D01*
X207976644Y-60322126D02*
X208071882Y-60417364D01*
X208071882Y-60417364D02*
X208167120Y-60464983D01*
X208167120Y-60464983D02*
X208357596Y-60512602D01*
X208357596Y-60512602D02*
X208500453Y-60512602D01*
X208500453Y-60512602D02*
X208690929Y-60464983D01*
X208690929Y-60464983D02*
X208786167Y-60417364D01*
X208786167Y-60417364D02*
X208881406Y-60322126D01*
X208881406Y-60322126D02*
X208929025Y-60179269D01*
X208929025Y-60179269D02*
X208929025Y-59941174D01*
X207929025Y-60845936D02*
X207929025Y-61464983D01*
X207929025Y-61464983D02*
X208309977Y-61131650D01*
X208309977Y-61131650D02*
X208309977Y-61274507D01*
X208309977Y-61274507D02*
X208357596Y-61369745D01*
X208357596Y-61369745D02*
X208405215Y-61417364D01*
X208405215Y-61417364D02*
X208500453Y-61464983D01*
X208500453Y-61464983D02*
X208738548Y-61464983D01*
X208738548Y-61464983D02*
X208833786Y-61417364D01*
X208833786Y-61417364D02*
X208881406Y-61369745D01*
X208881406Y-61369745D02*
X208929025Y-61274507D01*
X208929025Y-61274507D02*
X208929025Y-60988793D01*
X208929025Y-60988793D02*
X208881406Y-60893555D01*
X208881406Y-60893555D02*
X208833786Y-60845936D01*
X208024263Y-61845936D02*
X207976644Y-61893555D01*
X207976644Y-61893555D02*
X207929025Y-61988793D01*
X207929025Y-61988793D02*
X207929025Y-62226888D01*
X207929025Y-62226888D02*
X207976644Y-62322126D01*
X207976644Y-62322126D02*
X208024263Y-62369745D01*
X208024263Y-62369745D02*
X208119501Y-62417364D01*
X208119501Y-62417364D02*
X208214739Y-62417364D01*
X208214739Y-62417364D02*
X208357596Y-62369745D01*
X208357596Y-62369745D02*
X208929025Y-61798317D01*
X208929025Y-61798317D02*
X208929025Y-62417364D01*
X33411053Y-62781764D02*
X32411053Y-62781764D01*
X32411053Y-62781764D02*
X32411053Y-63019859D01*
X32411053Y-63019859D02*
X32458672Y-63162716D01*
X32458672Y-63162716D02*
X32553910Y-63257954D01*
X32553910Y-63257954D02*
X32649148Y-63305573D01*
X32649148Y-63305573D02*
X32839624Y-63353192D01*
X32839624Y-63353192D02*
X32982481Y-63353192D01*
X32982481Y-63353192D02*
X33172957Y-63305573D01*
X33172957Y-63305573D02*
X33268195Y-63257954D01*
X33268195Y-63257954D02*
X33363434Y-63162716D01*
X33363434Y-63162716D02*
X33411053Y-63019859D01*
X33411053Y-63019859D02*
X33411053Y-62781764D01*
X32506291Y-63734145D02*
X32458672Y-63781764D01*
X32458672Y-63781764D02*
X32411053Y-63877002D01*
X32411053Y-63877002D02*
X32411053Y-64115097D01*
X32411053Y-64115097D02*
X32458672Y-64210335D01*
X32458672Y-64210335D02*
X32506291Y-64257954D01*
X32506291Y-64257954D02*
X32601529Y-64305573D01*
X32601529Y-64305573D02*
X32696767Y-64305573D01*
X32696767Y-64305573D02*
X32839624Y-64257954D01*
X32839624Y-64257954D02*
X33411053Y-63686526D01*
X33411053Y-63686526D02*
X33411053Y-64305573D01*
X32744386Y-65162716D02*
X33411053Y-65162716D01*
X32363434Y-64924621D02*
X33077719Y-64686526D01*
X33077719Y-64686526D02*
X33077719Y-65305573D01*
X197022775Y-21841174D02*
X196022775Y-21841174D01*
X196022775Y-21841174D02*
X196022775Y-22079269D01*
X196022775Y-22079269D02*
X196070394Y-22222126D01*
X196070394Y-22222126D02*
X196165632Y-22317364D01*
X196165632Y-22317364D02*
X196260870Y-22364983D01*
X196260870Y-22364983D02*
X196451346Y-22412602D01*
X196451346Y-22412602D02*
X196594203Y-22412602D01*
X196594203Y-22412602D02*
X196784679Y-22364983D01*
X196784679Y-22364983D02*
X196879917Y-22317364D01*
X196879917Y-22317364D02*
X196975156Y-22222126D01*
X196975156Y-22222126D02*
X197022775Y-22079269D01*
X197022775Y-22079269D02*
X197022775Y-21841174D01*
X197022775Y-23364983D02*
X197022775Y-22793555D01*
X197022775Y-23079269D02*
X196022775Y-23079269D01*
X196022775Y-23079269D02*
X196165632Y-22984031D01*
X196165632Y-22984031D02*
X196260870Y-22888793D01*
X196260870Y-22888793D02*
X196308489Y-22793555D01*
X196022775Y-23984031D02*
X196022775Y-24079269D01*
X196022775Y-24079269D02*
X196070394Y-24174507D01*
X196070394Y-24174507D02*
X196118013Y-24222126D01*
X196118013Y-24222126D02*
X196213251Y-24269745D01*
X196213251Y-24269745D02*
X196403727Y-24317364D01*
X196403727Y-24317364D02*
X196641822Y-24317364D01*
X196641822Y-24317364D02*
X196832298Y-24269745D01*
X196832298Y-24269745D02*
X196927536Y-24222126D01*
X196927536Y-24222126D02*
X196975156Y-24174507D01*
X196975156Y-24174507D02*
X197022775Y-24079269D01*
X197022775Y-24079269D02*
X197022775Y-23984031D01*
X197022775Y-23984031D02*
X196975156Y-23888793D01*
X196975156Y-23888793D02*
X196927536Y-23841174D01*
X196927536Y-23841174D02*
X196832298Y-23793555D01*
X196832298Y-23793555D02*
X196641822Y-23745936D01*
X196641822Y-23745936D02*
X196403727Y-23745936D01*
X196403727Y-23745936D02*
X196213251Y-23793555D01*
X196213251Y-23793555D02*
X196118013Y-23841174D01*
X196118013Y-23841174D02*
X196070394Y-23888793D01*
X196070394Y-23888793D02*
X196022775Y-23984031D01*
X37479025Y-22317365D02*
X36479025Y-22317365D01*
X36479025Y-22317365D02*
X36479025Y-22555460D01*
X36479025Y-22555460D02*
X36526644Y-22698317D01*
X36526644Y-22698317D02*
X36621882Y-22793555D01*
X36621882Y-22793555D02*
X36717120Y-22841174D01*
X36717120Y-22841174D02*
X36907596Y-22888793D01*
X36907596Y-22888793D02*
X37050453Y-22888793D01*
X37050453Y-22888793D02*
X37240929Y-22841174D01*
X37240929Y-22841174D02*
X37336167Y-22793555D01*
X37336167Y-22793555D02*
X37431406Y-22698317D01*
X37431406Y-22698317D02*
X37479025Y-22555460D01*
X37479025Y-22555460D02*
X37479025Y-22317365D01*
X37479025Y-23841174D02*
X37479025Y-23269746D01*
X37479025Y-23555460D02*
X36479025Y-23555460D01*
X36479025Y-23555460D02*
X36621882Y-23460222D01*
X36621882Y-23460222D02*
X36717120Y-23364984D01*
X36717120Y-23364984D02*
X36764739Y-23269746D01*
X170829025Y-59941174D02*
X169829025Y-59941174D01*
X169829025Y-59941174D02*
X169829025Y-60179269D01*
X169829025Y-60179269D02*
X169876644Y-60322126D01*
X169876644Y-60322126D02*
X169971882Y-60417364D01*
X169971882Y-60417364D02*
X170067120Y-60464983D01*
X170067120Y-60464983D02*
X170257596Y-60512602D01*
X170257596Y-60512602D02*
X170400453Y-60512602D01*
X170400453Y-60512602D02*
X170590929Y-60464983D01*
X170590929Y-60464983D02*
X170686167Y-60417364D01*
X170686167Y-60417364D02*
X170781406Y-60322126D01*
X170781406Y-60322126D02*
X170829025Y-60179269D01*
X170829025Y-60179269D02*
X170829025Y-59941174D01*
X169829025Y-60845936D02*
X169829025Y-61464983D01*
X169829025Y-61464983D02*
X170209977Y-61131650D01*
X170209977Y-61131650D02*
X170209977Y-61274507D01*
X170209977Y-61274507D02*
X170257596Y-61369745D01*
X170257596Y-61369745D02*
X170305215Y-61417364D01*
X170305215Y-61417364D02*
X170400453Y-61464983D01*
X170400453Y-61464983D02*
X170638548Y-61464983D01*
X170638548Y-61464983D02*
X170733786Y-61417364D01*
X170733786Y-61417364D02*
X170781406Y-61369745D01*
X170781406Y-61369745D02*
X170829025Y-61274507D01*
X170829025Y-61274507D02*
X170829025Y-60988793D01*
X170829025Y-60988793D02*
X170781406Y-60893555D01*
X170781406Y-60893555D02*
X170733786Y-60845936D01*
X169829025Y-62084031D02*
X169829025Y-62179269D01*
X169829025Y-62179269D02*
X169876644Y-62274507D01*
X169876644Y-62274507D02*
X169924263Y-62322126D01*
X169924263Y-62322126D02*
X170019501Y-62369745D01*
X170019501Y-62369745D02*
X170209977Y-62417364D01*
X170209977Y-62417364D02*
X170448072Y-62417364D01*
X170448072Y-62417364D02*
X170638548Y-62369745D01*
X170638548Y-62369745D02*
X170733786Y-62322126D01*
X170733786Y-62322126D02*
X170781406Y-62274507D01*
X170781406Y-62274507D02*
X170829025Y-62179269D01*
X170829025Y-62179269D02*
X170829025Y-62084031D01*
X170829025Y-62084031D02*
X170781406Y-61988793D01*
X170781406Y-61988793D02*
X170733786Y-61941174D01*
X170733786Y-61941174D02*
X170638548Y-61893555D01*
X170638548Y-61893555D02*
X170448072Y-61845936D01*
X170448072Y-61845936D02*
X170209977Y-61845936D01*
X170209977Y-61845936D02*
X170019501Y-61893555D01*
X170019501Y-61893555D02*
X169924263Y-61941174D01*
X169924263Y-61941174D02*
X169876644Y-61988793D01*
X169876644Y-61988793D02*
X169829025Y-62084031D01*
X144635275Y-40891174D02*
X143635275Y-40891174D01*
X143635275Y-40891174D02*
X143635275Y-41129269D01*
X143635275Y-41129269D02*
X143682894Y-41272126D01*
X143682894Y-41272126D02*
X143778132Y-41367364D01*
X143778132Y-41367364D02*
X143873370Y-41414983D01*
X143873370Y-41414983D02*
X144063846Y-41462602D01*
X144063846Y-41462602D02*
X144206703Y-41462602D01*
X144206703Y-41462602D02*
X144397179Y-41414983D01*
X144397179Y-41414983D02*
X144492417Y-41367364D01*
X144492417Y-41367364D02*
X144587656Y-41272126D01*
X144587656Y-41272126D02*
X144635275Y-41129269D01*
X144635275Y-41129269D02*
X144635275Y-40891174D01*
X144635275Y-42414983D02*
X144635275Y-41843555D01*
X144635275Y-42129269D02*
X143635275Y-42129269D01*
X143635275Y-42129269D02*
X143778132Y-42034031D01*
X143778132Y-42034031D02*
X143873370Y-41938793D01*
X143873370Y-41938793D02*
X143920989Y-41843555D01*
X144635275Y-42891174D02*
X144635275Y-43081650D01*
X144635275Y-43081650D02*
X144587656Y-43176888D01*
X144587656Y-43176888D02*
X144540036Y-43224507D01*
X144540036Y-43224507D02*
X144397179Y-43319745D01*
X144397179Y-43319745D02*
X144206703Y-43367364D01*
X144206703Y-43367364D02*
X143825751Y-43367364D01*
X143825751Y-43367364D02*
X143730513Y-43319745D01*
X143730513Y-43319745D02*
X143682894Y-43272126D01*
X143682894Y-43272126D02*
X143635275Y-43176888D01*
X143635275Y-43176888D02*
X143635275Y-42986412D01*
X143635275Y-42986412D02*
X143682894Y-42891174D01*
X143682894Y-42891174D02*
X143730513Y-42843555D01*
X143730513Y-42843555D02*
X143825751Y-42795936D01*
X143825751Y-42795936D02*
X144063846Y-42795936D01*
X144063846Y-42795936D02*
X144159084Y-42843555D01*
X144159084Y-42843555D02*
X144206703Y-42891174D01*
X144206703Y-42891174D02*
X144254322Y-42986412D01*
X144254322Y-42986412D02*
X144254322Y-43176888D01*
X144254322Y-43176888D02*
X144206703Y-43272126D01*
X144206703Y-43272126D02*
X144159084Y-43319745D01*
X144159084Y-43319745D02*
X144063846Y-43367364D01*
X54407539Y-30510279D02*
X54407539Y-31224564D01*
X54407539Y-31224564D02*
X54455158Y-31367421D01*
X54455158Y-31367421D02*
X54550396Y-31462660D01*
X54550396Y-31462660D02*
X54693253Y-31510279D01*
X54693253Y-31510279D02*
X54788491Y-31510279D01*
X53407539Y-31510279D02*
X53978967Y-31510279D01*
X53693253Y-31510279D02*
X53693253Y-30510279D01*
X53693253Y-30510279D02*
X53788491Y-30653136D01*
X53788491Y-30653136D02*
X53883729Y-30748374D01*
X53883729Y-30748374D02*
X53978967Y-30795993D01*
X151779025Y-59941174D02*
X150779025Y-59941174D01*
X150779025Y-59941174D02*
X150779025Y-60179269D01*
X150779025Y-60179269D02*
X150826644Y-60322126D01*
X150826644Y-60322126D02*
X150921882Y-60417364D01*
X150921882Y-60417364D02*
X151017120Y-60464983D01*
X151017120Y-60464983D02*
X151207596Y-60512602D01*
X151207596Y-60512602D02*
X151350453Y-60512602D01*
X151350453Y-60512602D02*
X151540929Y-60464983D01*
X151540929Y-60464983D02*
X151636167Y-60417364D01*
X151636167Y-60417364D02*
X151731406Y-60322126D01*
X151731406Y-60322126D02*
X151779025Y-60179269D01*
X151779025Y-60179269D02*
X151779025Y-59941174D01*
X150874263Y-60893555D02*
X150826644Y-60941174D01*
X150826644Y-60941174D02*
X150779025Y-61036412D01*
X150779025Y-61036412D02*
X150779025Y-61274507D01*
X150779025Y-61274507D02*
X150826644Y-61369745D01*
X150826644Y-61369745D02*
X150874263Y-61417364D01*
X150874263Y-61417364D02*
X150969501Y-61464983D01*
X150969501Y-61464983D02*
X151064739Y-61464983D01*
X151064739Y-61464983D02*
X151207596Y-61417364D01*
X151207596Y-61417364D02*
X151779025Y-60845936D01*
X151779025Y-60845936D02*
X151779025Y-61464983D01*
X151779025Y-61941174D02*
X151779025Y-62131650D01*
X151779025Y-62131650D02*
X151731406Y-62226888D01*
X151731406Y-62226888D02*
X151683786Y-62274507D01*
X151683786Y-62274507D02*
X151540929Y-62369745D01*
X151540929Y-62369745D02*
X151350453Y-62417364D01*
X151350453Y-62417364D02*
X150969501Y-62417364D01*
X150969501Y-62417364D02*
X150874263Y-62369745D01*
X150874263Y-62369745D02*
X150826644Y-62322126D01*
X150826644Y-62322126D02*
X150779025Y-62226888D01*
X150779025Y-62226888D02*
X150779025Y-62036412D01*
X150779025Y-62036412D02*
X150826644Y-61941174D01*
X150826644Y-61941174D02*
X150874263Y-61893555D01*
X150874263Y-61893555D02*
X150969501Y-61845936D01*
X150969501Y-61845936D02*
X151207596Y-61845936D01*
X151207596Y-61845936D02*
X151302834Y-61893555D01*
X151302834Y-61893555D02*
X151350453Y-61941174D01*
X151350453Y-61941174D02*
X151398072Y-62036412D01*
X151398072Y-62036412D02*
X151398072Y-62226888D01*
X151398072Y-62226888D02*
X151350453Y-62322126D01*
X151350453Y-62322126D02*
X151302834Y-62369745D01*
X151302834Y-62369745D02*
X151207596Y-62417364D01*
X55728372Y-77318750D02*
X55775991Y-77366370D01*
X55775991Y-77366370D02*
X55918848Y-77413989D01*
X55918848Y-77413989D02*
X56014086Y-77413989D01*
X56014086Y-77413989D02*
X56156943Y-77366370D01*
X56156943Y-77366370D02*
X56252181Y-77271131D01*
X56252181Y-77271131D02*
X56299800Y-77175893D01*
X56299800Y-77175893D02*
X56347419Y-76985417D01*
X56347419Y-76985417D02*
X56347419Y-76842560D01*
X56347419Y-76842560D02*
X56299800Y-76652084D01*
X56299800Y-76652084D02*
X56252181Y-76556846D01*
X56252181Y-76556846D02*
X56156943Y-76461608D01*
X56156943Y-76461608D02*
X56014086Y-76413989D01*
X56014086Y-76413989D02*
X55918848Y-76413989D01*
X55918848Y-76413989D02*
X55775991Y-76461608D01*
X55775991Y-76461608D02*
X55728372Y-76509227D01*
X55347419Y-76509227D02*
X55299800Y-76461608D01*
X55299800Y-76461608D02*
X55204562Y-76413989D01*
X55204562Y-76413989D02*
X54966467Y-76413989D01*
X54966467Y-76413989D02*
X54871229Y-76461608D01*
X54871229Y-76461608D02*
X54823610Y-76509227D01*
X54823610Y-76509227D02*
X54775991Y-76604465D01*
X54775991Y-76604465D02*
X54775991Y-76699703D01*
X54775991Y-76699703D02*
X54823610Y-76842560D01*
X54823610Y-76842560D02*
X55395038Y-77413989D01*
X55395038Y-77413989D02*
X54775991Y-77413989D01*
X182735275Y-40891174D02*
X181735275Y-40891174D01*
X181735275Y-40891174D02*
X181735275Y-41129269D01*
X181735275Y-41129269D02*
X181782894Y-41272126D01*
X181782894Y-41272126D02*
X181878132Y-41367364D01*
X181878132Y-41367364D02*
X181973370Y-41414983D01*
X181973370Y-41414983D02*
X182163846Y-41462602D01*
X182163846Y-41462602D02*
X182306703Y-41462602D01*
X182306703Y-41462602D02*
X182497179Y-41414983D01*
X182497179Y-41414983D02*
X182592417Y-41367364D01*
X182592417Y-41367364D02*
X182687656Y-41272126D01*
X182687656Y-41272126D02*
X182735275Y-41129269D01*
X182735275Y-41129269D02*
X182735275Y-40891174D01*
X181830513Y-41843555D02*
X181782894Y-41891174D01*
X181782894Y-41891174D02*
X181735275Y-41986412D01*
X181735275Y-41986412D02*
X181735275Y-42224507D01*
X181735275Y-42224507D02*
X181782894Y-42319745D01*
X181782894Y-42319745D02*
X181830513Y-42367364D01*
X181830513Y-42367364D02*
X181925751Y-42414983D01*
X181925751Y-42414983D02*
X182020989Y-42414983D01*
X182020989Y-42414983D02*
X182163846Y-42367364D01*
X182163846Y-42367364D02*
X182735275Y-41795936D01*
X182735275Y-41795936D02*
X182735275Y-42414983D01*
X182735275Y-43367364D02*
X182735275Y-42795936D01*
X182735275Y-43081650D02*
X181735275Y-43081650D01*
X181735275Y-43081650D02*
X181878132Y-42986412D01*
X181878132Y-42986412D02*
X181973370Y-42891174D01*
X181973370Y-42891174D02*
X182020989Y-42795936D01*
X44622775Y-22317365D02*
X43622775Y-22317365D01*
X43622775Y-22317365D02*
X43622775Y-22555460D01*
X43622775Y-22555460D02*
X43670394Y-22698317D01*
X43670394Y-22698317D02*
X43765632Y-22793555D01*
X43765632Y-22793555D02*
X43860870Y-22841174D01*
X43860870Y-22841174D02*
X44051346Y-22888793D01*
X44051346Y-22888793D02*
X44194203Y-22888793D01*
X44194203Y-22888793D02*
X44384679Y-22841174D01*
X44384679Y-22841174D02*
X44479917Y-22793555D01*
X44479917Y-22793555D02*
X44575156Y-22698317D01*
X44575156Y-22698317D02*
X44622775Y-22555460D01*
X44622775Y-22555460D02*
X44622775Y-22317365D01*
X43718013Y-23269746D02*
X43670394Y-23317365D01*
X43670394Y-23317365D02*
X43622775Y-23412603D01*
X43622775Y-23412603D02*
X43622775Y-23650698D01*
X43622775Y-23650698D02*
X43670394Y-23745936D01*
X43670394Y-23745936D02*
X43718013Y-23793555D01*
X43718013Y-23793555D02*
X43813251Y-23841174D01*
X43813251Y-23841174D02*
X43908489Y-23841174D01*
X43908489Y-23841174D02*
X44051346Y-23793555D01*
X44051346Y-23793555D02*
X44622775Y-23222127D01*
X44622775Y-23222127D02*
X44622775Y-23841174D01*
X94629025Y-59941174D02*
X93629025Y-59941174D01*
X93629025Y-59941174D02*
X93629025Y-60179269D01*
X93629025Y-60179269D02*
X93676644Y-60322126D01*
X93676644Y-60322126D02*
X93771882Y-60417364D01*
X93771882Y-60417364D02*
X93867120Y-60464983D01*
X93867120Y-60464983D02*
X94057596Y-60512602D01*
X94057596Y-60512602D02*
X94200453Y-60512602D01*
X94200453Y-60512602D02*
X94390929Y-60464983D01*
X94390929Y-60464983D02*
X94486167Y-60417364D01*
X94486167Y-60417364D02*
X94581406Y-60322126D01*
X94581406Y-60322126D02*
X94629025Y-60179269D01*
X94629025Y-60179269D02*
X94629025Y-59941174D01*
X93724263Y-60893555D02*
X93676644Y-60941174D01*
X93676644Y-60941174D02*
X93629025Y-61036412D01*
X93629025Y-61036412D02*
X93629025Y-61274507D01*
X93629025Y-61274507D02*
X93676644Y-61369745D01*
X93676644Y-61369745D02*
X93724263Y-61417364D01*
X93724263Y-61417364D02*
X93819501Y-61464983D01*
X93819501Y-61464983D02*
X93914739Y-61464983D01*
X93914739Y-61464983D02*
X94057596Y-61417364D01*
X94057596Y-61417364D02*
X94629025Y-60845936D01*
X94629025Y-60845936D02*
X94629025Y-61464983D01*
X93629025Y-62322126D02*
X93629025Y-62131650D01*
X93629025Y-62131650D02*
X93676644Y-62036412D01*
X93676644Y-62036412D02*
X93724263Y-61988793D01*
X93724263Y-61988793D02*
X93867120Y-61893555D01*
X93867120Y-61893555D02*
X94057596Y-61845936D01*
X94057596Y-61845936D02*
X94438548Y-61845936D01*
X94438548Y-61845936D02*
X94533786Y-61893555D01*
X94533786Y-61893555D02*
X94581406Y-61941174D01*
X94581406Y-61941174D02*
X94629025Y-62036412D01*
X94629025Y-62036412D02*
X94629025Y-62226888D01*
X94629025Y-62226888D02*
X94581406Y-62322126D01*
X94581406Y-62322126D02*
X94533786Y-62369745D01*
X94533786Y-62369745D02*
X94438548Y-62417364D01*
X94438548Y-62417364D02*
X94200453Y-62417364D01*
X94200453Y-62417364D02*
X94105215Y-62369745D01*
X94105215Y-62369745D02*
X94057596Y-62322126D01*
X94057596Y-62322126D02*
X94009977Y-62226888D01*
X94009977Y-62226888D02*
X94009977Y-62036412D01*
X94009977Y-62036412D02*
X94057596Y-61941174D01*
X94057596Y-61941174D02*
X94105215Y-61893555D01*
X94105215Y-61893555D02*
X94200453Y-61845936D01*
X163685275Y-40891174D02*
X162685275Y-40891174D01*
X162685275Y-40891174D02*
X162685275Y-41129269D01*
X162685275Y-41129269D02*
X162732894Y-41272126D01*
X162732894Y-41272126D02*
X162828132Y-41367364D01*
X162828132Y-41367364D02*
X162923370Y-41414983D01*
X162923370Y-41414983D02*
X163113846Y-41462602D01*
X163113846Y-41462602D02*
X163256703Y-41462602D01*
X163256703Y-41462602D02*
X163447179Y-41414983D01*
X163447179Y-41414983D02*
X163542417Y-41367364D01*
X163542417Y-41367364D02*
X163637656Y-41272126D01*
X163637656Y-41272126D02*
X163685275Y-41129269D01*
X163685275Y-41129269D02*
X163685275Y-40891174D01*
X162780513Y-41843555D02*
X162732894Y-41891174D01*
X162732894Y-41891174D02*
X162685275Y-41986412D01*
X162685275Y-41986412D02*
X162685275Y-42224507D01*
X162685275Y-42224507D02*
X162732894Y-42319745D01*
X162732894Y-42319745D02*
X162780513Y-42367364D01*
X162780513Y-42367364D02*
X162875751Y-42414983D01*
X162875751Y-42414983D02*
X162970989Y-42414983D01*
X162970989Y-42414983D02*
X163113846Y-42367364D01*
X163113846Y-42367364D02*
X163685275Y-41795936D01*
X163685275Y-41795936D02*
X163685275Y-42414983D01*
X162685275Y-43034031D02*
X162685275Y-43129269D01*
X162685275Y-43129269D02*
X162732894Y-43224507D01*
X162732894Y-43224507D02*
X162780513Y-43272126D01*
X162780513Y-43272126D02*
X162875751Y-43319745D01*
X162875751Y-43319745D02*
X163066227Y-43367364D01*
X163066227Y-43367364D02*
X163304322Y-43367364D01*
X163304322Y-43367364D02*
X163494798Y-43319745D01*
X163494798Y-43319745D02*
X163590036Y-43272126D01*
X163590036Y-43272126D02*
X163637656Y-43224507D01*
X163637656Y-43224507D02*
X163685275Y-43129269D01*
X163685275Y-43129269D02*
X163685275Y-43034031D01*
X163685275Y-43034031D02*
X163637656Y-42938793D01*
X163637656Y-42938793D02*
X163590036Y-42891174D01*
X163590036Y-42891174D02*
X163494798Y-42843555D01*
X163494798Y-42843555D02*
X163304322Y-42795936D01*
X163304322Y-42795936D02*
X163066227Y-42795936D01*
X163066227Y-42795936D02*
X162875751Y-42843555D01*
X162875751Y-42843555D02*
X162780513Y-42891174D01*
X162780513Y-42891174D02*
X162732894Y-42938793D01*
X162732894Y-42938793D02*
X162685275Y-43034031D01*
X75579025Y-59941174D02*
X74579025Y-59941174D01*
X74579025Y-59941174D02*
X74579025Y-60179269D01*
X74579025Y-60179269D02*
X74626644Y-60322126D01*
X74626644Y-60322126D02*
X74721882Y-60417364D01*
X74721882Y-60417364D02*
X74817120Y-60464983D01*
X74817120Y-60464983D02*
X75007596Y-60512602D01*
X75007596Y-60512602D02*
X75150453Y-60512602D01*
X75150453Y-60512602D02*
X75340929Y-60464983D01*
X75340929Y-60464983D02*
X75436167Y-60417364D01*
X75436167Y-60417364D02*
X75531406Y-60322126D01*
X75531406Y-60322126D02*
X75579025Y-60179269D01*
X75579025Y-60179269D02*
X75579025Y-59941174D01*
X74674263Y-60893555D02*
X74626644Y-60941174D01*
X74626644Y-60941174D02*
X74579025Y-61036412D01*
X74579025Y-61036412D02*
X74579025Y-61274507D01*
X74579025Y-61274507D02*
X74626644Y-61369745D01*
X74626644Y-61369745D02*
X74674263Y-61417364D01*
X74674263Y-61417364D02*
X74769501Y-61464983D01*
X74769501Y-61464983D02*
X74864739Y-61464983D01*
X74864739Y-61464983D02*
X75007596Y-61417364D01*
X75007596Y-61417364D02*
X75579025Y-60845936D01*
X75579025Y-60845936D02*
X75579025Y-61464983D01*
X74579025Y-62369745D02*
X74579025Y-61893555D01*
X74579025Y-61893555D02*
X75055215Y-61845936D01*
X75055215Y-61845936D02*
X75007596Y-61893555D01*
X75007596Y-61893555D02*
X74959977Y-61988793D01*
X74959977Y-61988793D02*
X74959977Y-62226888D01*
X74959977Y-62226888D02*
X75007596Y-62322126D01*
X75007596Y-62322126D02*
X75055215Y-62369745D01*
X75055215Y-62369745D02*
X75150453Y-62417364D01*
X75150453Y-62417364D02*
X75388548Y-62417364D01*
X75388548Y-62417364D02*
X75483786Y-62369745D01*
X75483786Y-62369745D02*
X75531406Y-62322126D01*
X75531406Y-62322126D02*
X75579025Y-62226888D01*
X75579025Y-62226888D02*
X75579025Y-61988793D01*
X75579025Y-61988793D02*
X75531406Y-61893555D01*
X75531406Y-61893555D02*
X75483786Y-61845936D01*
X189879025Y-59941174D02*
X188879025Y-59941174D01*
X188879025Y-59941174D02*
X188879025Y-60179269D01*
X188879025Y-60179269D02*
X188926644Y-60322126D01*
X188926644Y-60322126D02*
X189021882Y-60417364D01*
X189021882Y-60417364D02*
X189117120Y-60464983D01*
X189117120Y-60464983D02*
X189307596Y-60512602D01*
X189307596Y-60512602D02*
X189450453Y-60512602D01*
X189450453Y-60512602D02*
X189640929Y-60464983D01*
X189640929Y-60464983D02*
X189736167Y-60417364D01*
X189736167Y-60417364D02*
X189831406Y-60322126D01*
X189831406Y-60322126D02*
X189879025Y-60179269D01*
X189879025Y-60179269D02*
X189879025Y-59941174D01*
X188879025Y-60845936D02*
X188879025Y-61464983D01*
X188879025Y-61464983D02*
X189259977Y-61131650D01*
X189259977Y-61131650D02*
X189259977Y-61274507D01*
X189259977Y-61274507D02*
X189307596Y-61369745D01*
X189307596Y-61369745D02*
X189355215Y-61417364D01*
X189355215Y-61417364D02*
X189450453Y-61464983D01*
X189450453Y-61464983D02*
X189688548Y-61464983D01*
X189688548Y-61464983D02*
X189783786Y-61417364D01*
X189783786Y-61417364D02*
X189831406Y-61369745D01*
X189831406Y-61369745D02*
X189879025Y-61274507D01*
X189879025Y-61274507D02*
X189879025Y-60988793D01*
X189879025Y-60988793D02*
X189831406Y-60893555D01*
X189831406Y-60893555D02*
X189783786Y-60845936D01*
X189879025Y-62417364D02*
X189879025Y-61845936D01*
X189879025Y-62131650D02*
X188879025Y-62131650D01*
X188879025Y-62131650D02*
X189021882Y-62036412D01*
X189021882Y-62036412D02*
X189117120Y-61941174D01*
X189117120Y-61941174D02*
X189164739Y-61845936D01*
X62376816Y-61875154D02*
X62424435Y-61922774D01*
X62424435Y-61922774D02*
X62567292Y-61970393D01*
X62567292Y-61970393D02*
X62662530Y-61970393D01*
X62662530Y-61970393D02*
X62805387Y-61922774D01*
X62805387Y-61922774D02*
X62900625Y-61827535D01*
X62900625Y-61827535D02*
X62948244Y-61732297D01*
X62948244Y-61732297D02*
X62995863Y-61541821D01*
X62995863Y-61541821D02*
X62995863Y-61398964D01*
X62995863Y-61398964D02*
X62948244Y-61208488D01*
X62948244Y-61208488D02*
X62900625Y-61113250D01*
X62900625Y-61113250D02*
X62805387Y-61018012D01*
X62805387Y-61018012D02*
X62662530Y-60970393D01*
X62662530Y-60970393D02*
X62567292Y-60970393D01*
X62567292Y-60970393D02*
X62424435Y-61018012D01*
X62424435Y-61018012D02*
X62376816Y-61065631D01*
X62043482Y-60970393D02*
X61376816Y-60970393D01*
X61376816Y-60970393D02*
X61805387Y-61970393D01*
X39860275Y-40891174D02*
X38860275Y-40891174D01*
X38860275Y-40891174D02*
X38860275Y-41129269D01*
X38860275Y-41129269D02*
X38907894Y-41272126D01*
X38907894Y-41272126D02*
X39003132Y-41367364D01*
X39003132Y-41367364D02*
X39098370Y-41414983D01*
X39098370Y-41414983D02*
X39288846Y-41462602D01*
X39288846Y-41462602D02*
X39431703Y-41462602D01*
X39431703Y-41462602D02*
X39622179Y-41414983D01*
X39622179Y-41414983D02*
X39717417Y-41367364D01*
X39717417Y-41367364D02*
X39812656Y-41272126D01*
X39812656Y-41272126D02*
X39860275Y-41129269D01*
X39860275Y-41129269D02*
X39860275Y-40891174D01*
X39860275Y-42414983D02*
X39860275Y-41843555D01*
X39860275Y-42129269D02*
X38860275Y-42129269D01*
X38860275Y-42129269D02*
X39003132Y-42034031D01*
X39003132Y-42034031D02*
X39098370Y-41938793D01*
X39098370Y-41938793D02*
X39145989Y-41843555D01*
X38860275Y-42748317D02*
X38860275Y-43367364D01*
X38860275Y-43367364D02*
X39241227Y-43034031D01*
X39241227Y-43034031D02*
X39241227Y-43176888D01*
X39241227Y-43176888D02*
X39288846Y-43272126D01*
X39288846Y-43272126D02*
X39336465Y-43319745D01*
X39336465Y-43319745D02*
X39431703Y-43367364D01*
X39431703Y-43367364D02*
X39669798Y-43367364D01*
X39669798Y-43367364D02*
X39765036Y-43319745D01*
X39765036Y-43319745D02*
X39812656Y-43272126D01*
X39812656Y-43272126D02*
X39860275Y-43176888D01*
X39860275Y-43176888D02*
X39860275Y-42891174D01*
X39860275Y-42891174D02*
X39812656Y-42795936D01*
X39812656Y-42795936D02*
X39765036Y-42748317D01*
X87485275Y-40891174D02*
X86485275Y-40891174D01*
X86485275Y-40891174D02*
X86485275Y-41129269D01*
X86485275Y-41129269D02*
X86532894Y-41272126D01*
X86532894Y-41272126D02*
X86628132Y-41367364D01*
X86628132Y-41367364D02*
X86723370Y-41414983D01*
X86723370Y-41414983D02*
X86913846Y-41462602D01*
X86913846Y-41462602D02*
X87056703Y-41462602D01*
X87056703Y-41462602D02*
X87247179Y-41414983D01*
X87247179Y-41414983D02*
X87342417Y-41367364D01*
X87342417Y-41367364D02*
X87437656Y-41272126D01*
X87437656Y-41272126D02*
X87485275Y-41129269D01*
X87485275Y-41129269D02*
X87485275Y-40891174D01*
X87485275Y-42414983D02*
X87485275Y-41843555D01*
X87485275Y-42129269D02*
X86485275Y-42129269D01*
X86485275Y-42129269D02*
X86628132Y-42034031D01*
X86628132Y-42034031D02*
X86723370Y-41938793D01*
X86723370Y-41938793D02*
X86770989Y-41843555D01*
X86485275Y-43272126D02*
X86485275Y-43081650D01*
X86485275Y-43081650D02*
X86532894Y-42986412D01*
X86532894Y-42986412D02*
X86580513Y-42938793D01*
X86580513Y-42938793D02*
X86723370Y-42843555D01*
X86723370Y-42843555D02*
X86913846Y-42795936D01*
X86913846Y-42795936D02*
X87294798Y-42795936D01*
X87294798Y-42795936D02*
X87390036Y-42843555D01*
X87390036Y-42843555D02*
X87437656Y-42891174D01*
X87437656Y-42891174D02*
X87485275Y-42986412D01*
X87485275Y-42986412D02*
X87485275Y-43176888D01*
X87485275Y-43176888D02*
X87437656Y-43272126D01*
X87437656Y-43272126D02*
X87390036Y-43319745D01*
X87390036Y-43319745D02*
X87294798Y-43367364D01*
X87294798Y-43367364D02*
X87056703Y-43367364D01*
X87056703Y-43367364D02*
X86961465Y-43319745D01*
X86961465Y-43319745D02*
X86913846Y-43272126D01*
X86913846Y-43272126D02*
X86866227Y-43176888D01*
X86866227Y-43176888D02*
X86866227Y-42986412D01*
X86866227Y-42986412D02*
X86913846Y-42891174D01*
X86913846Y-42891174D02*
X86961465Y-42843555D01*
X86961465Y-42843555D02*
X87056703Y-42795936D01*
X120822775Y-22317365D02*
X119822775Y-22317365D01*
X119822775Y-22317365D02*
X119822775Y-22555460D01*
X119822775Y-22555460D02*
X119870394Y-22698317D01*
X119870394Y-22698317D02*
X119965632Y-22793555D01*
X119965632Y-22793555D02*
X120060870Y-22841174D01*
X120060870Y-22841174D02*
X120251346Y-22888793D01*
X120251346Y-22888793D02*
X120394203Y-22888793D01*
X120394203Y-22888793D02*
X120584679Y-22841174D01*
X120584679Y-22841174D02*
X120679917Y-22793555D01*
X120679917Y-22793555D02*
X120775156Y-22698317D01*
X120775156Y-22698317D02*
X120822775Y-22555460D01*
X120822775Y-22555460D02*
X120822775Y-22317365D01*
X119822775Y-23745936D02*
X119822775Y-23555460D01*
X119822775Y-23555460D02*
X119870394Y-23460222D01*
X119870394Y-23460222D02*
X119918013Y-23412603D01*
X119918013Y-23412603D02*
X120060870Y-23317365D01*
X120060870Y-23317365D02*
X120251346Y-23269746D01*
X120251346Y-23269746D02*
X120632298Y-23269746D01*
X120632298Y-23269746D02*
X120727536Y-23317365D01*
X120727536Y-23317365D02*
X120775156Y-23364984D01*
X120775156Y-23364984D02*
X120822775Y-23460222D01*
X120822775Y-23460222D02*
X120822775Y-23650698D01*
X120822775Y-23650698D02*
X120775156Y-23745936D01*
X120775156Y-23745936D02*
X120727536Y-23793555D01*
X120727536Y-23793555D02*
X120632298Y-23841174D01*
X120632298Y-23841174D02*
X120394203Y-23841174D01*
X120394203Y-23841174D02*
X120298965Y-23793555D01*
X120298965Y-23793555D02*
X120251346Y-23745936D01*
X120251346Y-23745936D02*
X120203727Y-23650698D01*
X120203727Y-23650698D02*
X120203727Y-23460222D01*
X120203727Y-23460222D02*
X120251346Y-23364984D01*
X120251346Y-23364984D02*
X120298965Y-23317365D01*
X120298965Y-23317365D02*
X120394203Y-23269746D01*
X139872775Y-22317365D02*
X138872775Y-22317365D01*
X138872775Y-22317365D02*
X138872775Y-22555460D01*
X138872775Y-22555460D02*
X138920394Y-22698317D01*
X138920394Y-22698317D02*
X139015632Y-22793555D01*
X139015632Y-22793555D02*
X139110870Y-22841174D01*
X139110870Y-22841174D02*
X139301346Y-22888793D01*
X139301346Y-22888793D02*
X139444203Y-22888793D01*
X139444203Y-22888793D02*
X139634679Y-22841174D01*
X139634679Y-22841174D02*
X139729917Y-22793555D01*
X139729917Y-22793555D02*
X139825156Y-22698317D01*
X139825156Y-22698317D02*
X139872775Y-22555460D01*
X139872775Y-22555460D02*
X139872775Y-22317365D01*
X138872775Y-23222127D02*
X138872775Y-23888793D01*
X138872775Y-23888793D02*
X139872775Y-23460222D01*
X232542954Y-41052842D02*
X231542954Y-41052842D01*
X231542954Y-41052842D02*
X231542954Y-41290937D01*
X231542954Y-41290937D02*
X231590573Y-41433794D01*
X231590573Y-41433794D02*
X231685811Y-41529032D01*
X231685811Y-41529032D02*
X231781049Y-41576651D01*
X231781049Y-41576651D02*
X231971525Y-41624270D01*
X231971525Y-41624270D02*
X232114382Y-41624270D01*
X232114382Y-41624270D02*
X232304858Y-41576651D01*
X232304858Y-41576651D02*
X232400096Y-41529032D01*
X232400096Y-41529032D02*
X232495335Y-41433794D01*
X232495335Y-41433794D02*
X232542954Y-41290937D01*
X232542954Y-41290937D02*
X232542954Y-41052842D01*
X231638192Y-42005223D02*
X231590573Y-42052842D01*
X231590573Y-42052842D02*
X231542954Y-42148080D01*
X231542954Y-42148080D02*
X231542954Y-42386175D01*
X231542954Y-42386175D02*
X231590573Y-42481413D01*
X231590573Y-42481413D02*
X231638192Y-42529032D01*
X231638192Y-42529032D02*
X231733430Y-42576651D01*
X231733430Y-42576651D02*
X231828668Y-42576651D01*
X231828668Y-42576651D02*
X231971525Y-42529032D01*
X231971525Y-42529032D02*
X232542954Y-41957604D01*
X232542954Y-41957604D02*
X232542954Y-42576651D01*
X231542954Y-42909985D02*
X231542954Y-43529032D01*
X231542954Y-43529032D02*
X231923906Y-43195699D01*
X231923906Y-43195699D02*
X231923906Y-43338556D01*
X231923906Y-43338556D02*
X231971525Y-43433794D01*
X231971525Y-43433794D02*
X232019144Y-43481413D01*
X232019144Y-43481413D02*
X232114382Y-43529032D01*
X232114382Y-43529032D02*
X232352477Y-43529032D01*
X232352477Y-43529032D02*
X232447715Y-43481413D01*
X232447715Y-43481413D02*
X232495335Y-43433794D01*
X232495335Y-43433794D02*
X232542954Y-43338556D01*
X232542954Y-43338556D02*
X232542954Y-43052842D01*
X232542954Y-43052842D02*
X232495335Y-42957604D01*
X232495335Y-42957604D02*
X232447715Y-42909985D01*
X235221857Y-59941142D02*
X234221857Y-59941142D01*
X234221857Y-59941142D02*
X234221857Y-60179237D01*
X234221857Y-60179237D02*
X234269476Y-60322094D01*
X234269476Y-60322094D02*
X234364714Y-60417332D01*
X234364714Y-60417332D02*
X234459952Y-60464951D01*
X234459952Y-60464951D02*
X234650428Y-60512570D01*
X234650428Y-60512570D02*
X234793285Y-60512570D01*
X234793285Y-60512570D02*
X234983761Y-60464951D01*
X234983761Y-60464951D02*
X235078999Y-60417332D01*
X235078999Y-60417332D02*
X235174238Y-60322094D01*
X235174238Y-60322094D02*
X235221857Y-60179237D01*
X235221857Y-60179237D02*
X235221857Y-59941142D01*
X234221857Y-60845904D02*
X234221857Y-61464951D01*
X234221857Y-61464951D02*
X234602809Y-61131618D01*
X234602809Y-61131618D02*
X234602809Y-61274475D01*
X234602809Y-61274475D02*
X234650428Y-61369713D01*
X234650428Y-61369713D02*
X234698047Y-61417332D01*
X234698047Y-61417332D02*
X234793285Y-61464951D01*
X234793285Y-61464951D02*
X235031380Y-61464951D01*
X235031380Y-61464951D02*
X235126618Y-61417332D01*
X235126618Y-61417332D02*
X235174238Y-61369713D01*
X235174238Y-61369713D02*
X235221857Y-61274475D01*
X235221857Y-61274475D02*
X235221857Y-60988761D01*
X235221857Y-60988761D02*
X235174238Y-60893523D01*
X235174238Y-60893523D02*
X235126618Y-60845904D01*
X234221857Y-61798285D02*
X234221857Y-62417332D01*
X234221857Y-62417332D02*
X234602809Y-62083999D01*
X234602809Y-62083999D02*
X234602809Y-62226856D01*
X234602809Y-62226856D02*
X234650428Y-62322094D01*
X234650428Y-62322094D02*
X234698047Y-62369713D01*
X234698047Y-62369713D02*
X234793285Y-62417332D01*
X234793285Y-62417332D02*
X235031380Y-62417332D01*
X235031380Y-62417332D02*
X235126618Y-62369713D01*
X235126618Y-62369713D02*
X235174238Y-62322094D01*
X235174238Y-62322094D02*
X235221857Y-62226856D01*
X235221857Y-62226856D02*
X235221857Y-61941142D01*
X235221857Y-61941142D02*
X235174238Y-61845904D01*
X235174238Y-61845904D02*
X235126618Y-61798285D01*
X62266525Y-69187265D02*
X63076048Y-69187265D01*
X63076048Y-69187265D02*
X63171286Y-69234884D01*
X63171286Y-69234884D02*
X63218906Y-69282503D01*
X63218906Y-69282503D02*
X63266525Y-69377741D01*
X63266525Y-69377741D02*
X63266525Y-69568217D01*
X63266525Y-69568217D02*
X63218906Y-69663455D01*
X63218906Y-69663455D02*
X63171286Y-69711074D01*
X63171286Y-69711074D02*
X63076048Y-69758693D01*
X63076048Y-69758693D02*
X62266525Y-69758693D01*
X62361763Y-70187265D02*
X62314144Y-70234884D01*
X62314144Y-70234884D02*
X62266525Y-70330122D01*
X62266525Y-70330122D02*
X62266525Y-70568217D01*
X62266525Y-70568217D02*
X62314144Y-70663455D01*
X62314144Y-70663455D02*
X62361763Y-70711074D01*
X62361763Y-70711074D02*
X62457001Y-70758693D01*
X62457001Y-70758693D02*
X62552239Y-70758693D01*
X62552239Y-70758693D02*
X62695096Y-70711074D01*
X62695096Y-70711074D02*
X63266525Y-70139646D01*
X63266525Y-70139646D02*
X63266525Y-70758693D01*
X113679025Y-59941174D02*
X112679025Y-59941174D01*
X112679025Y-59941174D02*
X112679025Y-60179269D01*
X112679025Y-60179269D02*
X112726644Y-60322126D01*
X112726644Y-60322126D02*
X112821882Y-60417364D01*
X112821882Y-60417364D02*
X112917120Y-60464983D01*
X112917120Y-60464983D02*
X113107596Y-60512602D01*
X113107596Y-60512602D02*
X113250453Y-60512602D01*
X113250453Y-60512602D02*
X113440929Y-60464983D01*
X113440929Y-60464983D02*
X113536167Y-60417364D01*
X113536167Y-60417364D02*
X113631406Y-60322126D01*
X113631406Y-60322126D02*
X113679025Y-60179269D01*
X113679025Y-60179269D02*
X113679025Y-59941174D01*
X112774263Y-60893555D02*
X112726644Y-60941174D01*
X112726644Y-60941174D02*
X112679025Y-61036412D01*
X112679025Y-61036412D02*
X112679025Y-61274507D01*
X112679025Y-61274507D02*
X112726644Y-61369745D01*
X112726644Y-61369745D02*
X112774263Y-61417364D01*
X112774263Y-61417364D02*
X112869501Y-61464983D01*
X112869501Y-61464983D02*
X112964739Y-61464983D01*
X112964739Y-61464983D02*
X113107596Y-61417364D01*
X113107596Y-61417364D02*
X113679025Y-60845936D01*
X113679025Y-60845936D02*
X113679025Y-61464983D01*
X112679025Y-61798317D02*
X112679025Y-62464983D01*
X112679025Y-62464983D02*
X113679025Y-62036412D01*
X216072775Y-21841174D02*
X215072775Y-21841174D01*
X215072775Y-21841174D02*
X215072775Y-22079269D01*
X215072775Y-22079269D02*
X215120394Y-22222126D01*
X215120394Y-22222126D02*
X215215632Y-22317364D01*
X215215632Y-22317364D02*
X215310870Y-22364983D01*
X215310870Y-22364983D02*
X215501346Y-22412602D01*
X215501346Y-22412602D02*
X215644203Y-22412602D01*
X215644203Y-22412602D02*
X215834679Y-22364983D01*
X215834679Y-22364983D02*
X215929917Y-22317364D01*
X215929917Y-22317364D02*
X216025156Y-22222126D01*
X216025156Y-22222126D02*
X216072775Y-22079269D01*
X216072775Y-22079269D02*
X216072775Y-21841174D01*
X216072775Y-23364983D02*
X216072775Y-22793555D01*
X216072775Y-23079269D02*
X215072775Y-23079269D01*
X215072775Y-23079269D02*
X215215632Y-22984031D01*
X215215632Y-22984031D02*
X215310870Y-22888793D01*
X215310870Y-22888793D02*
X215358489Y-22793555D01*
X216072775Y-24317364D02*
X216072775Y-23745936D01*
X216072775Y-24031650D02*
X215072775Y-24031650D01*
X215072775Y-24031650D02*
X215215632Y-23936412D01*
X215215632Y-23936412D02*
X215310870Y-23841174D01*
X215310870Y-23841174D02*
X215358489Y-23745936D01*
X64540872Y-31514242D02*
X64588491Y-31561862D01*
X64588491Y-31561862D02*
X64731348Y-31609481D01*
X64731348Y-31609481D02*
X64826586Y-31609481D01*
X64826586Y-31609481D02*
X64969443Y-31561862D01*
X64969443Y-31561862D02*
X65064681Y-31466623D01*
X65064681Y-31466623D02*
X65112300Y-31371385D01*
X65112300Y-31371385D02*
X65159919Y-31180909D01*
X65159919Y-31180909D02*
X65159919Y-31038052D01*
X65159919Y-31038052D02*
X65112300Y-30847576D01*
X65112300Y-30847576D02*
X65064681Y-30752338D01*
X65064681Y-30752338D02*
X64969443Y-30657100D01*
X64969443Y-30657100D02*
X64826586Y-30609481D01*
X64826586Y-30609481D02*
X64731348Y-30609481D01*
X64731348Y-30609481D02*
X64588491Y-30657100D01*
X64588491Y-30657100D02*
X64540872Y-30704719D01*
X63969443Y-31038052D02*
X64064681Y-30990433D01*
X64064681Y-30990433D02*
X64112300Y-30942814D01*
X64112300Y-30942814D02*
X64159919Y-30847576D01*
X64159919Y-30847576D02*
X64159919Y-30799957D01*
X64159919Y-30799957D02*
X64112300Y-30704719D01*
X64112300Y-30704719D02*
X64064681Y-30657100D01*
X64064681Y-30657100D02*
X63969443Y-30609481D01*
X63969443Y-30609481D02*
X63778967Y-30609481D01*
X63778967Y-30609481D02*
X63683729Y-30657100D01*
X63683729Y-30657100D02*
X63636110Y-30704719D01*
X63636110Y-30704719D02*
X63588491Y-30799957D01*
X63588491Y-30799957D02*
X63588491Y-30847576D01*
X63588491Y-30847576D02*
X63636110Y-30942814D01*
X63636110Y-30942814D02*
X63683729Y-30990433D01*
X63683729Y-30990433D02*
X63778967Y-31038052D01*
X63778967Y-31038052D02*
X63969443Y-31038052D01*
X63969443Y-31038052D02*
X64064681Y-31085671D01*
X64064681Y-31085671D02*
X64112300Y-31133290D01*
X64112300Y-31133290D02*
X64159919Y-31228528D01*
X64159919Y-31228528D02*
X64159919Y-31419004D01*
X64159919Y-31419004D02*
X64112300Y-31514242D01*
X64112300Y-31514242D02*
X64064681Y-31561862D01*
X64064681Y-31561862D02*
X63969443Y-31609481D01*
X63969443Y-31609481D02*
X63778967Y-31609481D01*
X63778967Y-31609481D02*
X63683729Y-31561862D01*
X63683729Y-31561862D02*
X63636110Y-31514242D01*
X63636110Y-31514242D02*
X63588491Y-31419004D01*
X63588491Y-31419004D02*
X63588491Y-31228528D01*
X63588491Y-31228528D02*
X63636110Y-31133290D01*
X63636110Y-31133290D02*
X63683729Y-31085671D01*
X63683729Y-31085671D02*
X63778967Y-31038052D01*
X15513789Y-57072779D02*
X15513789Y-57787064D01*
X15513789Y-57787064D02*
X15561408Y-57929921D01*
X15561408Y-57929921D02*
X15656646Y-58025160D01*
X15656646Y-58025160D02*
X15799503Y-58072779D01*
X15799503Y-58072779D02*
X15894741Y-58072779D01*
X15085217Y-57168017D02*
X15037598Y-57120398D01*
X15037598Y-57120398D02*
X14942360Y-57072779D01*
X14942360Y-57072779D02*
X14704265Y-57072779D01*
X14704265Y-57072779D02*
X14609027Y-57120398D01*
X14609027Y-57120398D02*
X14561408Y-57168017D01*
X14561408Y-57168017D02*
X14513789Y-57263255D01*
X14513789Y-57263255D02*
X14513789Y-57358493D01*
X14513789Y-57358493D02*
X14561408Y-57501350D01*
X14561408Y-57501350D02*
X15132836Y-58072779D01*
X15132836Y-58072779D02*
X14513789Y-58072779D01*
X68435275Y-40891174D02*
X67435275Y-40891174D01*
X67435275Y-40891174D02*
X67435275Y-41129269D01*
X67435275Y-41129269D02*
X67482894Y-41272126D01*
X67482894Y-41272126D02*
X67578132Y-41367364D01*
X67578132Y-41367364D02*
X67673370Y-41414983D01*
X67673370Y-41414983D02*
X67863846Y-41462602D01*
X67863846Y-41462602D02*
X68006703Y-41462602D01*
X68006703Y-41462602D02*
X68197179Y-41414983D01*
X68197179Y-41414983D02*
X68292417Y-41367364D01*
X68292417Y-41367364D02*
X68387656Y-41272126D01*
X68387656Y-41272126D02*
X68435275Y-41129269D01*
X68435275Y-41129269D02*
X68435275Y-40891174D01*
X68435275Y-42414983D02*
X68435275Y-41843555D01*
X68435275Y-42129269D02*
X67435275Y-42129269D01*
X67435275Y-42129269D02*
X67578132Y-42034031D01*
X67578132Y-42034031D02*
X67673370Y-41938793D01*
X67673370Y-41938793D02*
X67720989Y-41843555D01*
X67435275Y-43319745D02*
X67435275Y-42843555D01*
X67435275Y-42843555D02*
X67911465Y-42795936D01*
X67911465Y-42795936D02*
X67863846Y-42843555D01*
X67863846Y-42843555D02*
X67816227Y-42938793D01*
X67816227Y-42938793D02*
X67816227Y-43176888D01*
X67816227Y-43176888D02*
X67863846Y-43272126D01*
X67863846Y-43272126D02*
X67911465Y-43319745D01*
X67911465Y-43319745D02*
X68006703Y-43367364D01*
X68006703Y-43367364D02*
X68244798Y-43367364D01*
X68244798Y-43367364D02*
X68340036Y-43319745D01*
X68340036Y-43319745D02*
X68387656Y-43272126D01*
X68387656Y-43272126D02*
X68435275Y-43176888D01*
X68435275Y-43176888D02*
X68435275Y-42938793D01*
X68435275Y-42938793D02*
X68387656Y-42843555D01*
X68387656Y-42843555D02*
X68340036Y-42795936D01*
X132729025Y-59941174D02*
X131729025Y-59941174D01*
X131729025Y-59941174D02*
X131729025Y-60179269D01*
X131729025Y-60179269D02*
X131776644Y-60322126D01*
X131776644Y-60322126D02*
X131871882Y-60417364D01*
X131871882Y-60417364D02*
X131967120Y-60464983D01*
X131967120Y-60464983D02*
X132157596Y-60512602D01*
X132157596Y-60512602D02*
X132300453Y-60512602D01*
X132300453Y-60512602D02*
X132490929Y-60464983D01*
X132490929Y-60464983D02*
X132586167Y-60417364D01*
X132586167Y-60417364D02*
X132681406Y-60322126D01*
X132681406Y-60322126D02*
X132729025Y-60179269D01*
X132729025Y-60179269D02*
X132729025Y-59941174D01*
X131824263Y-60893555D02*
X131776644Y-60941174D01*
X131776644Y-60941174D02*
X131729025Y-61036412D01*
X131729025Y-61036412D02*
X131729025Y-61274507D01*
X131729025Y-61274507D02*
X131776644Y-61369745D01*
X131776644Y-61369745D02*
X131824263Y-61417364D01*
X131824263Y-61417364D02*
X131919501Y-61464983D01*
X131919501Y-61464983D02*
X132014739Y-61464983D01*
X132014739Y-61464983D02*
X132157596Y-61417364D01*
X132157596Y-61417364D02*
X132729025Y-60845936D01*
X132729025Y-60845936D02*
X132729025Y-61464983D01*
X132157596Y-62036412D02*
X132109977Y-61941174D01*
X132109977Y-61941174D02*
X132062358Y-61893555D01*
X132062358Y-61893555D02*
X131967120Y-61845936D01*
X131967120Y-61845936D02*
X131919501Y-61845936D01*
X131919501Y-61845936D02*
X131824263Y-61893555D01*
X131824263Y-61893555D02*
X131776644Y-61941174D01*
X131776644Y-61941174D02*
X131729025Y-62036412D01*
X131729025Y-62036412D02*
X131729025Y-62226888D01*
X131729025Y-62226888D02*
X131776644Y-62322126D01*
X131776644Y-62322126D02*
X131824263Y-62369745D01*
X131824263Y-62369745D02*
X131919501Y-62417364D01*
X131919501Y-62417364D02*
X131967120Y-62417364D01*
X131967120Y-62417364D02*
X132062358Y-62369745D01*
X132062358Y-62369745D02*
X132109977Y-62322126D01*
X132109977Y-62322126D02*
X132157596Y-62226888D01*
X132157596Y-62226888D02*
X132157596Y-62036412D01*
X132157596Y-62036412D02*
X132205215Y-61941174D01*
X132205215Y-61941174D02*
X132252834Y-61893555D01*
X132252834Y-61893555D02*
X132348072Y-61845936D01*
X132348072Y-61845936D02*
X132538548Y-61845936D01*
X132538548Y-61845936D02*
X132633786Y-61893555D01*
X132633786Y-61893555D02*
X132681406Y-61941174D01*
X132681406Y-61941174D02*
X132729025Y-62036412D01*
X132729025Y-62036412D02*
X132729025Y-62226888D01*
X132729025Y-62226888D02*
X132681406Y-62322126D01*
X132681406Y-62322126D02*
X132633786Y-62369745D01*
X132633786Y-62369745D02*
X132538548Y-62417364D01*
X132538548Y-62417364D02*
X132348072Y-62417364D01*
X132348072Y-62417364D02*
X132252834Y-62369745D01*
X132252834Y-62369745D02*
X132205215Y-62322126D01*
X132205215Y-62322126D02*
X132157596Y-62226888D01*
X66841582Y-33883697D02*
X66841582Y-34693220D01*
X66841582Y-34693220D02*
X66793963Y-34788458D01*
X66793963Y-34788458D02*
X66746344Y-34836078D01*
X66746344Y-34836078D02*
X66651106Y-34883697D01*
X66651106Y-34883697D02*
X66460630Y-34883697D01*
X66460630Y-34883697D02*
X66365392Y-34836078D01*
X66365392Y-34836078D02*
X66317773Y-34788458D01*
X66317773Y-34788458D02*
X66270154Y-34693220D01*
X66270154Y-34693220D02*
X66270154Y-33883697D01*
X65270154Y-34883697D02*
X65841582Y-34883697D01*
X65555868Y-34883697D02*
X65555868Y-33883697D01*
X65555868Y-33883697D02*
X65651106Y-34026554D01*
X65651106Y-34026554D02*
X65746344Y-34121792D01*
X65746344Y-34121792D02*
X65841582Y-34169411D01*
X132728967Y-79053626D02*
X131728967Y-79053626D01*
X131728967Y-79053626D02*
X131728967Y-79291721D01*
X131728967Y-79291721D02*
X131776586Y-79434578D01*
X131776586Y-79434578D02*
X131871824Y-79529816D01*
X131871824Y-79529816D02*
X131967062Y-79577435D01*
X131967062Y-79577435D02*
X132157538Y-79625054D01*
X132157538Y-79625054D02*
X132300395Y-79625054D01*
X132300395Y-79625054D02*
X132490871Y-79577435D01*
X132490871Y-79577435D02*
X132586109Y-79529816D01*
X132586109Y-79529816D02*
X132681348Y-79434578D01*
X132681348Y-79434578D02*
X132728967Y-79291721D01*
X132728967Y-79291721D02*
X132728967Y-79053626D01*
X131728967Y-79958388D02*
X131728967Y-80577435D01*
X131728967Y-80577435D02*
X132109919Y-80244102D01*
X132109919Y-80244102D02*
X132109919Y-80386959D01*
X132109919Y-80386959D02*
X132157538Y-80482197D01*
X132157538Y-80482197D02*
X132205157Y-80529816D01*
X132205157Y-80529816D02*
X132300395Y-80577435D01*
X132300395Y-80577435D02*
X132538490Y-80577435D01*
X132538490Y-80577435D02*
X132633728Y-80529816D01*
X132633728Y-80529816D02*
X132681348Y-80482197D01*
X132681348Y-80482197D02*
X132728967Y-80386959D01*
X132728967Y-80386959D02*
X132728967Y-80101245D01*
X132728967Y-80101245D02*
X132681348Y-80006007D01*
X132681348Y-80006007D02*
X132633728Y-79958388D01*
X131728967Y-80910769D02*
X131728967Y-81577435D01*
X131728967Y-81577435D02*
X132728967Y-81148864D01*
X59250475Y-78345462D02*
X59298094Y-78393082D01*
X59298094Y-78393082D02*
X59440951Y-78440701D01*
X59440951Y-78440701D02*
X59536189Y-78440701D01*
X59536189Y-78440701D02*
X59679046Y-78393082D01*
X59679046Y-78393082D02*
X59774284Y-78297843D01*
X59774284Y-78297843D02*
X59821903Y-78202605D01*
X59821903Y-78202605D02*
X59869522Y-78012129D01*
X59869522Y-78012129D02*
X59869522Y-77869272D01*
X59869522Y-77869272D02*
X59821903Y-77678796D01*
X59821903Y-77678796D02*
X59774284Y-77583558D01*
X59774284Y-77583558D02*
X59679046Y-77488320D01*
X59679046Y-77488320D02*
X59536189Y-77440701D01*
X59536189Y-77440701D02*
X59440951Y-77440701D01*
X59440951Y-77440701D02*
X59298094Y-77488320D01*
X59298094Y-77488320D02*
X59250475Y-77535939D01*
X58298094Y-78440701D02*
X58869522Y-78440701D01*
X58583808Y-78440701D02*
X58583808Y-77440701D01*
X58583808Y-77440701D02*
X58679046Y-77583558D01*
X58679046Y-77583558D02*
X58774284Y-77678796D01*
X58774284Y-77678796D02*
X58869522Y-77726415D01*
X57679046Y-77440701D02*
X57583808Y-77440701D01*
X57583808Y-77440701D02*
X57488570Y-77488320D01*
X57488570Y-77488320D02*
X57440951Y-77535939D01*
X57440951Y-77535939D02*
X57393332Y-77631177D01*
X57393332Y-77631177D02*
X57345713Y-77821653D01*
X57345713Y-77821653D02*
X57345713Y-78059748D01*
X57345713Y-78059748D02*
X57393332Y-78250224D01*
X57393332Y-78250224D02*
X57440951Y-78345462D01*
X57440951Y-78345462D02*
X57488570Y-78393082D01*
X57488570Y-78393082D02*
X57583808Y-78440701D01*
X57583808Y-78440701D02*
X57679046Y-78440701D01*
X57679046Y-78440701D02*
X57774284Y-78393082D01*
X57774284Y-78393082D02*
X57821903Y-78345462D01*
X57821903Y-78345462D02*
X57869522Y-78250224D01*
X57869522Y-78250224D02*
X57917141Y-78059748D01*
X57917141Y-78059748D02*
X57917141Y-77821653D01*
X57917141Y-77821653D02*
X57869522Y-77631177D01*
X57869522Y-77631177D02*
X57821903Y-77535939D01*
X57821903Y-77535939D02*
X57774284Y-77488320D01*
X57774284Y-77488320D02*
X57679046Y-77440701D01*
D14*
%TO.C,C6*%
X60344542Y-63830669D02*
X60128870Y-63830669D01*
X60344542Y-64550669D02*
X60128870Y-64550669D01*
%TO.C,D5*%
X98317956Y-25415460D02*
X98317956Y-21405460D01*
X100317956Y-25415460D02*
X98317956Y-25415460D01*
X100317956Y-25415460D02*
X100317956Y-21405460D01*
%TO.C,D4*%
X79267956Y-25415460D02*
X79267956Y-21405460D01*
X81267956Y-25415460D02*
X79267956Y-25415460D01*
X81267956Y-25415460D02*
X81267956Y-21405460D01*
%TO.C,SW1*%
X81486754Y-50024210D02*
X81486754Y-48024210D01*
X82486754Y-46724210D02*
X82936754Y-46274210D01*
X82486754Y-51324210D02*
X82936754Y-51774210D01*
X82936754Y-46274210D02*
X85536754Y-46274210D01*
X82936754Y-51774210D02*
X85536754Y-51774210D01*
X85986754Y-46724210D02*
X85536754Y-46274210D01*
X85986754Y-51324210D02*
X85536754Y-51774210D01*
X86986754Y-50024210D02*
X86986754Y-48024210D01*
%TO.C,D18*%
X122130456Y-44465460D02*
X122130456Y-40455460D01*
X124130456Y-44465460D02*
X122130456Y-44465460D01*
X124130456Y-44465460D02*
X124130456Y-40455460D01*
%TO.C,C9*%
X63458626Y-38482960D02*
X63739786Y-38482960D01*
X63458626Y-39502960D02*
X63739786Y-39502960D01*
%TO.C,R1*%
X88476758Y-50311468D02*
X88476758Y-49836952D01*
X89521758Y-50311468D02*
X89521758Y-49836952D01*
%TO.C,C4*%
X50851706Y-66805194D02*
X50851706Y-67020866D01*
X51571706Y-66805194D02*
X51571706Y-67020866D01*
%TO.C,D38*%
X217380338Y-82565412D02*
X217380338Y-78555412D01*
X219380338Y-82565412D02*
X217380338Y-82565412D01*
X219380338Y-82565412D02*
X219380338Y-78555412D01*
%TO.C,D14*%
X45930456Y-44465460D02*
X45930456Y-40455460D01*
X47930456Y-44465460D02*
X45930456Y-44465460D01*
X47930456Y-44465460D02*
X47930456Y-40455460D01*
%TO.C,C1*%
X62995246Y-72863386D02*
X63210918Y-72863386D01*
X62995246Y-73583386D02*
X63210918Y-73583386D01*
%TO.C,D12*%
X236529534Y-25577160D02*
X236529534Y-21567160D01*
X238529534Y-25577160D02*
X236529534Y-25577160D01*
X238529534Y-25577160D02*
X238529534Y-21567160D01*
%TO.C,D39*%
X222142820Y-82565412D02*
X222142820Y-78555412D01*
X224142820Y-82565412D02*
X222142820Y-82565412D01*
X224142820Y-82565412D02*
X224142820Y-78555412D01*
%TO.C,D17*%
X103080456Y-44465460D02*
X103080456Y-40455460D01*
X105080456Y-44465460D02*
X103080456Y-44465460D01*
X105080456Y-44465460D02*
X105080456Y-40455460D01*
%TO.C,C5*%
X49367380Y-66206765D02*
X49367380Y-66487925D01*
X50387380Y-66206765D02*
X50387380Y-66487925D01*
%TO.C,D22*%
X198330456Y-44465460D02*
X198330456Y-40455460D01*
X200330456Y-44465460D02*
X198330456Y-44465460D01*
X200330456Y-44465460D02*
X200330456Y-40455460D01*
%TO.C,D36*%
X74307014Y-83359210D02*
X74307014Y-79349210D01*
X76307014Y-83359210D02*
X74307014Y-83359210D01*
X76307014Y-83359210D02*
X76307014Y-79349210D01*
%TO.C,C3*%
X61621126Y-74082185D02*
X61902286Y-74082185D01*
X61621126Y-75102185D02*
X61902286Y-75102185D01*
%TO.C,D34*%
X241192804Y-63515460D02*
X241192804Y-59505460D01*
X243192804Y-63515460D02*
X241192804Y-63515460D01*
X243192804Y-63515460D02*
X243192804Y-59505460D01*
%TO.C,D8*%
X155467956Y-25415460D02*
X155467956Y-21405460D01*
X157467956Y-25415460D02*
X155467956Y-25415460D01*
X157467956Y-25415460D02*
X157467956Y-21405460D01*
%TO.C,D9*%
X174517956Y-25415460D02*
X174517956Y-21405460D01*
X176517956Y-25415460D02*
X174517956Y-25415460D01*
X176517956Y-25415460D02*
X176517956Y-21405460D01*
%TO.C,D3*%
X60217956Y-25415460D02*
X60217956Y-21405460D01*
X62217956Y-25415460D02*
X60217956Y-25415460D01*
X62217956Y-25415460D02*
X62217956Y-21405460D01*
%TO.C,D35*%
X53074206Y-82627960D02*
X53074206Y-78617960D01*
X55074206Y-82627960D02*
X53074206Y-82627960D01*
X55074206Y-82627960D02*
X55074206Y-78617960D01*
%TO.C,D32*%
X205474206Y-63515460D02*
X205474206Y-59505460D01*
X207474206Y-63515460D02*
X205474206Y-63515460D01*
X207474206Y-63515460D02*
X207474206Y-59505460D01*
%TO.C,D24*%
X29956234Y-66356050D02*
X29956234Y-62346050D01*
X31956234Y-66356050D02*
X29956234Y-66356050D01*
X31956234Y-66356050D02*
X31956234Y-62346050D01*
%TO.C,D10*%
X193567956Y-25415460D02*
X193567956Y-21405460D01*
X195567956Y-25415460D02*
X193567956Y-25415460D01*
X195567956Y-25415460D02*
X195567956Y-21405460D01*
%TO.C,D1*%
X34024206Y-25415460D02*
X34024206Y-21405460D01*
X36024206Y-25415460D02*
X34024206Y-25415460D01*
X36024206Y-25415460D02*
X36024206Y-21405460D01*
%TO.C,D30*%
X167374206Y-63515460D02*
X167374206Y-59505460D01*
X169374206Y-63515460D02*
X167374206Y-63515460D01*
X169374206Y-63515460D02*
X169374206Y-59505460D01*
%TO.C,D19*%
X141180456Y-44465460D02*
X141180456Y-40455460D01*
X143180456Y-44465460D02*
X141180456Y-44465460D01*
X143180456Y-44465460D02*
X143180456Y-40455460D01*
%TO.C,J1*%
X48320456Y-27945460D02*
X48320456Y-28995460D01*
X48320456Y-28995460D02*
X47330456Y-28995460D01*
X48320456Y-34165460D02*
X48320456Y-33115460D01*
X50820456Y-27945460D02*
X48320456Y-27945460D01*
X50820456Y-34165460D02*
X48320456Y-34165460D01*
X52790456Y-29115460D02*
X52790456Y-32995460D01*
%TO.C,D29*%
X148324206Y-63515460D02*
X148324206Y-59505460D01*
X150324206Y-63515460D02*
X148324206Y-63515460D01*
X150324206Y-63515460D02*
X150324206Y-59505460D01*
%TO.C,C2*%
X55453870Y-75439170D02*
X55669542Y-75439170D01*
X55453870Y-76159170D02*
X55669542Y-76159170D01*
%TO.C,D21*%
X179280456Y-44465460D02*
X179280456Y-40455460D01*
X181280456Y-44465460D02*
X179280456Y-44465460D01*
X181280456Y-44465460D02*
X181280456Y-40455460D01*
%TO.C,D2*%
X43167956Y-25415460D02*
X43167956Y-21405460D01*
X43167956Y-25415460D02*
X41167956Y-25415460D01*
X41167956Y-25415460D02*
X41167956Y-21405460D01*
%TO.C,D26*%
X91174206Y-63515460D02*
X91174206Y-59505460D01*
X93174206Y-63515460D02*
X91174206Y-63515460D01*
X93174206Y-63515460D02*
X93174206Y-59505460D01*
%TO.C,D20*%
X160230456Y-44465460D02*
X160230456Y-40455460D01*
X162230456Y-44465460D02*
X160230456Y-44465460D01*
X162230456Y-44465460D02*
X162230456Y-40455460D01*
%TO.C,D25*%
X72124206Y-63515460D02*
X72124206Y-59505460D01*
X74124206Y-63515460D02*
X72124206Y-63515460D01*
X74124206Y-63515460D02*
X74124206Y-59505460D01*
%TO.C,D31*%
X186424206Y-63515460D02*
X186424206Y-59505460D01*
X188424206Y-63515460D02*
X186424206Y-63515460D01*
X188424206Y-63515460D02*
X188424206Y-59505460D01*
%TO.C,C7*%
X60927286Y-62364170D02*
X60646126Y-62364170D01*
X60927286Y-63384170D02*
X60646126Y-63384170D01*
%TO.C,D13*%
X36405456Y-44465460D02*
X36405456Y-40455460D01*
X38405456Y-44465460D02*
X36405456Y-44465460D01*
X38405456Y-44465460D02*
X38405456Y-40455460D01*
%TO.C,D16*%
X84030456Y-44465460D02*
X84030456Y-40455460D01*
X86030456Y-44465460D02*
X84030456Y-44465460D01*
X86030456Y-44465460D02*
X86030456Y-40455460D01*
%TO.C,D6*%
X117367956Y-25415460D02*
X117367956Y-21405460D01*
X119367956Y-25415460D02*
X117367956Y-25415460D01*
X119367956Y-25415460D02*
X119367956Y-21405460D01*
%TO.C,D7*%
X136417956Y-25415460D02*
X136417956Y-21405460D01*
X138417956Y-25415460D02*
X136417956Y-25415460D01*
X138417956Y-25415460D02*
X138417956Y-21405460D01*
%TO.C,D23*%
X229088134Y-44627128D02*
X229088134Y-40617128D01*
X231088134Y-44627128D02*
X229088134Y-44627128D01*
X231088134Y-44627128D02*
X231088134Y-40617128D01*
%TO.C,D33*%
X231767038Y-63515428D02*
X231767038Y-59505428D01*
X233767038Y-63515428D02*
X231767038Y-63515428D01*
X233767038Y-63515428D02*
X233767038Y-59505428D01*
%TO.C,U2*%
X53351706Y-66339170D02*
X53351706Y-66789170D01*
X53351706Y-73559170D02*
X53351706Y-73109170D01*
X53801706Y-66339170D02*
X53351706Y-66339170D01*
X53801706Y-73559170D02*
X53351706Y-73559170D01*
X60121706Y-66339170D02*
X60571706Y-66339170D01*
X60121706Y-73559170D02*
X60571706Y-73559170D01*
X60571706Y-66339170D02*
X60571706Y-66789170D01*
X60571706Y-73559170D02*
X60571706Y-73109170D01*
X60591706Y-74489170D02*
X60121706Y-74149170D01*
X60591706Y-73809170D01*
X60591706Y-74489170D01*
G36*
X60591706Y-74489170D02*
G01*
X60121706Y-74149170D01*
X60591706Y-73809170D01*
X60591706Y-74489170D01*
G37*
%TO.C,D27*%
X110224206Y-63515460D02*
X110224206Y-59505460D01*
X112224206Y-63515460D02*
X110224206Y-63515460D01*
X112224206Y-63515460D02*
X112224206Y-59505460D01*
%TO.C,D11*%
X212617956Y-25415460D02*
X212617956Y-21405460D01*
X214617956Y-25415460D02*
X212617956Y-25415460D01*
X214617956Y-25415460D02*
X214617956Y-21405460D01*
%TO.C,C8*%
X64233626Y-32132960D02*
X64514786Y-32132960D01*
X64233626Y-33152960D02*
X64514786Y-33152960D01*
%TO.C,J2*%
X13850456Y-61217960D02*
X13850456Y-68897960D01*
X16510456Y-58617960D02*
X15180456Y-58617960D01*
X16510456Y-59947960D02*
X16510456Y-58617960D01*
X16510456Y-61217960D02*
X13850456Y-61217960D01*
X16510456Y-61217960D02*
X16510456Y-68897960D01*
X16510456Y-68897960D02*
X13850456Y-68897960D01*
%TO.C,D15*%
X64980456Y-44465460D02*
X64980456Y-40455460D01*
X66980456Y-44465460D02*
X64980456Y-44465460D01*
X66980456Y-44465460D02*
X66980456Y-40455460D01*
%TO.C,D28*%
X129274206Y-63515460D02*
X129274206Y-59505460D01*
X131274206Y-63515460D02*
X129274206Y-63515460D01*
X131274206Y-63515460D02*
X131274206Y-59505460D01*
%TO.C,U1*%
X62039206Y-35817960D02*
X62039206Y-35017960D01*
X62039206Y-35817960D02*
X62039206Y-36617960D01*
X65159206Y-35817960D02*
X65159206Y-35017960D01*
X65159206Y-35817960D02*
X65159206Y-37617960D01*
%TO.C,D37*%
X129274148Y-82627912D02*
X129274148Y-78617912D01*
X131274148Y-82627912D02*
X129274148Y-82627912D01*
X131274148Y-82627912D02*
X131274148Y-78617912D01*
%TO.C,C10*%
X57087618Y-76357006D02*
X57087618Y-76141334D01*
X57807618Y-76357006D02*
X57807618Y-76141334D01*
%TD*%
%LPC*%
D15*
%TO.C,MX15*%
X19625456Y-41374210D03*
D16*
X24705456Y-41374210D03*
D15*
X29785456Y-41374210D03*
D17*
X20895456Y-38834210D03*
X27245456Y-36294210D03*
%TD*%
D15*
%TO.C,MX7*%
X141069206Y-22324210D03*
D16*
X146149206Y-22324210D03*
D15*
X151229206Y-22324210D03*
D17*
X142339206Y-19784210D03*
X148689206Y-17244210D03*
%TD*%
D15*
%TO.C,MX22*%
X164881706Y-41374210D03*
D16*
X169961706Y-41374210D03*
D15*
X175041706Y-41374210D03*
D17*
X166151706Y-38834210D03*
X172501706Y-36294210D03*
%TD*%
D15*
%TO.C,MX30*%
X29150450Y-60424178D03*
D16*
X34230450Y-60424178D03*
D15*
X39310450Y-60424178D03*
D17*
X30420450Y-57884178D03*
X36770450Y-55344178D03*
%TD*%
D16*
%TO.C,S2*%
X46136701Y-52169178D03*
D18*
X46136700Y-67409178D03*
X22324200Y-67409178D03*
D16*
X22324199Y-52169178D03*
%TD*%
D15*
%TO.C,MX1*%
X22006706Y-22324210D03*
D16*
X27086706Y-22324210D03*
D15*
X32166706Y-22324210D03*
D17*
X23276706Y-19784210D03*
X29626706Y-17244210D03*
%TD*%
D15*
%TO.C,MX41*%
X219650326Y-60424178D03*
D16*
X224730326Y-60424178D03*
D15*
X229810326Y-60424178D03*
D17*
X220920326Y-57884178D03*
X227270326Y-55344178D03*
%TD*%
D15*
%TO.C,MX4*%
X83919206Y-22324210D03*
D16*
X88999206Y-22324210D03*
D15*
X94079206Y-22324210D03*
D17*
X85189206Y-19784210D03*
X91539206Y-17244210D03*
%TD*%
D15*
%TO.C,MX34*%
X98206706Y-60424210D03*
D16*
X103286706Y-60424210D03*
D15*
X108366706Y-60424210D03*
D17*
X99476706Y-57884210D03*
X105826706Y-55344210D03*
%TD*%
D15*
%TO.C,MX9*%
X179169206Y-22324210D03*
D16*
X184249206Y-22324210D03*
D15*
X189329206Y-22324210D03*
D17*
X180439206Y-19784210D03*
X186789206Y-17244210D03*
%TD*%
D15*
%TO.C,MX36*%
X136306706Y-60424210D03*
D16*
X141386706Y-60424210D03*
D15*
X146466706Y-60424210D03*
D17*
X137576706Y-57884210D03*
X143926706Y-55344210D03*
%TD*%
D15*
%TO.C,MX14*%
X24387956Y-41374210D03*
D16*
X29467956Y-41374210D03*
D15*
X34547956Y-41374210D03*
D17*
X25657956Y-38834210D03*
X32007956Y-36294210D03*
%TD*%
D15*
%TO.C,MX11*%
X217269206Y-22324210D03*
D16*
X222349206Y-22324210D03*
D15*
X227429206Y-22324210D03*
D17*
X218539206Y-19784210D03*
X224889206Y-17244210D03*
%TD*%
D15*
%TO.C,MX10*%
X198219206Y-22324210D03*
D16*
X203299206Y-22324210D03*
D15*
X208379206Y-22324210D03*
D17*
X199489206Y-19784210D03*
X205839206Y-17244210D03*
%TD*%
D15*
%TO.C,MX8*%
X160119206Y-22324210D03*
D16*
X165199206Y-22324210D03*
D15*
X170279206Y-22324210D03*
D17*
X161389206Y-19784210D03*
X167739206Y-17244210D03*
%TD*%
D15*
%TO.C,MX20*%
X126781706Y-41374210D03*
D16*
X131861706Y-41374210D03*
D15*
X136941706Y-41374210D03*
D17*
X128051706Y-38834210D03*
X134401706Y-36294210D03*
%TD*%
D15*
%TO.C,MX52*%
X205362838Y-79474162D03*
D16*
X210442838Y-79474162D03*
D15*
X215522838Y-79474162D03*
D17*
X206632838Y-76934162D03*
X212982838Y-74394162D03*
%TD*%
D15*
%TO.C,MX16*%
X50581706Y-41374210D03*
D16*
X55661706Y-41374210D03*
D15*
X60741706Y-41374210D03*
D17*
X51851706Y-38834210D03*
X58201706Y-36294210D03*
%TD*%
D15*
%TO.C,MX32*%
X60106706Y-60424210D03*
D16*
X65186706Y-60424210D03*
D15*
X70266706Y-60424210D03*
D17*
X61376706Y-57884210D03*
X67726706Y-55344210D03*
%TD*%
D15*
%TO.C,MX23*%
X183931706Y-41374210D03*
D16*
X189011706Y-41374210D03*
D15*
X194091706Y-41374210D03*
D17*
X185201706Y-38834210D03*
X191551706Y-36294210D03*
%TD*%
D15*
%TO.C,MX37*%
X155356706Y-60424210D03*
D16*
X160436706Y-60424210D03*
D15*
X165516706Y-60424210D03*
D17*
X156626706Y-57884210D03*
X162976706Y-55344210D03*
%TD*%
D15*
%TO.C,MX38*%
X174406706Y-60424210D03*
D16*
X179486706Y-60424210D03*
D15*
X184566706Y-60424210D03*
D17*
X175676706Y-57884210D03*
X182026706Y-55344210D03*
%TD*%
D15*
%TO.C,MX27*%
X233937814Y-41374194D03*
D16*
X239017814Y-41374194D03*
D15*
X244097814Y-41374194D03*
D17*
X235207814Y-38834194D03*
X241557814Y-36294194D03*
%TD*%
D15*
%TO.C,MX18*%
X88681706Y-41374210D03*
D16*
X93761706Y-41374210D03*
D15*
X98841706Y-41374210D03*
D17*
X89951706Y-38834210D03*
X96301706Y-36294210D03*
%TD*%
D15*
%TO.C,MX17*%
X69631706Y-41374210D03*
D16*
X74711706Y-41374210D03*
D15*
X79791706Y-41374210D03*
D17*
X70901706Y-38834210D03*
X77251706Y-36294210D03*
%TD*%
D15*
%TO.C,MX19*%
X107731706Y-41374210D03*
D16*
X112811706Y-41374210D03*
D15*
X117891706Y-41374210D03*
D17*
X109001706Y-38834210D03*
X115351706Y-36294210D03*
%TD*%
D15*
%TO.C,MX3*%
X64869206Y-22324210D03*
D16*
X69949206Y-22324210D03*
D15*
X75029206Y-22324210D03*
D17*
X66139206Y-19784210D03*
X72489206Y-17244210D03*
%TD*%
D15*
%TO.C,MX39*%
X193456706Y-60424210D03*
D16*
X198536706Y-60424210D03*
D15*
X203616706Y-60424210D03*
D17*
X194726706Y-57884210D03*
X201076706Y-55344210D03*
%TD*%
D15*
%TO.C,MX6*%
X122019206Y-22324210D03*
D16*
X127099206Y-22324210D03*
D15*
X132179206Y-22324210D03*
D17*
X123289206Y-19784210D03*
X129639206Y-17244210D03*
%TD*%
D15*
%TO.C,MX13*%
X241081558Y-22324210D03*
D16*
X246161558Y-22324210D03*
D15*
X251241558Y-22324210D03*
D17*
X242351558Y-19784210D03*
X248701558Y-17244210D03*
%TD*%
D15*
%TO.C,MX53*%
X226794070Y-79474162D03*
D16*
X231874070Y-79474162D03*
D15*
X236954070Y-79474162D03*
D17*
X228064070Y-76934162D03*
X234414070Y-74394162D03*
%TD*%
D15*
%TO.C,MX21*%
X145831706Y-41374210D03*
D16*
X150911706Y-41374210D03*
D15*
X155991706Y-41374210D03*
D17*
X147101706Y-38834210D03*
X153451706Y-36294210D03*
%TD*%
D15*
%TO.C,MX5*%
X102969206Y-22324210D03*
D16*
X108049206Y-22324210D03*
D15*
X113129206Y-22324210D03*
D17*
X104239206Y-19784210D03*
X110589206Y-17244210D03*
%TD*%
D18*
%TO.C,S1*%
X189011648Y-86459161D03*
D16*
X189011648Y-71219162D03*
D18*
X88999148Y-86459161D03*
D16*
X88999148Y-71219162D03*
%TD*%
D15*
%TO.C,MX33*%
X79156706Y-60424210D03*
D16*
X84236706Y-60424210D03*
D15*
X89316706Y-60424210D03*
D17*
X80426706Y-57884210D03*
X86776706Y-55344210D03*
%TD*%
D15*
%TO.C,MX35*%
X117256706Y-60424210D03*
D16*
X122336706Y-60424210D03*
D15*
X127416706Y-60424210D03*
D17*
X118526706Y-57884210D03*
X124876706Y-55344210D03*
%TD*%
D15*
%TO.C,MX2*%
X45819206Y-22324210D03*
D16*
X50899206Y-22324210D03*
D15*
X55979206Y-22324210D03*
D17*
X47089206Y-19784210D03*
X53439206Y-17244210D03*
%TD*%
D15*
%TO.C,MX43*%
X41056706Y-79474210D03*
D16*
X46136706Y-79474210D03*
D15*
X51216706Y-79474210D03*
D17*
X42326706Y-76934210D03*
X48676706Y-74394210D03*
%TD*%
D15*
%TO.C,MX48*%
X133925398Y-79474162D03*
D16*
X139005398Y-79474162D03*
D15*
X144085398Y-79474162D03*
D17*
X135195398Y-76934162D03*
X141545398Y-74394162D03*
%TD*%
D15*
%TO.C,MX42*%
X245844054Y-60424210D03*
D16*
X250924054Y-60424210D03*
D15*
X256004054Y-60424210D03*
D17*
X247114054Y-57884210D03*
X253464054Y-55344210D03*
%TD*%
D15*
%TO.C,MX24*%
X202981706Y-41374210D03*
D16*
X208061706Y-41374210D03*
D15*
X213141706Y-41374210D03*
D17*
X204251706Y-38834210D03*
X210601706Y-36294210D03*
%TD*%
D18*
%TO.C,S3*%
X227111564Y-34389194D03*
D16*
X227111564Y-49629194D03*
D18*
X250924064Y-34389194D03*
D16*
X250924064Y-49629194D03*
%TD*%
D19*
%TO.C,C6*%
X60716706Y-64190669D03*
X59756706Y-64190669D03*
%TD*%
D20*
%TO.C,D5*%
X99317956Y-24705460D03*
X99317956Y-21405460D03*
%TD*%
%TO.C,D4*%
X80267956Y-24705460D03*
X80267956Y-21405460D03*
%TD*%
D21*
%TO.C,SW1*%
X81236754Y-50899210D03*
X87236754Y-50899210D03*
X81236754Y-47149210D03*
X87236754Y-47149210D03*
%TD*%
D20*
%TO.C,D18*%
X123130456Y-43755460D03*
X123130456Y-40455460D03*
%TD*%
D22*
%TO.C,C9*%
X62824206Y-38992960D03*
X64374206Y-38992960D03*
%TD*%
D23*
%TO.C,R1*%
X88999258Y-50899210D03*
X88999258Y-49249210D03*
%TD*%
D24*
%TO.C,C4*%
X51211706Y-66433030D03*
X51211706Y-67393030D03*
%TD*%
D20*
%TO.C,D38*%
X218380338Y-81855412D03*
X218380338Y-78555412D03*
%TD*%
%TO.C,D14*%
X46930456Y-43755460D03*
X46930456Y-40455460D03*
%TD*%
D25*
%TO.C,C1*%
X62623082Y-73223386D03*
X63583082Y-73223386D03*
%TD*%
D20*
%TO.C,D12*%
X237529534Y-24867160D03*
X237529534Y-21567160D03*
%TD*%
%TO.C,D39*%
X223142820Y-81855412D03*
X223142820Y-78555412D03*
%TD*%
%TO.C,D17*%
X104080456Y-43755460D03*
X104080456Y-40455460D03*
%TD*%
D26*
%TO.C,C5*%
X49877380Y-65572345D03*
X49877380Y-67122345D03*
%TD*%
D20*
%TO.C,D22*%
X199330456Y-43755460D03*
X199330456Y-40455460D03*
%TD*%
%TO.C,D36*%
X75307014Y-82649210D03*
X75307014Y-79349210D03*
%TD*%
D22*
%TO.C,C3*%
X60986706Y-74592185D03*
X62536706Y-74592185D03*
%TD*%
D20*
%TO.C,D34*%
X242192804Y-62805460D03*
X242192804Y-59505460D03*
%TD*%
%TO.C,D8*%
X156467956Y-24705460D03*
X156467956Y-21405460D03*
%TD*%
%TO.C,D9*%
X175517956Y-24705460D03*
X175517956Y-21405460D03*
%TD*%
%TO.C,D3*%
X61217956Y-24705460D03*
X61217956Y-21405460D03*
%TD*%
%TO.C,D35*%
X54074206Y-81917960D03*
X54074206Y-78617960D03*
%TD*%
%TO.C,D32*%
X206474206Y-62805460D03*
X206474206Y-59505460D03*
%TD*%
%TO.C,D24*%
X30956234Y-65646050D03*
X30956234Y-62346050D03*
%TD*%
%TO.C,D10*%
X194567956Y-24705460D03*
X194567956Y-21405460D03*
%TD*%
%TO.C,D1*%
X35024206Y-24705460D03*
X35024206Y-21405460D03*
%TD*%
%TO.C,D30*%
X168374206Y-62805460D03*
X168374206Y-59505460D03*
%TD*%
%TO.C,D19*%
X142180456Y-43755460D03*
X142180456Y-40455460D03*
%TD*%
D27*
%TO.C,J1*%
X48105456Y-29555460D03*
X48105456Y-30555460D03*
X48105456Y-31555460D03*
X48105456Y-32555460D03*
D28*
X51980456Y-28255460D03*
X51980456Y-33855460D03*
%TD*%
D20*
%TO.C,D29*%
X149324206Y-62805460D03*
X149324206Y-59505460D03*
%TD*%
D25*
%TO.C,C2*%
X55081706Y-75799170D03*
X56041706Y-75799170D03*
%TD*%
D20*
%TO.C,D21*%
X180280456Y-43755460D03*
X180280456Y-40455460D03*
%TD*%
%TO.C,D2*%
X42167956Y-21405460D03*
X42167956Y-24705460D03*
%TD*%
%TO.C,D26*%
X92174206Y-62805460D03*
X92174206Y-59505460D03*
%TD*%
%TO.C,D20*%
X161230456Y-43755460D03*
X161230456Y-40455460D03*
%TD*%
%TO.C,D25*%
X73124206Y-62805460D03*
X73124206Y-59505460D03*
%TD*%
%TO.C,D31*%
X187424206Y-62805460D03*
X187424206Y-59505460D03*
%TD*%
D29*
%TO.C,C7*%
X61561706Y-62874170D03*
X60011706Y-62874170D03*
%TD*%
D20*
%TO.C,D13*%
X37405456Y-43755460D03*
X37405456Y-40455460D03*
%TD*%
%TO.C,D16*%
X85030456Y-43755460D03*
X85030456Y-40455460D03*
%TD*%
%TO.C,D6*%
X118367956Y-24705460D03*
X118367956Y-21405460D03*
%TD*%
%TO.C,D7*%
X137417956Y-24705460D03*
X137417956Y-21405460D03*
%TD*%
%TO.C,D23*%
X230088134Y-43917128D03*
X230088134Y-40617128D03*
%TD*%
%TO.C,D33*%
X232767038Y-62805428D03*
X232767038Y-59505428D03*
%TD*%
D30*
%TO.C,U2*%
X59711706Y-74111670D03*
X59211706Y-74111670D03*
X58711706Y-74111670D03*
X58211706Y-74111670D03*
X57711706Y-74111670D03*
X57211706Y-74111670D03*
X56711706Y-74111670D03*
X56211706Y-74111670D03*
X55711706Y-74111670D03*
X55211706Y-74111670D03*
X54711706Y-74111670D03*
X54211706Y-74111670D03*
D31*
X52799206Y-72699170D03*
X52799206Y-72199170D03*
X52799206Y-71699170D03*
X52799206Y-71199170D03*
X52799206Y-70699170D03*
X52799206Y-70199170D03*
X52799206Y-69699170D03*
X52799206Y-69199170D03*
X52799206Y-68699170D03*
X52799206Y-68199170D03*
X52799206Y-67699170D03*
X52799206Y-67199170D03*
D30*
X54211706Y-65786670D03*
X54711706Y-65786670D03*
X55211706Y-65786670D03*
X55711706Y-65786670D03*
X56211706Y-65786670D03*
X56711706Y-65786670D03*
X57211706Y-65786670D03*
X57711706Y-65786670D03*
X58211706Y-65786670D03*
X58711706Y-65786670D03*
X59211706Y-65786670D03*
X59711706Y-65786670D03*
D31*
X61124206Y-67199170D03*
X61124206Y-67699170D03*
X61124206Y-68199170D03*
X61124206Y-68699170D03*
X61124206Y-69199170D03*
X61124206Y-69699170D03*
X61124206Y-70199170D03*
X61124206Y-70699170D03*
X61124206Y-71199170D03*
X61124206Y-71699170D03*
X61124206Y-72199170D03*
X61124206Y-72699170D03*
%TD*%
D20*
%TO.C,D27*%
X111224206Y-62805460D03*
X111224206Y-59505460D03*
%TD*%
%TO.C,D11*%
X213617956Y-24705460D03*
X213617956Y-21405460D03*
%TD*%
D22*
%TO.C,C8*%
X63599206Y-32642960D03*
X65149206Y-32642960D03*
%TD*%
D32*
%TO.C,J2*%
X15180456Y-59947960D03*
D33*
X15180456Y-62487960D03*
X15180456Y-65027960D03*
X15180456Y-67567960D03*
%TD*%
D20*
%TO.C,D15*%
X65980456Y-43755460D03*
X65980456Y-40455460D03*
%TD*%
%TO.C,D28*%
X130274206Y-62805460D03*
X130274206Y-59505460D03*
%TD*%
D34*
%TO.C,U1*%
X64549206Y-36955460D03*
X62649206Y-36955460D03*
X63599206Y-34680460D03*
%TD*%
D20*
%TO.C,D37*%
X130274148Y-81917912D03*
X130274148Y-78617912D03*
%TD*%
D35*
%TO.C,C10*%
X57447618Y-76729170D03*
X57447618Y-75769170D03*
%TD*%
D15*
%TO.C,MX44*%
X62487958Y-79474162D03*
D16*
X67567958Y-79474162D03*
D15*
X72647958Y-79474162D03*
D17*
X63757958Y-76934162D03*
X70107958Y-74394162D03*
%TD*%
%LPD*%
M02*
