%TF.GenerationSoftware,KiCad,Pcbnew,8.0.4*%
%TF.CreationDate,2024-08-28T19:47:30+05:30*%
%TF.ProjectId,kalam,6b616c61-6d2e-46b6-9963-61645f706362,rev?*%
%TF.SameCoordinates,Original*%
%TF.FileFunction,Profile,NP*%
%FSLAX46Y46*%
G04 Gerber Fmt 4.6, Leading zero omitted, Abs format (unit mm)*
G04 Created by KiCad (PCBNEW 8.0.4) date 2024-08-28 19:47:30*
%MOMM*%
%LPD*%
G01*
G04 APERTURE LIST*
%TA.AperFunction,Profile*%
%ADD10C,0.100000*%
%TD*%
G04 APERTURE END LIST*
D10*
X13076547Y-15326529D02*
X13076563Y-66826481D01*
X210101070Y-88126464D02*
G75*
G02*
X208771077Y-87319991I30J1499964D01*
G01*
X210101070Y-88126464D02*
X247801338Y-88126464D01*
X62919596Y-13882980D02*
G75*
G02*
X64249630Y-13076540I1330004J-693520D01*
G01*
X201854858Y-88126464D02*
X85085550Y-88126464D01*
X216212436Y-13882980D02*
G75*
G02*
X210626292Y-13882980I-2793072J1456449D01*
G01*
X15326563Y-69076480D02*
G75*
G02*
X13076570Y-66826481I-33J2249960D01*
G01*
X203184892Y-87320012D02*
G75*
G02*
X208771036Y-87320012I2793072J-1456451D01*
G01*
X39139064Y-88126464D02*
G75*
G02*
X36889036Y-85876464I-64J2249964D01*
G01*
X203184892Y-87320012D02*
G75*
G02*
X201854858Y-88126446I-1329992J693512D01*
G01*
X250051338Y-85876464D02*
G75*
G02*
X247801338Y-88126438I-2250038J64D01*
G01*
X217542470Y-13076528D02*
X266851322Y-13076528D01*
X56003418Y-13076528D02*
X15326547Y-13076528D01*
X13076547Y-15326529D02*
G75*
G02*
X15326547Y-13076527I2250003J-1D01*
G01*
X36889064Y-69076480D02*
X15326563Y-69076480D01*
X216212436Y-13882980D02*
G75*
G02*
X217542470Y-13076487I1330064J-693520D01*
G01*
X36889064Y-85876464D02*
X36889064Y-69076480D01*
X209296258Y-13076528D02*
G75*
G02*
X210626312Y-13882970I42J-1499972D01*
G01*
X250051338Y-85876464D02*
X250051338Y-69076480D01*
X85085550Y-88126464D02*
G75*
G02*
X83755494Y-87320024I-50J1499964D01*
G01*
X266851322Y-13076528D02*
G75*
G02*
X269101372Y-15326528I78J-2249972D01*
G01*
X269101322Y-15326528D02*
X269101322Y-66826480D01*
X78169372Y-87320012D02*
G75*
G02*
X83755516Y-87320012I2793072J-1456451D01*
G01*
X78169372Y-87320012D02*
G75*
G02*
X76839338Y-88126517I-1330072J693512D01*
G01*
X64249630Y-13076528D02*
X209296258Y-13076528D01*
X62919596Y-13882980D02*
G75*
G02*
X57333452Y-13882980I-2793072J1456449D01*
G01*
X76839338Y-88126464D02*
X39139064Y-88126464D01*
X266851322Y-69076480D02*
X250051338Y-69076480D01*
X56003418Y-13076528D02*
G75*
G02*
X57333425Y-13882994I-18J-1499972D01*
G01*
X269101322Y-66826480D02*
G75*
G02*
X266851322Y-69076522I-2250122J80D01*
G01*
M02*
