M48
; DRILL file {KiCad 8.0.5} date 2024-09-21T22:15:35+0530
; FORMAT={-:-/ absolute / inch / decimal}
; #@! TF.CreationDate,2024-09-21T22:15:35+05:30
; #@! TF.GenerationSoftware,Kicad,Pcbnew,8.0.5
; #@! TF.FileFunction,Plated,1,2,PTH
FMAT,2
INCH
; #@! TA.AperFunction,Plated,PTH,ViaDrill
T1C0.0157
; #@! TA.AperFunction,Plated,PTH,ComponentDrill
T2C0.0394
; #@! TA.AperFunction,Plated,PTH,ComponentDrill
T3C0.0600
; #@! TA.AperFunction,Plated,PTH,ComponentDrill
T4C0.1200
%
G90
G05
T1
X0.6914Y-2.0977
X0.6914Y-2.625
X1.5664Y-1.7227
X1.6602Y-2.8164
X1.6914Y-2.6602
X1.6914Y-2.8477
X1.7852Y-1.7227
X1.8164Y-1.3477
X1.9102Y-2.4719
X1.9414Y-2.5032
X1.9727Y-2.4407
X2.0039Y-2.6907
X2.1164Y-2.9842
X2.2383Y-3.1367
X2.2426Y-2.7539
X2.3164Y-2.5032
X2.3789Y-1.7539
X2.4011Y-3.0029
X2.4102Y-2.5969
X2.4727Y-2.4754
X2.5664Y-1.7539
X3.25Y-2.7539
X3.375Y-2.6914
X3.5039Y-1.8789
X3.5039Y-2.2109
X4.1664Y-2.6914
X5.1039Y-1.0352
X5.6664Y-2.5352
X6.4164Y-2.5352
X7.0977Y-2.5352
X7.8477Y-2.5352
X8.8539Y-1.0352
X9.3398Y-2.5352
T2
X0.5977Y-2.3602
X0.5977Y-2.4602
X0.5977Y-2.5602
X0.5977Y-2.6602
T3
X0.8227Y-1.5289
X0.9164Y-0.7789
X1.0102Y-1.5289
X1.0727Y-1.4289
X1.1664Y-0.6789
X1.1977Y-2.2789
X1.2602Y-1.4289
X1.4477Y-2.1789
X1.6664Y-3.0289
X1.8539Y-0.7789
X1.9164Y-2.9289
X2.0414Y-1.5289
X2.1039Y-0.6789
X2.2914Y-1.4289
X2.4164Y-2.2789
X2.5102Y-3.0289
X2.6039Y-0.7789
X2.6664Y-2.1789
X2.7602Y-2.9289
X2.7914Y-1.5289
X2.8539Y-0.6789
X3.0414Y-1.4289
X3.1664Y-2.2789
X3.3539Y-0.7789
X3.4164Y-2.1789
X3.5414Y-1.5289
X3.6039Y-0.6789
X3.7914Y-1.4289
X3.9164Y-2.2789
X4.1039Y-0.7789
X4.1664Y-2.1789
X4.2914Y-1.5289
X4.3539Y-0.6789
X4.5414Y-1.4289
X4.6664Y-2.2789
X4.8539Y-0.7789
X4.9164Y-2.1789
X5.0414Y-1.5289
X5.1039Y-0.6789
X5.2914Y-1.4289
X5.3227Y-3.0289
X5.4164Y-2.2789
X5.5727Y-2.9289
X5.6039Y-0.7789
X5.6664Y-2.1789
X5.7914Y-1.5289
X5.8539Y-0.6789
X6.0414Y-1.4289
X6.1664Y-2.2789
X6.3539Y-0.7789
X6.4164Y-2.1789
X6.5414Y-1.5289
X6.6039Y-0.6789
X6.7914Y-1.4289
X6.9164Y-2.2789
X7.1039Y-0.7789
X7.1664Y-2.1789
X7.2914Y-1.5289
X7.3539Y-0.6789
X7.5414Y-1.4289
X7.6664Y-2.2789
X7.8539Y-0.7789
X7.9164Y-2.1789
X8.0414Y-1.5289
X8.1039Y-0.6789
X8.1352Y-3.0289
X8.2914Y-1.4289
X8.3852Y-2.9289
X8.6039Y-0.7789
X8.6977Y-2.2789
X8.8539Y-0.6789
X8.9477Y-2.1789
X8.9789Y-3.0289
X9.2289Y-2.9289
X9.2602Y-1.5289
X9.5102Y-1.4289
X9.5414Y-0.7789
X9.7289Y-2.2789
X9.7914Y-0.6789
X9.9789Y-2.1789
T4
X0.8789Y-2.6539
X1.8164Y-2.6539
X3.5039Y-3.4039
X7.4414Y-3.4039
X8.9414Y-1.3539
X9.8789Y-1.3539
M30
