M48
; DRILL file {KiCad 8.0.4} date 2024-08-11T23:54:30+0530
; FORMAT={-:-/ absolute / inch / decimal}
; #@! TF.CreationDate,2024-08-11T23:54:30+05:30
; #@! TF.GenerationSoftware,Kicad,Pcbnew,8.0.4
; #@! TF.FileFunction,NonPlated,1,2,NPTH
FMAT,2
INCH
; #@! TA.AperFunction,NonPlated,NPTH,ComponentDrill
T1C0.0689
; #@! TA.AperFunction,NonPlated,NPTH,ComponentDrill
T2C0.1570
%
G90
G05
T1
X0.7844Y-1.6406
X0.7844Y-2.3906
X0.8781Y-0.8906
X0.9719Y-1.6406
X1.1844Y-1.6406
X1.1844Y-2.3906
X1.2781Y-0.8906
X1.3719Y-1.6406
X1.6281Y-2.3906
X1.6281Y-3.1406
X1.8156Y-0.8906
X2.0031Y-1.6406
X2.0281Y-2.3906
X2.0281Y-3.1406
X2.2156Y-0.8906
X2.3781Y-2.3906
X2.4031Y-1.6406
X2.5656Y-0.8906
X2.5656Y-3.1406
X2.7531Y-1.6406
X2.7781Y-2.3906
X2.9656Y-0.8906
X2.9656Y-3.1406
X3.1281Y-2.3906
X3.1531Y-1.6406
X3.3156Y-0.8906
X3.5031Y-1.6406
X3.5031Y-3.1406
X3.5281Y-2.3906
X3.7156Y-0.8906
X3.8781Y-2.3906
X3.9031Y-1.6406
X3.9031Y-3.1406
X4.0656Y-0.8906
X4.2531Y-1.6406
X4.2781Y-2.3906
X4.4656Y-0.8906
X4.6281Y-2.3906
X4.6281Y-3.1406
X4.6531Y-1.6406
X4.8156Y-0.8906
X5.0031Y-1.6406
X5.0281Y-2.3906
X5.0281Y-3.1406
X5.2156Y-0.8906
X5.3781Y-2.3906
X5.4031Y-1.6406
X5.4719Y-3.1406
X5.5656Y-0.8906
X5.7531Y-1.6406
X5.7781Y-2.3906
X5.8719Y-3.1406
X5.9656Y-0.8906
X6.1281Y-2.3906
X6.1531Y-1.6406
X6.2219Y-3.1406
X6.3156Y-0.8906
X6.5031Y-1.6406
X6.5281Y-2.3906
X6.6219Y-3.1406
X6.7156Y-0.8906
X6.8781Y-2.3906
X6.9031Y-1.6406
X7.0656Y-0.8906
X7.2531Y-1.6406
X7.2781Y-2.3906
X7.4406Y-3.1406
X7.4656Y-0.8906
X7.6281Y-2.3906
X7.6531Y-1.6406
X7.8156Y-0.8906
X7.8406Y-3.1406
X8.0031Y-1.6406
X8.0281Y-2.3906
X8.2156Y-0.8906
X8.3781Y-2.3906
X8.3781Y-3.1406
X8.4031Y-1.6406
X8.5656Y-0.8906
X8.7531Y-1.6406
X8.7781Y-2.3906
X8.7781Y-3.1406
X8.9656Y-0.8906
X9.1281Y-2.3906
X9.1531Y-1.6406
X9.3156Y-0.8906
X9.3156Y-3.1406
X9.5031Y-1.6406
X9.5281Y-2.3906
X9.7156Y-0.8906
X9.7156Y-3.1406
X9.9031Y-1.6406
X9.9719Y-1.6406
X10.1594Y-2.3906
X10.2531Y-0.8906
X10.3719Y-1.6406
X10.5469Y-1.0656
X10.5469Y-1.4656
X10.5594Y-2.3906
X10.6531Y-0.8906
T2
X0.9844Y-1.6406
X0.9844Y-2.3906
X1.0781Y-0.8906
X1.1719Y-1.6406
X1.8281Y-2.3906
X1.8281Y-3.1406
X2.0156Y-0.8906
X2.2031Y-1.6406
X2.5781Y-2.3906
X2.7656Y-0.8906
X2.7656Y-3.1406
X2.9531Y-1.6406
X3.3281Y-2.3906
X3.5156Y-0.8906
X3.7031Y-1.6406
X3.7031Y-2.8156
X3.7031Y-3.1406
X4.0781Y-2.3906
X4.2656Y-0.8906
X4.3594Y-2.8156
X4.4531Y-1.6406
X4.8281Y-2.3906
X4.8281Y-3.1406
X5.0156Y-0.8906
X5.2031Y-1.6406
X5.2969Y-2.8156
X5.5781Y-2.3906
X5.6719Y-3.1406
X5.7656Y-0.8906
X5.9531Y-1.6406
X5.9531Y-2.8156
X6.3281Y-2.3906
X6.4219Y-3.1406
X6.5156Y-0.8906
X6.7031Y-1.6406
X6.8906Y-2.8156
X7.0781Y-2.3906
X7.2656Y-0.8906
X7.4531Y-1.6406
X7.6406Y-2.8156
X7.6406Y-3.1406
X7.8281Y-2.3906
X8.0156Y-0.8906
X8.2031Y-1.6406
X8.5781Y-2.3906
X8.5781Y-3.1406
X8.7656Y-0.8906
X8.9531Y-1.6406
X9.3281Y-2.3906
X9.5156Y-0.8906
X9.5156Y-3.1406
X9.7031Y-1.3156
X9.7031Y-1.6406
X10.1719Y-1.6406
X10.2219Y-0.7969
X10.2219Y-1.7344
X10.3594Y-2.3906
X10.4531Y-0.8906
X10.5469Y-1.2656
X10.6406Y-1.3156
M30
