%TF.GenerationSoftware,KiCad,Pcbnew,8.0.4*%
%TF.CreationDate,2024-08-28T19:47:30+05:30*%
%TF.ProjectId,kalam,6b616c61-6d2e-46b6-9963-61645f706362,rev?*%
%TF.SameCoordinates,Original*%
%TF.FileFunction,Other,Comment*%
%FSLAX46Y46*%
G04 Gerber Fmt 4.6, Leading zero omitted, Abs format (unit mm)*
G04 Created by KiCad (PCBNEW 8.0.4) date 2024-08-28 19:47:30*
%MOMM*%
%LPD*%
G01*
G04 APERTURE LIST*
%ADD10C,0.150000*%
G04 APERTURE END LIST*
D10*
X32456606Y-51548563D02*
X32504225Y-51500944D01*
X32504225Y-51500944D02*
X32599463Y-51453325D01*
X32599463Y-51453325D02*
X32837558Y-51453325D01*
X32837558Y-51453325D02*
X32932796Y-51500944D01*
X32932796Y-51500944D02*
X32980415Y-51548563D01*
X32980415Y-51548563D02*
X33028034Y-51643801D01*
X33028034Y-51643801D02*
X33028034Y-51739039D01*
X33028034Y-51739039D02*
X32980415Y-51881896D01*
X32980415Y-51881896D02*
X32408987Y-52453325D01*
X32408987Y-52453325D02*
X33028034Y-52453325D01*
X33456606Y-52358086D02*
X33504225Y-52405706D01*
X33504225Y-52405706D02*
X33456606Y-52453325D01*
X33456606Y-52453325D02*
X33408987Y-52405706D01*
X33408987Y-52405706D02*
X33456606Y-52358086D01*
X33456606Y-52358086D02*
X33456606Y-52453325D01*
X33885177Y-51548563D02*
X33932796Y-51500944D01*
X33932796Y-51500944D02*
X34028034Y-51453325D01*
X34028034Y-51453325D02*
X34266129Y-51453325D01*
X34266129Y-51453325D02*
X34361367Y-51500944D01*
X34361367Y-51500944D02*
X34408986Y-51548563D01*
X34408986Y-51548563D02*
X34456605Y-51643801D01*
X34456605Y-51643801D02*
X34456605Y-51739039D01*
X34456605Y-51739039D02*
X34408986Y-51881896D01*
X34408986Y-51881896D02*
X33837558Y-52453325D01*
X33837558Y-52453325D02*
X34456605Y-52453325D01*
X35361367Y-51453325D02*
X34885177Y-51453325D01*
X34885177Y-51453325D02*
X34837558Y-51929515D01*
X34837558Y-51929515D02*
X34885177Y-51881896D01*
X34885177Y-51881896D02*
X34980415Y-51834277D01*
X34980415Y-51834277D02*
X35218510Y-51834277D01*
X35218510Y-51834277D02*
X35313748Y-51881896D01*
X35313748Y-51881896D02*
X35361367Y-51929515D01*
X35361367Y-51929515D02*
X35408986Y-52024753D01*
X35408986Y-52024753D02*
X35408986Y-52262848D01*
X35408986Y-52262848D02*
X35361367Y-52358086D01*
X35361367Y-52358086D02*
X35313748Y-52405706D01*
X35313748Y-52405706D02*
X35218510Y-52453325D01*
X35218510Y-52453325D02*
X34980415Y-52453325D01*
X34980415Y-52453325D02*
X34885177Y-52405706D01*
X34885177Y-52405706D02*
X34837558Y-52358086D01*
X142470204Y-70503309D02*
X142279728Y-70503309D01*
X142279728Y-70503309D02*
X142184490Y-70550928D01*
X142184490Y-70550928D02*
X142136871Y-70598547D01*
X142136871Y-70598547D02*
X142041633Y-70741404D01*
X142041633Y-70741404D02*
X141994014Y-70931880D01*
X141994014Y-70931880D02*
X141994014Y-71312832D01*
X141994014Y-71312832D02*
X142041633Y-71408070D01*
X142041633Y-71408070D02*
X142089252Y-71455690D01*
X142089252Y-71455690D02*
X142184490Y-71503309D01*
X142184490Y-71503309D02*
X142374966Y-71503309D01*
X142374966Y-71503309D02*
X142470204Y-71455690D01*
X142470204Y-71455690D02*
X142517823Y-71408070D01*
X142517823Y-71408070D02*
X142565442Y-71312832D01*
X142565442Y-71312832D02*
X142565442Y-71074737D01*
X142565442Y-71074737D02*
X142517823Y-70979499D01*
X142517823Y-70979499D02*
X142470204Y-70931880D01*
X142470204Y-70931880D02*
X142374966Y-70884261D01*
X142374966Y-70884261D02*
X142184490Y-70884261D01*
X142184490Y-70884261D02*
X142089252Y-70931880D01*
X142089252Y-70931880D02*
X142041633Y-70979499D01*
X142041633Y-70979499D02*
X141994014Y-71074737D01*
X142994014Y-71408070D02*
X143041633Y-71455690D01*
X143041633Y-71455690D02*
X142994014Y-71503309D01*
X142994014Y-71503309D02*
X142946395Y-71455690D01*
X142946395Y-71455690D02*
X142994014Y-71408070D01*
X142994014Y-71408070D02*
X142994014Y-71503309D01*
X143422585Y-70598547D02*
X143470204Y-70550928D01*
X143470204Y-70550928D02*
X143565442Y-70503309D01*
X143565442Y-70503309D02*
X143803537Y-70503309D01*
X143803537Y-70503309D02*
X143898775Y-70550928D01*
X143898775Y-70550928D02*
X143946394Y-70598547D01*
X143946394Y-70598547D02*
X143994013Y-70693785D01*
X143994013Y-70693785D02*
X143994013Y-70789023D01*
X143994013Y-70789023D02*
X143946394Y-70931880D01*
X143946394Y-70931880D02*
X143374966Y-71503309D01*
X143374966Y-71503309D02*
X143994013Y-71503309D01*
X144898775Y-70503309D02*
X144422585Y-70503309D01*
X144422585Y-70503309D02*
X144374966Y-70979499D01*
X144374966Y-70979499D02*
X144422585Y-70931880D01*
X144422585Y-70931880D02*
X144517823Y-70884261D01*
X144517823Y-70884261D02*
X144755918Y-70884261D01*
X144755918Y-70884261D02*
X144851156Y-70931880D01*
X144851156Y-70931880D02*
X144898775Y-70979499D01*
X144898775Y-70979499D02*
X144946394Y-71074737D01*
X144946394Y-71074737D02*
X144946394Y-71312832D01*
X144946394Y-71312832D02*
X144898775Y-71408070D01*
X144898775Y-71408070D02*
X144851156Y-71455690D01*
X144851156Y-71455690D02*
X144755918Y-71503309D01*
X144755918Y-71503309D02*
X144517823Y-71503309D01*
X144517823Y-71503309D02*
X144422585Y-71455690D01*
X144422585Y-71455690D02*
X144374966Y-71408070D01*
M02*
