%TF.GenerationSoftware,KiCad,Pcbnew,8.0.4*%
%TF.CreationDate,2024-08-28T19:47:30+05:30*%
%TF.ProjectId,kalam,6b616c61-6d2e-46b6-9963-61645f706362,rev?*%
%TF.SameCoordinates,Original*%
%TF.FileFunction,Paste,Bot*%
%TF.FilePolarity,Positive*%
%FSLAX46Y46*%
G04 Gerber Fmt 4.6, Leading zero omitted, Abs format (unit mm)*
G04 Created by KiCad (PCBNEW 8.0.4) date 2024-08-28 19:47:30*
%MOMM*%
%LPD*%
G01*
G04 APERTURE LIST*
G04 Aperture macros list*
%AMRoundRect*
0 Rectangle with rounded corners*
0 $1 Rounding radius*
0 $2 $3 $4 $5 $6 $7 $8 $9 X,Y pos of 4 corners*
0 Add a 4 corners polygon primitive as box body*
4,1,4,$2,$3,$4,$5,$6,$7,$8,$9,$2,$3,0*
0 Add four circle primitives for the rounded corners*
1,1,$1+$1,$2,$3*
1,1,$1+$1,$4,$5*
1,1,$1+$1,$6,$7*
1,1,$1+$1,$8,$9*
0 Add four rect primitives between the rounded corners*
20,1,$1+$1,$2,$3,$4,$5,0*
20,1,$1+$1,$4,$5,$6,$7,0*
20,1,$1+$1,$6,$7,$8,$9,0*
20,1,$1+$1,$8,$9,$2,$3,0*%
G04 Aperture macros list end*
%ADD10RoundRect,0.140000X0.140000X0.170000X-0.140000X0.170000X-0.140000X-0.170000X0.140000X-0.170000X0*%
%ADD11RoundRect,0.225000X0.375000X-0.225000X0.375000X0.225000X-0.375000X0.225000X-0.375000X-0.225000X0*%
%ADD12R,1.000000X0.750000*%
%ADD13RoundRect,0.225000X-0.225000X-0.250000X0.225000X-0.250000X0.225000X0.250000X-0.225000X0.250000X0*%
%ADD14RoundRect,0.200000X0.275000X-0.200000X0.275000X0.200000X-0.275000X0.200000X-0.275000X-0.200000X0*%
%ADD15RoundRect,0.140000X-0.170000X0.140000X-0.170000X-0.140000X0.170000X-0.140000X0.170000X0.140000X0*%
%ADD16RoundRect,0.140000X-0.140000X-0.170000X0.140000X-0.170000X0.140000X0.170000X-0.140000X0.170000X0*%
%ADD17RoundRect,0.140000X0.170000X-0.140000X0.170000X0.140000X-0.170000X0.140000X-0.170000X-0.140000X0*%
%ADD18RoundRect,0.225000X-0.250000X0.225000X-0.250000X-0.225000X0.250000X-0.225000X0.250000X0.225000X0*%
%ADD19RoundRect,0.150000X-0.625000X0.150000X-0.625000X-0.150000X0.625000X-0.150000X0.625000X0.150000X0*%
%ADD20RoundRect,0.250000X-0.650000X0.350000X-0.650000X-0.350000X0.650000X-0.350000X0.650000X0.350000X0*%
%ADD21RoundRect,0.225000X0.225000X0.250000X-0.225000X0.250000X-0.225000X-0.250000X0.225000X-0.250000X0*%
%ADD22RoundRect,0.075000X0.075000X-0.662500X0.075000X0.662500X-0.075000X0.662500X-0.075000X-0.662500X0*%
%ADD23RoundRect,0.075000X0.662500X-0.075000X0.662500X0.075000X-0.662500X0.075000X-0.662500X-0.075000X0*%
%ADD24RoundRect,0.150000X0.150000X-0.512500X0.150000X0.512500X-0.150000X0.512500X-0.150000X-0.512500X0*%
G04 APERTURE END LIST*
D10*
%TO.C,C6*%
X60419052Y-64705537D03*
X59459052Y-64705537D03*
%TD*%
D11*
%TO.C,D5*%
X99020302Y-24407788D03*
X99020302Y-21107788D03*
%TD*%
%TO.C,D4*%
X79970302Y-24407788D03*
X79970302Y-21107788D03*
%TD*%
D12*
%TO.C,SW1*%
X78557802Y-50601538D03*
X84557802Y-50601538D03*
X78557802Y-46851538D03*
X84557802Y-46851538D03*
%TD*%
%TO.C,SW2*%
X42839052Y-86320288D03*
X48839052Y-86320288D03*
X42839052Y-82570288D03*
X48839052Y-82570288D03*
%TD*%
D11*
%TO.C,D19*%
X122832802Y-43457788D03*
X122832802Y-40157788D03*
%TD*%
D13*
%TO.C,C9*%
X62526552Y-38695288D03*
X64076552Y-38695288D03*
%TD*%
D14*
%TO.C,R1*%
X87907802Y-50601538D03*
X87907802Y-48951538D03*
%TD*%
D15*
%TO.C,C4*%
X50914052Y-66947898D03*
X50914052Y-67907898D03*
%TD*%
D11*
%TO.C,D47*%
X225226552Y-81557788D03*
X225226552Y-78257788D03*
%TD*%
%TO.C,D15*%
X46632802Y-43457788D03*
X46632802Y-40157788D03*
%TD*%
D16*
%TO.C,C1*%
X61559052Y-74214038D03*
X62519052Y-74214038D03*
%TD*%
D11*
%TO.C,D13*%
X251519306Y-24569488D03*
X251519306Y-21269488D03*
%TD*%
%TO.C,D48*%
X232370302Y-81557788D03*
X232370302Y-78257788D03*
%TD*%
%TO.C,D12*%
X232370302Y-24407788D03*
X232370302Y-21107788D03*
%TD*%
%TO.C,D18*%
X103782802Y-43457788D03*
X103782802Y-40157788D03*
%TD*%
D17*
%TO.C,C10*%
X57269052Y-77244038D03*
X57269052Y-76284038D03*
%TD*%
D18*
%TO.C,C5*%
X49579726Y-66087213D03*
X49579726Y-67637213D03*
%TD*%
D11*
%TO.C,D23*%
X199032802Y-43457788D03*
X199032802Y-40157788D03*
%TD*%
%TO.C,D41*%
X77589052Y-81620288D03*
X77589052Y-78320288D03*
%TD*%
D13*
%TO.C,C3*%
X60689052Y-75539038D03*
X62239052Y-75539038D03*
%TD*%
D11*
%TO.C,D39*%
X251420080Y-62507788D03*
X251420080Y-59207788D03*
%TD*%
%TO.C,D24*%
X218082802Y-43457788D03*
X218082802Y-40157788D03*
%TD*%
%TO.C,D8*%
X156170302Y-24407788D03*
X156170302Y-21107788D03*
%TD*%
%TO.C,D9*%
X175220302Y-24407788D03*
X175220302Y-21107788D03*
%TD*%
%TO.C,D37*%
X225226552Y-62507788D03*
X225226552Y-59207788D03*
%TD*%
%TO.C,D3*%
X60920302Y-24407788D03*
X60920302Y-21107788D03*
%TD*%
%TO.C,D40*%
X53776552Y-81620288D03*
X53776552Y-78320288D03*
%TD*%
%TO.C,D36*%
X206176552Y-62507788D03*
X206176552Y-59207788D03*
%TD*%
%TO.C,D27*%
X30658580Y-65348378D03*
X30658580Y-62048378D03*
%TD*%
%TO.C,D10*%
X194270302Y-24407788D03*
X194270302Y-21107788D03*
%TD*%
%TO.C,D1*%
X34726552Y-24407788D03*
X34726552Y-21107788D03*
%TD*%
%TO.C,D34*%
X168076552Y-62507788D03*
X168076552Y-59207788D03*
%TD*%
%TO.C,D20*%
X141882802Y-43457788D03*
X141882802Y-40157788D03*
%TD*%
D19*
%TO.C,J1*%
X47807802Y-29257788D03*
X47807802Y-30257788D03*
X47807802Y-31257788D03*
X47807802Y-32257788D03*
D20*
X51682802Y-27957788D03*
X51682802Y-33557788D03*
%TD*%
D11*
%TO.C,D33*%
X149026552Y-62507788D03*
X149026552Y-59207788D03*
%TD*%
D16*
%TO.C,C2*%
X54784052Y-76314038D03*
X55744052Y-76314038D03*
%TD*%
D11*
%TO.C,D22*%
X179982802Y-43457788D03*
X179982802Y-40157788D03*
%TD*%
%TO.C,D2*%
X41870302Y-24407788D03*
X41870302Y-21107788D03*
%TD*%
%TO.C,D30*%
X91876552Y-62507788D03*
X91876552Y-59207788D03*
%TD*%
%TO.C,D21*%
X160932802Y-43457788D03*
X160932802Y-40157788D03*
%TD*%
%TO.C,D29*%
X72826552Y-62507788D03*
X72826552Y-59207788D03*
%TD*%
%TO.C,D35*%
X187126552Y-62507788D03*
X187126552Y-59207788D03*
%TD*%
D21*
%TO.C,C7*%
X61264052Y-63389038D03*
X59714052Y-63389038D03*
%TD*%
D11*
%TO.C,D14*%
X37107802Y-43457788D03*
X37107802Y-40157788D03*
%TD*%
%TO.C,D17*%
X84732802Y-43457788D03*
X84732802Y-40157788D03*
%TD*%
%TO.C,D6*%
X118070302Y-24407788D03*
X118070302Y-21107788D03*
%TD*%
%TO.C,D7*%
X137120302Y-24407788D03*
X137120302Y-21107788D03*
%TD*%
%TO.C,D26*%
X244077906Y-43619472D03*
X244077906Y-40319472D03*
%TD*%
%TO.C,D38*%
X246657598Y-62507788D03*
X246657598Y-59207788D03*
%TD*%
D22*
%TO.C,U2*%
X59414052Y-74626538D03*
X58914052Y-74626538D03*
X58414052Y-74626538D03*
X57914052Y-74626538D03*
X57414052Y-74626538D03*
X56914052Y-74626538D03*
X56414052Y-74626538D03*
X55914052Y-74626538D03*
X55414052Y-74626538D03*
X54914052Y-74626538D03*
X54414052Y-74626538D03*
X53914052Y-74626538D03*
D23*
X52501552Y-73214038D03*
X52501552Y-72714038D03*
X52501552Y-72214038D03*
X52501552Y-71714038D03*
X52501552Y-71214038D03*
X52501552Y-70714038D03*
X52501552Y-70214038D03*
X52501552Y-69714038D03*
X52501552Y-69214038D03*
X52501552Y-68714038D03*
X52501552Y-68214038D03*
X52501552Y-67714038D03*
D22*
X53914052Y-66301538D03*
X54414052Y-66301538D03*
X54914052Y-66301538D03*
X55414052Y-66301538D03*
X55914052Y-66301538D03*
X56414052Y-66301538D03*
X56914052Y-66301538D03*
X57414052Y-66301538D03*
X57914052Y-66301538D03*
X58414052Y-66301538D03*
X58914052Y-66301538D03*
X59414052Y-66301538D03*
D23*
X60826552Y-67714038D03*
X60826552Y-68214038D03*
X60826552Y-68714038D03*
X60826552Y-69214038D03*
X60826552Y-69714038D03*
X60826552Y-70214038D03*
X60826552Y-70714038D03*
X60826552Y-71214038D03*
X60826552Y-71714038D03*
X60826552Y-72214038D03*
X60826552Y-72714038D03*
X60826552Y-73214038D03*
%TD*%
D11*
%TO.C,D31*%
X110926552Y-62507788D03*
X110926552Y-59207788D03*
%TD*%
%TO.C,D11*%
X213320302Y-24407788D03*
X213320302Y-21107788D03*
%TD*%
D13*
%TO.C,C8*%
X63301552Y-32345288D03*
X64851552Y-32345288D03*
%TD*%
D11*
%TO.C,D16*%
X65682802Y-43457788D03*
X65682802Y-40157788D03*
%TD*%
%TO.C,D32*%
X129976552Y-62507788D03*
X129976552Y-59207788D03*
%TD*%
D24*
%TO.C,U1*%
X64251552Y-36657788D03*
X62351552Y-36657788D03*
X63301552Y-34382788D03*
%TD*%
D11*
%TO.C,D44*%
X134739052Y-81620288D03*
X134739052Y-78320288D03*
%TD*%
M02*
