M48
; DRILL file {KiCad 8.0.4} date 2024-08-28T19:47:30+0530
; FORMAT={-:-/ absolute / inch / decimal}
; #@! TF.CreationDate,2024-08-28T19:47:30+05:30
; #@! TF.GenerationSoftware,Kicad,Pcbnew,8.0.4
; #@! TF.FileFunction,Plated,1,2,PTH
FMAT,2
INCH
; #@! TA.AperFunction,Plated,PTH,ViaDrill
T1C0.0157
; #@! TA.AperFunction,Plated,PTH,ComponentDrill
T2C0.0394
; #@! TA.AperFunction,Plated,PTH,ComponentDrill
T3C0.0600
; #@! TA.AperFunction,Plated,PTH,ComponentDrill
T4C0.1200
%
G90
G05
T1
X0.6797Y-2.0859
X0.6797Y-2.6133
X1.5547Y-1.7109
X1.5859Y-2.6797
X1.6484Y-2.8047
X1.6797Y-2.6484
X1.6797Y-2.8359
X1.7734Y-1.7109
X1.8047Y-1.3359
X1.8984Y-2.4922
X1.9297Y-2.5234
X1.9609Y-2.4609
X1.9922Y-2.7109
X2.1047Y-3.0045
X2.1822Y-1.9535
X2.2114Y-2.3933
X2.2266Y-3.1641
X2.2309Y-2.7742
X2.3047Y-2.5234
X2.3672Y-1.7422
X2.3893Y-3.0232
X2.3984Y-2.6172
X2.4609Y-2.4956
X2.5035Y-2.8874
X2.5547Y-1.7422
X3.3359Y-2.5234
X3.4609Y-1.8672
X3.5234Y-2.6484
X3.5859Y-2.0547
X3.7797Y-2.9172
X5.0922Y-1.0234
X5.6547Y-2.5234
X6.4047Y-2.5234
X7.0859Y-2.5234
X7.8359Y-2.5234
X8.8422Y-1.0234
X9.4984Y-2.5234
T2
X0.5859Y-2.3484
X0.5859Y-2.4484
X0.5859Y-2.5484
X0.5859Y-2.6484
T3
X0.8109Y-1.5172
X0.9047Y-0.7672
X0.9984Y-1.5172
X1.0609Y-1.4172
X1.1547Y-0.6672
X1.1859Y-2.2672
X1.2484Y-1.4172
X1.4359Y-2.1672
X1.6547Y-3.0172
X1.8422Y-0.7672
X1.9047Y-2.9172
X2.0297Y-1.5172
X2.0922Y-0.6672
X2.2797Y-1.4172
X2.4047Y-2.2672
X2.5922Y-0.7672
X2.5922Y-3.0172
X2.6547Y-2.1672
X2.7797Y-1.5172
X2.8422Y-0.6672
X2.8422Y-2.9172
X3.0297Y-1.4172
X3.1547Y-2.2672
X3.3422Y-0.7672
X3.4047Y-2.1672
X3.5297Y-1.5172
X3.5922Y-0.6672
X3.7797Y-1.4172
X3.9047Y-2.2672
X4.0922Y-0.7672
X4.1547Y-2.1672
X4.2797Y-1.5172
X4.3422Y-0.6672
X4.5297Y-1.4172
X4.6547Y-2.2672
X4.8422Y-0.7672
X4.9047Y-2.1672
X5.0297Y-1.5172
X5.0922Y-0.6672
X5.2797Y-1.4172
X5.4047Y-2.2672
X5.4984Y-3.0172
X5.5922Y-0.7672
X5.6547Y-2.1672
X5.7484Y-2.9172
X5.7797Y-1.5172
X5.8422Y-0.6672
X6.0297Y-1.4172
X6.1547Y-2.2672
X6.3422Y-0.7672
X6.4047Y-2.1672
X6.5297Y-1.5172
X6.5922Y-0.6672
X6.7797Y-1.4172
X6.9047Y-2.2672
X7.0922Y-0.7672
X7.1547Y-2.1672
X7.2797Y-1.5172
X7.3422Y-0.6672
X7.5297Y-1.4172
X7.6547Y-2.2672
X7.8422Y-0.7672
X7.9047Y-2.1672
X8.0297Y-1.5172
X8.0922Y-0.6672
X8.2797Y-1.4172
X8.4047Y-2.2672
X8.4047Y-3.0172
X8.5922Y-0.7672
X8.6547Y-2.1672
X8.6547Y-2.9172
X8.7797Y-1.5172
X8.8422Y-0.6672
X9.0297Y-1.4172
X9.2484Y-2.2672
X9.3422Y-0.7672
X9.3422Y-3.0172
X9.4984Y-2.1672
X9.5922Y-0.6672
X9.5922Y-2.9172
X9.8109Y-1.5172
X10.0609Y-1.4172
X10.0922Y-0.7672
X10.0922Y-2.2672
X10.3422Y-0.6672
X10.3422Y-2.1672
T4
X0.8672Y-2.6422
X1.8047Y-2.6422
X3.6797Y-3.3922
X7.6172Y-3.3922
M30
