%TF.GenerationSoftware,KiCad,Pcbnew,8.0.4*%
%TF.CreationDate,2024-08-11T23:54:30+05:30*%
%TF.ProjectId,kalam,6b616c61-6d2e-46b6-9963-61645f706362,rev?*%
%TF.SameCoordinates,Original*%
%TF.FileFunction,Soldermask,Bot*%
%TF.FilePolarity,Negative*%
%FSLAX46Y46*%
G04 Gerber Fmt 4.6, Leading zero omitted, Abs format (unit mm)*
G04 Created by KiCad (PCBNEW 8.0.4) date 2024-08-11 23:54:30*
%MOMM*%
%LPD*%
G01*
G04 APERTURE LIST*
G04 Aperture macros list*
%AMRoundRect*
0 Rectangle with rounded corners*
0 $1 Rounding radius*
0 $2 $3 $4 $5 $6 $7 $8 $9 X,Y pos of 4 corners*
0 Add a 4 corners polygon primitive as box body*
4,1,4,$2,$3,$4,$5,$6,$7,$8,$9,$2,$3,0*
0 Add four circle primitives for the rounded corners*
1,1,$1+$1,$2,$3*
1,1,$1+$1,$4,$5*
1,1,$1+$1,$6,$7*
1,1,$1+$1,$8,$9*
0 Add four rect primitives between the rounded corners*
20,1,$1+$1,$2,$3,$4,$5,0*
20,1,$1+$1,$4,$5,$6,$7,0*
20,1,$1+$1,$6,$7,$8,$9,0*
20,1,$1+$1,$8,$9,$2,$3,0*%
G04 Aperture macros list end*
%ADD10C,1.750000*%
%ADD11C,3.987800*%
%ADD12C,2.300000*%
%ADD13C,4.000000*%
%ADD14RoundRect,0.140000X0.140000X0.170000X-0.140000X0.170000X-0.140000X-0.170000X0.140000X-0.170000X0*%
%ADD15RoundRect,0.225000X0.375000X-0.225000X0.375000X0.225000X-0.375000X0.225000X-0.375000X-0.225000X0*%
%ADD16R,1.000000X0.750000*%
%ADD17RoundRect,0.225000X-0.225000X-0.250000X0.225000X-0.250000X0.225000X0.250000X-0.225000X0.250000X0*%
%ADD18RoundRect,0.200000X0.275000X-0.200000X0.275000X0.200000X-0.275000X0.200000X-0.275000X-0.200000X0*%
%ADD19RoundRect,0.140000X-0.170000X0.140000X-0.170000X-0.140000X0.170000X-0.140000X0.170000X0.140000X0*%
%ADD20RoundRect,0.140000X-0.140000X-0.170000X0.140000X-0.170000X0.140000X0.170000X-0.140000X0.170000X0*%
%ADD21RoundRect,0.225000X-0.225000X-0.375000X0.225000X-0.375000X0.225000X0.375000X-0.225000X0.375000X0*%
%ADD22RoundRect,0.140000X0.170000X-0.140000X0.170000X0.140000X-0.170000X0.140000X-0.170000X-0.140000X0*%
%ADD23RoundRect,0.225000X-0.250000X0.225000X-0.250000X-0.225000X0.250000X-0.225000X0.250000X0.225000X0*%
%ADD24RoundRect,0.150000X-0.625000X0.150000X-0.625000X-0.150000X0.625000X-0.150000X0.625000X0.150000X0*%
%ADD25RoundRect,0.250000X-0.650000X0.350000X-0.650000X-0.350000X0.650000X-0.350000X0.650000X0.350000X0*%
%ADD26RoundRect,0.225000X0.225000X0.250000X-0.225000X0.250000X-0.225000X-0.250000X0.225000X-0.250000X0*%
%ADD27RoundRect,0.075000X0.075000X-0.662500X0.075000X0.662500X-0.075000X0.662500X-0.075000X-0.662500X0*%
%ADD28RoundRect,0.075000X0.662500X-0.075000X0.662500X0.075000X-0.662500X0.075000X-0.662500X-0.075000X0*%
%ADD29R,1.700000X1.700000*%
%ADD30O,1.700000X1.700000*%
%ADD31RoundRect,0.150000X0.150000X-0.512500X0.150000X0.512500X-0.150000X0.512500X-0.150000X-0.512500X0*%
G04 APERTURE END LIST*
D10*
%TO.C,MX15*%
X19923138Y-41671884D03*
D11*
X25003138Y-41671884D03*
D10*
X30083138Y-41671884D03*
D12*
X21193138Y-39131884D03*
X27543138Y-36591884D03*
%TD*%
D10*
%TO.C,MX49*%
X158035638Y-79771884D03*
D11*
X163115638Y-79771884D03*
D10*
X168195638Y-79771884D03*
D12*
X159305638Y-77231884D03*
X165655638Y-74691884D03*
%TD*%
D10*
%TO.C,MX7*%
X141366888Y-22621884D03*
D11*
X146446888Y-22621884D03*
D10*
X151526888Y-22621884D03*
D12*
X142636888Y-20081884D03*
X148986888Y-17541884D03*
%TD*%
D10*
%TO.C,MX22*%
X165179388Y-41671884D03*
D11*
X170259388Y-41671884D03*
D10*
X175339388Y-41671884D03*
D12*
X166449388Y-39131884D03*
X172799388Y-36591884D03*
%TD*%
D10*
%TO.C,MX46*%
X117554388Y-79771884D03*
D11*
X122634388Y-79771884D03*
D10*
X127714388Y-79771884D03*
D12*
X118824388Y-77231884D03*
X125174388Y-74691884D03*
%TD*%
D10*
%TO.C,MX30*%
X19923138Y-60721884D03*
D11*
X25003138Y-60721884D03*
D10*
X30083138Y-60721884D03*
D12*
X21193138Y-58181884D03*
X27543138Y-55641884D03*
%TD*%
D10*
%TO.C,MX1*%
X22304388Y-22621884D03*
D11*
X27384388Y-22621884D03*
D10*
X32464388Y-22621884D03*
D12*
X23574388Y-20081884D03*
X29924388Y-17541884D03*
%TD*%
D10*
%TO.C,MX41*%
X231854388Y-60721884D03*
D11*
X236934388Y-60721884D03*
D10*
X242014388Y-60721884D03*
D12*
X233124388Y-58181884D03*
X239474388Y-55641884D03*
%TD*%
D13*
%TO.C,S5*%
X134540638Y-86756884D03*
D11*
X134540638Y-71516884D03*
D13*
X110728138Y-86756884D03*
D11*
X110728138Y-71516884D03*
%TD*%
D10*
%TO.C,MX4*%
X84216888Y-22621884D03*
D11*
X89296888Y-22621884D03*
D10*
X94376888Y-22621884D03*
D12*
X85486888Y-20081884D03*
X91836888Y-17541884D03*
%TD*%
D10*
%TO.C,MX34*%
X98504388Y-60721884D03*
D11*
X103584388Y-60721884D03*
D10*
X108664388Y-60721884D03*
D12*
X99774388Y-58181884D03*
X106124388Y-55641884D03*
%TD*%
D10*
%TO.C,MX9*%
X179466888Y-22621884D03*
D11*
X184546888Y-22621884D03*
D10*
X189626888Y-22621884D03*
D12*
X180736888Y-20081884D03*
X187086888Y-17541884D03*
%TD*%
D10*
%TO.C,MX51*%
X188991888Y-79771884D03*
D11*
X194071888Y-79771884D03*
D10*
X199151888Y-79771884D03*
D12*
X190261888Y-77231884D03*
X196611888Y-74691884D03*
%TD*%
D10*
%TO.C,MX36*%
X136604388Y-60721884D03*
D11*
X141684388Y-60721884D03*
D10*
X146764388Y-60721884D03*
D12*
X137874388Y-58181884D03*
X144224388Y-55641884D03*
%TD*%
D10*
%TO.C,MX45*%
X88979388Y-79771884D03*
D11*
X94059388Y-79771884D03*
D10*
X99139388Y-79771884D03*
D12*
X90249388Y-77231884D03*
X96599388Y-74691884D03*
%TD*%
D10*
%TO.C,MX14*%
X24685638Y-41671884D03*
D11*
X29765638Y-41671884D03*
D10*
X34845638Y-41671884D03*
D12*
X25955638Y-39131884D03*
X32305638Y-36591884D03*
%TD*%
D10*
%TO.C,MX11*%
X217566888Y-22621884D03*
D11*
X222646888Y-22621884D03*
D10*
X227726888Y-22621884D03*
D12*
X218836888Y-20081884D03*
X225186888Y-17541884D03*
%TD*%
D10*
%TO.C,MX26*%
X241379388Y-41671884D03*
D11*
X246459388Y-41671884D03*
D10*
X251539388Y-41671884D03*
D12*
X242649388Y-39131884D03*
X248999388Y-36591884D03*
%TD*%
D10*
%TO.C,MX10*%
X198516888Y-22621884D03*
D11*
X203596888Y-22621884D03*
D10*
X208676888Y-22621884D03*
D12*
X199786888Y-20081884D03*
X206136888Y-17541884D03*
%TD*%
D10*
%TO.C,MX8*%
X160416888Y-22621884D03*
D11*
X165496888Y-22621884D03*
D10*
X170576888Y-22621884D03*
D12*
X161686888Y-20081884D03*
X168036888Y-17541884D03*
%TD*%
D10*
%TO.C,MX20*%
X127079388Y-41671884D03*
D11*
X132159388Y-41671884D03*
D10*
X137239388Y-41671884D03*
D12*
X128349388Y-39131884D03*
X134699388Y-36591884D03*
%TD*%
D10*
%TO.C,MX52*%
X212804388Y-79771884D03*
D11*
X217884388Y-79771884D03*
D10*
X222964388Y-79771884D03*
D12*
X214074388Y-77231884D03*
X220424388Y-74691884D03*
%TD*%
D10*
%TO.C,MX44*%
X65166888Y-79771884D03*
D11*
X70246888Y-79771884D03*
D10*
X75326888Y-79771884D03*
D12*
X66436888Y-77231884D03*
X72786888Y-74691884D03*
%TD*%
D10*
%TO.C,MX16*%
X50879388Y-41671884D03*
D11*
X55959388Y-41671884D03*
D10*
X61039388Y-41671884D03*
D12*
X52149388Y-39131884D03*
X58499388Y-36591884D03*
%TD*%
D10*
%TO.C,MX32*%
X60404388Y-60721884D03*
D11*
X65484388Y-60721884D03*
D10*
X70564388Y-60721884D03*
D12*
X61674388Y-58181884D03*
X68024388Y-55641884D03*
%TD*%
D10*
%TO.C,MX40*%
X212804388Y-60721884D03*
D11*
X217884388Y-60721884D03*
D10*
X222964388Y-60721884D03*
D12*
X214074388Y-58181884D03*
X220424388Y-55641884D03*
%TD*%
D10*
%TO.C,MX23*%
X184229388Y-41671884D03*
D11*
X189309388Y-41671884D03*
D10*
X194389388Y-41671884D03*
D12*
X185499388Y-39131884D03*
X191849388Y-36591884D03*
%TD*%
D10*
%TO.C,MX37*%
X155654388Y-60721884D03*
D11*
X160734388Y-60721884D03*
D10*
X165814388Y-60721884D03*
D12*
X156924388Y-58181884D03*
X163274388Y-55641884D03*
%TD*%
D10*
%TO.C,MX38*%
X174704388Y-60721884D03*
D11*
X179784388Y-60721884D03*
D10*
X184864388Y-60721884D03*
D12*
X175974388Y-58181884D03*
X182324388Y-55641884D03*
%TD*%
D10*
%TO.C,MX27*%
X253285638Y-41671884D03*
D11*
X258365638Y-41671884D03*
D10*
X263445638Y-41671884D03*
D12*
X254555638Y-39131884D03*
X260905638Y-36591884D03*
%TD*%
D10*
%TO.C,MX18*%
X88979388Y-41671884D03*
D11*
X94059388Y-41671884D03*
D10*
X99139388Y-41671884D03*
D12*
X90249388Y-39131884D03*
X96599388Y-36591884D03*
%TD*%
D10*
%TO.C,MX17*%
X69929388Y-41671884D03*
D11*
X75009388Y-41671884D03*
D10*
X80089388Y-41671884D03*
D12*
X71199388Y-39131884D03*
X77549388Y-36591884D03*
%TD*%
D10*
%TO.C,MX31*%
X41354388Y-60721884D03*
D11*
X46434388Y-60721884D03*
D10*
X51514388Y-60721884D03*
D12*
X42624388Y-58181884D03*
X48974388Y-55641884D03*
%TD*%
D10*
%TO.C,MX19*%
X108029388Y-41671884D03*
D11*
X113109388Y-41671884D03*
D10*
X118189388Y-41671884D03*
D12*
X109299388Y-39131884D03*
X115649388Y-36591884D03*
%TD*%
D10*
%TO.C,MX3*%
X65166888Y-22621884D03*
D11*
X70246888Y-22621884D03*
D10*
X75326888Y-22621884D03*
D12*
X66436888Y-20081884D03*
X72786888Y-17541884D03*
%TD*%
D10*
%TO.C,MX39*%
X193754388Y-60721884D03*
D11*
X198834388Y-60721884D03*
D10*
X203914388Y-60721884D03*
D12*
X195024388Y-58181884D03*
X201374388Y-55641884D03*
%TD*%
D10*
%TO.C,MX6*%
X122316888Y-22621884D03*
D11*
X127396888Y-22621884D03*
D10*
X132476888Y-22621884D03*
D12*
X123586888Y-20081884D03*
X129936888Y-17541884D03*
%TD*%
D10*
%TO.C,MX13*%
X260429388Y-22621884D03*
D11*
X265509388Y-22621884D03*
D10*
X270589388Y-22621884D03*
D12*
X261699388Y-20081884D03*
X268049388Y-17541884D03*
%TD*%
D13*
%TO.C,S6*%
X175021888Y-86756884D03*
D11*
X175021888Y-71516884D03*
D13*
X151209388Y-86756884D03*
D11*
X151209388Y-71516884D03*
%TD*%
D10*
%TO.C,MX53*%
X236616888Y-79771884D03*
D11*
X241696888Y-79771884D03*
D10*
X246776888Y-79771884D03*
D12*
X237886888Y-77231884D03*
X244236888Y-74691884D03*
%TD*%
D10*
%TO.C,MX21*%
X146129388Y-41671884D03*
D11*
X151209388Y-41671884D03*
D10*
X156289388Y-41671884D03*
D12*
X147399388Y-39131884D03*
X153749388Y-36591884D03*
%TD*%
D10*
%TO.C,MX28*%
X267890638Y-37226884D03*
D11*
X267890638Y-32146884D03*
D10*
X267890638Y-27066884D03*
D12*
X265350638Y-35956884D03*
X262810638Y-29606884D03*
%TD*%
D10*
%TO.C,MX5*%
X103266888Y-22621884D03*
D11*
X108346888Y-22621884D03*
D10*
X113426888Y-22621884D03*
D12*
X104536888Y-20081884D03*
X110886888Y-17541884D03*
%TD*%
D10*
%TO.C,MX33*%
X79454388Y-60721884D03*
D11*
X84534388Y-60721884D03*
D10*
X89614388Y-60721884D03*
D12*
X80724388Y-58181884D03*
X87074388Y-55641884D03*
%TD*%
D10*
%TO.C,MX35*%
X117554388Y-60721884D03*
D11*
X122634388Y-60721884D03*
D10*
X127714388Y-60721884D03*
D12*
X118824388Y-58181884D03*
X125174388Y-55641884D03*
%TD*%
D10*
%TO.C,MX25*%
X222329388Y-41671884D03*
D11*
X227409388Y-41671884D03*
D10*
X232489388Y-41671884D03*
D12*
X223599388Y-39131884D03*
X229949388Y-36591884D03*
%TD*%
D11*
%TO.C,S3*%
X259635638Y-20240634D03*
X259635638Y-44053134D03*
D13*
X274875638Y-20240634D03*
X274875638Y-44053134D03*
%TD*%
D10*
%TO.C,MX2*%
X46116888Y-22621884D03*
D11*
X51196888Y-22621884D03*
D10*
X56276888Y-22621884D03*
D12*
X47386888Y-20081884D03*
X53736888Y-17541884D03*
%TD*%
D13*
%TO.C,S1*%
X270271888Y-48656884D03*
D11*
X270271888Y-33416884D03*
D13*
X246459388Y-48656884D03*
D11*
X246459388Y-33416884D03*
%TD*%
D10*
%TO.C,MX43*%
X41354388Y-79771884D03*
D11*
X46434388Y-79771884D03*
D10*
X51514388Y-79771884D03*
D12*
X42624388Y-77231884D03*
X48974388Y-74691884D03*
%TD*%
D10*
%TO.C,MX48*%
X138985638Y-79771884D03*
D11*
X144065638Y-79771884D03*
D10*
X149145638Y-79771884D03*
D12*
X140255638Y-77231884D03*
X146605638Y-74691884D03*
%TD*%
D13*
%TO.C,S4*%
X194071888Y-86756884D03*
D11*
X194071888Y-71516884D03*
D13*
X94059388Y-86756884D03*
D11*
X94059388Y-71516884D03*
%TD*%
D10*
%TO.C,MX42*%
X258048138Y-60721884D03*
D11*
X263128138Y-60721884D03*
D10*
X268208138Y-60721884D03*
D12*
X259318138Y-58181884D03*
X265668138Y-55641884D03*
%TD*%
D10*
%TO.C,MX24*%
X203279388Y-41671884D03*
D11*
X208359388Y-41671884D03*
D10*
X213439388Y-41671884D03*
D12*
X204549388Y-39131884D03*
X210899388Y-36591884D03*
%TD*%
D10*
%TO.C,MX12*%
X236616888Y-22621884D03*
D11*
X241696888Y-22621884D03*
D10*
X246776888Y-22621884D03*
D12*
X237886888Y-20081884D03*
X244236888Y-17541884D03*
%TD*%
D14*
%TO.C,C6*%
X61014388Y-65300883D03*
X60054388Y-65300883D03*
%TD*%
D15*
%TO.C,D5*%
X99615638Y-25003134D03*
X99615638Y-21703134D03*
%TD*%
%TO.C,D4*%
X80565638Y-25003134D03*
X80565638Y-21703134D03*
%TD*%
D16*
%TO.C,BOOT*%
X79153138Y-51196884D03*
X85153138Y-51196884D03*
X79153138Y-47446884D03*
X85153138Y-47446884D03*
%TD*%
%TO.C,RESET*%
X43434388Y-86915634D03*
X49434388Y-86915634D03*
X43434388Y-83165634D03*
X49434388Y-83165634D03*
%TD*%
D15*
%TO.C,D19*%
X123428138Y-44053134D03*
X123428138Y-40753134D03*
%TD*%
D17*
%TO.C,C9*%
X63121888Y-39290634D03*
X64671888Y-39290634D03*
%TD*%
D18*
%TO.C,R1*%
X88503138Y-51196884D03*
X88503138Y-49546884D03*
%TD*%
D19*
%TO.C,C4*%
X51509388Y-67543244D03*
X51509388Y-68503244D03*
%TD*%
D15*
%TO.C,D47*%
X225821888Y-82153134D03*
X225821888Y-78853134D03*
%TD*%
%TO.C,D15*%
X47228138Y-44053134D03*
X47228138Y-40753134D03*
%TD*%
D20*
%TO.C,C1*%
X62154388Y-74809384D03*
X63114388Y-74809384D03*
%TD*%
D21*
%TO.C,D13*%
X257509388Y-25003134D03*
X260809388Y-25003134D03*
%TD*%
D15*
%TO.C,D48*%
X232965638Y-82153134D03*
X232965638Y-78853134D03*
%TD*%
%TO.C,D12*%
X232965638Y-25003134D03*
X232965638Y-21703134D03*
%TD*%
%TO.C,D18*%
X104378138Y-44053134D03*
X104378138Y-40753134D03*
%TD*%
D22*
%TO.C,C10*%
X57864388Y-77839384D03*
X57864388Y-76879384D03*
%TD*%
D23*
%TO.C,C5*%
X50175062Y-66682559D03*
X50175062Y-68232559D03*
%TD*%
D15*
%TO.C,D23*%
X199628138Y-44053134D03*
X199628138Y-40753134D03*
%TD*%
%TO.C,D41*%
X78184388Y-82215634D03*
X78184388Y-78915634D03*
%TD*%
D17*
%TO.C,C3*%
X61284388Y-76134384D03*
X62834388Y-76134384D03*
%TD*%
D15*
%TO.C,D39*%
X254396888Y-63103134D03*
X254396888Y-59803134D03*
%TD*%
%TO.C,D24*%
X218678138Y-44053134D03*
X218678138Y-40753134D03*
%TD*%
%TO.C,D8*%
X156765638Y-25003134D03*
X156765638Y-21703134D03*
%TD*%
%TO.C,D9*%
X175815638Y-25003134D03*
X175815638Y-21703134D03*
%TD*%
%TO.C,D37*%
X225821888Y-63103134D03*
X225821888Y-59803134D03*
%TD*%
%TO.C,D46*%
X185340638Y-82215634D03*
X185340638Y-78915634D03*
%TD*%
%TO.C,D3*%
X61515638Y-25003134D03*
X61515638Y-21703134D03*
%TD*%
%TO.C,D40*%
X54371888Y-82215634D03*
X54371888Y-78915634D03*
%TD*%
%TO.C,D36*%
X206771888Y-63103134D03*
X206771888Y-59803134D03*
%TD*%
%TO.C,D27*%
X33734388Y-66278134D03*
X33734388Y-62978134D03*
%TD*%
%TO.C,D10*%
X194865638Y-25003134D03*
X194865638Y-21703134D03*
%TD*%
%TO.C,D1*%
X35321888Y-25003134D03*
X35321888Y-21703134D03*
%TD*%
%TO.C,D45*%
X154384388Y-82215684D03*
X154384388Y-78915684D03*
%TD*%
%TO.C,D25*%
X237728138Y-44053134D03*
X237728138Y-40753134D03*
%TD*%
%TO.C,D28*%
X37703138Y-66278134D03*
X37703138Y-62978134D03*
%TD*%
%TO.C,D34*%
X168671888Y-63103134D03*
X168671888Y-59803134D03*
%TD*%
%TO.C,D20*%
X142478138Y-44053134D03*
X142478138Y-40753134D03*
%TD*%
%TO.C,D43*%
X113903138Y-82153134D03*
X113903138Y-78853134D03*
%TD*%
D24*
%TO.C,J1*%
X48403138Y-29853134D03*
X48403138Y-30853134D03*
X48403138Y-31853134D03*
X48403138Y-32853134D03*
D25*
X52278138Y-28553134D03*
X52278138Y-34153134D03*
%TD*%
D15*
%TO.C,D33*%
X149621888Y-63103134D03*
X149621888Y-59803134D03*
%TD*%
D20*
%TO.C,C2*%
X55379388Y-76909384D03*
X56339388Y-76909384D03*
%TD*%
D15*
%TO.C,D22*%
X180578138Y-44053134D03*
X180578138Y-40753134D03*
%TD*%
%TO.C,D2*%
X42465638Y-25003134D03*
X42465638Y-21703134D03*
%TD*%
%TO.C,D30*%
X92471888Y-63103134D03*
X92471888Y-59803134D03*
%TD*%
%TO.C,D21*%
X161528138Y-44053134D03*
X161528138Y-40753134D03*
%TD*%
%TO.C,D29*%
X73421888Y-63103134D03*
X73421888Y-59803134D03*
%TD*%
%TO.C,D35*%
X187721888Y-63103134D03*
X187721888Y-59803134D03*
%TD*%
D26*
%TO.C,C7*%
X61859388Y-63984384D03*
X60309388Y-63984384D03*
%TD*%
D15*
%TO.C,D42*%
X101996888Y-82153134D03*
X101996888Y-78853134D03*
%TD*%
%TO.C,D14*%
X37703138Y-44053134D03*
X37703138Y-40753134D03*
%TD*%
%TO.C,D17*%
X85328138Y-44053134D03*
X85328138Y-40753134D03*
%TD*%
%TO.C,D6*%
X118665638Y-25003134D03*
X118665638Y-21703134D03*
%TD*%
%TO.C,D7*%
X137715638Y-25003134D03*
X137715638Y-21703134D03*
%TD*%
D21*
%TO.C,D26*%
X251890638Y-44053134D03*
X255190638Y-44053134D03*
%TD*%
D15*
%TO.C,D38*%
X244871888Y-63103134D03*
X244871888Y-59803134D03*
%TD*%
D27*
%TO.C,U2*%
X60009388Y-75221884D03*
X59509388Y-75221884D03*
X59009388Y-75221884D03*
X58509388Y-75221884D03*
X58009388Y-75221884D03*
X57509388Y-75221884D03*
X57009388Y-75221884D03*
X56509388Y-75221884D03*
X56009388Y-75221884D03*
X55509388Y-75221884D03*
X55009388Y-75221884D03*
X54509388Y-75221884D03*
D28*
X53096888Y-73809384D03*
X53096888Y-73309384D03*
X53096888Y-72809384D03*
X53096888Y-72309384D03*
X53096888Y-71809384D03*
X53096888Y-71309384D03*
X53096888Y-70809384D03*
X53096888Y-70309384D03*
X53096888Y-69809384D03*
X53096888Y-69309384D03*
X53096888Y-68809384D03*
X53096888Y-68309384D03*
D27*
X54509388Y-66896884D03*
X55009388Y-66896884D03*
X55509388Y-66896884D03*
X56009388Y-66896884D03*
X56509388Y-66896884D03*
X57009388Y-66896884D03*
X57509388Y-66896884D03*
X58009388Y-66896884D03*
X58509388Y-66896884D03*
X59009388Y-66896884D03*
X59509388Y-66896884D03*
X60009388Y-66896884D03*
D28*
X61421888Y-68309384D03*
X61421888Y-68809384D03*
X61421888Y-69309384D03*
X61421888Y-69809384D03*
X61421888Y-70309384D03*
X61421888Y-70809384D03*
X61421888Y-71309384D03*
X61421888Y-71809384D03*
X61421888Y-72309384D03*
X61421888Y-72809384D03*
X61421888Y-73309384D03*
X61421888Y-73809384D03*
%TD*%
D15*
%TO.C,D31*%
X111521888Y-63103134D03*
X111521888Y-59803134D03*
%TD*%
%TO.C,D11*%
X213915638Y-25003134D03*
X213915638Y-21703134D03*
%TD*%
D17*
%TO.C,C8*%
X63896888Y-32940634D03*
X65446888Y-32940634D03*
%TD*%
D29*
%TO.C,J2*%
X15478138Y-60245634D03*
D30*
X15478138Y-62785634D03*
X15478138Y-65325634D03*
X15478138Y-67865634D03*
%TD*%
D15*
%TO.C,D16*%
X66278138Y-44053134D03*
X66278138Y-40753134D03*
%TD*%
%TO.C,D32*%
X130571888Y-63103134D03*
X130571888Y-59803134D03*
%TD*%
D31*
%TO.C,U1*%
X64846888Y-37253134D03*
X62946888Y-37253134D03*
X63896888Y-34978134D03*
%TD*%
D15*
%TO.C,D44*%
X135334388Y-82215634D03*
X135334388Y-78915634D03*
%TD*%
M02*
