%TF.GenerationSoftware,KiCad,Pcbnew,8.0.5*%
%TF.CreationDate,2024-09-21T22:15:35+05:30*%
%TF.ProjectId,kalam,6b616c61-6d2e-46b6-9963-61645f706362,rev?*%
%TF.SameCoordinates,Original*%
%TF.FileFunction,Profile,NP*%
%FSLAX46Y46*%
G04 Gerber Fmt 4.6, Leading zero omitted, Abs format (unit mm)*
G04 Created by KiCad (PCBNEW 8.0.5) date 2024-09-21 22:15:35*
%MOMM*%
%LPD*%
G01*
G04 APERTURE LIST*
%TA.AperFunction,Profile*%
%ADD10C,0.100000*%
%TD*%
G04 APERTURE END LIST*
D10*
X13374201Y-15624201D02*
X13374217Y-67124153D01*
X205636228Y-88423367D02*
G75*
G02*
X204306218Y-87616902I72J1500067D01*
G01*
X205636228Y-88423367D02*
X238573856Y-88424088D01*
X240823856Y-69624104D02*
G75*
G02*
X241073856Y-69374156I250044J-96D01*
G01*
X63217250Y-14180652D02*
G75*
G02*
X64547284Y-13374240I1330050J-693648D01*
G01*
X197390016Y-88423367D02*
X80620708Y-88423367D01*
X215617122Y-14180652D02*
G75*
G02*
X210030978Y-14180652I-2793072J1456449D01*
G01*
X15624217Y-69374152D02*
G75*
G02*
X13374248Y-67124153I-17J2249952D01*
G01*
X198720050Y-87616915D02*
G75*
G02*
X204306194Y-87616915I2793072J-1456451D01*
G01*
X39436718Y-88424136D02*
G75*
G02*
X37186664Y-86174136I-218J2249836D01*
G01*
X198720050Y-87616915D02*
G75*
G02*
X197390016Y-88423310I-1329950J693515D01*
G01*
X240823856Y-86174088D02*
G75*
G02*
X238573856Y-88424056I-2250056J88D01*
G01*
X216947156Y-13374200D02*
X257623840Y-13374152D01*
X56301072Y-13374200D02*
X15624201Y-13374200D01*
X13374201Y-15624201D02*
G75*
G02*
X15624201Y-13374201I2249999J1D01*
G01*
X36936718Y-69374152D02*
G75*
G02*
X37186748Y-69624152I-18J-250048D01*
G01*
X36936718Y-69374152D02*
X15624217Y-69374152D01*
X215617122Y-14180652D02*
G75*
G02*
X216947156Y-13374215I1330078J-693648D01*
G01*
X37186718Y-86174136D02*
X37186718Y-69624152D01*
X208700944Y-13374200D02*
G75*
G02*
X210030975Y-14180654I56J-1499900D01*
G01*
X240823856Y-86174088D02*
X240823856Y-69624104D01*
X80620708Y-88423367D02*
G75*
G02*
X79290683Y-87616910I-8J1499967D01*
G01*
X257623840Y-13374152D02*
G75*
G02*
X259873748Y-15624152I160J-2249748D01*
G01*
X259873840Y-15624152D02*
X259873840Y-67124104D01*
X73704530Y-87616915D02*
G75*
G02*
X79290674Y-87616915I2793072J-1456451D01*
G01*
X73704530Y-87616915D02*
G75*
G02*
X72374496Y-88423365I-1329830J693215D01*
G01*
X64547284Y-13374200D02*
X208700944Y-13374200D01*
X63217250Y-14180652D02*
G75*
G02*
X57631106Y-14180652I-2793072J1456449D01*
G01*
X72374496Y-88423367D02*
X39436718Y-88424136D01*
X257623840Y-69374104D02*
X241073856Y-69374104D01*
X56301072Y-13374200D02*
G75*
G02*
X57631128Y-14180640I28J-1500000D01*
G01*
X259873840Y-67124104D02*
G75*
G02*
X257623840Y-69374040I-2250040J104D01*
G01*
M02*
