%TF.GenerationSoftware,KiCad,Pcbnew,8.0.5*%
%TF.CreationDate,2024-09-21T22:15:35+05:30*%
%TF.ProjectId,kalam,6b616c61-6d2e-46b6-9963-61645f706362,rev?*%
%TF.SameCoordinates,Original*%
%TF.FileFunction,Other,Comment*%
%FSLAX46Y46*%
G04 Gerber Fmt 4.6, Leading zero omitted, Abs format (unit mm)*
G04 Created by KiCad (PCBNEW 8.0.5) date 2024-09-21 22:15:35*
%MOMM*%
%LPD*%
G01*
G04 APERTURE LIST*
%ADD10C,0.150000*%
G04 APERTURE END LIST*
D10*
X32754260Y-51846235D02*
X32801879Y-51798616D01*
X32801879Y-51798616D02*
X32897117Y-51750997D01*
X32897117Y-51750997D02*
X33135212Y-51750997D01*
X33135212Y-51750997D02*
X33230450Y-51798616D01*
X33230450Y-51798616D02*
X33278069Y-51846235D01*
X33278069Y-51846235D02*
X33325688Y-51941473D01*
X33325688Y-51941473D02*
X33325688Y-52036711D01*
X33325688Y-52036711D02*
X33278069Y-52179568D01*
X33278069Y-52179568D02*
X32706641Y-52750997D01*
X32706641Y-52750997D02*
X33325688Y-52750997D01*
X33754260Y-52655758D02*
X33801879Y-52703378D01*
X33801879Y-52703378D02*
X33754260Y-52750997D01*
X33754260Y-52750997D02*
X33706641Y-52703378D01*
X33706641Y-52703378D02*
X33754260Y-52655758D01*
X33754260Y-52655758D02*
X33754260Y-52750997D01*
X34182831Y-51846235D02*
X34230450Y-51798616D01*
X34230450Y-51798616D02*
X34325688Y-51750997D01*
X34325688Y-51750997D02*
X34563783Y-51750997D01*
X34563783Y-51750997D02*
X34659021Y-51798616D01*
X34659021Y-51798616D02*
X34706640Y-51846235D01*
X34706640Y-51846235D02*
X34754259Y-51941473D01*
X34754259Y-51941473D02*
X34754259Y-52036711D01*
X34754259Y-52036711D02*
X34706640Y-52179568D01*
X34706640Y-52179568D02*
X34135212Y-52750997D01*
X34135212Y-52750997D02*
X34754259Y-52750997D01*
X35659021Y-51750997D02*
X35182831Y-51750997D01*
X35182831Y-51750997D02*
X35135212Y-52227187D01*
X35135212Y-52227187D02*
X35182831Y-52179568D01*
X35182831Y-52179568D02*
X35278069Y-52131949D01*
X35278069Y-52131949D02*
X35516164Y-52131949D01*
X35516164Y-52131949D02*
X35611402Y-52179568D01*
X35611402Y-52179568D02*
X35659021Y-52227187D01*
X35659021Y-52227187D02*
X35706640Y-52322425D01*
X35706640Y-52322425D02*
X35706640Y-52560520D01*
X35706640Y-52560520D02*
X35659021Y-52655758D01*
X35659021Y-52655758D02*
X35611402Y-52703378D01*
X35611402Y-52703378D02*
X35516164Y-52750997D01*
X35516164Y-52750997D02*
X35278069Y-52750997D01*
X35278069Y-52750997D02*
X35182831Y-52703378D01*
X35182831Y-52703378D02*
X35135212Y-52655758D01*
X133242840Y-70800933D02*
X133052364Y-70800933D01*
X133052364Y-70800933D02*
X132957126Y-70848552D01*
X132957126Y-70848552D02*
X132909507Y-70896171D01*
X132909507Y-70896171D02*
X132814269Y-71039028D01*
X132814269Y-71039028D02*
X132766650Y-71229504D01*
X132766650Y-71229504D02*
X132766650Y-71610456D01*
X132766650Y-71610456D02*
X132814269Y-71705694D01*
X132814269Y-71705694D02*
X132861888Y-71753314D01*
X132861888Y-71753314D02*
X132957126Y-71800933D01*
X132957126Y-71800933D02*
X133147602Y-71800933D01*
X133147602Y-71800933D02*
X133242840Y-71753314D01*
X133242840Y-71753314D02*
X133290459Y-71705694D01*
X133290459Y-71705694D02*
X133338078Y-71610456D01*
X133338078Y-71610456D02*
X133338078Y-71372361D01*
X133338078Y-71372361D02*
X133290459Y-71277123D01*
X133290459Y-71277123D02*
X133242840Y-71229504D01*
X133242840Y-71229504D02*
X133147602Y-71181885D01*
X133147602Y-71181885D02*
X132957126Y-71181885D01*
X132957126Y-71181885D02*
X132861888Y-71229504D01*
X132861888Y-71229504D02*
X132814269Y-71277123D01*
X132814269Y-71277123D02*
X132766650Y-71372361D01*
X133766650Y-71705694D02*
X133814269Y-71753314D01*
X133814269Y-71753314D02*
X133766650Y-71800933D01*
X133766650Y-71800933D02*
X133719031Y-71753314D01*
X133719031Y-71753314D02*
X133766650Y-71705694D01*
X133766650Y-71705694D02*
X133766650Y-71800933D01*
X134195221Y-70896171D02*
X134242840Y-70848552D01*
X134242840Y-70848552D02*
X134338078Y-70800933D01*
X134338078Y-70800933D02*
X134576173Y-70800933D01*
X134576173Y-70800933D02*
X134671411Y-70848552D01*
X134671411Y-70848552D02*
X134719030Y-70896171D01*
X134719030Y-70896171D02*
X134766649Y-70991409D01*
X134766649Y-70991409D02*
X134766649Y-71086647D01*
X134766649Y-71086647D02*
X134719030Y-71229504D01*
X134719030Y-71229504D02*
X134147602Y-71800933D01*
X134147602Y-71800933D02*
X134766649Y-71800933D01*
X135671411Y-70800933D02*
X135195221Y-70800933D01*
X135195221Y-70800933D02*
X135147602Y-71277123D01*
X135147602Y-71277123D02*
X135195221Y-71229504D01*
X135195221Y-71229504D02*
X135290459Y-71181885D01*
X135290459Y-71181885D02*
X135528554Y-71181885D01*
X135528554Y-71181885D02*
X135623792Y-71229504D01*
X135623792Y-71229504D02*
X135671411Y-71277123D01*
X135671411Y-71277123D02*
X135719030Y-71372361D01*
X135719030Y-71372361D02*
X135719030Y-71610456D01*
X135719030Y-71610456D02*
X135671411Y-71705694D01*
X135671411Y-71705694D02*
X135623792Y-71753314D01*
X135623792Y-71753314D02*
X135528554Y-71800933D01*
X135528554Y-71800933D02*
X135290459Y-71800933D01*
X135290459Y-71800933D02*
X135195221Y-71753314D01*
X135195221Y-71753314D02*
X135147602Y-71705694D01*
X237541624Y-49052251D02*
X237589243Y-49004632D01*
X237589243Y-49004632D02*
X237684481Y-48957013D01*
X237684481Y-48957013D02*
X237922576Y-48957013D01*
X237922576Y-48957013D02*
X238017814Y-49004632D01*
X238017814Y-49004632D02*
X238065433Y-49052251D01*
X238065433Y-49052251D02*
X238113052Y-49147489D01*
X238113052Y-49147489D02*
X238113052Y-49242727D01*
X238113052Y-49242727D02*
X238065433Y-49385584D01*
X238065433Y-49385584D02*
X237494005Y-49957013D01*
X237494005Y-49957013D02*
X238113052Y-49957013D01*
X238541624Y-49861774D02*
X238589243Y-49909394D01*
X238589243Y-49909394D02*
X238541624Y-49957013D01*
X238541624Y-49957013D02*
X238494005Y-49909394D01*
X238494005Y-49909394D02*
X238541624Y-49861774D01*
X238541624Y-49861774D02*
X238541624Y-49957013D01*
X238970195Y-49052251D02*
X239017814Y-49004632D01*
X239017814Y-49004632D02*
X239113052Y-48957013D01*
X239113052Y-48957013D02*
X239351147Y-48957013D01*
X239351147Y-48957013D02*
X239446385Y-49004632D01*
X239446385Y-49004632D02*
X239494004Y-49052251D01*
X239494004Y-49052251D02*
X239541623Y-49147489D01*
X239541623Y-49147489D02*
X239541623Y-49242727D01*
X239541623Y-49242727D02*
X239494004Y-49385584D01*
X239494004Y-49385584D02*
X238922576Y-49957013D01*
X238922576Y-49957013D02*
X239541623Y-49957013D01*
X240446385Y-48957013D02*
X239970195Y-48957013D01*
X239970195Y-48957013D02*
X239922576Y-49433203D01*
X239922576Y-49433203D02*
X239970195Y-49385584D01*
X239970195Y-49385584D02*
X240065433Y-49337965D01*
X240065433Y-49337965D02*
X240303528Y-49337965D01*
X240303528Y-49337965D02*
X240398766Y-49385584D01*
X240398766Y-49385584D02*
X240446385Y-49433203D01*
X240446385Y-49433203D02*
X240494004Y-49528441D01*
X240494004Y-49528441D02*
X240494004Y-49766536D01*
X240494004Y-49766536D02*
X240446385Y-49861774D01*
X240446385Y-49861774D02*
X240398766Y-49909394D01*
X240398766Y-49909394D02*
X240303528Y-49957013D01*
X240303528Y-49957013D02*
X240065433Y-49957013D01*
X240065433Y-49957013D02*
X239970195Y-49909394D01*
X239970195Y-49909394D02*
X239922576Y-49861774D01*
M02*
