%TF.GenerationSoftware,KiCad,Pcbnew,8.0.5*%
%TF.CreationDate,2024-09-21T22:15:35+05:30*%
%TF.ProjectId,kalam,6b616c61-6d2e-46b6-9963-61645f706362,rev?*%
%TF.SameCoordinates,Original*%
%TF.FileFunction,Soldermask,Bot*%
%TF.FilePolarity,Negative*%
%FSLAX46Y46*%
G04 Gerber Fmt 4.6, Leading zero omitted, Abs format (unit mm)*
G04 Created by KiCad (PCBNEW 8.0.5) date 2024-09-21 22:15:35*
%MOMM*%
%LPD*%
G01*
G04 APERTURE LIST*
G04 Aperture macros list*
%AMRoundRect*
0 Rectangle with rounded corners*
0 $1 Rounding radius*
0 $2 $3 $4 $5 $6 $7 $8 $9 X,Y pos of 4 corners*
0 Add a 4 corners polygon primitive as box body*
4,1,4,$2,$3,$4,$5,$6,$7,$8,$9,$2,$3,0*
0 Add four circle primitives for the rounded corners*
1,1,$1+$1,$2,$3*
1,1,$1+$1,$4,$5*
1,1,$1+$1,$6,$7*
1,1,$1+$1,$8,$9*
0 Add four rect primitives between the rounded corners*
20,1,$1+$1,$2,$3,$4,$5,0*
20,1,$1+$1,$4,$5,$6,$7,0*
20,1,$1+$1,$6,$7,$8,$9,0*
20,1,$1+$1,$8,$9,$2,$3,0*%
G04 Aperture macros list end*
%ADD10C,1.750000*%
%ADD11C,3.987800*%
%ADD12C,2.300000*%
%ADD13C,4.000000*%
%ADD14RoundRect,0.140000X0.140000X0.170000X-0.140000X0.170000X-0.140000X-0.170000X0.140000X-0.170000X0*%
%ADD15RoundRect,0.225000X0.375000X-0.225000X0.375000X0.225000X-0.375000X0.225000X-0.375000X-0.225000X0*%
%ADD16R,1.000000X0.750000*%
%ADD17RoundRect,0.225000X-0.225000X-0.250000X0.225000X-0.250000X0.225000X0.250000X-0.225000X0.250000X0*%
%ADD18RoundRect,0.200000X0.275000X-0.200000X0.275000X0.200000X-0.275000X0.200000X-0.275000X-0.200000X0*%
%ADD19RoundRect,0.140000X-0.170000X0.140000X-0.170000X-0.140000X0.170000X-0.140000X0.170000X0.140000X0*%
%ADD20RoundRect,0.140000X-0.140000X-0.170000X0.140000X-0.170000X0.140000X0.170000X-0.140000X0.170000X0*%
%ADD21RoundRect,0.225000X-0.250000X0.225000X-0.250000X-0.225000X0.250000X-0.225000X0.250000X0.225000X0*%
%ADD22RoundRect,0.150000X-0.625000X0.150000X-0.625000X-0.150000X0.625000X-0.150000X0.625000X0.150000X0*%
%ADD23RoundRect,0.250000X-0.650000X0.350000X-0.650000X-0.350000X0.650000X-0.350000X0.650000X0.350000X0*%
%ADD24RoundRect,0.225000X0.225000X0.250000X-0.225000X0.250000X-0.225000X-0.250000X0.225000X-0.250000X0*%
%ADD25RoundRect,0.075000X0.075000X-0.662500X0.075000X0.662500X-0.075000X0.662500X-0.075000X-0.662500X0*%
%ADD26RoundRect,0.075000X0.662500X-0.075000X0.662500X0.075000X-0.662500X0.075000X-0.662500X-0.075000X0*%
%ADD27R,1.700000X1.700000*%
%ADD28O,1.700000X1.700000*%
%ADD29RoundRect,0.150000X0.150000X-0.512500X0.150000X0.512500X-0.150000X0.512500X-0.150000X-0.512500X0*%
%ADD30RoundRect,0.140000X0.170000X-0.140000X0.170000X0.140000X-0.170000X0.140000X-0.170000X-0.140000X0*%
G04 APERTURE END LIST*
D10*
%TO.C,MX15*%
X19625456Y-41374210D03*
D11*
X24705456Y-41374210D03*
D10*
X29785456Y-41374210D03*
D12*
X20895456Y-38834210D03*
X27245456Y-36294210D03*
%TD*%
D10*
%TO.C,MX7*%
X141069206Y-22324210D03*
D11*
X146149206Y-22324210D03*
D10*
X151229206Y-22324210D03*
D12*
X142339206Y-19784210D03*
X148689206Y-17244210D03*
%TD*%
D10*
%TO.C,MX22*%
X164881706Y-41374210D03*
D11*
X169961706Y-41374210D03*
D10*
X175041706Y-41374210D03*
D12*
X166151706Y-38834210D03*
X172501706Y-36294210D03*
%TD*%
D10*
%TO.C,MX30*%
X29150450Y-60424178D03*
D11*
X34230450Y-60424178D03*
D10*
X39310450Y-60424178D03*
D12*
X30420450Y-57884178D03*
X36770450Y-55344178D03*
%TD*%
D11*
%TO.C,S2*%
X46136701Y-52169178D03*
D13*
X46136700Y-67409178D03*
X22324200Y-67409178D03*
D11*
X22324199Y-52169178D03*
%TD*%
D10*
%TO.C,MX1*%
X22006706Y-22324210D03*
D11*
X27086706Y-22324210D03*
D10*
X32166706Y-22324210D03*
D12*
X23276706Y-19784210D03*
X29626706Y-17244210D03*
%TD*%
D10*
%TO.C,MX41*%
X219650326Y-60424178D03*
D11*
X224730326Y-60424178D03*
D10*
X229810326Y-60424178D03*
D12*
X220920326Y-57884178D03*
X227270326Y-55344178D03*
%TD*%
D10*
%TO.C,MX4*%
X83919206Y-22324210D03*
D11*
X88999206Y-22324210D03*
D10*
X94079206Y-22324210D03*
D12*
X85189206Y-19784210D03*
X91539206Y-17244210D03*
%TD*%
D10*
%TO.C,MX34*%
X98206706Y-60424210D03*
D11*
X103286706Y-60424210D03*
D10*
X108366706Y-60424210D03*
D12*
X99476706Y-57884210D03*
X105826706Y-55344210D03*
%TD*%
D10*
%TO.C,MX9*%
X179169206Y-22324210D03*
D11*
X184249206Y-22324210D03*
D10*
X189329206Y-22324210D03*
D12*
X180439206Y-19784210D03*
X186789206Y-17244210D03*
%TD*%
D10*
%TO.C,MX36*%
X136306706Y-60424210D03*
D11*
X141386706Y-60424210D03*
D10*
X146466706Y-60424210D03*
D12*
X137576706Y-57884210D03*
X143926706Y-55344210D03*
%TD*%
D10*
%TO.C,MX14*%
X24387956Y-41374210D03*
D11*
X29467956Y-41374210D03*
D10*
X34547956Y-41374210D03*
D12*
X25657956Y-38834210D03*
X32007956Y-36294210D03*
%TD*%
D10*
%TO.C,MX11*%
X217269206Y-22324210D03*
D11*
X222349206Y-22324210D03*
D10*
X227429206Y-22324210D03*
D12*
X218539206Y-19784210D03*
X224889206Y-17244210D03*
%TD*%
D10*
%TO.C,MX10*%
X198219206Y-22324210D03*
D11*
X203299206Y-22324210D03*
D10*
X208379206Y-22324210D03*
D12*
X199489206Y-19784210D03*
X205839206Y-17244210D03*
%TD*%
D10*
%TO.C,MX8*%
X160119206Y-22324210D03*
D11*
X165199206Y-22324210D03*
D10*
X170279206Y-22324210D03*
D12*
X161389206Y-19784210D03*
X167739206Y-17244210D03*
%TD*%
D10*
%TO.C,MX20*%
X126781706Y-41374210D03*
D11*
X131861706Y-41374210D03*
D10*
X136941706Y-41374210D03*
D12*
X128051706Y-38834210D03*
X134401706Y-36294210D03*
%TD*%
D10*
%TO.C,MX52*%
X205362838Y-79474162D03*
D11*
X210442838Y-79474162D03*
D10*
X215522838Y-79474162D03*
D12*
X206632838Y-76934162D03*
X212982838Y-74394162D03*
%TD*%
D10*
%TO.C,MX16*%
X50581706Y-41374210D03*
D11*
X55661706Y-41374210D03*
D10*
X60741706Y-41374210D03*
D12*
X51851706Y-38834210D03*
X58201706Y-36294210D03*
%TD*%
D10*
%TO.C,MX32*%
X60106706Y-60424210D03*
D11*
X65186706Y-60424210D03*
D10*
X70266706Y-60424210D03*
D12*
X61376706Y-57884210D03*
X67726706Y-55344210D03*
%TD*%
D10*
%TO.C,MX23*%
X183931706Y-41374210D03*
D11*
X189011706Y-41374210D03*
D10*
X194091706Y-41374210D03*
D12*
X185201706Y-38834210D03*
X191551706Y-36294210D03*
%TD*%
D10*
%TO.C,MX37*%
X155356706Y-60424210D03*
D11*
X160436706Y-60424210D03*
D10*
X165516706Y-60424210D03*
D12*
X156626706Y-57884210D03*
X162976706Y-55344210D03*
%TD*%
D10*
%TO.C,MX38*%
X174406706Y-60424210D03*
D11*
X179486706Y-60424210D03*
D10*
X184566706Y-60424210D03*
D12*
X175676706Y-57884210D03*
X182026706Y-55344210D03*
%TD*%
D10*
%TO.C,MX27*%
X233937814Y-41374194D03*
D11*
X239017814Y-41374194D03*
D10*
X244097814Y-41374194D03*
D12*
X235207814Y-38834194D03*
X241557814Y-36294194D03*
%TD*%
D10*
%TO.C,MX18*%
X88681706Y-41374210D03*
D11*
X93761706Y-41374210D03*
D10*
X98841706Y-41374210D03*
D12*
X89951706Y-38834210D03*
X96301706Y-36294210D03*
%TD*%
D10*
%TO.C,MX17*%
X69631706Y-41374210D03*
D11*
X74711706Y-41374210D03*
D10*
X79791706Y-41374210D03*
D12*
X70901706Y-38834210D03*
X77251706Y-36294210D03*
%TD*%
D10*
%TO.C,MX19*%
X107731706Y-41374210D03*
D11*
X112811706Y-41374210D03*
D10*
X117891706Y-41374210D03*
D12*
X109001706Y-38834210D03*
X115351706Y-36294210D03*
%TD*%
D10*
%TO.C,MX3*%
X64869206Y-22324210D03*
D11*
X69949206Y-22324210D03*
D10*
X75029206Y-22324210D03*
D12*
X66139206Y-19784210D03*
X72489206Y-17244210D03*
%TD*%
D10*
%TO.C,MX39*%
X193456706Y-60424210D03*
D11*
X198536706Y-60424210D03*
D10*
X203616706Y-60424210D03*
D12*
X194726706Y-57884210D03*
X201076706Y-55344210D03*
%TD*%
D10*
%TO.C,MX6*%
X122019206Y-22324210D03*
D11*
X127099206Y-22324210D03*
D10*
X132179206Y-22324210D03*
D12*
X123289206Y-19784210D03*
X129639206Y-17244210D03*
%TD*%
D10*
%TO.C,MX13*%
X241081558Y-22324210D03*
D11*
X246161558Y-22324210D03*
D10*
X251241558Y-22324210D03*
D12*
X242351558Y-19784210D03*
X248701558Y-17244210D03*
%TD*%
D10*
%TO.C,MX53*%
X226794070Y-79474162D03*
D11*
X231874070Y-79474162D03*
D10*
X236954070Y-79474162D03*
D12*
X228064070Y-76934162D03*
X234414070Y-74394162D03*
%TD*%
D10*
%TO.C,MX21*%
X145831706Y-41374210D03*
D11*
X150911706Y-41374210D03*
D10*
X155991706Y-41374210D03*
D12*
X147101706Y-38834210D03*
X153451706Y-36294210D03*
%TD*%
D10*
%TO.C,MX5*%
X102969206Y-22324210D03*
D11*
X108049206Y-22324210D03*
D10*
X113129206Y-22324210D03*
D12*
X104239206Y-19784210D03*
X110589206Y-17244210D03*
%TD*%
D13*
%TO.C,S1*%
X189011648Y-86459161D03*
D11*
X189011648Y-71219162D03*
D13*
X88999148Y-86459161D03*
D11*
X88999148Y-71219162D03*
%TD*%
D10*
%TO.C,MX33*%
X79156706Y-60424210D03*
D11*
X84236706Y-60424210D03*
D10*
X89316706Y-60424210D03*
D12*
X80426706Y-57884210D03*
X86776706Y-55344210D03*
%TD*%
D10*
%TO.C,MX35*%
X117256706Y-60424210D03*
D11*
X122336706Y-60424210D03*
D10*
X127416706Y-60424210D03*
D12*
X118526706Y-57884210D03*
X124876706Y-55344210D03*
%TD*%
D10*
%TO.C,MX2*%
X45819206Y-22324210D03*
D11*
X50899206Y-22324210D03*
D10*
X55979206Y-22324210D03*
D12*
X47089206Y-19784210D03*
X53439206Y-17244210D03*
%TD*%
D10*
%TO.C,MX43*%
X41056706Y-79474210D03*
D11*
X46136706Y-79474210D03*
D10*
X51216706Y-79474210D03*
D12*
X42326706Y-76934210D03*
X48676706Y-74394210D03*
%TD*%
D10*
%TO.C,MX48*%
X133925398Y-79474162D03*
D11*
X139005398Y-79474162D03*
D10*
X144085398Y-79474162D03*
D12*
X135195398Y-76934162D03*
X141545398Y-74394162D03*
%TD*%
D10*
%TO.C,MX42*%
X245844054Y-60424210D03*
D11*
X250924054Y-60424210D03*
D10*
X256004054Y-60424210D03*
D12*
X247114054Y-57884210D03*
X253464054Y-55344210D03*
%TD*%
D10*
%TO.C,MX24*%
X202981706Y-41374210D03*
D11*
X208061706Y-41374210D03*
D10*
X213141706Y-41374210D03*
D12*
X204251706Y-38834210D03*
X210601706Y-36294210D03*
%TD*%
D13*
%TO.C,S3*%
X227111564Y-34389194D03*
D11*
X227111564Y-49629194D03*
D13*
X250924064Y-34389194D03*
D11*
X250924064Y-49629194D03*
%TD*%
D14*
%TO.C,C6*%
X60716706Y-64190669D03*
X59756706Y-64190669D03*
%TD*%
D15*
%TO.C,D5*%
X99317956Y-24705460D03*
X99317956Y-21405460D03*
%TD*%
%TO.C,D4*%
X80267956Y-24705460D03*
X80267956Y-21405460D03*
%TD*%
D16*
%TO.C,SW1*%
X81236754Y-50899210D03*
X87236754Y-50899210D03*
X81236754Y-47149210D03*
X87236754Y-47149210D03*
%TD*%
D15*
%TO.C,D18*%
X123130456Y-43755460D03*
X123130456Y-40455460D03*
%TD*%
D17*
%TO.C,C9*%
X62824206Y-38992960D03*
X64374206Y-38992960D03*
%TD*%
D18*
%TO.C,R1*%
X88999258Y-50899210D03*
X88999258Y-49249210D03*
%TD*%
D19*
%TO.C,C4*%
X51211706Y-66433030D03*
X51211706Y-67393030D03*
%TD*%
D15*
%TO.C,D38*%
X218380338Y-81855412D03*
X218380338Y-78555412D03*
%TD*%
%TO.C,D14*%
X46930456Y-43755460D03*
X46930456Y-40455460D03*
%TD*%
D20*
%TO.C,C1*%
X62623082Y-73223386D03*
X63583082Y-73223386D03*
%TD*%
D15*
%TO.C,D12*%
X237529534Y-24867160D03*
X237529534Y-21567160D03*
%TD*%
%TO.C,D39*%
X223142820Y-81855412D03*
X223142820Y-78555412D03*
%TD*%
%TO.C,D17*%
X104080456Y-43755460D03*
X104080456Y-40455460D03*
%TD*%
D21*
%TO.C,C5*%
X49877380Y-65572345D03*
X49877380Y-67122345D03*
%TD*%
D15*
%TO.C,D22*%
X199330456Y-43755460D03*
X199330456Y-40455460D03*
%TD*%
%TO.C,D36*%
X75307014Y-82649210D03*
X75307014Y-79349210D03*
%TD*%
D17*
%TO.C,C3*%
X60986706Y-74592185D03*
X62536706Y-74592185D03*
%TD*%
D15*
%TO.C,D34*%
X242192804Y-62805460D03*
X242192804Y-59505460D03*
%TD*%
%TO.C,D8*%
X156467956Y-24705460D03*
X156467956Y-21405460D03*
%TD*%
%TO.C,D9*%
X175517956Y-24705460D03*
X175517956Y-21405460D03*
%TD*%
%TO.C,D3*%
X61217956Y-24705460D03*
X61217956Y-21405460D03*
%TD*%
%TO.C,D35*%
X54074206Y-81917960D03*
X54074206Y-78617960D03*
%TD*%
%TO.C,D32*%
X206474206Y-62805460D03*
X206474206Y-59505460D03*
%TD*%
%TO.C,D24*%
X30956234Y-65646050D03*
X30956234Y-62346050D03*
%TD*%
%TO.C,D10*%
X194567956Y-24705460D03*
X194567956Y-21405460D03*
%TD*%
%TO.C,D1*%
X35024206Y-24705460D03*
X35024206Y-21405460D03*
%TD*%
%TO.C,D30*%
X168374206Y-62805460D03*
X168374206Y-59505460D03*
%TD*%
%TO.C,D19*%
X142180456Y-43755460D03*
X142180456Y-40455460D03*
%TD*%
D22*
%TO.C,J1*%
X48105456Y-29555460D03*
X48105456Y-30555460D03*
X48105456Y-31555460D03*
X48105456Y-32555460D03*
D23*
X51980456Y-28255460D03*
X51980456Y-33855460D03*
%TD*%
D15*
%TO.C,D29*%
X149324206Y-62805460D03*
X149324206Y-59505460D03*
%TD*%
D20*
%TO.C,C2*%
X55081706Y-75799170D03*
X56041706Y-75799170D03*
%TD*%
D15*
%TO.C,D21*%
X180280456Y-43755460D03*
X180280456Y-40455460D03*
%TD*%
%TO.C,D2*%
X42167956Y-21405460D03*
X42167956Y-24705460D03*
%TD*%
%TO.C,D26*%
X92174206Y-62805460D03*
X92174206Y-59505460D03*
%TD*%
%TO.C,D20*%
X161230456Y-43755460D03*
X161230456Y-40455460D03*
%TD*%
%TO.C,D25*%
X73124206Y-62805460D03*
X73124206Y-59505460D03*
%TD*%
%TO.C,D31*%
X187424206Y-62805460D03*
X187424206Y-59505460D03*
%TD*%
D24*
%TO.C,C7*%
X61561706Y-62874170D03*
X60011706Y-62874170D03*
%TD*%
D15*
%TO.C,D13*%
X37405456Y-43755460D03*
X37405456Y-40455460D03*
%TD*%
%TO.C,D16*%
X85030456Y-43755460D03*
X85030456Y-40455460D03*
%TD*%
%TO.C,D6*%
X118367956Y-24705460D03*
X118367956Y-21405460D03*
%TD*%
%TO.C,D7*%
X137417956Y-24705460D03*
X137417956Y-21405460D03*
%TD*%
%TO.C,D23*%
X230088134Y-43917128D03*
X230088134Y-40617128D03*
%TD*%
%TO.C,D33*%
X232767038Y-62805428D03*
X232767038Y-59505428D03*
%TD*%
D25*
%TO.C,U2*%
X59711706Y-74111670D03*
X59211706Y-74111670D03*
X58711706Y-74111670D03*
X58211706Y-74111670D03*
X57711706Y-74111670D03*
X57211706Y-74111670D03*
X56711706Y-74111670D03*
X56211706Y-74111670D03*
X55711706Y-74111670D03*
X55211706Y-74111670D03*
X54711706Y-74111670D03*
X54211706Y-74111670D03*
D26*
X52799206Y-72699170D03*
X52799206Y-72199170D03*
X52799206Y-71699170D03*
X52799206Y-71199170D03*
X52799206Y-70699170D03*
X52799206Y-70199170D03*
X52799206Y-69699170D03*
X52799206Y-69199170D03*
X52799206Y-68699170D03*
X52799206Y-68199170D03*
X52799206Y-67699170D03*
X52799206Y-67199170D03*
D25*
X54211706Y-65786670D03*
X54711706Y-65786670D03*
X55211706Y-65786670D03*
X55711706Y-65786670D03*
X56211706Y-65786670D03*
X56711706Y-65786670D03*
X57211706Y-65786670D03*
X57711706Y-65786670D03*
X58211706Y-65786670D03*
X58711706Y-65786670D03*
X59211706Y-65786670D03*
X59711706Y-65786670D03*
D26*
X61124206Y-67199170D03*
X61124206Y-67699170D03*
X61124206Y-68199170D03*
X61124206Y-68699170D03*
X61124206Y-69199170D03*
X61124206Y-69699170D03*
X61124206Y-70199170D03*
X61124206Y-70699170D03*
X61124206Y-71199170D03*
X61124206Y-71699170D03*
X61124206Y-72199170D03*
X61124206Y-72699170D03*
%TD*%
D15*
%TO.C,D27*%
X111224206Y-62805460D03*
X111224206Y-59505460D03*
%TD*%
%TO.C,D11*%
X213617956Y-24705460D03*
X213617956Y-21405460D03*
%TD*%
D17*
%TO.C,C8*%
X63599206Y-32642960D03*
X65149206Y-32642960D03*
%TD*%
D27*
%TO.C,J2*%
X15180456Y-59947960D03*
D28*
X15180456Y-62487960D03*
X15180456Y-65027960D03*
X15180456Y-67567960D03*
%TD*%
D15*
%TO.C,D15*%
X65980456Y-43755460D03*
X65980456Y-40455460D03*
%TD*%
%TO.C,D28*%
X130274206Y-62805460D03*
X130274206Y-59505460D03*
%TD*%
D29*
%TO.C,U1*%
X64549206Y-36955460D03*
X62649206Y-36955460D03*
X63599206Y-34680460D03*
%TD*%
D15*
%TO.C,D37*%
X130274148Y-81917912D03*
X130274148Y-78617912D03*
%TD*%
D30*
%TO.C,C10*%
X57447618Y-76729170D03*
X57447618Y-75769170D03*
%TD*%
D10*
%TO.C,MX44*%
X62487958Y-79474162D03*
D11*
X67567958Y-79474162D03*
D10*
X72647958Y-79474162D03*
D12*
X63757958Y-76934162D03*
X70107958Y-74394162D03*
%TD*%
M02*
