%TF.GenerationSoftware,KiCad,Pcbnew,8.0.4*%
%TF.CreationDate,2024-08-11T23:54:30+05:30*%
%TF.ProjectId,kalam,6b616c61-6d2e-46b6-9963-61645f706362,rev?*%
%TF.SameCoordinates,Original*%
%TF.FileFunction,Profile,NP*%
%FSLAX46Y46*%
G04 Gerber Fmt 4.6, Leading zero omitted, Abs format (unit mm)*
G04 Created by KiCad (PCBNEW 8.0.4) date 2024-08-11 23:54:30*
%MOMM*%
%LPD*%
G01*
G04 APERTURE LIST*
%TA.AperFunction,Profile*%
%ADD10C,0.100000*%
%TD*%
G04 APERTURE END LIST*
D10*
X13890638Y-15890634D02*
X13890638Y-67453134D01*
X249603138Y-14890634D02*
X249603138Y-15384384D01*
X132734388Y-88503134D02*
X112533189Y-88504383D01*
X153014439Y-88504383D02*
G75*
G02*
X149403151Y-88503121I-1805039J1732483D01*
G01*
X87153138Y-88503133D02*
G75*
G02*
X86153067Y-87503134I-338J999733D01*
G01*
X250428138Y-86503134D02*
G75*
G02*
X248428138Y-88503138I-2000038J34D01*
G01*
X86153138Y-87503134D02*
X86153138Y-87009384D01*
X248428138Y-88503134D02*
X210978138Y-88503134D01*
X201978138Y-87009384D02*
G75*
G02*
X209978138Y-87009384I4000000J0D01*
G01*
X87153138Y-88503133D02*
X92253188Y-88503134D01*
X77153138Y-88503134D02*
X39703138Y-88503134D01*
X35703138Y-69453134D02*
G75*
G02*
X37703066Y-71453134I-38J-1999966D01*
G01*
X35703138Y-69453134D02*
X15890638Y-69453134D01*
X250428138Y-71453134D02*
G75*
G02*
X252428138Y-69453138I1999962J34D01*
G01*
X248603138Y-13890634D02*
G75*
G02*
X249603066Y-14890634I162J-999766D01*
G01*
X279003138Y-67453134D02*
G75*
G02*
X277003138Y-69453138I-2000038J34D01*
G01*
X112533189Y-88504383D02*
G75*
G02*
X108921849Y-88503171I-1805089J1732583D01*
G01*
X13890638Y-15890634D02*
G75*
G02*
X15890638Y-13890628I2000002J4D01*
G01*
X43290638Y-14890634D02*
X43290638Y-15384384D01*
X195876939Y-88504383D02*
X200978138Y-88503133D01*
X37703138Y-71453134D02*
X37703138Y-86503134D01*
X146446888Y-13890634D02*
X44290638Y-13890634D01*
X250428138Y-86503134D02*
X250428138Y-71453134D01*
X176826939Y-88504383D02*
G75*
G02*
X173215651Y-88503121I-1805039J1732483D01*
G01*
X95864489Y-88504383D02*
G75*
G02*
X92253149Y-88503171I-1805089J1732483D01*
G01*
X136345689Y-88504383D02*
G75*
G02*
X132734349Y-88503171I-1805089J1732583D01*
G01*
X15890638Y-13890634D02*
X34290638Y-13890634D01*
X257603138Y-14890634D02*
G75*
G02*
X258603138Y-13890638I999962J34D01*
G01*
X78153138Y-87503135D02*
G75*
G02*
X77153138Y-88503138I-1000038J35D01*
G01*
X258603138Y-13890634D02*
X277003138Y-13890634D01*
X35290638Y-14890634D02*
X35290638Y-15384384D01*
X43290638Y-14890634D02*
G75*
G02*
X44290638Y-13890638I999962J34D01*
G01*
X78153138Y-87009384D02*
G75*
G02*
X86153138Y-87009384I4000000J0D01*
G01*
X279003138Y-15890634D02*
X279003138Y-67453134D01*
X201978138Y-87503134D02*
G75*
G02*
X200978138Y-88503138I-999938J-66D01*
G01*
X149403138Y-88503134D02*
X136345689Y-88504383D01*
X277003138Y-13890634D02*
G75*
G02*
X279003066Y-15890634I262J-1999666D01*
G01*
X173215638Y-88503134D02*
X153014439Y-88504383D01*
X201978138Y-87009384D02*
X201978138Y-87503134D01*
X15890638Y-69453134D02*
G75*
G02*
X13890646Y-67453134I2J1999994D01*
G01*
X146446888Y-13890634D02*
X248603138Y-13890634D01*
X257603138Y-15384384D02*
G75*
G02*
X249603138Y-15384384I-4000000J0D01*
G01*
X78153138Y-87009384D02*
X78153138Y-87503135D01*
X43290638Y-15384384D02*
G75*
G02*
X35290638Y-15384384I-4000000J0D01*
G01*
X277003138Y-69453134D02*
X252428138Y-69453134D01*
X108921888Y-88503134D02*
X95864489Y-88504383D01*
X210978138Y-88503134D02*
G75*
G02*
X209978066Y-87503135I-38J1000034D01*
G01*
X192265638Y-88503134D02*
X176826939Y-88504383D01*
X34290638Y-13890634D02*
G75*
G02*
X35290566Y-14890634I162J-999766D01*
G01*
X257603138Y-15384384D02*
X257603138Y-14890634D01*
X195876939Y-88504383D02*
G75*
G02*
X192265651Y-88503121I-1805039J1732483D01*
G01*
X209978138Y-87503135D02*
X209978138Y-87009384D01*
X39703138Y-88503134D02*
G75*
G02*
X37703066Y-86503134I-38J2000034D01*
G01*
M02*
