M48
; DRILL file {KiCad 8.0.5} date 2024-09-21T22:15:35+0530
; FORMAT={-:-/ absolute / inch / decimal}
; #@! TF.CreationDate,2024-09-21T22:15:35+05:30
; #@! TF.GenerationSoftware,Kicad,Pcbnew,8.0.5
; #@! TF.FileFunction,NonPlated,1,2,NPTH
FMAT,2
INCH
; #@! TA.AperFunction,NonPlated,NPTH,ComponentDrill
T1C0.0689
; #@! TA.AperFunction,NonPlated,NPTH,ComponentDrill
T2C0.1570
%
G90
G05
T1
X0.7727Y-1.6289
X0.8664Y-0.8789
X0.9602Y-1.6289
X1.1477Y-2.3789
X1.1727Y-1.6289
X1.2664Y-0.8789
X1.3602Y-1.6289
X1.5477Y-2.3789
X1.6164Y-3.1289
X1.8039Y-0.8789
X1.9914Y-1.6289
X2.0164Y-3.1289
X2.2039Y-0.8789
X2.3664Y-2.3789
X2.3914Y-1.6289
X2.4602Y-3.1289
X2.5539Y-0.8789
X2.7414Y-1.6289
X2.7664Y-2.3789
X2.8602Y-3.1289
X2.9539Y-0.8789
X3.1164Y-2.3789
X3.1414Y-1.6289
X3.3039Y-0.8789
X3.4914Y-1.6289
X3.5164Y-2.3789
X3.7039Y-0.8789
X3.8664Y-2.3789
X3.8914Y-1.6289
X4.0539Y-0.8789
X4.2414Y-1.6289
X4.2664Y-2.3789
X4.4539Y-0.8789
X4.6164Y-2.3789
X4.6414Y-1.6289
X4.8039Y-0.8789
X4.9914Y-1.6289
X5.0164Y-2.3789
X5.2039Y-0.8789
X5.2727Y-3.1289
X5.3664Y-2.3789
X5.3914Y-1.6289
X5.5539Y-0.8789
X5.6727Y-3.1289
X5.7414Y-1.6289
X5.7664Y-2.3789
X5.9539Y-0.8789
X6.1164Y-2.3789
X6.1414Y-1.6289
X6.3039Y-0.8789
X6.4914Y-1.6289
X6.5164Y-2.3789
X6.7039Y-0.8789
X6.8664Y-2.3789
X6.8914Y-1.6289
X7.0539Y-0.8789
X7.2414Y-1.6289
X7.2664Y-2.3789
X7.4539Y-0.8789
X7.6164Y-2.3789
X7.6414Y-1.6289
X7.8039Y-0.8789
X7.9914Y-1.6289
X8.0164Y-2.3789
X8.0852Y-3.1289
X8.2039Y-0.8789
X8.3914Y-1.6289
X8.4852Y-3.1289
X8.5539Y-0.8789
X8.6477Y-2.3789
X8.9289Y-3.1289
X8.9539Y-0.8789
X9.0477Y-2.3789
X9.2102Y-1.6289
X9.3289Y-3.1289
X9.4914Y-0.8789
X9.6102Y-1.6289
X9.6789Y-2.3789
X9.8914Y-0.8789
X10.0789Y-2.3789
T2
X0.8789Y-2.0539
X0.9727Y-1.6289
X1.0664Y-0.8789
X1.1602Y-1.6289
X1.3477Y-2.3789
X1.8164Y-2.0539
X1.8164Y-3.1289
X2.0039Y-0.8789
X2.1914Y-1.6289
X2.5664Y-2.3789
X2.6602Y-3.1289
X2.7539Y-0.8789
X2.9414Y-1.6289
X3.3164Y-2.3789
X3.5039Y-2.8039
X3.5039Y-0.8789
X3.6914Y-1.6289
X4.0664Y-2.3789
X4.2539Y-0.8789
X4.4414Y-1.6289
X4.8164Y-2.3789
X5.0039Y-0.8789
X5.1914Y-1.6289
X5.4727Y-3.1289
X5.5664Y-2.3789
X5.7539Y-0.8789
X5.9414Y-1.6289
X6.3164Y-2.3789
X6.5039Y-0.8789
X6.6914Y-1.6289
X7.0664Y-2.3789
X7.2539Y-0.8789
X7.4414Y-2.8039
X7.4414Y-1.6289
X7.8164Y-2.3789
X8.0039Y-0.8789
X8.1914Y-1.6289
X8.2852Y-3.1289
X8.7539Y-0.8789
X8.8477Y-2.3789
X8.9414Y-1.9539
X9.1289Y-3.1289
X9.4102Y-1.6289
X9.6914Y-0.8789
X9.8789Y-2.3789
X9.8789Y-1.9539
M30
