M48
; DRILL file {KiCad 8.0.4} date 2024-08-11T23:54:30+0530
; FORMAT={-:-/ absolute / inch / decimal}
; #@! TF.CreationDate,2024-08-11T23:54:30+05:30
; #@! TF.GenerationSoftware,Kicad,Pcbnew,8.0.4
; #@! TF.FileFunction,Plated,1,2,PTH
FMAT,2
INCH
; #@! TA.AperFunction,Plated,PTH,ViaDrill
T1C0.0157
; #@! TA.AperFunction,Plated,PTH,ComponentDrill
T2C0.0394
; #@! TA.AperFunction,Plated,PTH,ComponentDrill
T3C0.0600
; #@! TA.AperFunction,Plated,PTH,ComponentDrill
T4C0.1200
%
G90
G05
T1
X0.7031Y-2.1094
X0.7656Y-2.7031
X1.0469Y-2.6094
X1.5781Y-1.7344
X1.6094Y-2.7031
X1.6719Y-2.8281
X1.7031Y-2.6719
X1.7031Y-2.8594
X1.7969Y-1.7344
X1.8281Y-1.3594
X1.9219Y-2.5156
X1.9531Y-2.5469
X1.9844Y-2.4844
X2.0156Y-2.7344
X2.1281Y-3.0279
X2.2057Y-1.9769
X2.2348Y-2.4167
X2.25Y-3.1875
X2.2543Y-2.7976
X2.3281Y-2.5469
X2.3906Y-1.7656
X2.4128Y-3.0466
X2.4219Y-2.6406
X2.4844Y-2.5191
X2.5269Y-2.9108
X2.5781Y-1.7656
X2.7031Y-2.8594
X3.3594Y-2.5469
X3.4844Y-1.8906
X3.5469Y-2.6719
X3.5469Y-2.8594
X3.6094Y-2.0781
X4.2656Y-3.2969
X5.1156Y-1.0469
X5.6781Y-2.5469
X6.4281Y-2.5469
X7.1094Y-2.5469
X7.2656Y-3.3281
X7.8594Y-2.5469
X8.8656Y-1.0469
X9.4281Y-2.5469
T2
X0.6094Y-2.3719
X0.6094Y-2.4719
X0.6094Y-2.5719
X0.6094Y-2.6719
T3
X0.8344Y-1.5406
X0.8344Y-2.2906
X0.9281Y-0.7906
X1.0219Y-1.5406
X1.0844Y-1.4406
X1.0844Y-2.1906
X1.1781Y-0.6906
X1.2719Y-1.4406
X1.6781Y-2.2906
X1.6781Y-3.0406
X1.8656Y-0.7906
X1.9281Y-2.1906
X1.9281Y-2.9406
X2.0531Y-1.5406
X2.1156Y-0.6906
X2.3031Y-1.4406
X2.4281Y-2.2906
X2.6156Y-0.7906
X2.6156Y-3.0406
X2.6781Y-2.1906
X2.8031Y-1.5406
X2.8656Y-0.6906
X2.8656Y-2.9406
X3.0531Y-1.4406
X3.1781Y-2.2906
X3.3656Y-0.7906
X3.4281Y-2.1906
X3.5531Y-1.5406
X3.5531Y-3.0406
X3.6156Y-0.6906
X3.8031Y-1.4406
X3.8031Y-2.9406
X3.9281Y-2.2906
X4.1156Y-0.7906
X4.1781Y-2.1906
X4.3031Y-1.5406
X4.3656Y-0.6906
X4.5531Y-1.4406
X4.6781Y-2.2906
X4.6781Y-3.0406
X4.8656Y-0.7906
X4.9281Y-2.1906
X4.9281Y-2.9406
X5.0531Y-1.5406
X5.1156Y-0.6906
X5.3031Y-1.4406
X5.4281Y-2.2906
X5.5219Y-3.0406
X5.6156Y-0.7906
X5.6781Y-2.1906
X5.7719Y-2.9406
X5.8031Y-1.5406
X5.8656Y-0.6906
X6.0531Y-1.4406
X6.1781Y-2.2906
X6.2719Y-3.0406
X6.3656Y-0.7906
X6.4281Y-2.1906
X6.5219Y-2.9406
X6.5531Y-1.5406
X6.6156Y-0.6906
X6.8031Y-1.4406
X6.9281Y-2.2906
X7.1156Y-0.7906
X7.1781Y-2.1906
X7.3031Y-1.5406
X7.3656Y-0.6906
X7.4906Y-3.0406
X7.5531Y-1.4406
X7.6781Y-2.2906
X7.7406Y-2.9406
X7.8656Y-0.7906
X7.9281Y-2.1906
X8.0531Y-1.5406
X8.1156Y-0.6906
X8.3031Y-1.4406
X8.4281Y-2.2906
X8.4281Y-3.0406
X8.6156Y-0.7906
X8.6781Y-2.1906
X8.6781Y-2.9406
X8.8031Y-1.5406
X8.8656Y-0.6906
X9.0531Y-1.4406
X9.1781Y-2.2906
X9.3656Y-0.7906
X9.3656Y-3.0406
X9.4281Y-2.1906
X9.5531Y-1.5406
X9.6156Y-0.6906
X9.6156Y-2.9406
X9.8031Y-1.4406
X10.0219Y-1.5406
X10.2094Y-2.2906
X10.2719Y-1.4406
X10.3031Y-0.7906
X10.3469Y-1.1656
X10.4469Y-1.4156
X10.4594Y-2.1906
X10.5531Y-0.6906
T4
X3.7031Y-3.4156
X4.3594Y-3.4156
X5.2969Y-3.4156
X5.9531Y-3.4156
X6.8906Y-3.4156
X7.6406Y-3.4156
X9.7031Y-1.9156
X10.6406Y-1.9156
X10.8219Y-0.7969
X10.8219Y-1.7344
M30
