%TF.GenerationSoftware,KiCad,Pcbnew,8.0.4*%
%TF.CreationDate,2024-08-11T23:54:30+05:30*%
%TF.ProjectId,kalam,6b616c61-6d2e-46b6-9963-61645f706362,rev?*%
%TF.SameCoordinates,Original*%
%TF.FileFunction,Soldermask,Top*%
%TF.FilePolarity,Negative*%
%FSLAX46Y46*%
G04 Gerber Fmt 4.6, Leading zero omitted, Abs format (unit mm)*
G04 Created by KiCad (PCBNEW 8.0.4) date 2024-08-11 23:54:30*
%MOMM*%
%LPD*%
G01*
G04 APERTURE LIST*
%ADD10C,1.750000*%
%ADD11C,3.987800*%
%ADD12R,1.700000X1.700000*%
%ADD13O,1.700000X1.700000*%
G04 APERTURE END LIST*
D10*
%TO.C,MX15*%
X19923138Y-41671884D03*
D11*
X25003138Y-41671884D03*
D10*
X30083138Y-41671884D03*
%TD*%
%TO.C,MX49*%
X158035638Y-79771884D03*
D11*
X163115638Y-79771884D03*
D10*
X168195638Y-79771884D03*
%TD*%
%TO.C,MX7*%
X141366888Y-22621884D03*
D11*
X146446888Y-22621884D03*
D10*
X151526888Y-22621884D03*
%TD*%
%TO.C,MX22*%
X165179388Y-41671884D03*
D11*
X170259388Y-41671884D03*
D10*
X175339388Y-41671884D03*
%TD*%
%TO.C,MX46*%
X117554388Y-79771884D03*
D11*
X122634388Y-79771884D03*
D10*
X127714388Y-79771884D03*
%TD*%
%TO.C,MX30*%
X19923138Y-60721884D03*
D11*
X25003138Y-60721884D03*
D10*
X30083138Y-60721884D03*
%TD*%
%TO.C,MX1*%
X22304388Y-22621884D03*
D11*
X27384388Y-22621884D03*
D10*
X32464388Y-22621884D03*
%TD*%
%TO.C,MX41*%
X231854388Y-60721884D03*
D11*
X236934388Y-60721884D03*
D10*
X242014388Y-60721884D03*
%TD*%
D11*
%TO.C,S5*%
X134540638Y-71516884D03*
X110728138Y-71516884D03*
%TD*%
D10*
%TO.C,MX4*%
X84216888Y-22621884D03*
D11*
X89296888Y-22621884D03*
D10*
X94376888Y-22621884D03*
%TD*%
%TO.C,MX34*%
X98504388Y-60721884D03*
D11*
X103584388Y-60721884D03*
D10*
X108664388Y-60721884D03*
%TD*%
%TO.C,MX9*%
X179466888Y-22621884D03*
D11*
X184546888Y-22621884D03*
D10*
X189626888Y-22621884D03*
%TD*%
%TO.C,MX51*%
X188991888Y-79771884D03*
D11*
X194071888Y-79771884D03*
D10*
X199151888Y-79771884D03*
%TD*%
%TO.C,MX36*%
X136604388Y-60721884D03*
D11*
X141684388Y-60721884D03*
D10*
X146764388Y-60721884D03*
%TD*%
%TO.C,MX45*%
X88979388Y-79771884D03*
D11*
X94059388Y-79771884D03*
D10*
X99139388Y-79771884D03*
%TD*%
%TO.C,MX14*%
X24685638Y-41671884D03*
D11*
X29765638Y-41671884D03*
D10*
X34845638Y-41671884D03*
%TD*%
%TO.C,MX11*%
X217566888Y-22621884D03*
D11*
X222646888Y-22621884D03*
D10*
X227726888Y-22621884D03*
%TD*%
%TO.C,MX26*%
X241379388Y-41671884D03*
D11*
X246459388Y-41671884D03*
D10*
X251539388Y-41671884D03*
%TD*%
%TO.C,MX10*%
X198516888Y-22621884D03*
D11*
X203596888Y-22621884D03*
D10*
X208676888Y-22621884D03*
%TD*%
%TO.C,MX8*%
X160416888Y-22621884D03*
D11*
X165496888Y-22621884D03*
D10*
X170576888Y-22621884D03*
%TD*%
%TO.C,MX20*%
X127079388Y-41671884D03*
D11*
X132159388Y-41671884D03*
D10*
X137239388Y-41671884D03*
%TD*%
%TO.C,MX52*%
X212804388Y-79771884D03*
D11*
X217884388Y-79771884D03*
D10*
X222964388Y-79771884D03*
%TD*%
%TO.C,MX44*%
X65166888Y-79771884D03*
D11*
X70246888Y-79771884D03*
D10*
X75326888Y-79771884D03*
%TD*%
%TO.C,MX16*%
X50879388Y-41671884D03*
D11*
X55959388Y-41671884D03*
D10*
X61039388Y-41671884D03*
%TD*%
%TO.C,MX32*%
X60404388Y-60721884D03*
D11*
X65484388Y-60721884D03*
D10*
X70564388Y-60721884D03*
%TD*%
%TO.C,MX40*%
X212804388Y-60721884D03*
D11*
X217884388Y-60721884D03*
D10*
X222964388Y-60721884D03*
%TD*%
%TO.C,MX23*%
X184229388Y-41671884D03*
D11*
X189309388Y-41671884D03*
D10*
X194389388Y-41671884D03*
%TD*%
%TO.C,MX37*%
X155654388Y-60721884D03*
D11*
X160734388Y-60721884D03*
D10*
X165814388Y-60721884D03*
%TD*%
%TO.C,MX38*%
X174704388Y-60721884D03*
D11*
X179784388Y-60721884D03*
D10*
X184864388Y-60721884D03*
%TD*%
%TO.C,MX27*%
X253285638Y-41671884D03*
D11*
X258365638Y-41671884D03*
D10*
X263445638Y-41671884D03*
%TD*%
%TO.C,MX18*%
X88979388Y-41671884D03*
D11*
X94059388Y-41671884D03*
D10*
X99139388Y-41671884D03*
%TD*%
%TO.C,MX17*%
X69929388Y-41671884D03*
D11*
X75009388Y-41671884D03*
D10*
X80089388Y-41671884D03*
%TD*%
%TO.C,MX31*%
X41354388Y-60721884D03*
D11*
X46434388Y-60721884D03*
D10*
X51514388Y-60721884D03*
%TD*%
%TO.C,MX19*%
X108029388Y-41671884D03*
D11*
X113109388Y-41671884D03*
D10*
X118189388Y-41671884D03*
%TD*%
%TO.C,MX3*%
X65166888Y-22621884D03*
D11*
X70246888Y-22621884D03*
D10*
X75326888Y-22621884D03*
%TD*%
%TO.C,MX39*%
X193754388Y-60721884D03*
D11*
X198834388Y-60721884D03*
D10*
X203914388Y-60721884D03*
%TD*%
%TO.C,MX6*%
X122316888Y-22621884D03*
D11*
X127396888Y-22621884D03*
D10*
X132476888Y-22621884D03*
%TD*%
%TO.C,MX13*%
X260429388Y-22621884D03*
D11*
X265509388Y-22621884D03*
D10*
X270589388Y-22621884D03*
%TD*%
D11*
%TO.C,S6*%
X175021888Y-71516884D03*
X151209388Y-71516884D03*
%TD*%
D10*
%TO.C,MX53*%
X236616888Y-79771884D03*
D11*
X241696888Y-79771884D03*
D10*
X246776888Y-79771884D03*
%TD*%
%TO.C,MX21*%
X146129388Y-41671884D03*
D11*
X151209388Y-41671884D03*
D10*
X156289388Y-41671884D03*
%TD*%
%TO.C,MX28*%
X267890638Y-37226884D03*
D11*
X267890638Y-32146884D03*
D10*
X267890638Y-27066884D03*
%TD*%
%TO.C,MX5*%
X103266888Y-22621884D03*
D11*
X108346888Y-22621884D03*
D10*
X113426888Y-22621884D03*
%TD*%
%TO.C,MX33*%
X79454388Y-60721884D03*
D11*
X84534388Y-60721884D03*
D10*
X89614388Y-60721884D03*
%TD*%
%TO.C,MX35*%
X117554388Y-60721884D03*
D11*
X122634388Y-60721884D03*
D10*
X127714388Y-60721884D03*
%TD*%
%TO.C,MX25*%
X222329388Y-41671884D03*
D11*
X227409388Y-41671884D03*
D10*
X232489388Y-41671884D03*
%TD*%
D11*
%TO.C,S3*%
X259635638Y-20240634D03*
X259635638Y-44053134D03*
%TD*%
D10*
%TO.C,MX2*%
X46116888Y-22621884D03*
D11*
X51196888Y-22621884D03*
D10*
X56276888Y-22621884D03*
%TD*%
D11*
%TO.C,S1*%
X270271888Y-33416884D03*
X246459388Y-33416884D03*
%TD*%
D10*
%TO.C,MX43*%
X41354388Y-79771884D03*
D11*
X46434388Y-79771884D03*
D10*
X51514388Y-79771884D03*
%TD*%
%TO.C,MX48*%
X138985638Y-79771884D03*
D11*
X144065638Y-79771884D03*
D10*
X149145638Y-79771884D03*
%TD*%
D11*
%TO.C,S4*%
X194071888Y-71516884D03*
X94059388Y-71516884D03*
%TD*%
D10*
%TO.C,MX42*%
X258048138Y-60721884D03*
D11*
X263128138Y-60721884D03*
D10*
X268208138Y-60721884D03*
%TD*%
%TO.C,MX24*%
X203279388Y-41671884D03*
D11*
X208359388Y-41671884D03*
D10*
X213439388Y-41671884D03*
%TD*%
%TO.C,MX12*%
X236616888Y-22621884D03*
D11*
X241696888Y-22621884D03*
D10*
X246776888Y-22621884D03*
%TD*%
D12*
%TO.C,J2*%
X15478138Y-60245634D03*
D13*
X15478138Y-62785634D03*
X15478138Y-65325634D03*
X15478138Y-67865634D03*
%TD*%
M02*
