%TF.GenerationSoftware,KiCad,Pcbnew,8.0.4*%
%TF.CreationDate,2024-08-28T19:47:30+05:30*%
%TF.ProjectId,kalam,6b616c61-6d2e-46b6-9963-61645f706362,rev?*%
%TF.SameCoordinates,Original*%
%TF.FileFunction,Legend,Top*%
%TF.FilePolarity,Positive*%
%FSLAX46Y46*%
G04 Gerber Fmt 4.6, Leading zero omitted, Abs format (unit mm)*
G04 Created by KiCad (PCBNEW 8.0.4) date 2024-08-28 19:47:30*
%MOMM*%
%LPD*%
G01*
G04 APERTURE LIST*
%ADD10C,0.150000*%
%ADD11C,1.750000*%
%ADD12C,3.987800*%
%ADD13R,1.700000X1.700000*%
%ADD14O,1.700000X1.700000*%
G04 APERTURE END LIST*
D10*
X282376552Y-52982788D02*
X282376552Y-56157788D01*
X282376552Y-52982788D02*
X279201552Y-52982788D01*
X251376659Y-44281747D02*
X251709992Y-44281747D01*
X251787373Y-44805557D02*
X251311182Y-44805557D01*
X251311182Y-44805557D02*
X251436182Y-43805557D01*
X251436182Y-43805557D02*
X251912373Y-43805557D01*
X252299278Y-44138890D02*
X252215944Y-44805557D01*
X252287373Y-44234128D02*
X252340944Y-44186509D01*
X252340944Y-44186509D02*
X252442135Y-44138890D01*
X252442135Y-44138890D02*
X252584992Y-44138890D01*
X252584992Y-44138890D02*
X252674278Y-44186509D01*
X252674278Y-44186509D02*
X252709992Y-44281747D01*
X252709992Y-44281747D02*
X252644516Y-44805557D01*
X253061183Y-44138890D02*
X253442135Y-44138890D01*
X253245706Y-43805557D02*
X253138564Y-44662699D01*
X253138564Y-44662699D02*
X253174278Y-44757938D01*
X253174278Y-44757938D02*
X253263564Y-44805557D01*
X253263564Y-44805557D02*
X253358802Y-44805557D01*
X254079040Y-44757938D02*
X253977850Y-44805557D01*
X253977850Y-44805557D02*
X253787373Y-44805557D01*
X253787373Y-44805557D02*
X253698088Y-44757938D01*
X253698088Y-44757938D02*
X253662373Y-44662699D01*
X253662373Y-44662699D02*
X253709993Y-44281747D01*
X253709993Y-44281747D02*
X253769516Y-44186509D01*
X253769516Y-44186509D02*
X253870707Y-44138890D01*
X253870707Y-44138890D02*
X254061183Y-44138890D01*
X254061183Y-44138890D02*
X254150469Y-44186509D01*
X254150469Y-44186509D02*
X254186183Y-44281747D01*
X254186183Y-44281747D02*
X254174278Y-44376985D01*
X254174278Y-44376985D02*
X253686183Y-44472223D01*
X254549278Y-44805557D02*
X254632612Y-44138890D01*
X254608802Y-44329366D02*
X254668326Y-44234128D01*
X254668326Y-44234128D02*
X254721897Y-44186509D01*
X254721897Y-44186509D02*
X254823088Y-44138890D01*
X254823088Y-44138890D02*
X254918326Y-44138890D01*
X141422683Y-82758738D02*
X141559587Y-82806357D01*
X141559587Y-82806357D02*
X141797683Y-82806357D01*
X141797683Y-82806357D02*
X141898873Y-82758738D01*
X141898873Y-82758738D02*
X141952445Y-82711118D01*
X141952445Y-82711118D02*
X142011968Y-82615880D01*
X142011968Y-82615880D02*
X142023873Y-82520642D01*
X142023873Y-82520642D02*
X141988159Y-82425404D01*
X141988159Y-82425404D02*
X141946492Y-82377785D01*
X141946492Y-82377785D02*
X141857207Y-82330166D01*
X141857207Y-82330166D02*
X141672683Y-82282547D01*
X141672683Y-82282547D02*
X141583397Y-82234928D01*
X141583397Y-82234928D02*
X141541730Y-82187309D01*
X141541730Y-82187309D02*
X141506016Y-82092071D01*
X141506016Y-82092071D02*
X141517921Y-81996833D01*
X141517921Y-81996833D02*
X141577445Y-81901595D01*
X141577445Y-81901595D02*
X141631016Y-81853976D01*
X141631016Y-81853976D02*
X141732207Y-81806357D01*
X141732207Y-81806357D02*
X141970302Y-81806357D01*
X141970302Y-81806357D02*
X142107207Y-81853976D01*
X142500064Y-82139690D02*
X142375064Y-83139690D01*
X142494111Y-82187309D02*
X142595302Y-82139690D01*
X142595302Y-82139690D02*
X142785778Y-82139690D01*
X142785778Y-82139690D02*
X142875064Y-82187309D01*
X142875064Y-82187309D02*
X142916730Y-82234928D01*
X142916730Y-82234928D02*
X142952445Y-82330166D01*
X142952445Y-82330166D02*
X142916730Y-82615880D01*
X142916730Y-82615880D02*
X142857207Y-82711118D01*
X142857207Y-82711118D02*
X142803635Y-82758738D01*
X142803635Y-82758738D02*
X142702445Y-82806357D01*
X142702445Y-82806357D02*
X142511968Y-82806357D01*
X142511968Y-82806357D02*
X142422683Y-82758738D01*
X143750064Y-82806357D02*
X143815540Y-82282547D01*
X143815540Y-82282547D02*
X143779826Y-82187309D01*
X143779826Y-82187309D02*
X143690540Y-82139690D01*
X143690540Y-82139690D02*
X143500064Y-82139690D01*
X143500064Y-82139690D02*
X143398873Y-82187309D01*
X143756016Y-82758738D02*
X143654826Y-82806357D01*
X143654826Y-82806357D02*
X143416730Y-82806357D01*
X143416730Y-82806357D02*
X143327445Y-82758738D01*
X143327445Y-82758738D02*
X143291730Y-82663499D01*
X143291730Y-82663499D02*
X143303635Y-82568261D01*
X143303635Y-82568261D02*
X143363159Y-82473023D01*
X143363159Y-82473023D02*
X143464350Y-82425404D01*
X143464350Y-82425404D02*
X143702445Y-82425404D01*
X143702445Y-82425404D02*
X143803635Y-82377785D01*
X144660778Y-82758738D02*
X144559588Y-82806357D01*
X144559588Y-82806357D02*
X144369112Y-82806357D01*
X144369112Y-82806357D02*
X144279826Y-82758738D01*
X144279826Y-82758738D02*
X144238159Y-82711118D01*
X144238159Y-82711118D02*
X144202445Y-82615880D01*
X144202445Y-82615880D02*
X144238159Y-82330166D01*
X144238159Y-82330166D02*
X144297683Y-82234928D01*
X144297683Y-82234928D02*
X144351254Y-82187309D01*
X144351254Y-82187309D02*
X144452445Y-82139690D01*
X144452445Y-82139690D02*
X144642921Y-82139690D01*
X144642921Y-82139690D02*
X144732207Y-82187309D01*
X145470302Y-82758738D02*
X145369112Y-82806357D01*
X145369112Y-82806357D02*
X145178635Y-82806357D01*
X145178635Y-82806357D02*
X145089350Y-82758738D01*
X145089350Y-82758738D02*
X145053635Y-82663499D01*
X145053635Y-82663499D02*
X145101255Y-82282547D01*
X145101255Y-82282547D02*
X145160778Y-82187309D01*
X145160778Y-82187309D02*
X145261969Y-82139690D01*
X145261969Y-82139690D02*
X145452445Y-82139690D01*
X145452445Y-82139690D02*
X145541731Y-82187309D01*
X145541731Y-82187309D02*
X145577445Y-82282547D01*
X145577445Y-82282547D02*
X145565540Y-82377785D01*
X145565540Y-82377785D02*
X145077445Y-82473023D01*
X68740801Y-82905525D02*
X68264610Y-82905525D01*
X68264610Y-82905525D02*
X68389610Y-81905525D01*
X69086039Y-82810286D02*
X69127706Y-82857906D01*
X69127706Y-82857906D02*
X69074134Y-82905525D01*
X69074134Y-82905525D02*
X69032468Y-82857906D01*
X69032468Y-82857906D02*
X69086039Y-82810286D01*
X69086039Y-82810286D02*
X69074134Y-82905525D01*
X69538420Y-82619810D02*
X70014610Y-82619810D01*
X69407467Y-82905525D02*
X69865801Y-81905525D01*
X69865801Y-81905525D02*
X70074134Y-82905525D01*
X70550325Y-82905525D02*
X70461039Y-82857906D01*
X70461039Y-82857906D02*
X70425325Y-82762667D01*
X70425325Y-82762667D02*
X70532467Y-81905525D01*
X70871754Y-82238858D02*
X71252706Y-82238858D01*
X71056277Y-81905525D02*
X70949135Y-82762667D01*
X70949135Y-82762667D02*
X70984849Y-82857906D01*
X70984849Y-82857906D02*
X71074135Y-82905525D01*
X71074135Y-82905525D02*
X71169373Y-82905525D01*
X216378177Y-82905525D02*
X216104367Y-82429334D01*
X215806748Y-82905525D02*
X215931748Y-81905525D01*
X215931748Y-81905525D02*
X216312701Y-81905525D01*
X216312701Y-81905525D02*
X216401986Y-81953144D01*
X216401986Y-81953144D02*
X216443653Y-82000763D01*
X216443653Y-82000763D02*
X216479367Y-82096001D01*
X216479367Y-82096001D02*
X216461510Y-82238858D01*
X216461510Y-82238858D02*
X216401986Y-82334096D01*
X216401986Y-82334096D02*
X216348415Y-82381715D01*
X216348415Y-82381715D02*
X216247225Y-82429334D01*
X216247225Y-82429334D02*
X215866272Y-82429334D01*
X216818653Y-82810286D02*
X216860320Y-82857906D01*
X216860320Y-82857906D02*
X216806748Y-82905525D01*
X216806748Y-82905525D02*
X216765082Y-82857906D01*
X216765082Y-82857906D02*
X216818653Y-82810286D01*
X216818653Y-82810286D02*
X216806748Y-82905525D01*
X217271034Y-82619810D02*
X217747224Y-82619810D01*
X217140081Y-82905525D02*
X217598415Y-81905525D01*
X217598415Y-81905525D02*
X217806748Y-82905525D01*
X218282939Y-82905525D02*
X218193653Y-82857906D01*
X218193653Y-82857906D02*
X218157939Y-82762667D01*
X218157939Y-82762667D02*
X218265081Y-81905525D01*
X218604368Y-82238858D02*
X218985320Y-82238858D01*
X218788891Y-81905525D02*
X218681749Y-82762667D01*
X218681749Y-82762667D02*
X218717463Y-82857906D01*
X218717463Y-82857906D02*
X218806749Y-82905525D01*
X218806749Y-82905525D02*
X218901987Y-82905525D01*
X237047503Y-63557901D02*
X236773693Y-63081710D01*
X236476074Y-63557901D02*
X236601074Y-62557901D01*
X236601074Y-62557901D02*
X236982027Y-62557901D01*
X236982027Y-62557901D02*
X237071312Y-62605520D01*
X237071312Y-62605520D02*
X237112979Y-62653139D01*
X237112979Y-62653139D02*
X237148693Y-62748377D01*
X237148693Y-62748377D02*
X237130836Y-62891234D01*
X237130836Y-62891234D02*
X237071312Y-62986472D01*
X237071312Y-62986472D02*
X237017741Y-63034091D01*
X237017741Y-63034091D02*
X236916551Y-63081710D01*
X236916551Y-63081710D02*
X236535598Y-63081710D01*
X237487979Y-63462662D02*
X237529646Y-63510282D01*
X237529646Y-63510282D02*
X237476074Y-63557901D01*
X237476074Y-63557901D02*
X237434408Y-63510282D01*
X237434408Y-63510282D02*
X237487979Y-63462662D01*
X237487979Y-63462662D02*
X237476074Y-63557901D01*
X237910598Y-63510282D02*
X238047502Y-63557901D01*
X238047502Y-63557901D02*
X238285598Y-63557901D01*
X238285598Y-63557901D02*
X238386788Y-63510282D01*
X238386788Y-63510282D02*
X238440360Y-63462662D01*
X238440360Y-63462662D02*
X238499883Y-63367424D01*
X238499883Y-63367424D02*
X238511788Y-63272186D01*
X238511788Y-63272186D02*
X238476074Y-63176948D01*
X238476074Y-63176948D02*
X238434407Y-63129329D01*
X238434407Y-63129329D02*
X238345122Y-63081710D01*
X238345122Y-63081710D02*
X238160598Y-63034091D01*
X238160598Y-63034091D02*
X238071312Y-62986472D01*
X238071312Y-62986472D02*
X238029645Y-62938853D01*
X238029645Y-62938853D02*
X237993931Y-62843615D01*
X237993931Y-62843615D02*
X238005836Y-62748377D01*
X238005836Y-62748377D02*
X238065360Y-62653139D01*
X238065360Y-62653139D02*
X238118931Y-62605520D01*
X238118931Y-62605520D02*
X238220122Y-62557901D01*
X238220122Y-62557901D02*
X238458217Y-62557901D01*
X238458217Y-62557901D02*
X238595122Y-62605520D01*
X238904645Y-63557901D02*
X239029645Y-62557901D01*
X239333217Y-63557901D02*
X239398693Y-63034091D01*
X239398693Y-63034091D02*
X239362979Y-62938853D01*
X239362979Y-62938853D02*
X239273693Y-62891234D01*
X239273693Y-62891234D02*
X239130836Y-62891234D01*
X239130836Y-62891234D02*
X239029645Y-62938853D01*
X239029645Y-62938853D02*
X238976074Y-62986472D01*
X239809407Y-63557901D02*
X239892741Y-62891234D01*
X239934407Y-62557901D02*
X239880836Y-62605520D01*
X239880836Y-62605520D02*
X239922503Y-62653139D01*
X239922503Y-62653139D02*
X239976074Y-62605520D01*
X239976074Y-62605520D02*
X239934407Y-62557901D01*
X239934407Y-62557901D02*
X239922503Y-62653139D01*
X240226074Y-62891234D02*
X240607026Y-62891234D01*
X240285597Y-63557901D02*
X240392740Y-62700758D01*
X240392740Y-62700758D02*
X240452264Y-62605520D01*
X240452264Y-62605520D02*
X240553455Y-62557901D01*
X240553455Y-62557901D02*
X240648693Y-62557901D01*
X240797503Y-62891234D02*
X241178455Y-62891234D01*
X240982026Y-62557901D02*
X240874884Y-63415043D01*
X240874884Y-63415043D02*
X240910598Y-63510282D01*
X240910598Y-63510282D02*
X240999884Y-63557901D01*
X240999884Y-63557901D02*
X241095122Y-63557901D01*
X32260175Y-63557901D02*
X31783984Y-63557901D01*
X31783984Y-63557901D02*
X31908984Y-62557901D01*
X32605413Y-63462662D02*
X32647080Y-63510282D01*
X32647080Y-63510282D02*
X32593508Y-63557901D01*
X32593508Y-63557901D02*
X32551842Y-63510282D01*
X32551842Y-63510282D02*
X32605413Y-63462662D01*
X32605413Y-63462662D02*
X32593508Y-63557901D01*
X33028032Y-63510282D02*
X33164936Y-63557901D01*
X33164936Y-63557901D02*
X33403032Y-63557901D01*
X33403032Y-63557901D02*
X33504222Y-63510282D01*
X33504222Y-63510282D02*
X33557794Y-63462662D01*
X33557794Y-63462662D02*
X33617317Y-63367424D01*
X33617317Y-63367424D02*
X33629222Y-63272186D01*
X33629222Y-63272186D02*
X33593508Y-63176948D01*
X33593508Y-63176948D02*
X33551841Y-63129329D01*
X33551841Y-63129329D02*
X33462556Y-63081710D01*
X33462556Y-63081710D02*
X33278032Y-63034091D01*
X33278032Y-63034091D02*
X33188746Y-62986472D01*
X33188746Y-62986472D02*
X33147079Y-62938853D01*
X33147079Y-62938853D02*
X33111365Y-62843615D01*
X33111365Y-62843615D02*
X33123270Y-62748377D01*
X33123270Y-62748377D02*
X33182794Y-62653139D01*
X33182794Y-62653139D02*
X33236365Y-62605520D01*
X33236365Y-62605520D02*
X33337556Y-62557901D01*
X33337556Y-62557901D02*
X33575651Y-62557901D01*
X33575651Y-62557901D02*
X33712556Y-62605520D01*
X34022079Y-63557901D02*
X34147079Y-62557901D01*
X34450651Y-63557901D02*
X34516127Y-63034091D01*
X34516127Y-63034091D02*
X34480413Y-62938853D01*
X34480413Y-62938853D02*
X34391127Y-62891234D01*
X34391127Y-62891234D02*
X34248270Y-62891234D01*
X34248270Y-62891234D02*
X34147079Y-62938853D01*
X34147079Y-62938853D02*
X34093508Y-62986472D01*
X34926841Y-63557901D02*
X35010175Y-62891234D01*
X35051841Y-62557901D02*
X34998270Y-62605520D01*
X34998270Y-62605520D02*
X35039937Y-62653139D01*
X35039937Y-62653139D02*
X35093508Y-62605520D01*
X35093508Y-62605520D02*
X35051841Y-62557901D01*
X35051841Y-62557901D02*
X35039937Y-62653139D01*
X35343508Y-62891234D02*
X35724460Y-62891234D01*
X35403031Y-63557901D02*
X35510174Y-62700758D01*
X35510174Y-62700758D02*
X35569698Y-62605520D01*
X35569698Y-62605520D02*
X35670889Y-62557901D01*
X35670889Y-62557901D02*
X35766127Y-62557901D01*
X35914937Y-62891234D02*
X36295889Y-62891234D01*
X36099460Y-62557901D02*
X35992318Y-63415043D01*
X35992318Y-63415043D02*
X36028032Y-63510282D01*
X36028032Y-63510282D02*
X36117318Y-63557901D01*
X36117318Y-63557901D02*
X36212556Y-63557901D01*
X43785464Y-82607869D02*
X43309273Y-82607869D01*
X43309273Y-82607869D02*
X43434273Y-81607869D01*
X44130702Y-82512630D02*
X44172369Y-82560250D01*
X44172369Y-82560250D02*
X44118797Y-82607869D01*
X44118797Y-82607869D02*
X44077131Y-82560250D01*
X44077131Y-82560250D02*
X44130702Y-82512630D01*
X44130702Y-82512630D02*
X44118797Y-82607869D01*
X44553321Y-82560250D02*
X44690225Y-82607869D01*
X44690225Y-82607869D02*
X44928321Y-82607869D01*
X44928321Y-82607869D02*
X45029511Y-82560250D01*
X45029511Y-82560250D02*
X45083083Y-82512630D01*
X45083083Y-82512630D02*
X45142606Y-82417392D01*
X45142606Y-82417392D02*
X45154511Y-82322154D01*
X45154511Y-82322154D02*
X45118797Y-82226916D01*
X45118797Y-82226916D02*
X45077130Y-82179297D01*
X45077130Y-82179297D02*
X44987845Y-82131678D01*
X44987845Y-82131678D02*
X44803321Y-82084059D01*
X44803321Y-82084059D02*
X44714035Y-82036440D01*
X44714035Y-82036440D02*
X44672368Y-81988821D01*
X44672368Y-81988821D02*
X44636654Y-81893583D01*
X44636654Y-81893583D02*
X44648559Y-81798345D01*
X44648559Y-81798345D02*
X44708083Y-81703107D01*
X44708083Y-81703107D02*
X44761654Y-81655488D01*
X44761654Y-81655488D02*
X44862845Y-81607869D01*
X44862845Y-81607869D02*
X45100940Y-81607869D01*
X45100940Y-81607869D02*
X45237845Y-81655488D01*
X46059273Y-81941202D02*
X45975940Y-82607869D01*
X45630702Y-81941202D02*
X45565226Y-82465011D01*
X45565226Y-82465011D02*
X45600940Y-82560250D01*
X45600940Y-82560250D02*
X45690226Y-82607869D01*
X45690226Y-82607869D02*
X45833083Y-82607869D01*
X45833083Y-82607869D02*
X45934273Y-82560250D01*
X45934273Y-82560250D02*
X45987845Y-82512630D01*
X46535464Y-81941202D02*
X46410464Y-82941202D01*
X46529511Y-81988821D02*
X46630702Y-81941202D01*
X46630702Y-81941202D02*
X46821178Y-81941202D01*
X46821178Y-81941202D02*
X46910464Y-81988821D01*
X46910464Y-81988821D02*
X46952130Y-82036440D01*
X46952130Y-82036440D02*
X46987845Y-82131678D01*
X46987845Y-82131678D02*
X46952130Y-82417392D01*
X46952130Y-82417392D02*
X46892607Y-82512630D01*
X46892607Y-82512630D02*
X46839035Y-82560250D01*
X46839035Y-82560250D02*
X46737845Y-82607869D01*
X46737845Y-82607869D02*
X46547368Y-82607869D01*
X46547368Y-82607869D02*
X46458083Y-82560250D01*
X47743797Y-82560250D02*
X47642607Y-82607869D01*
X47642607Y-82607869D02*
X47452130Y-82607869D01*
X47452130Y-82607869D02*
X47362845Y-82560250D01*
X47362845Y-82560250D02*
X47327130Y-82465011D01*
X47327130Y-82465011D02*
X47374750Y-82084059D01*
X47374750Y-82084059D02*
X47434273Y-81988821D01*
X47434273Y-81988821D02*
X47535464Y-81941202D01*
X47535464Y-81941202D02*
X47725940Y-81941202D01*
X47725940Y-81941202D02*
X47815226Y-81988821D01*
X47815226Y-81988821D02*
X47850940Y-82084059D01*
X47850940Y-82084059D02*
X47839035Y-82179297D01*
X47839035Y-82179297D02*
X47350940Y-82274535D01*
X48214035Y-82607869D02*
X48297369Y-81941202D01*
X48273559Y-82131678D02*
X48333083Y-82036440D01*
X48333083Y-82036440D02*
X48386654Y-81988821D01*
X48386654Y-81988821D02*
X48487845Y-81941202D01*
X48487845Y-81941202D02*
X48583083Y-81941202D01*
X259901354Y-63034091D02*
X259568021Y-63034091D01*
X259502544Y-63557901D02*
X259627544Y-62557901D01*
X259627544Y-62557901D02*
X260103735Y-62557901D01*
X260443021Y-62891234D02*
X260359687Y-63557901D01*
X260431116Y-62986472D02*
X260484687Y-62938853D01*
X260484687Y-62938853D02*
X260585878Y-62891234D01*
X260585878Y-62891234D02*
X260728735Y-62891234D01*
X260728735Y-62891234D02*
X260818021Y-62938853D01*
X260818021Y-62938853D02*
X260853735Y-63034091D01*
X260853735Y-63034091D02*
X260788259Y-63557901D01*
X25717621Y-24457933D02*
X26289050Y-24457933D01*
X25878336Y-25457933D02*
X26003336Y-24457933D01*
X26925955Y-25457933D02*
X26991431Y-24934123D01*
X26991431Y-24934123D02*
X26955717Y-24838885D01*
X26955717Y-24838885D02*
X26866431Y-24791266D01*
X26866431Y-24791266D02*
X26675955Y-24791266D01*
X26675955Y-24791266D02*
X26574764Y-24838885D01*
X26931907Y-25410314D02*
X26830717Y-25457933D01*
X26830717Y-25457933D02*
X26592621Y-25457933D01*
X26592621Y-25457933D02*
X26503336Y-25410314D01*
X26503336Y-25410314D02*
X26467621Y-25315075D01*
X26467621Y-25315075D02*
X26479526Y-25219837D01*
X26479526Y-25219837D02*
X26539050Y-25124599D01*
X26539050Y-25124599D02*
X26640241Y-25076980D01*
X26640241Y-25076980D02*
X26878336Y-25076980D01*
X26878336Y-25076980D02*
X26979526Y-25029361D01*
X27402145Y-25457933D02*
X27527145Y-24457933D01*
X27479526Y-24838885D02*
X27580717Y-24791266D01*
X27580717Y-24791266D02*
X27771193Y-24791266D01*
X27771193Y-24791266D02*
X27860479Y-24838885D01*
X27860479Y-24838885D02*
X27902145Y-24886504D01*
X27902145Y-24886504D02*
X27937860Y-24981742D01*
X27937860Y-24981742D02*
X27902145Y-25267456D01*
X27902145Y-25267456D02*
X27842622Y-25362694D01*
X27842622Y-25362694D02*
X27789050Y-25410314D01*
X27789050Y-25410314D02*
X27687860Y-25457933D01*
X27687860Y-25457933D02*
X27497383Y-25457933D01*
X27497383Y-25457933D02*
X27408098Y-25410314D01*
X23723575Y-44412678D02*
X23670003Y-44460298D01*
X23670003Y-44460298D02*
X23521194Y-44507917D01*
X23521194Y-44507917D02*
X23425956Y-44507917D01*
X23425956Y-44507917D02*
X23289051Y-44460298D01*
X23289051Y-44460298D02*
X23205718Y-44365059D01*
X23205718Y-44365059D02*
X23170003Y-44269821D01*
X23170003Y-44269821D02*
X23146194Y-44079345D01*
X23146194Y-44079345D02*
X23164051Y-43936488D01*
X23164051Y-43936488D02*
X23235479Y-43746012D01*
X23235479Y-43746012D02*
X23295003Y-43650774D01*
X23295003Y-43650774D02*
X23402146Y-43555536D01*
X23402146Y-43555536D02*
X23550956Y-43507917D01*
X23550956Y-43507917D02*
X23646194Y-43507917D01*
X23646194Y-43507917D02*
X23783099Y-43555536D01*
X23783099Y-43555536D02*
X23824765Y-43603155D01*
X24568813Y-44507917D02*
X24634289Y-43984107D01*
X24634289Y-43984107D02*
X24598575Y-43888869D01*
X24598575Y-43888869D02*
X24509289Y-43841250D01*
X24509289Y-43841250D02*
X24318813Y-43841250D01*
X24318813Y-43841250D02*
X24217622Y-43888869D01*
X24574765Y-44460298D02*
X24473575Y-44507917D01*
X24473575Y-44507917D02*
X24235479Y-44507917D01*
X24235479Y-44507917D02*
X24146194Y-44460298D01*
X24146194Y-44460298D02*
X24110479Y-44365059D01*
X24110479Y-44365059D02*
X24122384Y-44269821D01*
X24122384Y-44269821D02*
X24181908Y-44174583D01*
X24181908Y-44174583D02*
X24283099Y-44126964D01*
X24283099Y-44126964D02*
X24521194Y-44126964D01*
X24521194Y-44126964D02*
X24622384Y-44079345D01*
X25128337Y-43841250D02*
X25003337Y-44841250D01*
X25122384Y-43888869D02*
X25223575Y-43841250D01*
X25223575Y-43841250D02*
X25414051Y-43841250D01*
X25414051Y-43841250D02*
X25503337Y-43888869D01*
X25503337Y-43888869D02*
X25545003Y-43936488D01*
X25545003Y-43936488D02*
X25580718Y-44031726D01*
X25580718Y-44031726D02*
X25545003Y-44317440D01*
X25545003Y-44317440D02*
X25485480Y-44412678D01*
X25485480Y-44412678D02*
X25431908Y-44460298D01*
X25431908Y-44460298D02*
X25330718Y-44507917D01*
X25330718Y-44507917D02*
X25140241Y-44507917D01*
X25140241Y-44507917D02*
X25050956Y-44460298D01*
X25908099Y-44460298D02*
X25997384Y-44507917D01*
X25997384Y-44507917D02*
X26187861Y-44507917D01*
X26187861Y-44507917D02*
X26289051Y-44460298D01*
X26289051Y-44460298D02*
X26348575Y-44365059D01*
X26348575Y-44365059D02*
X26354527Y-44317440D01*
X26354527Y-44317440D02*
X26318813Y-44222202D01*
X26318813Y-44222202D02*
X26229527Y-44174583D01*
X26229527Y-44174583D02*
X26086670Y-44174583D01*
X26086670Y-44174583D02*
X25997384Y-44126964D01*
X25997384Y-44126964D02*
X25961670Y-44031726D01*
X25961670Y-44031726D02*
X25967623Y-43984107D01*
X25967623Y-43984107D02*
X26027146Y-43888869D01*
X26027146Y-43888869D02*
X26128337Y-43841250D01*
X26128337Y-43841250D02*
X26271194Y-43841250D01*
X26271194Y-43841250D02*
X26360480Y-43888869D01*
X27997385Y-44507917D02*
X27521194Y-44507917D01*
X27521194Y-44507917D02*
X27646194Y-43507917D01*
X28473576Y-44507917D02*
X28384290Y-44460298D01*
X28384290Y-44460298D02*
X28342623Y-44412678D01*
X28342623Y-44412678D02*
X28306909Y-44317440D01*
X28306909Y-44317440D02*
X28342623Y-44031726D01*
X28342623Y-44031726D02*
X28402147Y-43936488D01*
X28402147Y-43936488D02*
X28455718Y-43888869D01*
X28455718Y-43888869D02*
X28556909Y-43841250D01*
X28556909Y-43841250D02*
X28699766Y-43841250D01*
X28699766Y-43841250D02*
X28789052Y-43888869D01*
X28789052Y-43888869D02*
X28830718Y-43936488D01*
X28830718Y-43936488D02*
X28866433Y-44031726D01*
X28866433Y-44031726D02*
X28830718Y-44317440D01*
X28830718Y-44317440D02*
X28771195Y-44412678D01*
X28771195Y-44412678D02*
X28717623Y-44460298D01*
X28717623Y-44460298D02*
X28616433Y-44507917D01*
X28616433Y-44507917D02*
X28473576Y-44507917D01*
X29670004Y-44460298D02*
X29568814Y-44507917D01*
X29568814Y-44507917D02*
X29378338Y-44507917D01*
X29378338Y-44507917D02*
X29289052Y-44460298D01*
X29289052Y-44460298D02*
X29247385Y-44412678D01*
X29247385Y-44412678D02*
X29211671Y-44317440D01*
X29211671Y-44317440D02*
X29247385Y-44031726D01*
X29247385Y-44031726D02*
X29306909Y-43936488D01*
X29306909Y-43936488D02*
X29360480Y-43888869D01*
X29360480Y-43888869D02*
X29461671Y-43841250D01*
X29461671Y-43841250D02*
X29652147Y-43841250D01*
X29652147Y-43841250D02*
X29741433Y-43888869D01*
X30092623Y-44507917D02*
X30217623Y-43507917D01*
X30235481Y-44126964D02*
X30473576Y-44507917D01*
X30556909Y-43841250D02*
X30128338Y-44222202D01*
X239047800Y-82607869D02*
X238773990Y-82131678D01*
X238476371Y-82607869D02*
X238601371Y-81607869D01*
X238601371Y-81607869D02*
X238982324Y-81607869D01*
X238982324Y-81607869D02*
X239071609Y-81655488D01*
X239071609Y-81655488D02*
X239113276Y-81703107D01*
X239113276Y-81703107D02*
X239148990Y-81798345D01*
X239148990Y-81798345D02*
X239131133Y-81941202D01*
X239131133Y-81941202D02*
X239071609Y-82036440D01*
X239071609Y-82036440D02*
X239018038Y-82084059D01*
X239018038Y-82084059D02*
X238916848Y-82131678D01*
X238916848Y-82131678D02*
X238535895Y-82131678D01*
X239488276Y-82512630D02*
X239529943Y-82560250D01*
X239529943Y-82560250D02*
X239476371Y-82607869D01*
X239476371Y-82607869D02*
X239434705Y-82560250D01*
X239434705Y-82560250D02*
X239488276Y-82512630D01*
X239488276Y-82512630D02*
X239476371Y-82607869D01*
X239910895Y-82560250D02*
X240047799Y-82607869D01*
X240047799Y-82607869D02*
X240285895Y-82607869D01*
X240285895Y-82607869D02*
X240387085Y-82560250D01*
X240387085Y-82560250D02*
X240440657Y-82512630D01*
X240440657Y-82512630D02*
X240500180Y-82417392D01*
X240500180Y-82417392D02*
X240512085Y-82322154D01*
X240512085Y-82322154D02*
X240476371Y-82226916D01*
X240476371Y-82226916D02*
X240434704Y-82179297D01*
X240434704Y-82179297D02*
X240345419Y-82131678D01*
X240345419Y-82131678D02*
X240160895Y-82084059D01*
X240160895Y-82084059D02*
X240071609Y-82036440D01*
X240071609Y-82036440D02*
X240029942Y-81988821D01*
X240029942Y-81988821D02*
X239994228Y-81893583D01*
X239994228Y-81893583D02*
X240006133Y-81798345D01*
X240006133Y-81798345D02*
X240065657Y-81703107D01*
X240065657Y-81703107D02*
X240119228Y-81655488D01*
X240119228Y-81655488D02*
X240220419Y-81607869D01*
X240220419Y-81607869D02*
X240458514Y-81607869D01*
X240458514Y-81607869D02*
X240595419Y-81655488D01*
X241416847Y-81941202D02*
X241333514Y-82607869D01*
X240988276Y-81941202D02*
X240922800Y-82465011D01*
X240922800Y-82465011D02*
X240958514Y-82560250D01*
X240958514Y-82560250D02*
X241047800Y-82607869D01*
X241047800Y-82607869D02*
X241190657Y-82607869D01*
X241190657Y-82607869D02*
X241291847Y-82560250D01*
X241291847Y-82560250D02*
X241345419Y-82512630D01*
X241893038Y-81941202D02*
X241768038Y-82941202D01*
X241887085Y-81988821D02*
X241988276Y-81941202D01*
X241988276Y-81941202D02*
X242178752Y-81941202D01*
X242178752Y-81941202D02*
X242268038Y-81988821D01*
X242268038Y-81988821D02*
X242309704Y-82036440D01*
X242309704Y-82036440D02*
X242345419Y-82131678D01*
X242345419Y-82131678D02*
X242309704Y-82417392D01*
X242309704Y-82417392D02*
X242250181Y-82512630D01*
X242250181Y-82512630D02*
X242196609Y-82560250D01*
X242196609Y-82560250D02*
X242095419Y-82607869D01*
X242095419Y-82607869D02*
X241904942Y-82607869D01*
X241904942Y-82607869D02*
X241815657Y-82560250D01*
X243101371Y-82560250D02*
X243000181Y-82607869D01*
X243000181Y-82607869D02*
X242809704Y-82607869D01*
X242809704Y-82607869D02*
X242720419Y-82560250D01*
X242720419Y-82560250D02*
X242684704Y-82465011D01*
X242684704Y-82465011D02*
X242732324Y-82084059D01*
X242732324Y-82084059D02*
X242791847Y-81988821D01*
X242791847Y-81988821D02*
X242893038Y-81941202D01*
X242893038Y-81941202D02*
X243083514Y-81941202D01*
X243083514Y-81941202D02*
X243172800Y-81988821D01*
X243172800Y-81988821D02*
X243208514Y-82084059D01*
X243208514Y-82084059D02*
X243196609Y-82179297D01*
X243196609Y-82179297D02*
X242708514Y-82274535D01*
X243571609Y-82607869D02*
X243654943Y-81941202D01*
X243631133Y-82131678D02*
X243690657Y-82036440D01*
X243690657Y-82036440D02*
X243744228Y-81988821D01*
X243744228Y-81988821D02*
X243845419Y-81941202D01*
X243845419Y-81941202D02*
X243940657Y-81941202D01*
%LPC*%
D11*
%TO.C,MX15*%
X19327802Y-41076538D03*
D12*
X24407802Y-41076538D03*
D11*
X29487802Y-41076538D03*
%TD*%
%TO.C,MX7*%
X140771552Y-22026538D03*
D12*
X145851552Y-22026538D03*
D11*
X150931552Y-22026538D03*
%TD*%
%TO.C,MX22*%
X164584052Y-41076538D03*
D12*
X169664052Y-41076538D03*
D11*
X174744052Y-41076538D03*
%TD*%
%TO.C,MX30*%
X28852796Y-60126506D03*
D12*
X33932796Y-60126506D03*
D11*
X39012796Y-60126506D03*
%TD*%
D12*
%TO.C,S2*%
X45839047Y-51871506D03*
X22026545Y-51871506D03*
%TD*%
D11*
%TO.C,MX1*%
X21709052Y-22026538D03*
D12*
X26789052Y-22026538D03*
D11*
X31869052Y-22026538D03*
%TD*%
%TO.C,MX41*%
X233640098Y-60126538D03*
D12*
X238720098Y-60126538D03*
D11*
X243800098Y-60126538D03*
%TD*%
%TO.C,MX4*%
X83621552Y-22026538D03*
D12*
X88701552Y-22026538D03*
D11*
X93781552Y-22026538D03*
%TD*%
%TO.C,MX34*%
X97909052Y-60126538D03*
D12*
X102989052Y-60126538D03*
D11*
X108069052Y-60126538D03*
%TD*%
%TO.C,MX9*%
X178871552Y-22026538D03*
D12*
X183951552Y-22026538D03*
D11*
X189031552Y-22026538D03*
%TD*%
%TO.C,MX36*%
X136009052Y-60126538D03*
D12*
X141089052Y-60126538D03*
D11*
X146169052Y-60126538D03*
%TD*%
%TO.C,MX14*%
X24090302Y-41076538D03*
D12*
X29170302Y-41076538D03*
D11*
X34250302Y-41076538D03*
%TD*%
%TO.C,MX11*%
X216971552Y-22026538D03*
D12*
X222051552Y-22026538D03*
D11*
X227131552Y-22026538D03*
%TD*%
%TO.C,MX10*%
X197921552Y-22026538D03*
D12*
X203001552Y-22026538D03*
D11*
X208081552Y-22026538D03*
%TD*%
%TO.C,MX8*%
X159821552Y-22026538D03*
D12*
X164901552Y-22026538D03*
D11*
X169981552Y-22026538D03*
%TD*%
%TO.C,MX20*%
X126484052Y-41076538D03*
D12*
X131564052Y-41076538D03*
D11*
X136644052Y-41076538D03*
%TD*%
%TO.C,MX52*%
X212209052Y-79176538D03*
D12*
X217289052Y-79176538D03*
D11*
X222369052Y-79176538D03*
%TD*%
%TO.C,MX44*%
X64571552Y-79176538D03*
D12*
X69651552Y-79176538D03*
D11*
X74731552Y-79176538D03*
%TD*%
%TO.C,MX16*%
X50284052Y-41076538D03*
D12*
X55364052Y-41076538D03*
D11*
X60444052Y-41076538D03*
%TD*%
%TO.C,MX32*%
X59809052Y-60126538D03*
D12*
X64889052Y-60126538D03*
D11*
X69969052Y-60126538D03*
%TD*%
%TO.C,MX40*%
X212209052Y-60126538D03*
D12*
X217289052Y-60126538D03*
D11*
X222369052Y-60126538D03*
%TD*%
%TO.C,MX23*%
X183634052Y-41076538D03*
D12*
X188714052Y-41076538D03*
D11*
X193794052Y-41076538D03*
%TD*%
%TO.C,MX37*%
X155059052Y-60126538D03*
D12*
X160139052Y-60126538D03*
D11*
X165219052Y-60126538D03*
%TD*%
%TO.C,MX38*%
X174109052Y-60126538D03*
D12*
X179189052Y-60126538D03*
D11*
X184269052Y-60126538D03*
%TD*%
%TO.C,MX27*%
X247927586Y-41076538D03*
D12*
X253007586Y-41076538D03*
D11*
X258087586Y-41076538D03*
%TD*%
%TO.C,MX18*%
X88384052Y-41076538D03*
D12*
X93464052Y-41076538D03*
D11*
X98544052Y-41076538D03*
%TD*%
%TO.C,MX17*%
X69334052Y-41076538D03*
D12*
X74414052Y-41076538D03*
D11*
X79494052Y-41076538D03*
%TD*%
%TO.C,MX19*%
X107434052Y-41076538D03*
D12*
X112514052Y-41076538D03*
D11*
X117594052Y-41076538D03*
%TD*%
%TO.C,MX3*%
X64571552Y-22026538D03*
D12*
X69651552Y-22026538D03*
D11*
X74731552Y-22026538D03*
%TD*%
%TO.C,MX39*%
X193159052Y-60126538D03*
D12*
X198239052Y-60126538D03*
D11*
X203319052Y-60126538D03*
%TD*%
%TO.C,MX6*%
X121721552Y-22026538D03*
D12*
X126801552Y-22026538D03*
D11*
X131881552Y-22026538D03*
%TD*%
%TO.C,MX13*%
X255071330Y-22026538D03*
D12*
X260151330Y-22026538D03*
D11*
X265231330Y-22026538D03*
%TD*%
%TO.C,MX53*%
X236021552Y-79176538D03*
D12*
X241101552Y-79176538D03*
D11*
X246181552Y-79176538D03*
%TD*%
%TO.C,MX21*%
X145534052Y-41076538D03*
D12*
X150614052Y-41076538D03*
D11*
X155694052Y-41076538D03*
%TD*%
%TO.C,MX5*%
X102671552Y-22026538D03*
D12*
X107751552Y-22026538D03*
D11*
X112831552Y-22026538D03*
%TD*%
D12*
%TO.C,S1*%
X193476454Y-70921490D03*
X93463954Y-70921490D03*
%TD*%
D11*
%TO.C,MX33*%
X78859052Y-60126538D03*
D12*
X83939052Y-60126538D03*
D11*
X89019052Y-60126538D03*
%TD*%
%TO.C,MX35*%
X116959052Y-60126538D03*
D12*
X122039052Y-60126538D03*
D11*
X127119052Y-60126538D03*
%TD*%
%TO.C,MX25*%
X221734052Y-41076538D03*
D12*
X226814052Y-41076538D03*
D11*
X231894052Y-41076538D03*
%TD*%
%TO.C,MX2*%
X45521552Y-22026538D03*
D12*
X50601552Y-22026538D03*
D11*
X55681552Y-22026538D03*
%TD*%
%TO.C,MX43*%
X40759052Y-79176538D03*
D12*
X45839052Y-79176538D03*
D11*
X50919052Y-79176538D03*
%TD*%
%TO.C,MX48*%
X138390302Y-79176538D03*
D12*
X143470302Y-79176538D03*
D11*
X148550302Y-79176538D03*
%TD*%
%TO.C,MX42*%
X255071330Y-60126538D03*
D12*
X260151330Y-60126538D03*
D11*
X265231330Y-60126538D03*
%TD*%
%TO.C,MX24*%
X202684052Y-41076538D03*
D12*
X207764052Y-41076538D03*
D11*
X212844052Y-41076538D03*
%TD*%
%TO.C,MX12*%
X236021552Y-22026538D03*
D12*
X241101552Y-22026538D03*
D11*
X246181552Y-22026538D03*
%TD*%
D13*
%TO.C,J2*%
X14882802Y-59650288D03*
D14*
X14882802Y-62190288D03*
X14882802Y-64730288D03*
X14882802Y-67270288D03*
%TD*%
%LPD*%
M02*
