%TF.GenerationSoftware,KiCad,Pcbnew,8.0.4*%
%TF.CreationDate,2024-08-28T19:47:30+05:30*%
%TF.ProjectId,kalam,6b616c61-6d2e-46b6-9963-61645f706362,rev?*%
%TF.SameCoordinates,Original*%
%TF.FileFunction,Soldermask,Bot*%
%TF.FilePolarity,Negative*%
%FSLAX46Y46*%
G04 Gerber Fmt 4.6, Leading zero omitted, Abs format (unit mm)*
G04 Created by KiCad (PCBNEW 8.0.4) date 2024-08-28 19:47:30*
%MOMM*%
%LPD*%
G01*
G04 APERTURE LIST*
G04 Aperture macros list*
%AMRoundRect*
0 Rectangle with rounded corners*
0 $1 Rounding radius*
0 $2 $3 $4 $5 $6 $7 $8 $9 X,Y pos of 4 corners*
0 Add a 4 corners polygon primitive as box body*
4,1,4,$2,$3,$4,$5,$6,$7,$8,$9,$2,$3,0*
0 Add four circle primitives for the rounded corners*
1,1,$1+$1,$2,$3*
1,1,$1+$1,$4,$5*
1,1,$1+$1,$6,$7*
1,1,$1+$1,$8,$9*
0 Add four rect primitives between the rounded corners*
20,1,$1+$1,$2,$3,$4,$5,0*
20,1,$1+$1,$4,$5,$6,$7,0*
20,1,$1+$1,$6,$7,$8,$9,0*
20,1,$1+$1,$8,$9,$2,$3,0*%
G04 Aperture macros list end*
%ADD10C,1.750000*%
%ADD11C,3.987800*%
%ADD12C,2.300000*%
%ADD13C,4.000000*%
%ADD14RoundRect,0.140000X0.140000X0.170000X-0.140000X0.170000X-0.140000X-0.170000X0.140000X-0.170000X0*%
%ADD15RoundRect,0.225000X0.375000X-0.225000X0.375000X0.225000X-0.375000X0.225000X-0.375000X-0.225000X0*%
%ADD16R,1.000000X0.750000*%
%ADD17RoundRect,0.225000X-0.225000X-0.250000X0.225000X-0.250000X0.225000X0.250000X-0.225000X0.250000X0*%
%ADD18RoundRect,0.200000X0.275000X-0.200000X0.275000X0.200000X-0.275000X0.200000X-0.275000X-0.200000X0*%
%ADD19RoundRect,0.140000X-0.170000X0.140000X-0.170000X-0.140000X0.170000X-0.140000X0.170000X0.140000X0*%
%ADD20RoundRect,0.140000X-0.140000X-0.170000X0.140000X-0.170000X0.140000X0.170000X-0.140000X0.170000X0*%
%ADD21RoundRect,0.140000X0.170000X-0.140000X0.170000X0.140000X-0.170000X0.140000X-0.170000X-0.140000X0*%
%ADD22RoundRect,0.225000X-0.250000X0.225000X-0.250000X-0.225000X0.250000X-0.225000X0.250000X0.225000X0*%
%ADD23RoundRect,0.150000X-0.625000X0.150000X-0.625000X-0.150000X0.625000X-0.150000X0.625000X0.150000X0*%
%ADD24RoundRect,0.250000X-0.650000X0.350000X-0.650000X-0.350000X0.650000X-0.350000X0.650000X0.350000X0*%
%ADD25RoundRect,0.225000X0.225000X0.250000X-0.225000X0.250000X-0.225000X-0.250000X0.225000X-0.250000X0*%
%ADD26RoundRect,0.075000X0.075000X-0.662500X0.075000X0.662500X-0.075000X0.662500X-0.075000X-0.662500X0*%
%ADD27RoundRect,0.075000X0.662500X-0.075000X0.662500X0.075000X-0.662500X0.075000X-0.662500X-0.075000X0*%
%ADD28R,1.700000X1.700000*%
%ADD29O,1.700000X1.700000*%
%ADD30RoundRect,0.150000X0.150000X-0.512500X0.150000X0.512500X-0.150000X0.512500X-0.150000X-0.512500X0*%
G04 APERTURE END LIST*
D10*
%TO.C,MX15*%
X19327802Y-41076538D03*
D11*
X24407802Y-41076538D03*
D10*
X29487802Y-41076538D03*
D12*
X20597802Y-38536538D03*
X26947802Y-35996538D03*
%TD*%
D10*
%TO.C,MX7*%
X140771552Y-22026538D03*
D11*
X145851552Y-22026538D03*
D10*
X150931552Y-22026538D03*
D12*
X142041552Y-19486538D03*
X148391552Y-16946538D03*
%TD*%
D10*
%TO.C,MX22*%
X164584052Y-41076538D03*
D11*
X169664052Y-41076538D03*
D10*
X174744052Y-41076538D03*
D12*
X165854052Y-38536538D03*
X172204052Y-35996538D03*
%TD*%
D10*
%TO.C,MX30*%
X28852796Y-60126506D03*
D11*
X33932796Y-60126506D03*
D10*
X39012796Y-60126506D03*
D12*
X30122796Y-57586506D03*
X36472796Y-55046506D03*
%TD*%
D11*
%TO.C,S2*%
X45839047Y-51871506D03*
D13*
X45839046Y-67111506D03*
X22026546Y-67111506D03*
D11*
X22026545Y-51871506D03*
%TD*%
D10*
%TO.C,MX1*%
X21709052Y-22026538D03*
D11*
X26789052Y-22026538D03*
D10*
X31869052Y-22026538D03*
D12*
X22979052Y-19486538D03*
X29329052Y-16946538D03*
%TD*%
D10*
%TO.C,MX41*%
X233640098Y-60126538D03*
D11*
X238720098Y-60126538D03*
D10*
X243800098Y-60126538D03*
D12*
X234910098Y-57586538D03*
X241260098Y-55046538D03*
%TD*%
D10*
%TO.C,MX4*%
X83621552Y-22026538D03*
D11*
X88701552Y-22026538D03*
D10*
X93781552Y-22026538D03*
D12*
X84891552Y-19486538D03*
X91241552Y-16946538D03*
%TD*%
D10*
%TO.C,MX34*%
X97909052Y-60126538D03*
D11*
X102989052Y-60126538D03*
D10*
X108069052Y-60126538D03*
D12*
X99179052Y-57586538D03*
X105529052Y-55046538D03*
%TD*%
D10*
%TO.C,MX9*%
X178871552Y-22026538D03*
D11*
X183951552Y-22026538D03*
D10*
X189031552Y-22026538D03*
D12*
X180141552Y-19486538D03*
X186491552Y-16946538D03*
%TD*%
D10*
%TO.C,MX36*%
X136009052Y-60126538D03*
D11*
X141089052Y-60126538D03*
D10*
X146169052Y-60126538D03*
D12*
X137279052Y-57586538D03*
X143629052Y-55046538D03*
%TD*%
D10*
%TO.C,MX14*%
X24090302Y-41076538D03*
D11*
X29170302Y-41076538D03*
D10*
X34250302Y-41076538D03*
D12*
X25360302Y-38536538D03*
X31710302Y-35996538D03*
%TD*%
D10*
%TO.C,MX11*%
X216971552Y-22026538D03*
D11*
X222051552Y-22026538D03*
D10*
X227131552Y-22026538D03*
D12*
X218241552Y-19486538D03*
X224591552Y-16946538D03*
%TD*%
D10*
%TO.C,MX10*%
X197921552Y-22026538D03*
D11*
X203001552Y-22026538D03*
D10*
X208081552Y-22026538D03*
D12*
X199191552Y-19486538D03*
X205541552Y-16946538D03*
%TD*%
D10*
%TO.C,MX8*%
X159821552Y-22026538D03*
D11*
X164901552Y-22026538D03*
D10*
X169981552Y-22026538D03*
D12*
X161091552Y-19486538D03*
X167441552Y-16946538D03*
%TD*%
D10*
%TO.C,MX20*%
X126484052Y-41076538D03*
D11*
X131564052Y-41076538D03*
D10*
X136644052Y-41076538D03*
D12*
X127754052Y-38536538D03*
X134104052Y-35996538D03*
%TD*%
D10*
%TO.C,MX52*%
X212209052Y-79176538D03*
D11*
X217289052Y-79176538D03*
D10*
X222369052Y-79176538D03*
D12*
X213479052Y-76636538D03*
X219829052Y-74096538D03*
%TD*%
D10*
%TO.C,MX44*%
X64571552Y-79176538D03*
D11*
X69651552Y-79176538D03*
D10*
X74731552Y-79176538D03*
D12*
X65841552Y-76636538D03*
X72191552Y-74096538D03*
%TD*%
D10*
%TO.C,MX16*%
X50284052Y-41076538D03*
D11*
X55364052Y-41076538D03*
D10*
X60444052Y-41076538D03*
D12*
X51554052Y-38536538D03*
X57904052Y-35996538D03*
%TD*%
D10*
%TO.C,MX32*%
X59809052Y-60126538D03*
D11*
X64889052Y-60126538D03*
D10*
X69969052Y-60126538D03*
D12*
X61079052Y-57586538D03*
X67429052Y-55046538D03*
%TD*%
D10*
%TO.C,MX40*%
X212209052Y-60126538D03*
D11*
X217289052Y-60126538D03*
D10*
X222369052Y-60126538D03*
D12*
X213479052Y-57586538D03*
X219829052Y-55046538D03*
%TD*%
D10*
%TO.C,MX23*%
X183634052Y-41076538D03*
D11*
X188714052Y-41076538D03*
D10*
X193794052Y-41076538D03*
D12*
X184904052Y-38536538D03*
X191254052Y-35996538D03*
%TD*%
D10*
%TO.C,MX37*%
X155059052Y-60126538D03*
D11*
X160139052Y-60126538D03*
D10*
X165219052Y-60126538D03*
D12*
X156329052Y-57586538D03*
X162679052Y-55046538D03*
%TD*%
D10*
%TO.C,MX38*%
X174109052Y-60126538D03*
D11*
X179189052Y-60126538D03*
D10*
X184269052Y-60126538D03*
D12*
X175379052Y-57586538D03*
X181729052Y-55046538D03*
%TD*%
D10*
%TO.C,MX27*%
X247927586Y-41076538D03*
D11*
X253007586Y-41076538D03*
D10*
X258087586Y-41076538D03*
D12*
X249197586Y-38536538D03*
X255547586Y-35996538D03*
%TD*%
D10*
%TO.C,MX18*%
X88384052Y-41076538D03*
D11*
X93464052Y-41076538D03*
D10*
X98544052Y-41076538D03*
D12*
X89654052Y-38536538D03*
X96004052Y-35996538D03*
%TD*%
D10*
%TO.C,MX17*%
X69334052Y-41076538D03*
D11*
X74414052Y-41076538D03*
D10*
X79494052Y-41076538D03*
D12*
X70604052Y-38536538D03*
X76954052Y-35996538D03*
%TD*%
D10*
%TO.C,MX19*%
X107434052Y-41076538D03*
D11*
X112514052Y-41076538D03*
D10*
X117594052Y-41076538D03*
D12*
X108704052Y-38536538D03*
X115054052Y-35996538D03*
%TD*%
D10*
%TO.C,MX3*%
X64571552Y-22026538D03*
D11*
X69651552Y-22026538D03*
D10*
X74731552Y-22026538D03*
D12*
X65841552Y-19486538D03*
X72191552Y-16946538D03*
%TD*%
D10*
%TO.C,MX39*%
X193159052Y-60126538D03*
D11*
X198239052Y-60126538D03*
D10*
X203319052Y-60126538D03*
D12*
X194429052Y-57586538D03*
X200779052Y-55046538D03*
%TD*%
D10*
%TO.C,MX6*%
X121721552Y-22026538D03*
D11*
X126801552Y-22026538D03*
D10*
X131881552Y-22026538D03*
D12*
X122991552Y-19486538D03*
X129341552Y-16946538D03*
%TD*%
D10*
%TO.C,MX13*%
X255071330Y-22026538D03*
D11*
X260151330Y-22026538D03*
D10*
X265231330Y-22026538D03*
D12*
X256341330Y-19486538D03*
X262691330Y-16946538D03*
%TD*%
D10*
%TO.C,MX53*%
X236021552Y-79176538D03*
D11*
X241101552Y-79176538D03*
D10*
X246181552Y-79176538D03*
D12*
X237291552Y-76636538D03*
X243641552Y-74096538D03*
%TD*%
D10*
%TO.C,MX21*%
X145534052Y-41076538D03*
D11*
X150614052Y-41076538D03*
D10*
X155694052Y-41076538D03*
D12*
X146804052Y-38536538D03*
X153154052Y-35996538D03*
%TD*%
D10*
%TO.C,MX5*%
X102671552Y-22026538D03*
D11*
X107751552Y-22026538D03*
D10*
X112831552Y-22026538D03*
D12*
X103941552Y-19486538D03*
X110291552Y-16946538D03*
%TD*%
D13*
%TO.C,S1*%
X193476454Y-86161489D03*
D11*
X193476454Y-70921490D03*
D13*
X93463954Y-86161489D03*
D11*
X93463954Y-70921490D03*
%TD*%
D10*
%TO.C,MX33*%
X78859052Y-60126538D03*
D11*
X83939052Y-60126538D03*
D10*
X89019052Y-60126538D03*
D12*
X80129052Y-57586538D03*
X86479052Y-55046538D03*
%TD*%
D10*
%TO.C,MX35*%
X116959052Y-60126538D03*
D11*
X122039052Y-60126538D03*
D10*
X127119052Y-60126538D03*
D12*
X118229052Y-57586538D03*
X124579052Y-55046538D03*
%TD*%
D10*
%TO.C,MX25*%
X221734052Y-41076538D03*
D11*
X226814052Y-41076538D03*
D10*
X231894052Y-41076538D03*
D12*
X223004052Y-38536538D03*
X229354052Y-35996538D03*
%TD*%
D10*
%TO.C,MX2*%
X45521552Y-22026538D03*
D11*
X50601552Y-22026538D03*
D10*
X55681552Y-22026538D03*
D12*
X46791552Y-19486538D03*
X53141552Y-16946538D03*
%TD*%
D10*
%TO.C,MX43*%
X40759052Y-79176538D03*
D11*
X45839052Y-79176538D03*
D10*
X50919052Y-79176538D03*
D12*
X42029052Y-76636538D03*
X48379052Y-74096538D03*
%TD*%
D10*
%TO.C,MX48*%
X138390302Y-79176538D03*
D11*
X143470302Y-79176538D03*
D10*
X148550302Y-79176538D03*
D12*
X139660302Y-76636538D03*
X146010302Y-74096538D03*
%TD*%
D10*
%TO.C,MX42*%
X255071330Y-60126538D03*
D11*
X260151330Y-60126538D03*
D10*
X265231330Y-60126538D03*
D12*
X256341330Y-57586538D03*
X262691330Y-55046538D03*
%TD*%
D10*
%TO.C,MX24*%
X202684052Y-41076538D03*
D11*
X207764052Y-41076538D03*
D10*
X212844052Y-41076538D03*
D12*
X203954052Y-38536538D03*
X210304052Y-35996538D03*
%TD*%
D10*
%TO.C,MX12*%
X236021552Y-22026538D03*
D11*
X241101552Y-22026538D03*
D10*
X246181552Y-22026538D03*
D12*
X237291552Y-19486538D03*
X243641552Y-16946538D03*
%TD*%
D14*
%TO.C,C6*%
X60419052Y-64705537D03*
X59459052Y-64705537D03*
%TD*%
D15*
%TO.C,D5*%
X99020302Y-24407788D03*
X99020302Y-21107788D03*
%TD*%
%TO.C,D4*%
X79970302Y-24407788D03*
X79970302Y-21107788D03*
%TD*%
D16*
%TO.C,SW1*%
X78557802Y-50601538D03*
X84557802Y-50601538D03*
X78557802Y-46851538D03*
X84557802Y-46851538D03*
%TD*%
%TO.C,SW2*%
X42839052Y-86320288D03*
X48839052Y-86320288D03*
X42839052Y-82570288D03*
X48839052Y-82570288D03*
%TD*%
D15*
%TO.C,D19*%
X122832802Y-43457788D03*
X122832802Y-40157788D03*
%TD*%
D17*
%TO.C,C9*%
X62526552Y-38695288D03*
X64076552Y-38695288D03*
%TD*%
D18*
%TO.C,R1*%
X87907802Y-50601538D03*
X87907802Y-48951538D03*
%TD*%
D19*
%TO.C,C4*%
X50914052Y-66947898D03*
X50914052Y-67907898D03*
%TD*%
D15*
%TO.C,D47*%
X225226552Y-81557788D03*
X225226552Y-78257788D03*
%TD*%
%TO.C,D15*%
X46632802Y-43457788D03*
X46632802Y-40157788D03*
%TD*%
D20*
%TO.C,C1*%
X61559052Y-74214038D03*
X62519052Y-74214038D03*
%TD*%
D15*
%TO.C,D13*%
X251519306Y-24569488D03*
X251519306Y-21269488D03*
%TD*%
%TO.C,D48*%
X232370302Y-81557788D03*
X232370302Y-78257788D03*
%TD*%
%TO.C,D12*%
X232370302Y-24407788D03*
X232370302Y-21107788D03*
%TD*%
%TO.C,D18*%
X103782802Y-43457788D03*
X103782802Y-40157788D03*
%TD*%
D21*
%TO.C,C10*%
X57269052Y-77244038D03*
X57269052Y-76284038D03*
%TD*%
D22*
%TO.C,C5*%
X49579726Y-66087213D03*
X49579726Y-67637213D03*
%TD*%
D15*
%TO.C,D23*%
X199032802Y-43457788D03*
X199032802Y-40157788D03*
%TD*%
%TO.C,D41*%
X77589052Y-81620288D03*
X77589052Y-78320288D03*
%TD*%
D17*
%TO.C,C3*%
X60689052Y-75539038D03*
X62239052Y-75539038D03*
%TD*%
D15*
%TO.C,D39*%
X251420080Y-62507788D03*
X251420080Y-59207788D03*
%TD*%
%TO.C,D24*%
X218082802Y-43457788D03*
X218082802Y-40157788D03*
%TD*%
%TO.C,D8*%
X156170302Y-24407788D03*
X156170302Y-21107788D03*
%TD*%
%TO.C,D9*%
X175220302Y-24407788D03*
X175220302Y-21107788D03*
%TD*%
%TO.C,D37*%
X225226552Y-62507788D03*
X225226552Y-59207788D03*
%TD*%
%TO.C,D3*%
X60920302Y-24407788D03*
X60920302Y-21107788D03*
%TD*%
%TO.C,D40*%
X53776552Y-81620288D03*
X53776552Y-78320288D03*
%TD*%
%TO.C,D36*%
X206176552Y-62507788D03*
X206176552Y-59207788D03*
%TD*%
%TO.C,D27*%
X30658580Y-65348378D03*
X30658580Y-62048378D03*
%TD*%
%TO.C,D10*%
X194270302Y-24407788D03*
X194270302Y-21107788D03*
%TD*%
%TO.C,D1*%
X34726552Y-24407788D03*
X34726552Y-21107788D03*
%TD*%
%TO.C,D34*%
X168076552Y-62507788D03*
X168076552Y-59207788D03*
%TD*%
%TO.C,D20*%
X141882802Y-43457788D03*
X141882802Y-40157788D03*
%TD*%
D23*
%TO.C,J1*%
X47807802Y-29257788D03*
X47807802Y-30257788D03*
X47807802Y-31257788D03*
X47807802Y-32257788D03*
D24*
X51682802Y-27957788D03*
X51682802Y-33557788D03*
%TD*%
D15*
%TO.C,D33*%
X149026552Y-62507788D03*
X149026552Y-59207788D03*
%TD*%
D20*
%TO.C,C2*%
X54784052Y-76314038D03*
X55744052Y-76314038D03*
%TD*%
D15*
%TO.C,D22*%
X179982802Y-43457788D03*
X179982802Y-40157788D03*
%TD*%
%TO.C,D2*%
X41870302Y-24407788D03*
X41870302Y-21107788D03*
%TD*%
%TO.C,D30*%
X91876552Y-62507788D03*
X91876552Y-59207788D03*
%TD*%
%TO.C,D21*%
X160932802Y-43457788D03*
X160932802Y-40157788D03*
%TD*%
%TO.C,D29*%
X72826552Y-62507788D03*
X72826552Y-59207788D03*
%TD*%
%TO.C,D35*%
X187126552Y-62507788D03*
X187126552Y-59207788D03*
%TD*%
D25*
%TO.C,C7*%
X61264052Y-63389038D03*
X59714052Y-63389038D03*
%TD*%
D15*
%TO.C,D14*%
X37107802Y-43457788D03*
X37107802Y-40157788D03*
%TD*%
%TO.C,D17*%
X84732802Y-43457788D03*
X84732802Y-40157788D03*
%TD*%
%TO.C,D6*%
X118070302Y-24407788D03*
X118070302Y-21107788D03*
%TD*%
%TO.C,D7*%
X137120302Y-24407788D03*
X137120302Y-21107788D03*
%TD*%
%TO.C,D26*%
X244077906Y-43619472D03*
X244077906Y-40319472D03*
%TD*%
%TO.C,D38*%
X246657598Y-62507788D03*
X246657598Y-59207788D03*
%TD*%
D26*
%TO.C,U2*%
X59414052Y-74626538D03*
X58914052Y-74626538D03*
X58414052Y-74626538D03*
X57914052Y-74626538D03*
X57414052Y-74626538D03*
X56914052Y-74626538D03*
X56414052Y-74626538D03*
X55914052Y-74626538D03*
X55414052Y-74626538D03*
X54914052Y-74626538D03*
X54414052Y-74626538D03*
X53914052Y-74626538D03*
D27*
X52501552Y-73214038D03*
X52501552Y-72714038D03*
X52501552Y-72214038D03*
X52501552Y-71714038D03*
X52501552Y-71214038D03*
X52501552Y-70714038D03*
X52501552Y-70214038D03*
X52501552Y-69714038D03*
X52501552Y-69214038D03*
X52501552Y-68714038D03*
X52501552Y-68214038D03*
X52501552Y-67714038D03*
D26*
X53914052Y-66301538D03*
X54414052Y-66301538D03*
X54914052Y-66301538D03*
X55414052Y-66301538D03*
X55914052Y-66301538D03*
X56414052Y-66301538D03*
X56914052Y-66301538D03*
X57414052Y-66301538D03*
X57914052Y-66301538D03*
X58414052Y-66301538D03*
X58914052Y-66301538D03*
X59414052Y-66301538D03*
D27*
X60826552Y-67714038D03*
X60826552Y-68214038D03*
X60826552Y-68714038D03*
X60826552Y-69214038D03*
X60826552Y-69714038D03*
X60826552Y-70214038D03*
X60826552Y-70714038D03*
X60826552Y-71214038D03*
X60826552Y-71714038D03*
X60826552Y-72214038D03*
X60826552Y-72714038D03*
X60826552Y-73214038D03*
%TD*%
D15*
%TO.C,D31*%
X110926552Y-62507788D03*
X110926552Y-59207788D03*
%TD*%
%TO.C,D11*%
X213320302Y-24407788D03*
X213320302Y-21107788D03*
%TD*%
D17*
%TO.C,C8*%
X63301552Y-32345288D03*
X64851552Y-32345288D03*
%TD*%
D28*
%TO.C,J2*%
X14882802Y-59650288D03*
D29*
X14882802Y-62190288D03*
X14882802Y-64730288D03*
X14882802Y-67270288D03*
%TD*%
D15*
%TO.C,D16*%
X65682802Y-43457788D03*
X65682802Y-40157788D03*
%TD*%
%TO.C,D32*%
X129976552Y-62507788D03*
X129976552Y-59207788D03*
%TD*%
D30*
%TO.C,U1*%
X64251552Y-36657788D03*
X62351552Y-36657788D03*
X63301552Y-34382788D03*
%TD*%
D15*
%TO.C,D44*%
X134739052Y-81620288D03*
X134739052Y-78320288D03*
%TD*%
M02*
