M48
; DRILL file {KiCad 8.0.4} date 2024-08-28T19:47:30+0530
; FORMAT={-:-/ absolute / inch / decimal}
; #@! TF.CreationDate,2024-08-28T19:47:30+05:30
; #@! TF.GenerationSoftware,Kicad,Pcbnew,8.0.4
; #@! TF.FileFunction,NonPlated,1,2,NPTH
FMAT,2
INCH
; #@! TA.AperFunction,NonPlated,NPTH,ComponentDrill
T1C0.0689
; #@! TA.AperFunction,NonPlated,NPTH,ComponentDrill
T2C0.1570
%
G90
G05
T1
X0.7609Y-1.6172
X0.8547Y-0.8672
X0.9484Y-1.6172
X1.1359Y-2.3672
X1.1609Y-1.6172
X1.2547Y-0.8672
X1.3484Y-1.6172
X1.5359Y-2.3672
X1.6047Y-3.1172
X1.7922Y-0.8672
X1.9797Y-1.6172
X2.0047Y-3.1172
X2.1922Y-0.8672
X2.3547Y-2.3672
X2.3797Y-1.6172
X2.5422Y-0.8672
X2.5422Y-3.1172
X2.7297Y-1.6172
X2.7547Y-2.3672
X2.9422Y-0.8672
X2.9422Y-3.1172
X3.1047Y-2.3672
X3.1297Y-1.6172
X3.2922Y-0.8672
X3.4797Y-1.6172
X3.5047Y-2.3672
X3.6922Y-0.8672
X3.8547Y-2.3672
X3.8797Y-1.6172
X4.0422Y-0.8672
X4.2297Y-1.6172
X4.2547Y-2.3672
X4.4422Y-0.8672
X4.6047Y-2.3672
X4.6297Y-1.6172
X4.7922Y-0.8672
X4.9797Y-1.6172
X5.0047Y-2.3672
X5.1922Y-0.8672
X5.3547Y-2.3672
X5.3797Y-1.6172
X5.4484Y-3.1172
X5.5422Y-0.8672
X5.7297Y-1.6172
X5.7547Y-2.3672
X5.8484Y-3.1172
X5.9422Y-0.8672
X6.1047Y-2.3672
X6.1297Y-1.6172
X6.2922Y-0.8672
X6.4797Y-1.6172
X6.5047Y-2.3672
X6.6922Y-0.8672
X6.8547Y-2.3672
X6.8797Y-1.6172
X7.0422Y-0.8672
X7.2297Y-1.6172
X7.2547Y-2.3672
X7.4422Y-0.8672
X7.6047Y-2.3672
X7.6297Y-1.6172
X7.7922Y-0.8672
X7.9797Y-1.6172
X8.0047Y-2.3672
X8.1922Y-0.8672
X8.3547Y-2.3672
X8.3547Y-3.1172
X8.3797Y-1.6172
X8.5422Y-0.8672
X8.7297Y-1.6172
X8.7547Y-2.3672
X8.7547Y-3.1172
X8.9422Y-0.8672
X9.1297Y-1.6172
X9.1984Y-2.3672
X9.2922Y-0.8672
X9.2922Y-3.1172
X9.5984Y-2.3672
X9.6922Y-0.8672
X9.6922Y-3.1172
X9.7609Y-1.6172
X10.0422Y-0.8672
X10.0422Y-2.3672
X10.1609Y-1.6172
X10.4422Y-0.8672
X10.4422Y-2.3672
T2
X0.8672Y-2.0422
X0.9609Y-1.6172
X1.0547Y-0.8672
X1.1484Y-1.6172
X1.3359Y-2.3672
X1.8047Y-2.0422
X1.8047Y-3.1172
X1.9922Y-0.8672
X2.1797Y-1.6172
X2.5547Y-2.3672
X2.7422Y-0.8672
X2.7422Y-3.1172
X2.9297Y-1.6172
X3.3047Y-2.3672
X3.4922Y-0.8672
X3.6797Y-2.7922
X3.6797Y-1.6172
X4.0547Y-2.3672
X4.2422Y-0.8672
X4.4297Y-1.6172
X4.8047Y-2.3672
X4.9922Y-0.8672
X5.1797Y-1.6172
X5.5547Y-2.3672
X5.6484Y-3.1172
X5.7422Y-0.8672
X5.9297Y-1.6172
X6.3047Y-2.3672
X6.4922Y-0.8672
X6.6797Y-1.6172
X7.0547Y-2.3672
X7.2422Y-0.8672
X7.4297Y-1.6172
X7.6172Y-2.7922
X7.8047Y-2.3672
X7.9922Y-0.8672
X8.1797Y-1.6172
X8.5547Y-2.3672
X8.5547Y-3.1172
X8.7422Y-0.8672
X8.9297Y-1.6172
X9.3984Y-2.3672
X9.4922Y-0.8672
X9.4922Y-3.1172
X9.9609Y-1.6172
X10.2422Y-0.8672
X10.2422Y-2.3672
M30
