%TF.GenerationSoftware,KiCad,Pcbnew,8.0.4*%
%TF.CreationDate,2024-08-11T23:54:30+05:30*%
%TF.ProjectId,kalam,6b616c61-6d2e-46b6-9963-61645f706362,rev?*%
%TF.SameCoordinates,Original*%
%TF.FileFunction,Legend,Top*%
%TF.FilePolarity,Positive*%
%FSLAX46Y46*%
G04 Gerber Fmt 4.6, Leading zero omitted, Abs format (unit mm)*
G04 Created by KiCad (PCBNEW 8.0.4) date 2024-08-11 23:54:30*
%MOMM*%
%LPD*%
G01*
G04 APERTURE LIST*
%ADD10C,0.150000*%
%ADD11C,0.000000*%
%ADD12C,1.750000*%
%ADD13C,3.987800*%
%ADD14R,1.700000X1.700000*%
%ADD15O,1.700000X1.700000*%
G04 APERTURE END LIST*
D10*
X282971888Y-53578134D02*
X282971888Y-56753134D01*
D11*
G36*
X43024546Y-86154886D02*
G01*
X43024140Y-86171286D01*
X43022928Y-86187574D01*
X43020922Y-86203725D01*
X43018133Y-86219709D01*
X43014572Y-86235501D01*
X43010250Y-86251074D01*
X43005180Y-86266399D01*
X42999371Y-86281450D01*
X42992835Y-86296201D01*
X42985584Y-86310623D01*
X42977628Y-86324690D01*
X42968980Y-86338375D01*
X42959649Y-86351650D01*
X42949648Y-86364488D01*
X42938987Y-86376863D01*
X42927678Y-86388747D01*
X42915794Y-86400056D01*
X42903419Y-86410717D01*
X42890581Y-86420718D01*
X42877306Y-86430049D01*
X42863621Y-86438697D01*
X42849554Y-86446653D01*
X42835132Y-86453904D01*
X42820381Y-86460440D01*
X42805330Y-86466249D01*
X42790005Y-86471319D01*
X42774432Y-86475641D01*
X42758640Y-86479202D01*
X42742656Y-86481991D01*
X42726505Y-86483997D01*
X42710217Y-86485209D01*
X42693817Y-86485615D01*
X40130666Y-86485615D01*
X40126566Y-86485514D01*
X40122494Y-86485211D01*
X40118456Y-86484709D01*
X40114460Y-86484012D01*
X40110512Y-86483122D01*
X40106619Y-86482041D01*
X40102788Y-86480773D01*
X40099025Y-86479321D01*
X40095337Y-86477687D01*
X40091732Y-86475875D01*
X40088215Y-86473886D01*
X40084794Y-86471723D01*
X40081475Y-86469391D01*
X40078265Y-86466890D01*
X40075172Y-86464225D01*
X40072201Y-86461398D01*
X40069373Y-86458427D01*
X40066708Y-86455333D01*
X40064208Y-86452124D01*
X40061875Y-86448805D01*
X40059713Y-86445384D01*
X40057724Y-86441867D01*
X40055911Y-86438261D01*
X40054277Y-86434574D01*
X40052825Y-86430811D01*
X40051558Y-86426980D01*
X40050477Y-86423087D01*
X40049587Y-86419139D01*
X40048890Y-86415142D01*
X40048388Y-86411105D01*
X40048085Y-86407033D01*
X40047984Y-86402933D01*
X40047984Y-86341283D01*
X40048009Y-86341283D01*
X40048084Y-86338641D01*
X40048288Y-86336018D01*
X40048619Y-86333418D01*
X40049076Y-86330844D01*
X40049657Y-86328302D01*
X40050359Y-86325795D01*
X40051182Y-86323329D01*
X40052122Y-86320906D01*
X40052414Y-86320250D01*
X40275011Y-86320250D01*
X42693817Y-86320250D01*
X42702017Y-86320047D01*
X42710161Y-86319441D01*
X42718236Y-86318438D01*
X42726228Y-86317044D01*
X42734125Y-86315263D01*
X42741911Y-86313103D01*
X42749573Y-86310567D01*
X42757099Y-86307663D01*
X42764474Y-86304395D01*
X42771685Y-86300769D01*
X42778719Y-86296792D01*
X42785561Y-86292467D01*
X42792199Y-86287802D01*
X42798618Y-86282801D01*
X42804805Y-86277471D01*
X42810747Y-86271816D01*
X42816402Y-86265874D01*
X42821732Y-86259687D01*
X42826733Y-86253268D01*
X42831398Y-86246630D01*
X42835723Y-86239788D01*
X42839700Y-86232754D01*
X42843326Y-86225543D01*
X42846594Y-86218168D01*
X42849498Y-86210642D01*
X42852034Y-86202980D01*
X42854194Y-86195194D01*
X42855975Y-86187297D01*
X42857369Y-86179305D01*
X42858372Y-86171230D01*
X42858978Y-86163086D01*
X42859181Y-86154886D01*
X42859181Y-83587045D01*
X40275011Y-86320250D01*
X40052414Y-86320250D01*
X40053180Y-86318532D01*
X40054352Y-86316211D01*
X40055637Y-86313947D01*
X40057033Y-86311744D01*
X40058539Y-86309608D01*
X40060152Y-86307541D01*
X40061871Y-86305550D01*
X40063693Y-86303637D01*
X42843511Y-83363028D01*
X42845322Y-83361126D01*
X42847031Y-83359146D01*
X42848635Y-83357093D01*
X42850133Y-83354970D01*
X42851523Y-83352783D01*
X42852803Y-83350534D01*
X42853972Y-83348228D01*
X42855028Y-83345870D01*
X42855969Y-83343464D01*
X42856792Y-83341014D01*
X42857497Y-83338524D01*
X42858082Y-83335998D01*
X42858545Y-83333442D01*
X42858883Y-83330858D01*
X42859096Y-83328252D01*
X42859181Y-83325627D01*
X42859181Y-83261006D01*
X42859283Y-83256906D01*
X42859586Y-83252834D01*
X42860088Y-83248796D01*
X42860785Y-83244800D01*
X42861675Y-83240852D01*
X42862755Y-83236959D01*
X42864023Y-83233128D01*
X42865475Y-83229365D01*
X42867109Y-83225677D01*
X42868922Y-83222071D01*
X42870911Y-83218555D01*
X42873073Y-83215134D01*
X42875406Y-83211815D01*
X42877906Y-83208605D01*
X42880571Y-83205512D01*
X42883399Y-83202541D01*
X42886370Y-83199713D01*
X42889463Y-83197048D01*
X42892673Y-83194548D01*
X42895992Y-83192215D01*
X42899413Y-83190053D01*
X42902929Y-83188064D01*
X42906535Y-83186251D01*
X42910223Y-83184617D01*
X42913985Y-83183165D01*
X42917817Y-83181897D01*
X42921710Y-83180817D01*
X42925658Y-83179927D01*
X42929654Y-83179230D01*
X42933692Y-83178728D01*
X42937764Y-83178425D01*
X42941864Y-83178323D01*
X43024546Y-83178323D01*
X43024546Y-86154886D01*
G37*
G36*
X42693817Y-83261006D02*
G01*
X42693715Y-83265106D01*
X42693412Y-83269178D01*
X42692911Y-83273215D01*
X42692213Y-83277212D01*
X42691323Y-83281160D01*
X42690243Y-83285053D01*
X42688975Y-83288884D01*
X42687523Y-83292647D01*
X42685889Y-83296335D01*
X42684076Y-83299940D01*
X42682087Y-83303457D01*
X42679925Y-83306878D01*
X42677593Y-83310197D01*
X42675092Y-83313406D01*
X42672427Y-83316500D01*
X42669600Y-83319471D01*
X42666629Y-83322298D01*
X42663535Y-83324963D01*
X42660326Y-83327464D01*
X42657007Y-83329796D01*
X42653586Y-83331959D01*
X42650069Y-83333948D01*
X42646463Y-83335760D01*
X42642776Y-83337394D01*
X42639013Y-83338846D01*
X42635182Y-83340114D01*
X42631288Y-83341194D01*
X42627340Y-83342085D01*
X42623344Y-83342782D01*
X42619307Y-83343283D01*
X42615235Y-83343586D01*
X42611135Y-83343688D01*
X42560337Y-83343688D01*
X42557695Y-83343763D01*
X42555072Y-83343967D01*
X42552472Y-83344298D01*
X42549898Y-83344755D01*
X42547356Y-83345335D01*
X42544849Y-83346038D01*
X42542383Y-83346860D01*
X42539960Y-83347801D01*
X42537586Y-83348858D01*
X42535265Y-83350031D01*
X42533001Y-83351316D01*
X42530798Y-83352712D01*
X42528662Y-83354217D01*
X42526595Y-83355830D01*
X42524603Y-83357549D01*
X42522690Y-83359372D01*
X42522690Y-83359346D01*
X42379624Y-83510693D01*
X42379611Y-83510706D01*
X42377699Y-83512527D01*
X42375707Y-83514245D01*
X42373641Y-83515857D01*
X42371505Y-83517361D01*
X42369303Y-83518756D01*
X42367040Y-83520040D01*
X42364719Y-83521211D01*
X42362346Y-83522268D01*
X42359924Y-83523208D01*
X42357459Y-83524030D01*
X42354953Y-83524732D01*
X42352412Y-83525312D01*
X42349839Y-83525768D01*
X42347240Y-83526099D01*
X42344618Y-83526303D01*
X42341978Y-83526377D01*
X42341978Y-83526442D01*
X40311309Y-83526442D01*
X40298640Y-83526756D01*
X40286057Y-83527692D01*
X40273580Y-83529241D01*
X40261232Y-83531396D01*
X40249032Y-83534146D01*
X40237002Y-83537485D01*
X40225163Y-83541402D01*
X40213535Y-83545889D01*
X40202140Y-83550938D01*
X40190999Y-83556539D01*
X40180132Y-83562685D01*
X40169560Y-83569366D01*
X40159305Y-83576574D01*
X40149387Y-83584300D01*
X40139827Y-83592536D01*
X40130646Y-83601272D01*
X40121910Y-83610453D01*
X40113674Y-83620013D01*
X40105947Y-83629931D01*
X40098739Y-83640186D01*
X40092058Y-83650757D01*
X40085912Y-83661624D01*
X40080310Y-83672765D01*
X40075261Y-83684160D01*
X40070774Y-83695788D01*
X40066857Y-83707626D01*
X40063518Y-83719656D01*
X40060767Y-83731855D01*
X40058613Y-83744203D01*
X40057063Y-83756679D01*
X40056127Y-83769262D01*
X40055813Y-83781930D01*
X40055813Y-85947625D01*
X40055738Y-85950266D01*
X40055534Y-85952889D01*
X40055203Y-85955489D01*
X40054746Y-85958063D01*
X40054166Y-85960605D01*
X40053463Y-85963112D01*
X40052641Y-85965579D01*
X40051700Y-85968001D01*
X40050642Y-85970375D01*
X40049470Y-85972697D01*
X40048185Y-85974961D01*
X40046789Y-85977163D01*
X40045283Y-85979300D01*
X40043670Y-85981366D01*
X40041951Y-85983358D01*
X40040129Y-85985271D01*
X40040348Y-85985271D01*
X39897747Y-86136127D01*
X39895989Y-86138026D01*
X39894332Y-86140000D01*
X39892776Y-86142043D01*
X39891325Y-86144153D01*
X39889979Y-86146325D01*
X39888741Y-86148555D01*
X39887611Y-86150839D01*
X39886592Y-86153173D01*
X39885685Y-86155553D01*
X39884892Y-86157975D01*
X39884214Y-86160434D01*
X39883654Y-86162927D01*
X39883213Y-86165450D01*
X39882892Y-86167998D01*
X39882694Y-86170567D01*
X39882619Y-86173153D01*
X39882619Y-86402933D01*
X39882517Y-86407033D01*
X39882214Y-86411105D01*
X39881713Y-86415142D01*
X39881016Y-86419139D01*
X39880125Y-86423087D01*
X39879045Y-86426980D01*
X39877777Y-86430811D01*
X39876325Y-86434574D01*
X39874691Y-86438261D01*
X39872879Y-86441867D01*
X39870890Y-86445384D01*
X39868727Y-86448805D01*
X39866395Y-86452124D01*
X39863894Y-86455333D01*
X39861229Y-86458427D01*
X39858402Y-86461398D01*
X39855431Y-86464225D01*
X39852337Y-86466890D01*
X39849128Y-86469391D01*
X39845809Y-86471723D01*
X39842388Y-86473886D01*
X39838871Y-86475875D01*
X39835266Y-86477687D01*
X39831578Y-86479321D01*
X39827815Y-86480773D01*
X39823984Y-86482041D01*
X39820091Y-86483122D01*
X39816143Y-86484012D01*
X39812146Y-86484709D01*
X39808109Y-86485211D01*
X39804037Y-86485514D01*
X39799937Y-86485615D01*
X39717254Y-86485615D01*
X39717254Y-83509053D01*
X39717661Y-83492653D01*
X39718873Y-83476364D01*
X39720879Y-83460214D01*
X39723668Y-83444229D01*
X39727229Y-83428437D01*
X39731550Y-83412865D01*
X39736621Y-83397540D01*
X39742430Y-83382488D01*
X39748965Y-83367738D01*
X39756217Y-83353315D01*
X39764172Y-83339249D01*
X39772821Y-83325564D01*
X39782152Y-83312289D01*
X39792153Y-83299450D01*
X39802814Y-83287076D01*
X39814123Y-83275192D01*
X39826007Y-83263883D01*
X39838381Y-83253222D01*
X39851220Y-83243221D01*
X39864495Y-83233890D01*
X39878179Y-83225241D01*
X39892246Y-83217286D01*
X39906669Y-83210034D01*
X39921419Y-83203499D01*
X39936471Y-83197690D01*
X39951796Y-83192619D01*
X39967368Y-83188298D01*
X39983160Y-83184737D01*
X39999145Y-83181948D01*
X40015295Y-83179942D01*
X40031584Y-83178730D01*
X40047984Y-83178323D01*
X42693817Y-83178323D01*
X42693817Y-83261006D01*
G37*
G36*
X40183570Y-85833768D02*
G01*
X40183570Y-85262602D01*
X40496160Y-85262602D01*
X41730361Y-83957229D01*
X40578843Y-83957229D01*
X40574743Y-83957331D01*
X40570671Y-83957634D01*
X40566633Y-83958136D01*
X40562637Y-83958833D01*
X40558689Y-83959723D01*
X40554796Y-83960803D01*
X40550964Y-83962071D01*
X40547202Y-83963523D01*
X40543514Y-83965157D01*
X40539908Y-83966970D01*
X40536392Y-83968959D01*
X40532971Y-83971121D01*
X40529652Y-83973454D01*
X40526442Y-83975954D01*
X40523348Y-83978619D01*
X40520377Y-83981446D01*
X40517550Y-83984417D01*
X40514885Y-83987511D01*
X40512385Y-83990721D01*
X40510052Y-83994040D01*
X40507890Y-83997461D01*
X40505901Y-84000977D01*
X40504088Y-84004583D01*
X40502454Y-84008271D01*
X40501002Y-84012033D01*
X40499734Y-84015865D01*
X40498654Y-84019758D01*
X40497764Y-84023706D01*
X40497067Y-84027702D01*
X40496565Y-84031740D01*
X40496262Y-84035812D01*
X40496160Y-84039912D01*
X40496160Y-85262602D01*
X40183570Y-85262602D01*
X40183570Y-84039912D01*
X40183570Y-83781930D01*
X40183736Y-83775356D01*
X40184229Y-83768869D01*
X40185042Y-83762476D01*
X40186165Y-83756185D01*
X40187592Y-83750005D01*
X40189313Y-83743943D01*
X40191322Y-83738008D01*
X40193609Y-83732207D01*
X40196167Y-83726548D01*
X40198988Y-83721040D01*
X40202064Y-83715691D01*
X40205387Y-83710508D01*
X40208949Y-83705499D01*
X40212741Y-83700674D01*
X40216756Y-83696038D01*
X40220986Y-83691602D01*
X40225422Y-83687372D01*
X40230057Y-83683357D01*
X40234883Y-83679565D01*
X40239891Y-83676003D01*
X40245074Y-83672681D01*
X40250424Y-83669605D01*
X40255932Y-83666783D01*
X40261590Y-83664225D01*
X40267391Y-83661938D01*
X40273327Y-83659930D01*
X40279389Y-83658208D01*
X40285569Y-83656782D01*
X40291860Y-83655658D01*
X40298253Y-83654846D01*
X40304740Y-83654352D01*
X40311314Y-83654186D01*
X42243973Y-83654186D01*
X40183570Y-85833768D01*
G37*
D10*
X282971888Y-53578134D02*
X279796888Y-53578134D01*
X256889448Y-38665988D02*
X257365638Y-38665988D01*
X256794210Y-38951703D02*
X257127543Y-37951703D01*
X257127543Y-37951703D02*
X257460876Y-38951703D01*
X257794210Y-38951703D02*
X257794210Y-37951703D01*
X257794210Y-37951703D02*
X258365638Y-38951703D01*
X258365638Y-38951703D02*
X258365638Y-37951703D01*
X258794210Y-38904084D02*
X258937067Y-38951703D01*
X258937067Y-38951703D02*
X259175162Y-38951703D01*
X259175162Y-38951703D02*
X259270400Y-38904084D01*
X259270400Y-38904084D02*
X259318019Y-38856464D01*
X259318019Y-38856464D02*
X259365638Y-38761226D01*
X259365638Y-38761226D02*
X259365638Y-38665988D01*
X259365638Y-38665988D02*
X259318019Y-38570750D01*
X259318019Y-38570750D02*
X259270400Y-38523131D01*
X259270400Y-38523131D02*
X259175162Y-38475512D01*
X259175162Y-38475512D02*
X258984686Y-38427893D01*
X258984686Y-38427893D02*
X258889448Y-38380274D01*
X258889448Y-38380274D02*
X258841829Y-38332655D01*
X258841829Y-38332655D02*
X258794210Y-38237417D01*
X258794210Y-38237417D02*
X258794210Y-38142179D01*
X258794210Y-38142179D02*
X258841829Y-38046941D01*
X258841829Y-38046941D02*
X258889448Y-37999322D01*
X258889448Y-37999322D02*
X258984686Y-37951703D01*
X258984686Y-37951703D02*
X259222781Y-37951703D01*
X259222781Y-37951703D02*
X259365638Y-37999322D01*
X259794210Y-38951703D02*
X259794210Y-37951703D01*
X142613257Y-82401703D02*
X142422781Y-82401703D01*
X142422781Y-82401703D02*
X142327543Y-82449322D01*
X142327543Y-82449322D02*
X142279924Y-82496941D01*
X142279924Y-82496941D02*
X142184686Y-82639798D01*
X142184686Y-82639798D02*
X142137067Y-82830274D01*
X142137067Y-82830274D02*
X142137067Y-83211226D01*
X142137067Y-83211226D02*
X142184686Y-83306464D01*
X142184686Y-83306464D02*
X142232305Y-83354084D01*
X142232305Y-83354084D02*
X142327543Y-83401703D01*
X142327543Y-83401703D02*
X142518019Y-83401703D01*
X142518019Y-83401703D02*
X142613257Y-83354084D01*
X142613257Y-83354084D02*
X142660876Y-83306464D01*
X142660876Y-83306464D02*
X142708495Y-83211226D01*
X142708495Y-83211226D02*
X142708495Y-82973131D01*
X142708495Y-82973131D02*
X142660876Y-82877893D01*
X142660876Y-82877893D02*
X142613257Y-82830274D01*
X142613257Y-82830274D02*
X142518019Y-82782655D01*
X142518019Y-82782655D02*
X142327543Y-82782655D01*
X142327543Y-82782655D02*
X142232305Y-82830274D01*
X142232305Y-82830274D02*
X142184686Y-82877893D01*
X142184686Y-82877893D02*
X142137067Y-82973131D01*
X143137067Y-83306464D02*
X143184686Y-83354084D01*
X143184686Y-83354084D02*
X143137067Y-83401703D01*
X143137067Y-83401703D02*
X143089448Y-83354084D01*
X143089448Y-83354084D02*
X143137067Y-83306464D01*
X143137067Y-83306464D02*
X143137067Y-83401703D01*
X143565638Y-82496941D02*
X143613257Y-82449322D01*
X143613257Y-82449322D02*
X143708495Y-82401703D01*
X143708495Y-82401703D02*
X143946590Y-82401703D01*
X143946590Y-82401703D02*
X144041828Y-82449322D01*
X144041828Y-82449322D02*
X144089447Y-82496941D01*
X144089447Y-82496941D02*
X144137066Y-82592179D01*
X144137066Y-82592179D02*
X144137066Y-82687417D01*
X144137066Y-82687417D02*
X144089447Y-82830274D01*
X144089447Y-82830274D02*
X143518019Y-83401703D01*
X143518019Y-83401703D02*
X144137066Y-83401703D01*
X145041828Y-82401703D02*
X144565638Y-82401703D01*
X144565638Y-82401703D02*
X144518019Y-82877893D01*
X144518019Y-82877893D02*
X144565638Y-82830274D01*
X144565638Y-82830274D02*
X144660876Y-82782655D01*
X144660876Y-82782655D02*
X144898971Y-82782655D01*
X144898971Y-82782655D02*
X144994209Y-82830274D01*
X144994209Y-82830274D02*
X145041828Y-82877893D01*
X145041828Y-82877893D02*
X145089447Y-82973131D01*
X145089447Y-82973131D02*
X145089447Y-83211226D01*
X145089447Y-83211226D02*
X145041828Y-83306464D01*
X145041828Y-83306464D02*
X144994209Y-83354084D01*
X144994209Y-83354084D02*
X144898971Y-83401703D01*
X144898971Y-83401703D02*
X144660876Y-83401703D01*
X144660876Y-83401703D02*
X144565638Y-83354084D01*
X144565638Y-83354084D02*
X144518019Y-83306464D01*
X145946590Y-82735036D02*
X145946590Y-83401703D01*
X145518019Y-82735036D02*
X145518019Y-83258845D01*
X145518019Y-83258845D02*
X145565638Y-83354084D01*
X145565638Y-83354084D02*
X145660876Y-83401703D01*
X145660876Y-83401703D02*
X145803733Y-83401703D01*
X145803733Y-83401703D02*
X145898971Y-83354084D01*
X145898971Y-83354084D02*
X145946590Y-83306464D01*
X121896293Y-82496941D02*
X121943912Y-82449322D01*
X121943912Y-82449322D02*
X122039150Y-82401703D01*
X122039150Y-82401703D02*
X122277245Y-82401703D01*
X122277245Y-82401703D02*
X122372483Y-82449322D01*
X122372483Y-82449322D02*
X122420102Y-82496941D01*
X122420102Y-82496941D02*
X122467721Y-82592179D01*
X122467721Y-82592179D02*
X122467721Y-82687417D01*
X122467721Y-82687417D02*
X122420102Y-82830274D01*
X122420102Y-82830274D02*
X121848674Y-83401703D01*
X121848674Y-83401703D02*
X122467721Y-83401703D01*
X123324864Y-82735036D02*
X123324864Y-83401703D01*
X122896293Y-82735036D02*
X122896293Y-83258845D01*
X122896293Y-83258845D02*
X122943912Y-83354084D01*
X122943912Y-83354084D02*
X123039150Y-83401703D01*
X123039150Y-83401703D02*
X123182007Y-83401703D01*
X123182007Y-83401703D02*
X123277245Y-83354084D01*
X123277245Y-83354084D02*
X123324864Y-83306464D01*
X265170457Y-33146883D02*
X264170457Y-33146883D01*
X265122838Y-32718312D02*
X265170457Y-32575455D01*
X265170457Y-32575455D02*
X265170457Y-32337360D01*
X265170457Y-32337360D02*
X265122838Y-32242122D01*
X265122838Y-32242122D02*
X265075218Y-32194503D01*
X265075218Y-32194503D02*
X264979980Y-32146884D01*
X264979980Y-32146884D02*
X264884742Y-32146884D01*
X264884742Y-32146884D02*
X264789504Y-32194503D01*
X264789504Y-32194503D02*
X264741885Y-32242122D01*
X264741885Y-32242122D02*
X264694266Y-32337360D01*
X264694266Y-32337360D02*
X264646647Y-32527836D01*
X264646647Y-32527836D02*
X264599028Y-32623074D01*
X264599028Y-32623074D02*
X264551409Y-32670693D01*
X264551409Y-32670693D02*
X264456171Y-32718312D01*
X264456171Y-32718312D02*
X264360933Y-32718312D01*
X264360933Y-32718312D02*
X264265695Y-32670693D01*
X264265695Y-32670693D02*
X264218076Y-32623074D01*
X264218076Y-32623074D02*
X264170457Y-32527836D01*
X264170457Y-32527836D02*
X264170457Y-32289741D01*
X264170457Y-32289741D02*
X264218076Y-32146884D01*
X264170457Y-31527836D02*
X264170457Y-31337360D01*
X264170457Y-31337360D02*
X264218076Y-31242122D01*
X264218076Y-31242122D02*
X264313314Y-31146884D01*
X264313314Y-31146884D02*
X264503790Y-31099265D01*
X264503790Y-31099265D02*
X264837123Y-31099265D01*
X264837123Y-31099265D02*
X265027599Y-31146884D01*
X265027599Y-31146884D02*
X265122838Y-31242122D01*
X265122838Y-31242122D02*
X265170457Y-31337360D01*
X265170457Y-31337360D02*
X265170457Y-31527836D01*
X265170457Y-31527836D02*
X265122838Y-31623074D01*
X265122838Y-31623074D02*
X265027599Y-31718312D01*
X265027599Y-31718312D02*
X264837123Y-31765931D01*
X264837123Y-31765931D02*
X264503790Y-31765931D01*
X264503790Y-31765931D02*
X264313314Y-31718312D01*
X264313314Y-31718312D02*
X264218076Y-31623074D01*
X264218076Y-31623074D02*
X264170457Y-31527836D01*
X161187067Y-82496941D02*
X161234686Y-82449322D01*
X161234686Y-82449322D02*
X161329924Y-82401703D01*
X161329924Y-82401703D02*
X161568019Y-82401703D01*
X161568019Y-82401703D02*
X161663257Y-82449322D01*
X161663257Y-82449322D02*
X161710876Y-82496941D01*
X161710876Y-82496941D02*
X161758495Y-82592179D01*
X161758495Y-82592179D02*
X161758495Y-82687417D01*
X161758495Y-82687417D02*
X161710876Y-82830274D01*
X161710876Y-82830274D02*
X161139448Y-83401703D01*
X161139448Y-83401703D02*
X161758495Y-83401703D01*
X162187067Y-83306464D02*
X162234686Y-83354084D01*
X162234686Y-83354084D02*
X162187067Y-83401703D01*
X162187067Y-83401703D02*
X162139448Y-83354084D01*
X162139448Y-83354084D02*
X162187067Y-83306464D01*
X162187067Y-83306464D02*
X162187067Y-83401703D01*
X162615638Y-82496941D02*
X162663257Y-82449322D01*
X162663257Y-82449322D02*
X162758495Y-82401703D01*
X162758495Y-82401703D02*
X162996590Y-82401703D01*
X162996590Y-82401703D02*
X163091828Y-82449322D01*
X163091828Y-82449322D02*
X163139447Y-82496941D01*
X163139447Y-82496941D02*
X163187066Y-82592179D01*
X163187066Y-82592179D02*
X163187066Y-82687417D01*
X163187066Y-82687417D02*
X163139447Y-82830274D01*
X163139447Y-82830274D02*
X162568019Y-83401703D01*
X162568019Y-83401703D02*
X163187066Y-83401703D01*
X164091828Y-82401703D02*
X163615638Y-82401703D01*
X163615638Y-82401703D02*
X163568019Y-82877893D01*
X163568019Y-82877893D02*
X163615638Y-82830274D01*
X163615638Y-82830274D02*
X163710876Y-82782655D01*
X163710876Y-82782655D02*
X163948971Y-82782655D01*
X163948971Y-82782655D02*
X164044209Y-82830274D01*
X164044209Y-82830274D02*
X164091828Y-82877893D01*
X164091828Y-82877893D02*
X164139447Y-82973131D01*
X164139447Y-82973131D02*
X164139447Y-83211226D01*
X164139447Y-83211226D02*
X164091828Y-83306464D01*
X164091828Y-83306464D02*
X164044209Y-83354084D01*
X164044209Y-83354084D02*
X163948971Y-83401703D01*
X163948971Y-83401703D02*
X163710876Y-83401703D01*
X163710876Y-83401703D02*
X163615638Y-83354084D01*
X163615638Y-83354084D02*
X163568019Y-83306464D01*
X164996590Y-82735036D02*
X164996590Y-83401703D01*
X164568019Y-82735036D02*
X164568019Y-83258845D01*
X164568019Y-83258845D02*
X164615638Y-83354084D01*
X164615638Y-83354084D02*
X164710876Y-83401703D01*
X164710876Y-83401703D02*
X164853733Y-83401703D01*
X164853733Y-83401703D02*
X164948971Y-83354084D01*
X164948971Y-83354084D02*
X164996590Y-83306464D01*
X23384090Y-45254084D02*
X23526947Y-45301703D01*
X23526947Y-45301703D02*
X23765042Y-45301703D01*
X23765042Y-45301703D02*
X23860280Y-45254084D01*
X23860280Y-45254084D02*
X23907899Y-45206464D01*
X23907899Y-45206464D02*
X23955518Y-45111226D01*
X23955518Y-45111226D02*
X23955518Y-45015988D01*
X23955518Y-45015988D02*
X23907899Y-44920750D01*
X23907899Y-44920750D02*
X23860280Y-44873131D01*
X23860280Y-44873131D02*
X23765042Y-44825512D01*
X23765042Y-44825512D02*
X23574566Y-44777893D01*
X23574566Y-44777893D02*
X23479328Y-44730274D01*
X23479328Y-44730274D02*
X23431709Y-44682655D01*
X23431709Y-44682655D02*
X23384090Y-44587417D01*
X23384090Y-44587417D02*
X23384090Y-44492179D01*
X23384090Y-44492179D02*
X23431709Y-44396941D01*
X23431709Y-44396941D02*
X23479328Y-44349322D01*
X23479328Y-44349322D02*
X23574566Y-44301703D01*
X23574566Y-44301703D02*
X23812661Y-44301703D01*
X23812661Y-44301703D02*
X23955518Y-44349322D01*
X24241233Y-44301703D02*
X24812661Y-44301703D01*
X24526947Y-45301703D02*
X24526947Y-44301703D01*
X25145995Y-44777893D02*
X25479328Y-44777893D01*
X25622185Y-45301703D02*
X25145995Y-45301703D01*
X25145995Y-45301703D02*
X25145995Y-44301703D01*
X25145995Y-44301703D02*
X25622185Y-44301703D01*
X26050757Y-45301703D02*
X26050757Y-44301703D01*
X26050757Y-44301703D02*
X26431709Y-44301703D01*
X26431709Y-44301703D02*
X26526947Y-44349322D01*
X26526947Y-44349322D02*
X26574566Y-44396941D01*
X26574566Y-44396941D02*
X26622185Y-44492179D01*
X26622185Y-44492179D02*
X26622185Y-44635036D01*
X26622185Y-44635036D02*
X26574566Y-44730274D01*
X26574566Y-44730274D02*
X26526947Y-44777893D01*
X26526947Y-44777893D02*
X26431709Y-44825512D01*
X26431709Y-44825512D02*
X26050757Y-44825512D01*
%LPC*%
D12*
%TO.C,MX15*%
X19923138Y-41671884D03*
D13*
X25003138Y-41671884D03*
D12*
X30083138Y-41671884D03*
%TD*%
%TO.C,MX49*%
X158035638Y-79771884D03*
D13*
X163115638Y-79771884D03*
D12*
X168195638Y-79771884D03*
%TD*%
%TO.C,MX7*%
X141366888Y-22621884D03*
D13*
X146446888Y-22621884D03*
D12*
X151526888Y-22621884D03*
%TD*%
%TO.C,MX22*%
X165179388Y-41671884D03*
D13*
X170259388Y-41671884D03*
D12*
X175339388Y-41671884D03*
%TD*%
%TO.C,MX46*%
X117554388Y-79771884D03*
D13*
X122634388Y-79771884D03*
D12*
X127714388Y-79771884D03*
%TD*%
%TO.C,MX30*%
X19923138Y-60721884D03*
D13*
X25003138Y-60721884D03*
D12*
X30083138Y-60721884D03*
%TD*%
%TO.C,MX1*%
X22304388Y-22621884D03*
D13*
X27384388Y-22621884D03*
D12*
X32464388Y-22621884D03*
%TD*%
%TO.C,MX41*%
X231854388Y-60721884D03*
D13*
X236934388Y-60721884D03*
D12*
X242014388Y-60721884D03*
%TD*%
D13*
%TO.C,S5*%
X134540638Y-71516884D03*
X110728138Y-71516884D03*
%TD*%
D12*
%TO.C,MX4*%
X84216888Y-22621884D03*
D13*
X89296888Y-22621884D03*
D12*
X94376888Y-22621884D03*
%TD*%
%TO.C,MX34*%
X98504388Y-60721884D03*
D13*
X103584388Y-60721884D03*
D12*
X108664388Y-60721884D03*
%TD*%
%TO.C,MX9*%
X179466888Y-22621884D03*
D13*
X184546888Y-22621884D03*
D12*
X189626888Y-22621884D03*
%TD*%
%TO.C,MX51*%
X188991888Y-79771884D03*
D13*
X194071888Y-79771884D03*
D12*
X199151888Y-79771884D03*
%TD*%
%TO.C,MX36*%
X136604388Y-60721884D03*
D13*
X141684388Y-60721884D03*
D12*
X146764388Y-60721884D03*
%TD*%
%TO.C,MX45*%
X88979388Y-79771884D03*
D13*
X94059388Y-79771884D03*
D12*
X99139388Y-79771884D03*
%TD*%
%TO.C,MX14*%
X24685638Y-41671884D03*
D13*
X29765638Y-41671884D03*
D12*
X34845638Y-41671884D03*
%TD*%
%TO.C,MX11*%
X217566888Y-22621884D03*
D13*
X222646888Y-22621884D03*
D12*
X227726888Y-22621884D03*
%TD*%
%TO.C,MX26*%
X241379388Y-41671884D03*
D13*
X246459388Y-41671884D03*
D12*
X251539388Y-41671884D03*
%TD*%
%TO.C,MX10*%
X198516888Y-22621884D03*
D13*
X203596888Y-22621884D03*
D12*
X208676888Y-22621884D03*
%TD*%
%TO.C,MX8*%
X160416888Y-22621884D03*
D13*
X165496888Y-22621884D03*
D12*
X170576888Y-22621884D03*
%TD*%
%TO.C,MX20*%
X127079388Y-41671884D03*
D13*
X132159388Y-41671884D03*
D12*
X137239388Y-41671884D03*
%TD*%
%TO.C,MX52*%
X212804388Y-79771884D03*
D13*
X217884388Y-79771884D03*
D12*
X222964388Y-79771884D03*
%TD*%
%TO.C,MX44*%
X65166888Y-79771884D03*
D13*
X70246888Y-79771884D03*
D12*
X75326888Y-79771884D03*
%TD*%
%TO.C,MX16*%
X50879388Y-41671884D03*
D13*
X55959388Y-41671884D03*
D12*
X61039388Y-41671884D03*
%TD*%
%TO.C,MX32*%
X60404388Y-60721884D03*
D13*
X65484388Y-60721884D03*
D12*
X70564388Y-60721884D03*
%TD*%
%TO.C,MX40*%
X212804388Y-60721884D03*
D13*
X217884388Y-60721884D03*
D12*
X222964388Y-60721884D03*
%TD*%
%TO.C,MX23*%
X184229388Y-41671884D03*
D13*
X189309388Y-41671884D03*
D12*
X194389388Y-41671884D03*
%TD*%
%TO.C,MX37*%
X155654388Y-60721884D03*
D13*
X160734388Y-60721884D03*
D12*
X165814388Y-60721884D03*
%TD*%
%TO.C,MX38*%
X174704388Y-60721884D03*
D13*
X179784388Y-60721884D03*
D12*
X184864388Y-60721884D03*
%TD*%
%TO.C,MX27*%
X253285638Y-41671884D03*
D13*
X258365638Y-41671884D03*
D12*
X263445638Y-41671884D03*
%TD*%
%TO.C,MX18*%
X88979388Y-41671884D03*
D13*
X94059388Y-41671884D03*
D12*
X99139388Y-41671884D03*
%TD*%
%TO.C,MX17*%
X69929388Y-41671884D03*
D13*
X75009388Y-41671884D03*
D12*
X80089388Y-41671884D03*
%TD*%
%TO.C,MX31*%
X41354388Y-60721884D03*
D13*
X46434388Y-60721884D03*
D12*
X51514388Y-60721884D03*
%TD*%
%TO.C,MX19*%
X108029388Y-41671884D03*
D13*
X113109388Y-41671884D03*
D12*
X118189388Y-41671884D03*
%TD*%
%TO.C,MX3*%
X65166888Y-22621884D03*
D13*
X70246888Y-22621884D03*
D12*
X75326888Y-22621884D03*
%TD*%
%TO.C,MX39*%
X193754388Y-60721884D03*
D13*
X198834388Y-60721884D03*
D12*
X203914388Y-60721884D03*
%TD*%
%TO.C,MX6*%
X122316888Y-22621884D03*
D13*
X127396888Y-22621884D03*
D12*
X132476888Y-22621884D03*
%TD*%
%TO.C,MX13*%
X260429388Y-22621884D03*
D13*
X265509388Y-22621884D03*
D12*
X270589388Y-22621884D03*
%TD*%
D13*
%TO.C,S6*%
X175021888Y-71516884D03*
X151209388Y-71516884D03*
%TD*%
D12*
%TO.C,MX53*%
X236616888Y-79771884D03*
D13*
X241696888Y-79771884D03*
D12*
X246776888Y-79771884D03*
%TD*%
%TO.C,MX21*%
X146129388Y-41671884D03*
D13*
X151209388Y-41671884D03*
D12*
X156289388Y-41671884D03*
%TD*%
%TO.C,MX28*%
X267890638Y-37226884D03*
D13*
X267890638Y-32146884D03*
D12*
X267890638Y-27066884D03*
%TD*%
%TO.C,MX5*%
X103266888Y-22621884D03*
D13*
X108346888Y-22621884D03*
D12*
X113426888Y-22621884D03*
%TD*%
%TO.C,MX33*%
X79454388Y-60721884D03*
D13*
X84534388Y-60721884D03*
D12*
X89614388Y-60721884D03*
%TD*%
%TO.C,MX35*%
X117554388Y-60721884D03*
D13*
X122634388Y-60721884D03*
D12*
X127714388Y-60721884D03*
%TD*%
%TO.C,MX25*%
X222329388Y-41671884D03*
D13*
X227409388Y-41671884D03*
D12*
X232489388Y-41671884D03*
%TD*%
D13*
%TO.C,S3*%
X259635638Y-20240634D03*
X259635638Y-44053134D03*
%TD*%
D12*
%TO.C,MX2*%
X46116888Y-22621884D03*
D13*
X51196888Y-22621884D03*
D12*
X56276888Y-22621884D03*
%TD*%
D13*
%TO.C,S1*%
X270271888Y-33416884D03*
X246459388Y-33416884D03*
%TD*%
D12*
%TO.C,MX43*%
X41354388Y-79771884D03*
D13*
X46434388Y-79771884D03*
D12*
X51514388Y-79771884D03*
%TD*%
%TO.C,MX48*%
X138985638Y-79771884D03*
D13*
X144065638Y-79771884D03*
D12*
X149145638Y-79771884D03*
%TD*%
D13*
%TO.C,S4*%
X194071888Y-71516884D03*
X94059388Y-71516884D03*
%TD*%
D12*
%TO.C,MX42*%
X258048138Y-60721884D03*
D13*
X263128138Y-60721884D03*
D12*
X268208138Y-60721884D03*
%TD*%
%TO.C,MX24*%
X203279388Y-41671884D03*
D13*
X208359388Y-41671884D03*
D12*
X213439388Y-41671884D03*
%TD*%
%TO.C,MX12*%
X236616888Y-22621884D03*
D13*
X241696888Y-22621884D03*
D12*
X246776888Y-22621884D03*
%TD*%
D14*
%TO.C,J2*%
X15478138Y-60245634D03*
D15*
X15478138Y-62785634D03*
X15478138Y-65325634D03*
X15478138Y-67865634D03*
%TD*%
%LPD*%
M02*
