%TF.GenerationSoftware,KiCad,Pcbnew,8.0.5*%
%TF.CreationDate,2024-09-21T22:15:35+05:30*%
%TF.ProjectId,kalam,6b616c61-6d2e-46b6-9963-61645f706362,rev?*%
%TF.SameCoordinates,Original*%
%TF.FileFunction,Paste,Bot*%
%TF.FilePolarity,Positive*%
%FSLAX46Y46*%
G04 Gerber Fmt 4.6, Leading zero omitted, Abs format (unit mm)*
G04 Created by KiCad (PCBNEW 8.0.5) date 2024-09-21 22:15:35*
%MOMM*%
%LPD*%
G01*
G04 APERTURE LIST*
G04 Aperture macros list*
%AMRoundRect*
0 Rectangle with rounded corners*
0 $1 Rounding radius*
0 $2 $3 $4 $5 $6 $7 $8 $9 X,Y pos of 4 corners*
0 Add a 4 corners polygon primitive as box body*
4,1,4,$2,$3,$4,$5,$6,$7,$8,$9,$2,$3,0*
0 Add four circle primitives for the rounded corners*
1,1,$1+$1,$2,$3*
1,1,$1+$1,$4,$5*
1,1,$1+$1,$6,$7*
1,1,$1+$1,$8,$9*
0 Add four rect primitives between the rounded corners*
20,1,$1+$1,$2,$3,$4,$5,0*
20,1,$1+$1,$4,$5,$6,$7,0*
20,1,$1+$1,$6,$7,$8,$9,0*
20,1,$1+$1,$8,$9,$2,$3,0*%
G04 Aperture macros list end*
%ADD10RoundRect,0.140000X0.140000X0.170000X-0.140000X0.170000X-0.140000X-0.170000X0.140000X-0.170000X0*%
%ADD11RoundRect,0.225000X0.375000X-0.225000X0.375000X0.225000X-0.375000X0.225000X-0.375000X-0.225000X0*%
%ADD12R,1.000000X0.750000*%
%ADD13RoundRect,0.225000X-0.225000X-0.250000X0.225000X-0.250000X0.225000X0.250000X-0.225000X0.250000X0*%
%ADD14RoundRect,0.200000X0.275000X-0.200000X0.275000X0.200000X-0.275000X0.200000X-0.275000X-0.200000X0*%
%ADD15RoundRect,0.140000X-0.170000X0.140000X-0.170000X-0.140000X0.170000X-0.140000X0.170000X0.140000X0*%
%ADD16RoundRect,0.140000X-0.140000X-0.170000X0.140000X-0.170000X0.140000X0.170000X-0.140000X0.170000X0*%
%ADD17RoundRect,0.225000X-0.250000X0.225000X-0.250000X-0.225000X0.250000X-0.225000X0.250000X0.225000X0*%
%ADD18RoundRect,0.150000X-0.625000X0.150000X-0.625000X-0.150000X0.625000X-0.150000X0.625000X0.150000X0*%
%ADD19RoundRect,0.250000X-0.650000X0.350000X-0.650000X-0.350000X0.650000X-0.350000X0.650000X0.350000X0*%
%ADD20RoundRect,0.225000X0.225000X0.250000X-0.225000X0.250000X-0.225000X-0.250000X0.225000X-0.250000X0*%
%ADD21RoundRect,0.075000X0.075000X-0.662500X0.075000X0.662500X-0.075000X0.662500X-0.075000X-0.662500X0*%
%ADD22RoundRect,0.075000X0.662500X-0.075000X0.662500X0.075000X-0.662500X0.075000X-0.662500X-0.075000X0*%
%ADD23RoundRect,0.150000X0.150000X-0.512500X0.150000X0.512500X-0.150000X0.512500X-0.150000X-0.512500X0*%
%ADD24RoundRect,0.140000X0.170000X-0.140000X0.170000X0.140000X-0.170000X0.140000X-0.170000X-0.140000X0*%
G04 APERTURE END LIST*
D10*
%TO.C,C6*%
X60716706Y-64190669D03*
X59756706Y-64190669D03*
%TD*%
D11*
%TO.C,D5*%
X99317956Y-24705460D03*
X99317956Y-21405460D03*
%TD*%
%TO.C,D4*%
X80267956Y-24705460D03*
X80267956Y-21405460D03*
%TD*%
D12*
%TO.C,SW1*%
X81236754Y-50899210D03*
X87236754Y-50899210D03*
X81236754Y-47149210D03*
X87236754Y-47149210D03*
%TD*%
D11*
%TO.C,D18*%
X123130456Y-43755460D03*
X123130456Y-40455460D03*
%TD*%
D13*
%TO.C,C9*%
X62824206Y-38992960D03*
X64374206Y-38992960D03*
%TD*%
D14*
%TO.C,R1*%
X88999258Y-50899210D03*
X88999258Y-49249210D03*
%TD*%
D15*
%TO.C,C4*%
X51211706Y-66433030D03*
X51211706Y-67393030D03*
%TD*%
D11*
%TO.C,D38*%
X218380338Y-81855412D03*
X218380338Y-78555412D03*
%TD*%
%TO.C,D14*%
X46930456Y-43755460D03*
X46930456Y-40455460D03*
%TD*%
D16*
%TO.C,C1*%
X62623082Y-73223386D03*
X63583082Y-73223386D03*
%TD*%
D11*
%TO.C,D12*%
X237529534Y-24867160D03*
X237529534Y-21567160D03*
%TD*%
%TO.C,D39*%
X223142820Y-81855412D03*
X223142820Y-78555412D03*
%TD*%
%TO.C,D17*%
X104080456Y-43755460D03*
X104080456Y-40455460D03*
%TD*%
D17*
%TO.C,C5*%
X49877380Y-65572345D03*
X49877380Y-67122345D03*
%TD*%
D11*
%TO.C,D22*%
X199330456Y-43755460D03*
X199330456Y-40455460D03*
%TD*%
%TO.C,D36*%
X75307014Y-82649210D03*
X75307014Y-79349210D03*
%TD*%
D13*
%TO.C,C3*%
X60986706Y-74592185D03*
X62536706Y-74592185D03*
%TD*%
D11*
%TO.C,D34*%
X242192804Y-62805460D03*
X242192804Y-59505460D03*
%TD*%
%TO.C,D8*%
X156467956Y-24705460D03*
X156467956Y-21405460D03*
%TD*%
%TO.C,D9*%
X175517956Y-24705460D03*
X175517956Y-21405460D03*
%TD*%
%TO.C,D3*%
X61217956Y-24705460D03*
X61217956Y-21405460D03*
%TD*%
%TO.C,D35*%
X54074206Y-81917960D03*
X54074206Y-78617960D03*
%TD*%
%TO.C,D32*%
X206474206Y-62805460D03*
X206474206Y-59505460D03*
%TD*%
%TO.C,D24*%
X30956234Y-65646050D03*
X30956234Y-62346050D03*
%TD*%
%TO.C,D10*%
X194567956Y-24705460D03*
X194567956Y-21405460D03*
%TD*%
%TO.C,D1*%
X35024206Y-24705460D03*
X35024206Y-21405460D03*
%TD*%
%TO.C,D30*%
X168374206Y-62805460D03*
X168374206Y-59505460D03*
%TD*%
%TO.C,D19*%
X142180456Y-43755460D03*
X142180456Y-40455460D03*
%TD*%
D18*
%TO.C,J1*%
X48105456Y-29555460D03*
X48105456Y-30555460D03*
X48105456Y-31555460D03*
X48105456Y-32555460D03*
D19*
X51980456Y-28255460D03*
X51980456Y-33855460D03*
%TD*%
D11*
%TO.C,D29*%
X149324206Y-62805460D03*
X149324206Y-59505460D03*
%TD*%
D16*
%TO.C,C2*%
X55081706Y-75799170D03*
X56041706Y-75799170D03*
%TD*%
D11*
%TO.C,D21*%
X180280456Y-43755460D03*
X180280456Y-40455460D03*
%TD*%
%TO.C,D2*%
X42167956Y-21405460D03*
X42167956Y-24705460D03*
%TD*%
%TO.C,D26*%
X92174206Y-62805460D03*
X92174206Y-59505460D03*
%TD*%
%TO.C,D20*%
X161230456Y-43755460D03*
X161230456Y-40455460D03*
%TD*%
%TO.C,D25*%
X73124206Y-62805460D03*
X73124206Y-59505460D03*
%TD*%
%TO.C,D31*%
X187424206Y-62805460D03*
X187424206Y-59505460D03*
%TD*%
D20*
%TO.C,C7*%
X61561706Y-62874170D03*
X60011706Y-62874170D03*
%TD*%
D11*
%TO.C,D13*%
X37405456Y-43755460D03*
X37405456Y-40455460D03*
%TD*%
%TO.C,D16*%
X85030456Y-43755460D03*
X85030456Y-40455460D03*
%TD*%
%TO.C,D6*%
X118367956Y-24705460D03*
X118367956Y-21405460D03*
%TD*%
%TO.C,D7*%
X137417956Y-24705460D03*
X137417956Y-21405460D03*
%TD*%
%TO.C,D23*%
X230088134Y-43917128D03*
X230088134Y-40617128D03*
%TD*%
%TO.C,D33*%
X232767038Y-62805428D03*
X232767038Y-59505428D03*
%TD*%
D21*
%TO.C,U2*%
X59711706Y-74111670D03*
X59211706Y-74111670D03*
X58711706Y-74111670D03*
X58211706Y-74111670D03*
X57711706Y-74111670D03*
X57211706Y-74111670D03*
X56711706Y-74111670D03*
X56211706Y-74111670D03*
X55711706Y-74111670D03*
X55211706Y-74111670D03*
X54711706Y-74111670D03*
X54211706Y-74111670D03*
D22*
X52799206Y-72699170D03*
X52799206Y-72199170D03*
X52799206Y-71699170D03*
X52799206Y-71199170D03*
X52799206Y-70699170D03*
X52799206Y-70199170D03*
X52799206Y-69699170D03*
X52799206Y-69199170D03*
X52799206Y-68699170D03*
X52799206Y-68199170D03*
X52799206Y-67699170D03*
X52799206Y-67199170D03*
D21*
X54211706Y-65786670D03*
X54711706Y-65786670D03*
X55211706Y-65786670D03*
X55711706Y-65786670D03*
X56211706Y-65786670D03*
X56711706Y-65786670D03*
X57211706Y-65786670D03*
X57711706Y-65786670D03*
X58211706Y-65786670D03*
X58711706Y-65786670D03*
X59211706Y-65786670D03*
X59711706Y-65786670D03*
D22*
X61124206Y-67199170D03*
X61124206Y-67699170D03*
X61124206Y-68199170D03*
X61124206Y-68699170D03*
X61124206Y-69199170D03*
X61124206Y-69699170D03*
X61124206Y-70199170D03*
X61124206Y-70699170D03*
X61124206Y-71199170D03*
X61124206Y-71699170D03*
X61124206Y-72199170D03*
X61124206Y-72699170D03*
%TD*%
D11*
%TO.C,D27*%
X111224206Y-62805460D03*
X111224206Y-59505460D03*
%TD*%
%TO.C,D11*%
X213617956Y-24705460D03*
X213617956Y-21405460D03*
%TD*%
D13*
%TO.C,C8*%
X63599206Y-32642960D03*
X65149206Y-32642960D03*
%TD*%
D11*
%TO.C,D15*%
X65980456Y-43755460D03*
X65980456Y-40455460D03*
%TD*%
%TO.C,D28*%
X130274206Y-62805460D03*
X130274206Y-59505460D03*
%TD*%
D23*
%TO.C,U1*%
X64549206Y-36955460D03*
X62649206Y-36955460D03*
X63599206Y-34680460D03*
%TD*%
D11*
%TO.C,D37*%
X130274148Y-81917912D03*
X130274148Y-78617912D03*
%TD*%
D24*
%TO.C,C10*%
X57447618Y-76729170D03*
X57447618Y-75769170D03*
%TD*%
M02*
