0
SECTION
2
HEADER
9
$INSUNITS
70
4
0
ENDSEC
0
SECTION
2
TABLES
0
TABLE
2
LTYPE
0
LTYPE
72
65
70
64
2
CONTINUOUS
3
______
73
0
40
0
0
ENDTAB
0
TABLE
2
LAYER
0
ENDTAB
0
ENDSEC
0
SECTION
2
ENTITIES
0
LINE
8
0
10
7.7875
20
-2.525
11
20.7875
21
-2.525
0
LINE
8
0
10
7.7875
20
-16.525
11
20.7875
21
-16.525
0
LINE
8
0
10
7.2875
20
-3.025
11
7.2875
21
-16.025
0
LINE
8
0
10
21.2875
20
-3.025
11
21.2875
21
-16.025
0
ARC
8
0
10
7.7875
20
-3.025
40
0.5
50
90
51
180
0
ARC
8
0
10
20.7875
20
-3.025
40
0.5
50
0
51
90
0
ARC
8
0
10
7.7875
20
-16.025
40
0.5
50
180
51
270
0
ARC
8
0
10
20.7875
20
-16.025
40
0.5
50
270
51
0
0
LINE
8
0
10
31.6
20
-2.525
11
44.6
21
-2.525
0
LINE
8
0
10
31.6
20
-16.525
11
44.6
21
-16.525
0
LINE
8
0
10
31.1
20
-3.025
11
31.1
21
-16.025
0
LINE
8
0
10
45.1
20
-3.025
11
45.1
21
-16.025
0
ARC
8
0
10
31.6
20
-3.025
40
0.5
50
90
51
180
0
ARC
8
0
10
44.6
20
-3.025
40
0.5
50
0
51
90
0
ARC
8
0
10
31.6
20
-16.025
40
0.5
50
180
51
270
0
ARC
8
0
10
44.6
20
-16.025
40
0.5
50
270
51
0
0
LINE
8
0
10
50.65
20
-2.525
11
63.65
21
-2.525
0
LINE
8
0
10
50.65
20
-16.525
11
63.65
21
-16.525
0
LINE
8
0
10
50.15
20
-3.025
11
50.15
21
-16.025
0
LINE
8
0
10
64.15
20
-3.025
11
64.15
21
-16.025
0
ARC
8
0
10
50.65
20
-3.025
40
0.5
50
90
51
180
0
ARC
8
0
10
63.65
20
-3.025
40
0.5
50
0
51
90
0
ARC
8
0
10
50.65
20
-16.025
40
0.5
50
180
51
270
0
ARC
8
0
10
63.65
20
-16.025
40
0.5
50
270
51
0
0
LINE
8
0
10
69.7
20
-2.525
11
82.7
21
-2.525
0
LINE
8
0
10
69.7
20
-16.525
11
82.7
21
-16.525
0
LINE
8
0
10
69.2
20
-3.025
11
69.2
21
-16.025
0
LINE
8
0
10
83.2
20
-3.025
11
83.2
21
-16.025
0
ARC
8
0
10
69.7
20
-3.025
40
0.5
50
90
51
180
0
ARC
8
0
10
82.7
20
-3.025
40
0.5
50
0
51
90
0
ARC
8
0
10
69.7
20
-16.025
40
0.5
50
180
51
270
0
ARC
8
0
10
82.7
20
-16.025
40
0.5
50
270
51
0
0
LINE
8
0
10
88.75
20
-2.525
11
101.75
21
-2.525
0
LINE
8
0
10
88.75
20
-16.525
11
101.75
21
-16.525
0
LINE
8
0
10
88.25
20
-3.025
11
88.25
21
-16.025
0
LINE
8
0
10
102.25
20
-3.025
11
102.25
21
-16.025
0
ARC
8
0
10
88.75
20
-3.025
40
0.5
50
90
51
180
0
ARC
8
0
10
101.75
20
-3.025
40
0.5
50
0
51
90
0
ARC
8
0
10
88.75
20
-16.025
40
0.5
50
180
51
270
0
ARC
8
0
10
101.75
20
-16.025
40
0.5
50
270
51
0
0
LINE
8
0
10
107.8
20
-2.525
11
120.8
21
-2.525
0
LINE
8
0
10
107.8
20
-16.525
11
120.8
21
-16.525
0
LINE
8
0
10
107.3
20
-3.025
11
107.3
21
-16.025
0
LINE
8
0
10
121.3
20
-3.025
11
121.3
21
-16.025
0
ARC
8
0
10
107.8
20
-3.025
40
0.5
50
90
51
180
0
ARC
8
0
10
120.8
20
-3.025
40
0.5
50
0
51
90
0
ARC
8
0
10
107.8
20
-16.025
40
0.5
50
180
51
270
0
ARC
8
0
10
120.8
20
-16.025
40
0.5
50
270
51
0
0
LINE
8
0
10
126.85
20
-2.525
11
139.85
21
-2.525
0
LINE
8
0
10
126.85
20
-16.525
11
139.85
21
-16.525
0
LINE
8
0
10
126.35
20
-3.025
11
126.35
21
-16.025
0
LINE
8
0
10
140.35
20
-3.025
11
140.35
21
-16.025
0
ARC
8
0
10
126.85
20
-3.025
40
0.5
50
90
51
180
0
ARC
8
0
10
139.85
20
-3.025
40
0.5
50
0
51
90
0
ARC
8
0
10
126.85
20
-16.025
40
0.5
50
180
51
270
0
ARC
8
0
10
139.85
20
-16.025
40
0.5
50
270
51
0
0
LINE
8
0
10
145.9
20
-2.525
11
158.9
21
-2.525
0
LINE
8
0
10
145.9
20
-16.525
11
158.9
21
-16.525
0
LINE
8
0
10
145.4
20
-3.025
11
145.4
21
-16.025
0
LINE
8
0
10
159.4
20
-3.025
11
159.4
21
-16.025
0
ARC
8
0
10
145.9
20
-3.025
40
0.5
50
90
51
180
0
ARC
8
0
10
158.9
20
-3.025
40
0.5
50
0
51
90
0
ARC
8
0
10
145.9
20
-16.025
40
0.5
50
180
51
270
0
ARC
8
0
10
158.9
20
-16.025
40
0.5
50
270
51
0
0
LINE
8
0
10
164.95
20
-2.525
11
177.95
21
-2.525
0
LINE
8
0
10
164.95
20
-16.525
11
177.95
21
-16.525
0
LINE
8
0
10
164.45
20
-3.025
11
164.45
21
-16.025
0
LINE
8
0
10
178.45
20
-3.025
11
178.45
21
-16.025
0
ARC
8
0
10
164.95
20
-3.025
40
0.5
50
90
51
180
0
ARC
8
0
10
177.95
20
-3.025
40
0.5
50
0
51
90
0
ARC
8
0
10
164.95
20
-16.025
40
0.5
50
180
51
270
0
ARC
8
0
10
177.95
20
-16.025
40
0.5
50
270
51
0
0
LINE
8
0
10
184
20
-2.525
11
197
21
-2.525
0
LINE
8
0
10
184
20
-16.525
11
197
21
-16.525
0
LINE
8
0
10
183.5
20
-3.025
11
183.5
21
-16.025
0
LINE
8
0
10
197.5
20
-3.025
11
197.5
21
-16.025
0
ARC
8
0
10
184
20
-3.025
40
0.5
50
90
51
180
0
ARC
8
0
10
197
20
-3.025
40
0.5
50
0
51
90
0
ARC
8
0
10
184
20
-16.025
40
0.5
50
180
51
270
0
ARC
8
0
10
197
20
-16.025
40
0.5
50
270
51
0
0
LINE
8
0
10
203.05
20
-2.525
11
216.05
21
-2.525
0
LINE
8
0
10
203.05
20
-16.525
11
216.05
21
-16.525
0
LINE
8
0
10
202.55
20
-3.025
11
202.55
21
-16.025
0
LINE
8
0
10
216.55
20
-3.025
11
216.55
21
-16.025
0
ARC
8
0
10
203.05
20
-3.025
40
0.5
50
90
51
180
0
ARC
8
0
10
216.05
20
-3.025
40
0.5
50
0
51
90
0
ARC
8
0
10
203.05
20
-16.025
40
0.5
50
180
51
270
0
ARC
8
0
10
216.05
20
-16.025
40
0.5
50
270
51
0
0
LINE
8
0
10
222.1
20
-2.525
11
235.1
21
-2.525
0
LINE
8
0
10
222.1
20
-16.525
11
235.1
21
-16.525
0
LINE
8
0
10
221.6
20
-3.025
11
221.6
21
-16.025
0
LINE
8
0
10
235.6
20
-3.025
11
235.6
21
-16.025
0
ARC
8
0
10
222.1
20
-3.025
40
0.5
50
90
51
180
0
ARC
8
0
10
235.1
20
-3.025
40
0.5
50
0
51
90
0
ARC
8
0
10
222.1
20
-16.025
40
0.5
50
180
51
270
0
ARC
8
0
10
235.1
20
-16.025
40
0.5
50
270
51
0
0
LINE
8
0
10
245.9125
20
-2.525
11
258.9125
21
-2.525
0
LINE
8
0
10
245.9125
20
-16.525
11
258.9125
21
-16.525
0
LINE
8
0
10
245.4125
20
-3.025
11
245.4125
21
-16.025
0
LINE
8
0
10
259.4125
20
-3.025
11
259.4125
21
-16.025
0
ARC
8
0
10
245.9125
20
-3.025
40
0.5
50
90
51
180
0
ARC
8
0
10
258.9125
20
-3.025
40
0.5
50
0
51
90
0
ARC
8
0
10
245.9125
20
-16.025
40
0.5
50
180
51
270
0
ARC
8
0
10
258.9125
20
-16.025
40
0.5
50
270
51
0
0
LINE
8
0
10
261.79375
20
-12.55
11
261.79375
21
-25.55
0
LINE
8
0
10
247.79375
20
-12.55
11
247.79375
21
-25.55
0
LINE
8
0
10
261.29375
20
-12.05
11
248.29375
21
-12.05
0
LINE
8
0
10
261.29375
20
-26.05
11
248.29375
21
-26.05
0
ARC
8
0
10
261.29375
20
-12.55
40
0.5
50
0
51
90
0
ARC
8
0
10
261.29375
20
-25.55
40
0.5
50
270
51
0
0
ARC
8
0
10
248.29375
20
-12.55
40
0.5
50
90
51
180
0
ARC
8
0
10
248.29375
20
-25.55
40
0.5
50
180
51
270
0
LINE
8
0
10
260.79375
20
-4.112
11
260.79375
21
-10.112
0
LINE
8
0
10
245.79375
20
-4.112
11
245.79375
21
-10.112
0
LINE
8
0
10
260.29375
20
-3.612
11
246.29375
21
-3.612
0
LINE
8
0
10
260.29375
20
-10.612
11
246.29375
21
-10.612
0
ARC
8
0
10
260.29375
20
-4.112
40
0.5
50
0
51
90
0
ARC
8
0
10
260.29375
20
-10.112
40
0.5
50
270
51
0
0
ARC
8
0
10
246.29375
20
-4.112
40
0.5
50
90
51
180
0
ARC
8
0
10
246.29375
20
-10.112
40
0.5
50
180
51
270
0
LINE
8
0
10
260.79375
20
-27.988
11
260.79375
21
-33.988
0
LINE
8
0
10
245.79375
20
-27.988
11
245.79375
21
-33.988
0
LINE
8
0
10
260.29375
20
-27.488
11
246.29375
21
-27.488
0
LINE
8
0
10
260.29375
20
-34.488
11
246.29375
21
-34.488
0
ARC
8
0
10
260.29375
20
-27.988
40
0.5
50
0
51
90
0
ARC
8
0
10
260.29375
20
-33.988
40
0.5
50
270
51
0
0
ARC
8
0
10
246.29375
20
-27.988
40
0.5
50
90
51
180
0
ARC
8
0
10
246.29375
20
-33.988
40
0.5
50
180
51
270
0
LINE
8
0
10
10.16875
20
-21.575
11
23.16875
21
-21.575
0
LINE
8
0
10
10.16875
20
-35.575
11
23.16875
21
-35.575
0
LINE
8
0
10
9.66875
20
-22.075
11
9.66875
21
-35.075
0
LINE
8
0
10
23.66875
20
-22.075
11
23.66875
21
-35.075
0
ARC
8
0
10
10.16875
20
-22.075
40
0.5
50
90
51
180
0
ARC
8
0
10
23.16875
20
-22.075
40
0.5
50
0
51
90
0
ARC
8
0
10
10.16875
20
-35.075
40
0.5
50
180
51
270
0
ARC
8
0
10
23.16875
20
-35.075
40
0.5
50
270
51
0
0
LINE
8
0
10
36.3625
20
-21.575
11
49.3625
21
-21.575
0
LINE
8
0
10
36.3625
20
-35.575
11
49.3625
21
-35.575
0
LINE
8
0
10
35.8625
20
-22.075
11
35.8625
21
-35.075
0
LINE
8
0
10
49.8625
20
-22.075
11
49.8625
21
-35.075
0
ARC
8
0
10
36.3625
20
-22.075
40
0.5
50
90
51
180
0
ARC
8
0
10
49.3625
20
-22.075
40
0.5
50
0
51
90
0
ARC
8
0
10
36.3625
20
-35.075
40
0.5
50
180
51
270
0
ARC
8
0
10
49.3625
20
-35.075
40
0.5
50
270
51
0
0
LINE
8
0
10
55.4125
20
-21.575
11
68.4125
21
-21.575
0
LINE
8
0
10
55.4125
20
-35.575
11
68.4125
21
-35.575
0
LINE
8
0
10
54.9125
20
-22.075
11
54.9125
21
-35.075
0
LINE
8
0
10
68.9125
20
-22.075
11
68.9125
21
-35.075
0
ARC
8
0
10
55.4125
20
-22.075
40
0.5
50
90
51
180
0
ARC
8
0
10
68.4125
20
-22.075
40
0.5
50
0
51
90
0
ARC
8
0
10
55.4125
20
-35.075
40
0.5
50
180
51
270
0
ARC
8
0
10
68.4125
20
-35.075
40
0.5
50
270
51
0
0
LINE
8
0
10
74.4625
20
-21.575
11
87.4625
21
-21.575
0
LINE
8
0
10
74.4625
20
-35.575
11
87.4625
21
-35.575
0
LINE
8
0
10
73.9625
20
-22.075
11
73.9625
21
-35.075
0
LINE
8
0
10
87.9625
20
-22.075
11
87.9625
21
-35.075
0
ARC
8
0
10
74.4625
20
-22.075
40
0.5
50
90
51
180
0
ARC
8
0
10
87.4625
20
-22.075
40
0.5
50
0
51
90
0
ARC
8
0
10
74.4625
20
-35.075
40
0.5
50
180
51
270
0
ARC
8
0
10
87.4625
20
-35.075
40
0.5
50
270
51
0
0
LINE
8
0
10
93.5125
20
-21.575
11
106.5125
21
-21.575
0
LINE
8
0
10
93.5125
20
-35.575
11
106.5125
21
-35.575
0
LINE
8
0
10
93.0125
20
-22.075
11
93.0125
21
-35.075
0
LINE
8
0
10
107.0125
20
-22.075
11
107.0125
21
-35.075
0
ARC
8
0
10
93.5125
20
-22.075
40
0.5
50
90
51
180
0
ARC
8
0
10
106.5125
20
-22.075
40
0.5
50
0
51
90
0
ARC
8
0
10
93.5125
20
-35.075
40
0.5
50
180
51
270
0
ARC
8
0
10
106.5125
20
-35.075
40
0.5
50
270
51
0
0
LINE
8
0
10
112.5625
20
-21.575
11
125.5625
21
-21.575
0
LINE
8
0
10
112.5625
20
-35.575
11
125.5625
21
-35.575
0
LINE
8
0
10
112.0625
20
-22.075
11
112.0625
21
-35.075
0
LINE
8
0
10
126.0625
20
-22.075
11
126.0625
21
-35.075
0
ARC
8
0
10
112.5625
20
-22.075
40
0.5
50
90
51
180
0
ARC
8
0
10
125.5625
20
-22.075
40
0.5
50
0
51
90
0
ARC
8
0
10
112.5625
20
-35.075
40
0.5
50
180
51
270
0
ARC
8
0
10
125.5625
20
-35.075
40
0.5
50
270
51
0
0
LINE
8
0
10
131.6125
20
-21.575
11
144.6125
21
-21.575
0
LINE
8
0
10
131.6125
20
-35.575
11
144.6125
21
-35.575
0
LINE
8
0
10
131.1125
20
-22.075
11
131.1125
21
-35.075
0
LINE
8
0
10
145.1125
20
-22.075
11
145.1125
21
-35.075
0
ARC
8
0
10
131.6125
20
-22.075
40
0.5
50
90
51
180
0
ARC
8
0
10
144.6125
20
-22.075
40
0.5
50
0
51
90
0
ARC
8
0
10
131.6125
20
-35.075
40
0.5
50
180
51
270
0
ARC
8
0
10
144.6125
20
-35.075
40
0.5
50
270
51
0
0
LINE
8
0
10
150.6625
20
-21.575
11
163.6625
21
-21.575
0
LINE
8
0
10
150.6625
20
-35.575
11
163.6625
21
-35.575
0
LINE
8
0
10
150.1625
20
-22.075
11
150.1625
21
-35.075
0
LINE
8
0
10
164.1625
20
-22.075
11
164.1625
21
-35.075
0
ARC
8
0
10
150.6625
20
-22.075
40
0.5
50
90
51
180
0
ARC
8
0
10
163.6625
20
-22.075
40
0.5
50
0
51
90
0
ARC
8
0
10
150.6625
20
-35.075
40
0.5
50
180
51
270
0
ARC
8
0
10
163.6625
20
-35.075
40
0.5
50
270
51
0
0
LINE
8
0
10
169.7125
20
-21.575
11
182.7125
21
-21.575
0
LINE
8
0
10
169.7125
20
-35.575
11
182.7125
21
-35.575
0
LINE
8
0
10
169.2125
20
-22.075
11
169.2125
21
-35.075
0
LINE
8
0
10
183.2125
20
-22.075
11
183.2125
21
-35.075
0
ARC
8
0
10
169.7125
20
-22.075
40
0.5
50
90
51
180
0
ARC
8
0
10
182.7125
20
-22.075
40
0.5
50
0
51
90
0
ARC
8
0
10
169.7125
20
-35.075
40
0.5
50
180
51
270
0
ARC
8
0
10
182.7125
20
-35.075
40
0.5
50
270
51
0
0
LINE
8
0
10
188.7625
20
-21.575
11
201.7625
21
-21.575
0
LINE
8
0
10
188.7625
20
-35.575
11
201.7625
21
-35.575
0
LINE
8
0
10
188.2625
20
-22.075
11
188.2625
21
-35.075
0
LINE
8
0
10
202.2625
20
-22.075
11
202.2625
21
-35.075
0
ARC
8
0
10
188.7625
20
-22.075
40
0.5
50
90
51
180
0
ARC
8
0
10
201.7625
20
-22.075
40
0.5
50
0
51
90
0
ARC
8
0
10
188.7625
20
-35.075
40
0.5
50
180
51
270
0
ARC
8
0
10
201.7625
20
-35.075
40
0.5
50
270
51
0
0
LINE
8
0
10
207.8125
20
-21.575
11
220.8125
21
-21.575
0
LINE
8
0
10
207.8125
20
-35.575
11
220.8125
21
-35.575
0
LINE
8
0
10
207.3125
20
-22.075
11
207.3125
21
-35.075
0
LINE
8
0
10
221.3125
20
-22.075
11
221.3125
21
-35.075
0
ARC
8
0
10
207.8125
20
-22.075
40
0.5
50
90
51
180
0
ARC
8
0
10
220.8125
20
-22.075
40
0.5
50
0
51
90
0
ARC
8
0
10
207.8125
20
-35.075
40
0.5
50
180
51
270
0
ARC
8
0
10
220.8125
20
-35.075
40
0.5
50
270
51
0
0
LINE
8
0
10
238.76875
20
-21.575
11
251.76875
21
-21.575
0
LINE
8
0
10
238.76875
20
-35.575
11
251.76875
21
-35.575
0
LINE
8
0
10
238.26875
20
-22.075
11
238.26875
21
-35.075
0
LINE
8
0
10
252.26875
20
-22.075
11
252.26875
21
-35.075
0
ARC
8
0
10
238.76875
20
-22.075
40
0.5
50
90
51
180
0
ARC
8
0
10
251.76875
20
-22.075
40
0.5
50
0
51
90
0
ARC
8
0
10
238.76875
20
-35.075
40
0.5
50
180
51
270
0
ARC
8
0
10
251.76875
20
-35.075
40
0.5
50
270
51
0
0
LINE
8
0
10
230.33075
20
-22.575
11
236.33075
21
-22.575
0
LINE
8
0
10
230.33075
20
-37.575
11
236.33075
21
-37.575
0
LINE
8
0
10
229.83075
20
-23.075
11
229.83075
21
-37.075
0
LINE
8
0
10
236.83075
20
-23.075
11
236.83075
21
-37.075
0
ARC
8
0
10
230.33075
20
-23.075
40
0.5
50
90
51
180
0
ARC
8
0
10
236.33075
20
-23.075
40
0.5
50
0
51
90
0
ARC
8
0
10
230.33075
20
-37.075
40
0.5
50
180
51
270
0
ARC
8
0
10
236.33075
20
-37.075
40
0.5
50
270
51
0
0
LINE
8
0
10
254.20675
20
-22.575
11
260.20675
21
-22.575
0
LINE
8
0
10
254.20675
20
-37.575
11
260.20675
21
-37.575
0
LINE
8
0
10
253.70675
20
-23.075
11
253.70675
21
-37.075
0
LINE
8
0
10
260.70675
20
-23.075
11
260.70675
21
-37.075
0
ARC
8
0
10
254.20675
20
-23.075
40
0.5
50
90
51
180
0
ARC
8
0
10
260.20675
20
-23.075
40
0.5
50
0
51
90
0
ARC
8
0
10
254.20675
20
-37.075
40
0.5
50
180
51
270
0
ARC
8
0
10
260.20675
20
-37.075
40
0.5
50
270
51
0
0
LINE
8
0
10
226.8625
20
-21.575
11
239.8625
21
-21.575
0
LINE
8
0
10
226.8625
20
-35.575
11
239.8625
21
-35.575
0
LINE
8
0
10
226.3625
20
-22.075
11
226.3625
21
-35.075
0
LINE
8
0
10
240.3625
20
-22.075
11
240.3625
21
-35.075
0
ARC
8
0
10
226.8625
20
-22.075
40
0.5
50
90
51
180
0
ARC
8
0
10
239.8625
20
-22.075
40
0.5
50
0
51
90
0
ARC
8
0
10
226.8625
20
-35.075
40
0.5
50
180
51
270
0
ARC
8
0
10
239.8625
20
-35.075
40
0.5
50
270
51
0
0
LINE
8
0
10
14.93125
20
-40.625
11
27.93125
21
-40.625
0
LINE
8
0
10
14.93125
20
-54.625
11
27.93125
21
-54.625
0
LINE
8
0
10
14.43125
20
-41.125
11
14.43125
21
-54.125
0
LINE
8
0
10
28.43125
20
-41.125
11
28.43125
21
-54.125
0
ARC
8
0
10
14.93125
20
-41.125
40
0.5
50
90
51
180
0
ARC
8
0
10
27.93125
20
-41.125
40
0.5
50
0
51
90
0
ARC
8
0
10
14.93125
20
-54.125
40
0.5
50
180
51
270
0
ARC
8
0
10
27.93125
20
-54.125
40
0.5
50
270
51
0
0
LINE
8
0
10
6.49325
20
-41.625
11
12.49325
21
-41.625
0
LINE
8
0
10
6.49325
20
-56.625
11
12.49325
21
-56.625
0
LINE
8
0
10
5.99325
20
-42.125
11
5.99325
21
-56.125
0
LINE
8
0
10
12.99325
20
-42.125
11
12.99325
21
-56.125
0
ARC
8
0
10
6.49325
20
-42.125
40
0.5
50
90
51
180
0
ARC
8
0
10
12.49325
20
-42.125
40
0.5
50
0
51
90
0
ARC
8
0
10
6.49325
20
-56.125
40
0.5
50
180
51
270
0
ARC
8
0
10
12.49325
20
-56.125
40
0.5
50
270
51
0
0
LINE
8
0
10
30.36925
20
-41.625
11
36.36925
21
-41.625
0
LINE
8
0
10
30.36925
20
-56.625
11
36.36925
21
-56.625
0
LINE
8
0
10
29.86925
20
-42.125
11
29.86925
21
-56.125
0
LINE
8
0
10
36.86925
20
-42.125
11
36.86925
21
-56.125
0
ARC
8
0
10
30.36925
20
-42.125
40
0.5
50
90
51
180
0
ARC
8
0
10
36.36925
20
-42.125
40
0.5
50
0
51
90
0
ARC
8
0
10
30.36925
20
-56.125
40
0.5
50
180
51
270
0
ARC
8
0
10
36.36925
20
-56.125
40
0.5
50
270
51
0
0
LINE
8
0
10
45.8875
20
-40.625
11
58.8875
21
-40.625
0
LINE
8
0
10
45.8875
20
-54.625
11
58.8875
21
-54.625
0
LINE
8
0
10
45.3875
20
-41.125
11
45.3875
21
-54.125
0
LINE
8
0
10
59.3875
20
-41.125
11
59.3875
21
-54.125
0
ARC
8
0
10
45.8875
20
-41.125
40
0.5
50
90
51
180
0
ARC
8
0
10
58.8875
20
-41.125
40
0.5
50
0
51
90
0
ARC
8
0
10
45.8875
20
-54.125
40
0.5
50
180
51
270
0
ARC
8
0
10
58.8875
20
-54.125
40
0.5
50
270
51
0
0
LINE
8
0
10
64.9375
20
-40.625
11
77.9375
21
-40.625
0
LINE
8
0
10
64.9375
20
-54.625
11
77.9375
21
-54.625
0
LINE
8
0
10
64.4375
20
-41.125
11
64.4375
21
-54.125
0
LINE
8
0
10
78.4375
20
-41.125
11
78.4375
21
-54.125
0
ARC
8
0
10
64.9375
20
-41.125
40
0.5
50
90
51
180
0
ARC
8
0
10
77.9375
20
-41.125
40
0.5
50
0
51
90
0
ARC
8
0
10
64.9375
20
-54.125
40
0.5
50
180
51
270
0
ARC
8
0
10
77.9375
20
-54.125
40
0.5
50
270
51
0
0
LINE
8
0
10
83.9875
20
-40.625
11
96.9875
21
-40.625
0
LINE
8
0
10
83.9875
20
-54.625
11
96.9875
21
-54.625
0
LINE
8
0
10
83.4875
20
-41.125
11
83.4875
21
-54.125
0
LINE
8
0
10
97.4875
20
-41.125
11
97.4875
21
-54.125
0
ARC
8
0
10
83.9875
20
-41.125
40
0.5
50
90
51
180
0
ARC
8
0
10
96.9875
20
-41.125
40
0.5
50
0
51
90
0
ARC
8
0
10
83.9875
20
-54.125
40
0.5
50
180
51
270
0
ARC
8
0
10
96.9875
20
-54.125
40
0.5
50
270
51
0
0
LINE
8
0
10
103.0375
20
-40.625
11
116.0375
21
-40.625
0
LINE
8
0
10
103.0375
20
-54.625
11
116.0375
21
-54.625
0
LINE
8
0
10
102.5375
20
-41.125
11
102.5375
21
-54.125
0
LINE
8
0
10
116.5375
20
-41.125
11
116.5375
21
-54.125
0
ARC
8
0
10
103.0375
20
-41.125
40
0.5
50
90
51
180
0
ARC
8
0
10
116.0375
20
-41.125
40
0.5
50
0
51
90
0
ARC
8
0
10
103.0375
20
-54.125
40
0.5
50
180
51
270
0
ARC
8
0
10
116.0375
20
-54.125
40
0.5
50
270
51
0
0
LINE
8
0
10
122.0875
20
-40.625
11
135.0875
21
-40.625
0
LINE
8
0
10
122.0875
20
-54.625
11
135.0875
21
-54.625
0
LINE
8
0
10
121.5875
20
-41.125
11
121.5875
21
-54.125
0
LINE
8
0
10
135.5875
20
-41.125
11
135.5875
21
-54.125
0
ARC
8
0
10
122.0875
20
-41.125
40
0.5
50
90
51
180
0
ARC
8
0
10
135.0875
20
-41.125
40
0.5
50
0
51
90
0
ARC
8
0
10
122.0875
20
-54.125
40
0.5
50
180
51
270
0
ARC
8
0
10
135.0875
20
-54.125
40
0.5
50
270
51
0
0
LINE
8
0
10
141.1375
20
-40.625
11
154.1375
21
-40.625
0
LINE
8
0
10
141.1375
20
-54.625
11
154.1375
21
-54.625
0
LINE
8
0
10
140.6375
20
-41.125
11
140.6375
21
-54.125
0
LINE
8
0
10
154.6375
20
-41.125
11
154.6375
21
-54.125
0
ARC
8
0
10
141.1375
20
-41.125
40
0.5
50
90
51
180
0
ARC
8
0
10
154.1375
20
-41.125
40
0.5
50
0
51
90
0
ARC
8
0
10
141.1375
20
-54.125
40
0.5
50
180
51
270
0
ARC
8
0
10
154.1375
20
-54.125
40
0.5
50
270
51
0
0
LINE
8
0
10
160.1875
20
-40.625
11
173.1875
21
-40.625
0
LINE
8
0
10
160.1875
20
-54.625
11
173.1875
21
-54.625
0
LINE
8
0
10
159.6875
20
-41.125
11
159.6875
21
-54.125
0
LINE
8
0
10
173.6875
20
-41.125
11
173.6875
21
-54.125
0
ARC
8
0
10
160.1875
20
-41.125
40
0.5
50
90
51
180
0
ARC
8
0
10
173.1875
20
-41.125
40
0.5
50
0
51
90
0
ARC
8
0
10
160.1875
20
-54.125
40
0.5
50
180
51
270
0
ARC
8
0
10
173.1875
20
-54.125
40
0.5
50
270
51
0
0
LINE
8
0
10
179.2375
20
-40.625
11
192.2375
21
-40.625
0
LINE
8
0
10
179.2375
20
-54.625
11
192.2375
21
-54.625
0
LINE
8
0
10
178.7375
20
-41.125
11
178.7375
21
-54.125
0
LINE
8
0
10
192.7375
20
-41.125
11
192.7375
21
-54.125
0
ARC
8
0
10
179.2375
20
-41.125
40
0.5
50
90
51
180
0
ARC
8
0
10
192.2375
20
-41.125
40
0.5
50
0
51
90
0
ARC
8
0
10
179.2375
20
-54.125
40
0.5
50
180
51
270
0
ARC
8
0
10
192.2375
20
-54.125
40
0.5
50
270
51
0
0
LINE
8
0
10
198.2875
20
-40.625
11
211.2875
21
-40.625
0
LINE
8
0
10
198.2875
20
-54.625
11
211.2875
21
-54.625
0
LINE
8
0
10
197.7875
20
-41.125
11
197.7875
21
-54.125
0
LINE
8
0
10
211.7875
20
-41.125
11
211.7875
21
-54.125
0
ARC
8
0
10
198.2875
20
-41.125
40
0.5
50
90
51
180
0
ARC
8
0
10
211.2875
20
-41.125
40
0.5
50
0
51
90
0
ARC
8
0
10
198.2875
20
-54.125
40
0.5
50
180
51
270
0
ARC
8
0
10
211.2875
20
-54.125
40
0.5
50
270
51
0
0
LINE
8
0
10
217.3375
20
-40.625
11
230.3375
21
-40.625
0
LINE
8
0
10
217.3375
20
-54.625
11
230.3375
21
-54.625
0
LINE
8
0
10
216.8375
20
-41.125
11
216.8375
21
-54.125
0
LINE
8
0
10
230.8375
20
-41.125
11
230.8375
21
-54.125
0
ARC
8
0
10
217.3375
20
-41.125
40
0.5
50
90
51
180
0
ARC
8
0
10
230.3375
20
-41.125
40
0.5
50
0
51
90
0
ARC
8
0
10
217.3375
20
-54.125
40
0.5
50
180
51
270
0
ARC
8
0
10
230.3375
20
-54.125
40
0.5
50
270
51
0
0
LINE
8
0
10
243.53125
20
-40.625
11
256.53125
21
-40.625
0
LINE
8
0
10
243.53125
20
-54.625
11
256.53125
21
-54.625
0
LINE
8
0
10
243.03125
20
-41.125
11
243.03125
21
-54.125
0
LINE
8
0
10
257.03125
20
-41.125
11
257.03125
21
-54.125
0
ARC
8
0
10
243.53125
20
-41.125
40
0.5
50
90
51
180
0
ARC
8
0
10
256.53125
20
-41.125
40
0.5
50
0
51
90
0
ARC
8
0
10
243.53125
20
-54.125
40
0.5
50
180
51
270
0
ARC
8
0
10
256.53125
20
-54.125
40
0.5
50
270
51
0
0
LINE
8
0
10
26.8375
20
-59.675
11
39.8375
21
-59.675
0
LINE
8
0
10
26.8375
20
-73.675
11
39.8375
21
-73.675
0
LINE
8
0
10
26.3375
20
-60.175
11
26.3375
21
-73.175
0
LINE
8
0
10
40.3375
20
-60.175
11
40.3375
21
-73.175
0
ARC
8
0
10
26.8375
20
-60.175
40
0.5
50
90
51
180
0
ARC
8
0
10
39.8375
20
-60.175
40
0.5
50
0
51
90
0
ARC
8
0
10
26.8375
20
-73.175
40
0.5
50
180
51
270
0
ARC
8
0
10
39.8375
20
-73.175
40
0.5
50
270
51
0
0
LINE
8
0
10
50.65
20
-59.675
11
63.65
21
-59.675
0
LINE
8
0
10
50.65
20
-73.675
11
63.65
21
-73.675
0
LINE
8
0
10
50.15
20
-60.175
11
50.15
21
-73.175
0
LINE
8
0
10
64.15
20
-60.175
11
64.15
21
-73.175
0
ARC
8
0
10
50.65
20
-60.175
40
0.5
50
90
51
180
0
ARC
8
0
10
63.65
20
-60.175
40
0.5
50
0
51
90
0
ARC
8
0
10
50.65
20
-73.175
40
0.5
50
180
51
270
0
ARC
8
0
10
63.65
20
-73.175
40
0.5
50
270
51
0
0
LINE
8
0
10
124.46875
20
-59.675
11
137.46875
21
-59.675
0
LINE
8
0
10
124.46875
20
-73.675
11
137.46875
21
-73.675
0
LINE
8
0
10
123.96875
20
-60.175
11
123.96875
21
-73.175
0
LINE
8
0
10
137.96875
20
-60.175
11
137.96875
21
-73.175
0
ARC
8
0
10
124.46875
20
-60.175
40
0.5
50
90
51
180
0
ARC
8
0
10
137.46875
20
-60.175
40
0.5
50
0
51
90
0
ARC
8
0
10
124.46875
20
-73.175
40
0.5
50
180
51
270
0
ARC
8
0
10
137.46875
20
-73.175
40
0.5
50
270
51
0
0
LINE
8
0
10
183.96875
20
-72.675
11
177.96875
21
-72.675
0
LINE
8
0
10
183.96875
20
-57.675
11
177.96875
21
-57.675
0
LINE
8
0
10
184.46875
20
-72.175
11
184.46875
21
-58.175
0
LINE
8
0
10
177.46875
20
-72.175
11
177.46875
21
-58.175
0
ARC
8
0
10
183.96875
20
-72.175
40
0.5
50
270
51
0
0
ARC
8
0
10
177.96875
20
-72.175
40
0.5
50
180
51
270
0
ARC
8
0
10
183.96875
20
-58.175
40
0.5
50
0
51
90
0
ARC
8
0
10
177.96875
20
-58.175
40
0.5
50
90
51
180
0
LINE
8
0
10
83.96875
20
-72.675
11
77.96875
21
-72.675
0
LINE
8
0
10
83.96875
20
-57.675
11
77.96875
21
-57.675
0
LINE
8
0
10
84.46875
20
-72.175
11
84.46875
21
-58.175
0
LINE
8
0
10
77.46875
20
-72.175
11
77.46875
21
-58.175
0
ARC
8
0
10
83.96875
20
-72.175
40
0.5
50
270
51
0
0
ARC
8
0
10
77.96875
20
-72.175
40
0.5
50
180
51
270
0
ARC
8
0
10
83.96875
20
-58.175
40
0.5
50
0
51
90
0
ARC
8
0
10
77.96875
20
-58.175
40
0.5
50
90
51
180
0
LINE
8
0
10
74.4625
20
-59.675
11
87.4625
21
-59.675
0
LINE
8
0
10
74.4625
20
-73.675
11
87.4625
21
-73.675
0
LINE
8
0
10
73.9625
20
-60.175
11
73.9625
21
-73.175
0
LINE
8
0
10
87.9625
20
-60.175
11
87.9625
21
-73.175
0
ARC
8
0
10
74.4625
20
-60.175
40
0.5
50
90
51
180
0
ARC
8
0
10
87.4625
20
-60.175
40
0.5
50
0
51
90
0
ARC
8
0
10
74.4625
20
-73.175
40
0.5
50
180
51
270
0
ARC
8
0
10
87.4625
20
-73.175
40
0.5
50
270
51
0
0
LINE
8
0
10
103.0375
20
-59.675
11
116.0375
21
-59.675
0
LINE
8
0
10
103.0375
20
-73.675
11
116.0375
21
-73.675
0
LINE
8
0
10
102.5375
20
-60.175
11
102.5375
21
-73.175
0
LINE
8
0
10
116.5375
20
-60.175
11
116.5375
21
-73.175
0
ARC
8
0
10
103.0375
20
-60.175
40
0.5
50
90
51
180
0
ARC
8
0
10
116.0375
20
-60.175
40
0.5
50
0
51
90
0
ARC
8
0
10
103.0375
20
-73.175
40
0.5
50
180
51
270
0
ARC
8
0
10
116.0375
20
-73.175
40
0.5
50
270
51
0
0
LINE
8
0
10
124.4755
20
-72.675
11
118.4755
21
-72.675
0
LINE
8
0
10
124.4755
20
-57.675
11
118.4755
21
-57.675
0
LINE
8
0
10
124.9755
20
-72.175
11
124.9755
21
-58.175
0
LINE
8
0
10
117.9755
20
-72.175
11
117.9755
21
-58.175
0
ARC
8
0
10
124.4755
20
-72.175
40
0.5
50
270
51
0
0
ARC
8
0
10
118.4755
20
-72.175
40
0.5
50
180
51
270
0
ARC
8
0
10
124.4755
20
-58.175
40
0.5
50
0
51
90
0
ARC
8
0
10
118.4755
20
-58.175
40
0.5
50
90
51
180
0
LINE
8
0
10
100.5995
20
-72.675
11
94.5995
21
-72.675
0
LINE
8
0
10
100.5995
20
-57.675
11
94.5995
21
-57.675
0
LINE
8
0
10
101.0995
20
-72.175
11
101.0995
21
-58.175
0
LINE
8
0
10
94.0995
20
-72.175
11
94.0995
21
-58.175
0
ARC
8
0
10
100.5995
20
-72.175
40
0.5
50
270
51
0
0
ARC
8
0
10
94.5995
20
-72.175
40
0.5
50
180
51
270
0
ARC
8
0
10
100.5995
20
-58.175
40
0.5
50
0
51
90
0
ARC
8
0
10
94.5995
20
-58.175
40
0.5
50
90
51
180
0
LINE
8
0
10
143.51875
20
-59.675
11
156.51875
21
-59.675
0
LINE
8
0
10
143.51875
20
-73.675
11
156.51875
21
-73.675
0
LINE
8
0
10
143.01875
20
-60.175
11
143.01875
21
-73.175
0
LINE
8
0
10
157.01875
20
-60.175
11
157.01875
21
-73.175
0
ARC
8
0
10
143.51875
20
-60.175
40
0.5
50
90
51
180
0
ARC
8
0
10
156.51875
20
-60.175
40
0.5
50
0
51
90
0
ARC
8
0
10
143.51875
20
-73.175
40
0.5
50
180
51
270
0
ARC
8
0
10
156.51875
20
-73.175
40
0.5
50
270
51
0
0
LINE
8
0
10
164.95675
20
-72.675
11
158.95675
21
-72.675
0
LINE
8
0
10
164.95675
20
-57.675
11
158.95675
21
-57.675
0
LINE
8
0
10
165.45675
20
-72.175
11
165.45675
21
-58.175
0
LINE
8
0
10
158.45675
20
-72.175
11
158.45675
21
-58.175
0
ARC
8
0
10
164.95675
20
-72.175
40
0.5
50
270
51
0
0
ARC
8
0
10
158.95675
20
-72.175
40
0.5
50
180
51
270
0
ARC
8
0
10
164.95675
20
-58.175
40
0.5
50
0
51
90
0
ARC
8
0
10
158.95675
20
-58.175
40
0.5
50
90
51
180
0
LINE
8
0
10
141.08075
20
-72.675
11
135.08075
21
-72.675
0
LINE
8
0
10
141.08075
20
-57.675
11
135.08075
21
-57.675
0
LINE
8
0
10
141.58075
20
-72.175
11
141.58075
21
-58.175
0
LINE
8
0
10
134.58075
20
-72.175
11
134.58075
21
-58.175
0
ARC
8
0
10
141.08075
20
-72.175
40
0.5
50
270
51
0
0
ARC
8
0
10
135.08075
20
-72.175
40
0.5
50
180
51
270
0
ARC
8
0
10
141.08075
20
-58.175
40
0.5
50
0
51
90
0
ARC
8
0
10
135.08075
20
-58.175
40
0.5
50
90
51
180
0
LINE
8
0
10
174.475
20
-59.675
11
187.475
21
-59.675
0
LINE
8
0
10
174.475
20
-73.675
11
187.475
21
-73.675
0
LINE
8
0
10
173.975
20
-60.175
11
173.975
21
-73.175
0
LINE
8
0
10
187.975
20
-60.175
11
187.975
21
-73.175
0
ARC
8
0
10
174.475
20
-60.175
40
0.5
50
90
51
180
0
ARC
8
0
10
187.475
20
-60.175
40
0.5
50
0
51
90
0
ARC
8
0
10
174.475
20
-73.175
40
0.5
50
180
51
270
0
ARC
8
0
10
187.475
20
-73.175
40
0.5
50
270
51
0
0
LINE
8
0
10
198.2875
20
-59.675
11
211.2875
21
-59.675
0
LINE
8
0
10
198.2875
20
-73.675
11
211.2875
21
-73.675
0
LINE
8
0
10
197.7875
20
-60.175
11
197.7875
21
-73.175
0
LINE
8
0
10
211.7875
20
-60.175
11
211.7875
21
-73.175
0
ARC
8
0
10
198.2875
20
-60.175
40
0.5
50
90
51
180
0
ARC
8
0
10
211.2875
20
-60.175
40
0.5
50
0
51
90
0
ARC
8
0
10
198.2875
20
-73.175
40
0.5
50
180
51
270
0
ARC
8
0
10
211.2875
20
-73.175
40
0.5
50
270
51
0
0
LINE
8
0
10
222.1
20
-59.675
11
235.1
21
-59.675
0
LINE
8
0
10
222.1
20
-73.675
11
235.1
21
-73.675
0
LINE
8
0
10
221.6
20
-60.175
11
221.6
21
-73.175
0
LINE
8
0
10
235.6
20
-60.175
11
235.6
21
-73.175
0
ARC
8
0
10
222.1
20
-60.175
40
0.5
50
90
51
180
0
ARC
8
0
10
235.1
20
-60.175
40
0.5
50
0
51
90
0
ARC
8
0
10
222.1
20
-73.175
40
0.5
50
180
51
270
0
ARC
8
0
10
235.1
20
-73.175
40
0.5
50
270
51
0
0
LINE
8
0
10
0
20
-76.2
11
266.7
21
-76.2
0
LINE
8
0
10
0
20
0
11
266.7
21
0
0
LINE
8
0
10
0
20
-76.2
11
0
21
0
0
LINE
8
0
10
266.7
20
-76.2
11
266.7
21
0
0
ENDSEC
0
EOF